<?xml version="1.0" standalone="no"?>
 <!DOCTYPE svg PUBLIC "-//W3C//DTD SVG 1.1//EN" 
 "http://www.w3.org/Graphics/SVG/1.1/DTD/svg11.dtd"> 
<svg
  xmlns:svg="http://www.w3.org/2000/svg"
  xmlns="http://www.w3.org/2000/svg"
  xmlns:xlink="http://www.w3.org/1999/xlink"
  version="1.1"
  width="59.400440cm" height="41.998900cm" viewBox="0 0 233860 165350">
<title>SVG Picture created as mosfet_pwm.svg date 2021/07/06 20:29:07 </title>
  <desc>Picture generated by Eeschema-SVG </desc>
<g style="fill:#000000; fill-opacity:1;stroke:#000000; stroke-opacity:1;
stroke-linecap:round; stroke-linejoin:round;"
 transform="translate(0 0) scale(1 1)">
</g>
<g style="fill:#000000; fill-opacity:0.0; 
stroke:#000000; stroke-width:0; stroke-opacity:1; 
stroke-linecap:round; stroke-linejoin:round;">
<g >
</g>
<g style="fill:#840000; fill-opacity:0.0; 
stroke:#840000; stroke-width:0; stroke-opacity:1; 
stroke-linecap:round; stroke-linejoin:round;">
</g>
<g style="fill:#840000; fill-opacity:0.0; 
stroke:#840000; stroke-width:100; stroke-opacity:1; 
stroke-linecap:round; stroke-linejoin:round;">
<rect x="104100" y="63000" width="800" height="2000" rx="0" />
</g>
<g style="fill:#840000; fill-opacity:0.0; 
stroke:#840000; stroke-width:60; stroke-opacity:1; 
stroke-linecap:round; stroke-linejoin:round;">
<path d="M104500 63000
L104500 62500
" />
<path d="M104500 65000
L104500 65500
" />
</g>
<g style="fill:#008484; fill-opacity:0.0; 
stroke:#008484; stroke-width:60; stroke-opacity:1; 
stroke-linecap:round; stroke-linejoin:round;">
<text x="105930" y="63810"
textLength="1510" font-size="660" lengthAdjust="spacingAndGlyphs"
text-anchor="middle" opacity="0">R10</text>
<path d="M105600 63780
L105440 63540
" />
<path d="M105320 63780
L105320 63280
L105510 63280
L105560 63310
L105580 63330
L105600 63380
L105600 63450
L105580 63500
L105560 63520
L105510 63540
L105320 63540
" />
<path d="M106080 63780
L105790 63780
" />
<path d="M105940 63780
L105940 63280
L105890 63350
L105840 63400
L105790 63420
" />
<path d="M106390 63280
L106440 63280
L106480 63310
L106510 63330
L106530 63380
L106560 63470
L106560 63590
L106530 63690
L106510 63730
L106480 63760
L106440 63780
L106390 63780
L106340 63760
L106320 63730
L106290 63690
L106270 63590
L106270 63470
L106290 63380
L106320 63330
L106340 63310
L106390 63280
" />
<text x="105890" y="64720"
textLength="1420" font-size="660" lengthAdjust="spacingAndGlyphs"
text-anchor="middle" opacity="0">10k</text>
<path d="M105590 64690
L105300 64690
" />
<path d="M105440 64690
L105440 64190
L105400 64260
L105350 64310
L105300 64330
" />
<path d="M105900 64190
L105940 64190
L105990 64220
L106020 64240
L106040 64290
L106060 64380
L106060 64500
L106040 64600
L106020 64640
L105990 64670
L105940 64690
L105900 64690
L105850 64670
L105830 64640
L105800 64600
L105780 64500
L105780 64380
L105800 64290
L105830 64240
L105850 64220
L105900 64190
" />
<path d="M106280 64690
L106280 64190
" />
<path d="M106330 64500
L106470 64690
" />
<path d="M106470 64360
L106280 64550
" />
</g>
</g>
<g style="fill:#008484; fill-opacity:0.0; 
stroke:#008484; stroke-width:0; stroke-opacity:1; 
stroke-linecap:round; stroke-linejoin:round;">
<g >
</g>
<g style="fill:#840000; fill-opacity:0.0; 
stroke:#840000; stroke-width:0; stroke-opacity:1; 
stroke-linecap:round; stroke-linejoin:round;">
</g>
<g style="fill:#840000; fill-opacity:0.0; 
stroke:#840000; stroke-width:100; stroke-opacity:1; 
stroke-linecap:round; stroke-linejoin:round;">
<rect x="126600" y="58500" width="800" height="2000" rx="0" />
</g>
<g style="fill:#840000; fill-opacity:0.0; 
stroke:#840000; stroke-width:60; stroke-opacity:1; 
stroke-linecap:round; stroke-linejoin:round;">
<path d="M127000 58500
L127000 58000
" />
<path d="M127000 60500
L127000 61000
" />
</g>
<g style="fill:#008484; fill-opacity:0.0; 
stroke:#008484; stroke-width:60; stroke-opacity:1; 
stroke-linecap:round; stroke-linejoin:round;">
<text x="128200" y="59310"
textLength="1040" font-size="660" lengthAdjust="spacingAndGlyphs"
text-anchor="middle" opacity="0">R1</text>
<path d="M128110 59280
L127950 59040
" />
<path d="M127830 59280
L127830 58780
L128020 58780
L128060 58810
L128090 58830
L128110 58880
L128110 58950
L128090 59000
L128060 59020
L128020 59040
L127830 59040
" />
<path d="M128590 59280
L128300 59280
" />
<path d="M128450 59280
L128450 58780
L128400 58850
L128350 58900
L128300 58920
" />
<text x="128510" y="60220"
textLength="1660" font-size="660" lengthAdjust="spacingAndGlyphs"
text-anchor="middle" opacity="0">2,2k</text>
<path d="M127800 59740
L127830 59720
L127870 59690
L127990 59690
L128040 59720
L128060 59740
L128090 59790
L128090 59830
L128060 59910
L127780 60190
L128090 60190
" />
<path d="M128330 60170
L128330 60190
L128300 60240
L128280 60260
" />
<path d="M128520 59740
L128540 59720
L128590 59690
L128710 59690
L128760 59720
L128780 59740
L128800 59790
L128800 59830
L128780 59910
L128490 60190
L128800 60190
" />
<path d="M129020 60190
L129020 59690
" />
<path d="M129060 60000
L129210 60190
" />
<path d="M129210 59860
L129020 60050
" />
</g>
</g>
<g style="fill:#008484; fill-opacity:0.0; 
stroke:#008484; stroke-width:0; stroke-opacity:1; 
stroke-linecap:round; stroke-linejoin:round;">
<g >
</g>
<g style="fill:#840000; fill-opacity:0.0; 
stroke:#840000; stroke-width:0; stroke-opacity:1; 
stroke-linecap:round; stroke-linejoin:round;">
</g>
<g style="fill:#840000; fill-opacity:0.0; 
stroke:#840000; stroke-width:100; stroke-opacity:1; 
stroke-linecap:round; stroke-linejoin:round;">
<path style="fill:#840000; fill-opacity:0.0; 
stroke:#840000; stroke-width:100; stroke-opacity:1; 
stroke-linecap:round; stroke-linejoin:round;fill:none"
d="M 127500,63500
126500,63500
" /> 
</g>
<g style="fill:#840000; fill-opacity:0.0; 
stroke:#840000; stroke-width:60; stroke-opacity:1; 
stroke-linecap:round; stroke-linejoin:round;">
<path style="fill:#840000; fill-opacity:0.0; 
stroke:#840000; stroke-width:60; stroke-opacity:1; 
stroke-linecap:round; stroke-linejoin:round;fill:none"
d="M 127000,63500
127000,62500
" /> 
</g>
<g style="fill:#840000; fill-opacity:0.0; 
stroke:#840000; stroke-width:100; stroke-opacity:1; 
stroke-linecap:round; stroke-linejoin:round;">
<path style="fill:#840000; fill-opacity:0.0; 
stroke:#840000; stroke-width:100; stroke-opacity:1; 
stroke-linecap:round; stroke-linejoin:round;fill:none"
d="M 127500,62500
126500,62500
127000,63500
Z" /> 
</g>
<g style="fill:#840000; fill-opacity:0.0; 
stroke:#840000; stroke-width:60; stroke-opacity:1; 
stroke-linecap:round; stroke-linejoin:round;">
<path style="fill:#840000; fill-opacity:0.0; 
stroke:#840000; stroke-width:60; stroke-opacity:1; 
stroke-linecap:round; stroke-linejoin:round;fill:none"
d="M 127300,64200
127900,64800
127900,64500
127900,64800
127600,64800
" /> 
<path style="fill:#840000; fill-opacity:0.0; 
stroke:#840000; stroke-width:60; stroke-opacity:1; 
stroke-linecap:round; stroke-linejoin:round;fill:none"
d="M 127300,63700
127900,64300
127900,64000
127900,64300
127600,64300
" /> 
<path d="M127000 63500
L127000 64500
" />
<path d="M127000 62500
L127000 61500
" />
</g>
<g style="fill:#008484; fill-opacity:0.0; 
stroke:#008484; stroke-width:60; stroke-opacity:1; 
stroke-linecap:round; stroke-linejoin:round;">
<text x="128700" y="62830"
textLength="1040" font-size="660" lengthAdjust="spacingAndGlyphs"
text-anchor="middle" opacity="0">D1</text>
<path d="M128330 62800
L128330 62300
L128450 62300
L128520 62330
L128560 62370
L128590 62420
L128610 62520
L128610 62590
L128590 62680
L128560 62730
L128520 62780
L128450 62800
L128330 62800
" />
<path d="M129090 62800
L128800 62800
" />
<path d="M128950 62800
L128950 62300
L128900 62370
L128850 62420
L128800 62440
" />
<text x="130990" y="63740"
textLength="5630" font-size="660" lengthAdjust="spacingAndGlyphs"
text-anchor="middle" opacity="0">LTL-42NGY8D </text>
<path d="M128560 63710
L128320 63710
L128320 63210
" />
<path d="M128650 63210
L128940 63210
" />
<path d="M128790 63710
L128790 63210
" />
<path d="M129340 63710
L129100 63710
L129100 63210
" />
<path d="M129510 63520
L129890 63520
" />
<path d="M130340 63380
L130340 63710
" />
<path d="M130220 63190
L130100 63540
L130410 63540
" />
<path d="M130580 63260
L130600 63240
L130650 63210
L130770 63210
L130820 63240
L130840 63260
L130870 63310
L130870 63350
L130840 63430
L130560 63710
L130870 63710
" />
<path d="M131080 63710
L131080 63210
L131370 63710
L131370 63210
" />
<path d="M131870 63240
L131820 63210
L131750 63210
L131680 63240
L131630 63280
L131600 63330
L131580 63430
L131580 63500
L131600 63590
L131630 63640
L131680 63690
L131750 63710
L131790 63710
L131870 63690
L131890 63660
L131890 63500
L131790 63500
" />
<path d="M132200 63470
L132200 63710
" />
<path d="M132030 63210
L132200 63470
L132370 63210
" />
<path d="M132600 63430
L132560 63400
L132530 63380
L132510 63330
L132510 63310
L132530 63260
L132560 63240
L132600 63210
L132700 63210
L132750 63240
L132770 63260
L132790 63310
L132790 63330
L132770 63380
L132750 63400
L132700 63430
L132600 63430
L132560 63450
L132530 63470
L132510 63520
L132510 63620
L132530 63660
L132560 63690
L132600 63710
L132700 63710
L132750 63690
L132770 63660
L132790 63620
L132790 63520
L132770 63470
L132750 63450
L132700 63430
" />
<path d="M133010 63710
L133010 63210
L133130 63210
L133200 63240
L133250 63280
L133270 63330
L133290 63430
L133290 63500
L133270 63590
L133250 63640
L133200 63690
L133130 63710
L133010 63710
" />
</g>
</g>
<g style="fill:#008484; fill-opacity:0.0; 
stroke:#008484; stroke-width:0; stroke-opacity:1; 
stroke-linecap:round; stroke-linejoin:round;">
<g >
</g>
<g style="fill:#840000; fill-opacity:0.0; 
stroke:#840000; stroke-width:0; stroke-opacity:1; 
stroke-linecap:round; stroke-linejoin:round;">
</g>
<g style="fill:#840000; fill-opacity:0.0; 
stroke:#840000; stroke-width:60; stroke-opacity:1; 
stroke-linecap:round; stroke-linejoin:round;">
<path style="fill:#840000; fill-opacity:0.0; 
stroke:#840000; stroke-width:60; stroke-opacity:1; 
stroke-linecap:round; stroke-linejoin:round;fill:none"
d="M 104500,66500
104500,67000
105000,67000
104500,67500
104000,67000
104500,67000
" /> 
</g>
<g style="fill:#008484; fill-opacity:0.0; 
stroke:#008484; stroke-width:60; stroke-opacity:1; 
stroke-linecap:round; stroke-linejoin:round;">
<text x="104550" y="68500"
textLength="1580" font-size="660" lengthAdjust="spacingAndGlyphs"
text-anchor="middle" opacity="0">GND</text>
<path d="M104160 68000
L104120 67970
L104050 67970
L103970 68000
L103930 68040
L103900 68090
L103880 68190
L103880 68260
L103900 68350
L103930 68400
L103970 68450
L104050 68470
L104090 68470
L104160 68450
L104190 68420
L104190 68260
L104090 68260
" />
<path d="M104400 68470
L104400 67970
L104690 68470
L104690 67970
" />
<path d="M104930 68470
L104930 67970
L105050 67970
L105120 68000
L105160 68040
L105190 68090
L105210 68190
L105210 68260
L105190 68350
L105160 68400
L105120 68450
L105050 68470
L104930 68470
" />
</g>
</g>
<g style="fill:#008484; fill-opacity:0.0; 
stroke:#008484; stroke-width:0; stroke-opacity:1; 
stroke-linecap:round; stroke-linejoin:round;">
<g >
</g>
<g style="fill:#840000; fill-opacity:0.0; 
stroke:#840000; stroke-width:0; stroke-opacity:1; 
stroke-linecap:round; stroke-linejoin:round;">
</g>
<g style="fill:#840000; fill-opacity:0.0; 
stroke:#840000; stroke-width:500; stroke-opacity:1; 
stroke-linecap:round; stroke-linejoin:round;">
<circle cx="125500" cy="68000" r="500" /> 
</g>
<g style="fill:#840000; fill-opacity:0.0; 
stroke:#840000; stroke-width:60; stroke-opacity:1; 
stroke-linecap:round; stroke-linejoin:round;">
<path d="M125500 68500
L125500 69500
" />
</g>
<g style="fill:#008484; fill-opacity:0.0; 
stroke:#008484; stroke-width:60; stroke-opacity:1; 
stroke-linecap:round; stroke-linejoin:round;">
<text x="127030" y="68280"
textLength="1060" font-size="660" lengthAdjust="spacingAndGlyphs"
text-anchor="middle" opacity="0">H1</text>
<path d="M126640 68250
L126640 67750
" />
<path d="M126640 67990
L126930 67990
" />
<path d="M126930 68250
L126930 67750
" />
<path d="M127430 68250
L127140 68250
" />
<path d="M127290 68250
L127290 67750
L127240 67820
L127190 67870
L127140 67890
" />
<text x="129930" y="69190"
textLength="6870" font-size="660" lengthAdjust="spacingAndGlyphs"
text-anchor="middle" opacity="0">MountingHole_Pad</text>
<path d="M126640 69160
L126640 68660
L126810 69020
L126970 68660
L126970 69160
" />
<path d="M127280 69160
L127230 69140
L127210 69110
L127190 69070
L127190 68920
L127210 68880
L127230 68850
L127280 68830
L127350 68830
L127400 68850
L127430 68880
L127450 68920
L127450 69070
L127430 69110
L127400 69140
L127350 69160
L127280 69160
" />
<path d="M127880 68830
L127880 69160
" />
<path d="M127660 68830
L127660 69090
L127690 69140
L127730 69160
L127810 69160
L127850 69140
L127880 69110
" />
<path d="M128120 68830
L128120 69160
" />
<path d="M128120 68880
L128140 68850
L128190 68830
L128260 68830
L128310 68850
L128330 68900
L128330 69160
" />
<path d="M128500 68830
L128690 68830
" />
<path d="M128570 68660
L128570 69090
L128590 69140
L128640 69160
L128690 69160
" />
<path d="M128850 69160
L128850 68830
" />
<path d="M128850 68660
L128830 68690
L128850 68710
L128880 68690
L128850 68660
L128850 68710
" />
<path d="M129090 68830
L129090 69160
" />
<path d="M129090 68880
L129120 68850
L129160 68830
L129230 68830
L129280 68850
L129310 68900
L129310 69160
" />
<path d="M129760 68830
L129760 69230
L129730 69280
L129710 69300
L129660 69330
L129590 69330
L129540 69300
" />
<path d="M129760 69140
L129710 69160
L129620 69160
L129570 69140
L129540 69110
L129520 69070
L129520 68920
L129540 68880
L129570 68850
L129620 68830
L129710 68830
L129760 68850
" />
<path d="M130000 69160
L130000 68660
" />
<path d="M130000 68900
L130280 68900
" />
<path d="M130280 69160
L130280 68660
" />
<path d="M130590 69160
L130540 69140
L130520 69110
L130500 69070
L130500 68920
L130520 68880
L130540 68850
L130590 68830
L130660 68830
L130710 68850
L130730 68880
L130760 68920
L130760 69070
L130730 69110
L130710 69140
L130660 69160
L130590 69160
" />
<path d="M131040 69160
L131000 69140
L130970 69090
L130970 68660
" />
<path d="M131430 69140
L131380 69160
L131280 69160
L131230 69140
L131210 69090
L131210 68900
L131230 68850
L131280 68830
L131380 68830
L131430 68850
L131450 68900
L131450 68950
L131210 68990
" />
<path d="M131540 69210
L131930 69210
" />
<path d="M132040 69160
L132040 68660
L132230 68660
L132280 68690
L132310 68710
L132330 68760
L132330 68830
L132310 68880
L132280 68900
L132230 68920
L132040 68920
" />
<path d="M132760 69160
L132760 68900
L132730 68850
L132690 68830
L132590 68830
L132540 68850
" />
<path d="M132760 69140
L132710 69160
L132590 69160
L132540 69140
L132520 69090
L132520 69040
L132540 68990
L132590 68970
L132710 68970
L132760 68950
" />
<path d="M133210 69160
L133210 68660
" />
<path d="M133210 69140
L133160 69160
L133070 69160
L133020 69140
L133000 69110
L132970 69070
L132970 68920
L133000 68880
L133020 68850
L133070 68830
L133160 68830
L133210 68850
" />
</g>
</g>
<g style="fill:#008484; fill-opacity:0.0; 
stroke:#008484; stroke-width:0; stroke-opacity:1; 
stroke-linecap:round; stroke-linejoin:round;">
<g >
</g>
<g style="fill:#840000; fill-opacity:0.0; 
stroke:#840000; stroke-width:0; stroke-opacity:1; 
stroke-linecap:round; stroke-linejoin:round;">
</g>
<g style="fill:#840000; fill-opacity:0.0; 
stroke:#840000; stroke-width:60; stroke-opacity:1; 
stroke-linecap:round; stroke-linejoin:round;">
<circle cx="125500" cy="71500" r="1000" /> 
<path style="fill:#840000; fill-opacity:0.0; 
stroke:#840000; stroke-width:60; stroke-opacity:1; 
stroke-linecap:round; stroke-linejoin:round;fill:none"
d="M 125250,71750
125750,71750
" /> 
<path style="fill:#840000; fill-opacity:0.0; 
stroke:#840000; stroke-width:60; stroke-opacity:1; 
stroke-linecap:round; stroke-linejoin:round;fill:none"
d="M 125450,72000
125550,72000
" /> 
<path style="fill:#840000; fill-opacity:0.0; 
stroke:#840000; stroke-width:60; stroke-opacity:1; 
stroke-linecap:round; stroke-linejoin:round;fill:none"
d="M 125500,71500
125500,70000
" /> 
<path style="fill:#840000; fill-opacity:0.0; 
stroke:#840000; stroke-width:60; stroke-opacity:1; 
stroke-linecap:round; stroke-linejoin:round;fill:none"
d="M 126000,71500
125000,71500
" /> 
</g>
</g>
<g style="fill:#840000; fill-opacity:0.0; 
stroke:#840000; stroke-width:0; stroke-opacity:1; 
stroke-linecap:round; stroke-linejoin:round;">
<g >
</g>
<g style="fill:#840000; fill-opacity:0.0; 
stroke:#840000; stroke-width:60; stroke-opacity:1; 
stroke-linecap:round; stroke-linejoin:round;">
<path style="fill:#840000; fill-opacity:0.0; 
stroke:#840000; stroke-width:60; stroke-opacity:1; 
stroke-linecap:round; stroke-linejoin:round;fill:none"
d="M 109700,54500
110000,54000
" /> 
<path style="fill:#840000; fill-opacity:0.0; 
stroke:#840000; stroke-width:60; stroke-opacity:1; 
stroke-linecap:round; stroke-linejoin:round;fill:none"
d="M 110000,55000
110000,54000
" /> 
<path style="fill:#840000; fill-opacity:0.0; 
stroke:#840000; stroke-width:60; stroke-opacity:1; 
stroke-linecap:round; stroke-linejoin:round;fill:none"
d="M 110000,54000
110300,54500
" /> 
</g>
<g style="fill:#008484; fill-opacity:0.0; 
stroke:#008484; stroke-width:60; stroke-opacity:1; 
stroke-linecap:round; stroke-linejoin:round;">
<text x="110000" y="53540"
textLength="2870" font-size="660" lengthAdjust="spacingAndGlyphs"
text-anchor="middle" opacity="0">+24V_A</text>
<path d="M108710 53320
L109090 53320
" />
<path d="M108900 53510
L108900 53130
" />
<path d="M109300 53060
L109330 53040
L109380 53010
L109500 53010
L109540 53040
L109570 53060
L109590 53110
L109590 53150
L109570 53230
L109280 53510
L109590 53510
" />
<path d="M110020 53180
L110020 53510
" />
<path d="M109900 52990
L109780 53340
L110090 53340
" />
<path d="M110210 53010
L110380 53510
L110540 53010
" />
<path d="M110590 53560
L110970 53560
" />
<path d="M111070 53370
L111300 53370
" />
<path d="M111020 53510
L111190 53010
L111350 53510
" />
</g>
</g>
<g style="fill:#008484; fill-opacity:0.0; 
stroke:#008484; stroke-width:0; stroke-opacity:1; 
stroke-linecap:round; stroke-linejoin:round;">
<g >
</g>
<g style="fill:#840000; fill-opacity:0.0; 
stroke:#840000; stroke-width:0; stroke-opacity:1; 
stroke-linecap:round; stroke-linejoin:round;">
</g>
<g style="fill:#840000; fill-opacity:0.0; 
stroke:#840000; stroke-width:60; stroke-opacity:1; 
stroke-linecap:round; stroke-linejoin:round;">
<circle cx="118000" cy="61300" r="200" /> 
<circle cx="119000" cy="59700" r="200" /> 
<circle cx="117000" cy="59700" r="200" /> 
<path style="fill:#840000; fill-opacity:0.0; 
stroke:#840000; stroke-width:60; stroke-opacity:1; 
stroke-linecap:round; stroke-linejoin:round;fill:none"
d="M 117900,61100
117100,59850
" /> 
<path d="M117000 59500
L117000 58500
" />
<g transform="rotate(-90 117100 59000)">
<text x="117100" y="59500"
textLength="540" font-size="660" lengthAdjust="spacingAndGlyphs"
text-anchor="middle" opacity="0">1</text>
</g>
<path d="M117570 58850
L117570 59140
" />
<path d="M117570 59000
L117070 59000
L117140 59040
L117190 59090
L117210 59140
" />
<path d="M118000 61500
L118000 62500
" />
<g transform="rotate(-90 118100 62000)">
<text x="118100" y="62500"
textLength="540" font-size="660" lengthAdjust="spacingAndGlyphs"
text-anchor="middle" opacity="0">2</text>
</g>
<path d="M118120 62140
L118100 62110
L118070 62070
L118070 61950
L118100 61900
L118120 61880
L118170 61850
L118210 61850
L118290 61880
L118570 62160
L118570 61850
" />
<path d="M119000 59500
L119000 58500
" />
<g transform="rotate(-90 119100 59000)">
<text x="119100" y="59500"
textLength="540" font-size="660" lengthAdjust="spacingAndGlyphs"
text-anchor="middle" opacity="0">3</text>
</g>
<path d="M119070 59160
L119070 58850
L119260 59020
L119260 58950
L119290 58900
L119310 58880
L119360 58850
L119480 58850
L119520 58880
L119550 58900
L119570 58950
L119570 59090
L119550 59140
L119520 59160
" />
</g>
<g style="fill:#008484; fill-opacity:0.0; 
stroke:#008484; stroke-width:60; stroke-opacity:1; 
stroke-linecap:round; stroke-linejoin:round;">
<text x="119290" y="60720"
textLength="1580" font-size="660" lengthAdjust="spacingAndGlyphs"
text-anchor="middle" opacity="0">SW1</text>
<path d="M118620 60670
L118690 60690
L118810 60690
L118860 60670
L118880 60640
L118900 60600
L118900 60550
L118880 60500
L118860 60480
L118810 60450
L118710 60430
L118670 60410
L118640 60380
L118620 60330
L118620 60290
L118640 60240
L118670 60220
L118710 60190
L118830 60190
L118900 60220
" />
<path d="M119070 60190
L119190 60690
L119290 60330
L119380 60690
L119500 60190
" />
<path d="M119950 60690
L119670 60690
" />
<path d="M119810 60690
L119810 60190
L119760 60260
L119710 60310
L119670 60330
" />
<text x="119490" y="64220"
textLength="1990" font-size="660" lengthAdjust="spacingAndGlyphs"
text-anchor="middle" opacity="0">B144</text>
<path d="M118810 63930
L118880 63950
L118900 63980
L118930 64020
L118930 64100
L118900 64140
L118880 64170
L118830 64190
L118640 64190
L118640 63690
L118810 63690
L118850 63720
L118880 63740
L118900 63790
L118900 63830
L118880 63880
L118850 63910
L118810 63930
L118640 63930
" />
<path d="M119400 64190
L119120 64190
" />
<path d="M119260 64190
L119260 63690
L119210 63760
L119160 63810
L119120 63830
" />
<path d="M119830 63860
L119830 64190
" />
<path d="M119710 63670
L119590 64020
L119900 64020
" />
<path d="M120310 63860
L120310 64190
" />
<path d="M120190 63670
L120070 64020
L120380 64020
" />
</g>
</g>
<g style="fill:#008484; fill-opacity:0.0; 
stroke:#008484; stroke-width:0; stroke-opacity:1; 
stroke-linecap:round; stroke-linejoin:round;">
<g >
</g>
<g style="fill:#840000; fill-opacity:0.0; 
stroke:#840000; stroke-width:0; stroke-opacity:1; 
stroke-linecap:round; stroke-linejoin:round;">
</g>
<g style="fill:#840000; fill-opacity:0.0; 
stroke:#840000; stroke-width:100; stroke-opacity:1; 
stroke-linecap:round; stroke-linejoin:round;">
<circle cx="109650" cy="60500" r="1100" /> 
</g>
<g style="fill:#840000; fill-opacity:1.0; 
stroke:#840000; stroke-width:60; stroke-opacity:1; 
stroke-linecap:round; stroke-linejoin:round;">
<circle cx="110000" cy="61200" r="100" /> 
<circle cx="110000" cy="59800" r="100" /> 
</g>
<g style="fill:#840000; fill-opacity:0.0; 
stroke:#840000; stroke-width:60; stroke-opacity:1; 
stroke-linecap:round; stroke-linejoin:round;">
<path style="fill:#840000; fill-opacity:0.0; 
stroke:#840000; stroke-width:60; stroke-opacity:1; 
stroke-linecap:round; stroke-linejoin:round;fill:none"
d="M 109100,60500
108000,60500
" /> 
</g>
<g style="fill:#840000; fill-opacity:0.0; 
stroke:#840000; stroke-width:100; stroke-opacity:1; 
stroke-linecap:round; stroke-linejoin:round;">
<path style="fill:#840000; fill-opacity:0.0; 
stroke:#840000; stroke-width:100; stroke-opacity:1; 
stroke-linecap:round; stroke-linejoin:round;fill:none"
d="M 109100,59750
109100,61250
" /> 
<path style="fill:#840000; fill-opacity:0.0; 
stroke:#840000; stroke-width:100; stroke-opacity:1; 
stroke-linecap:round; stroke-linejoin:round;fill:none"
d="M 109300,61000
109300,61400
" /> 
<path style="fill:#840000; fill-opacity:0.0; 
stroke:#840000; stroke-width:100; stroke-opacity:1; 
stroke-linecap:round; stroke-linejoin:round;fill:none"
d="M 109300,60300
109300,60700
" /> 
<path style="fill:#840000; fill-opacity:0.0; 
stroke:#840000; stroke-width:100; stroke-opacity:1; 
stroke-linecap:round; stroke-linejoin:round;fill:none"
d="M 109300,59600
109300,60000
" /> 
</g>
<g style="fill:#840000; fill-opacity:0.0; 
stroke:#840000; stroke-width:60; stroke-opacity:1; 
stroke-linecap:round; stroke-linejoin:round;">
<path style="fill:#840000; fill-opacity:0.0; 
stroke:#840000; stroke-width:60; stroke-opacity:1; 
stroke-linecap:round; stroke-linejoin:round;fill:none"
d="M 110000,59500
110000,59800
" /> 
<path style="fill:#840000; fill-opacity:0.0; 
stroke:#840000; stroke-width:60; stroke-opacity:1; 
stroke-linecap:round; stroke-linejoin:round;fill:none"
d="M 110000,61500
110000,60500
109300,60500
" /> 
<path style="fill:#840000; fill-opacity:0.0; 
stroke:#840000; stroke-width:60; stroke-opacity:1; 
stroke-linecap:round; stroke-linejoin:round;fill:none"
d="M 109300,61200
110300,61200
110300,59800
109300,59800
" /> 
</g>
<g style="fill:#840000; fill-opacity:1.0; 
stroke:#840000; stroke-width:60; stroke-opacity:1; 
stroke-linecap:round; stroke-linejoin:round;">
<path style="fill:#840000; fill-opacity:1.0; 
stroke:#840000; stroke-width:60; stroke-opacity:1; 
stroke-linecap:round; stroke-linejoin:round;fill-rule:evenodd;"
d="M 109400,60500
109800,60350
109800,60650
Z" /> 
</g>
<g style="fill:#840000; fill-opacity:0.0; 
stroke:#840000; stroke-width:60; stroke-opacity:1; 
stroke-linecap:round; stroke-linejoin:round;">
<path style="fill:#840000; fill-opacity:0.0; 
stroke:#840000; stroke-width:60; stroke-opacity:1; 
stroke-linecap:round; stroke-linejoin:round;fill:none"
d="M 110100,60300
110150,60350
110450,60350
110500,60400
" /> 
<path style="fill:#840000; fill-opacity:0.0; 
stroke:#840000; stroke-width:60; stroke-opacity:1; 
stroke-linecap:round; stroke-linejoin:round;fill:none"
d="M 110300,60350
110150,60600
110450,60600
Z" /> 
<path d="M108000 60500
L107000 60500
" />
<text x="107500" y="61100"
textLength="540" font-size="660" lengthAdjust="spacingAndGlyphs"
text-anchor="middle" opacity="0">1</text>
<path d="M107640 61070
L107350 61070
" />
<path d="M107500 61070
L107500 60570
L107450 60640
L107400 60690
L107350 60710
" />
<path d="M110000 61500
L110000 62500
" />
<g transform="rotate(-90 110100 62000)">
<text x="110100" y="62500"
textLength="540" font-size="660" lengthAdjust="spacingAndGlyphs"
text-anchor="middle" opacity="0">2</text>
</g>
<path d="M110120 62140
L110100 62110
L110070 62070
L110070 61950
L110100 61900
L110120 61880
L110170 61850
L110210 61850
L110290 61880
L110570 62160
L110570 61850
" />
<path d="M110000 59500
L110000 58500
" />
<g transform="rotate(-90 110100 59000)">
<text x="110100" y="59500"
textLength="540" font-size="660" lengthAdjust="spacingAndGlyphs"
text-anchor="middle" opacity="0">3</text>
</g>
<path d="M110070 59160
L110070 58850
L110260 59020
L110260 58950
L110290 58900
L110310 58880
L110360 58850
L110480 58850
L110520 58880
L110550 58900
L110570 58950
L110570 59090
L110550 59140
L110520 59160
" />
</g>
<g style="fill:#008484; fill-opacity:0.0; 
stroke:#008484; stroke-width:60; stroke-opacity:1; 
stroke-linecap:round; stroke-linejoin:round;">
<text x="111570" y="60310"
textLength="1060" font-size="660" lengthAdjust="spacingAndGlyphs"
text-anchor="middle" opacity="0">Q1</text>
<path d="M111520 60330
L111470 60310
L111420 60260
L111350 60190
L111300 60160
L111260 60160
" />
<path d="M111280 60280
L111230 60260
L111180 60210
L111160 60110
L111160 59950
L111180 59850
L111230 59810
L111280 59780
L111370 59780
L111420 59810
L111470 59850
L111490 59950
L111490 60110
L111470 60210
L111420 60260
L111370 60280
L111280 60280
" />
<path d="M111970 60280
L111680 60280
" />
<path d="M111830 60280
L111830 59780
L111780 59850
L111730 59900
L111680 59920
" />
<text x="113570" y="61220"
textLength="5060" font-size="660" lengthAdjust="spacingAndGlyphs"
text-anchor="middle" opacity="0">DMN3023L-7</text>
<path d="M111180 61190
L111180 60690
L111300 60690
L111370 60720
L111420 60760
L111450 60810
L111470 60910
L111470 60980
L111450 61070
L111420 61120
L111370 61170
L111300 61190
L111180 61190
" />
<path d="M111680 61190
L111680 60690
L111850 61050
L112020 60690
L112020 61190
" />
<path d="M112260 61190
L112260 60690
L112540 61190
L112540 60690
" />
<path d="M112730 60690
L113040 60690
L112870 60880
L112950 60880
L112990 60910
L113020 60930
L113040 60980
L113040 61100
L113020 61140
L112990 61170
L112950 61190
L112800 61190
L112760 61170
L112730 61140
" />
<path d="M113350 60690
L113400 60690
L113450 60720
L113470 60740
L113490 60790
L113520 60880
L113520 61000
L113490 61100
L113470 61140
L113450 61170
L113400 61190
L113350 61190
L113300 61170
L113280 61140
L113260 61100
L113230 61000
L113230 60880
L113260 60790
L113280 60740
L113300 60720
L113350 60690
" />
<path d="M113710 60740
L113730 60720
L113780 60690
L113900 60690
L113950 60720
L113970 60740
L113990 60790
L113990 60830
L113970 60910
L113680 61190
L113990 61190
" />
<path d="M114160 60690
L114470 60690
L114300 60880
L114370 60880
L114420 60910
L114450 60930
L114470 60980
L114470 61100
L114450 61140
L114420 61170
L114370 61190
L114230 61190
L114180 61170
L114160 61140
" />
<path d="M114920 61190
L114680 61190
L114680 60690
" />
<path d="M115090 61000
L115470 61000
" />
<path d="M115660 60690
L115990 60690
L115780 61190
" />
</g>
</g>
<g style="fill:#008484; fill-opacity:0.0; 
stroke:#008484; stroke-width:0; stroke-opacity:1; 
stroke-linecap:round; stroke-linejoin:round;">
<g >
</g>
<g style="fill:#840000; fill-opacity:0.0; 
stroke:#840000; stroke-width:0; stroke-opacity:1; 
stroke-linecap:round; stroke-linejoin:round;">
</g>
<g style="fill:#840000; fill-opacity:0.0; 
stroke:#840000; stroke-width:60; stroke-opacity:1; 
stroke-linecap:round; stroke-linejoin:round;">
<path style="fill:#840000; fill-opacity:0.0; 
stroke:#840000; stroke-width:60; stroke-opacity:1; 
stroke-linecap:round; stroke-linejoin:round;fill:none"
d="M 110000,66500
110000,67000
110500,67000
110000,67500
109500,67000
110000,67000
" /> 
</g>
<g style="fill:#008484; fill-opacity:0.0; 
stroke:#008484; stroke-width:60; stroke-opacity:1; 
stroke-linecap:round; stroke-linejoin:round;">
<text x="110050" y="68500"
textLength="1580" font-size="660" lengthAdjust="spacingAndGlyphs"
text-anchor="middle" opacity="0">GND</text>
<path d="M109660 68000
L109620 67970
L109550 67970
L109470 68000
L109430 68040
L109400 68090
L109380 68190
L109380 68260
L109400 68350
L109430 68400
L109470 68450
L109550 68470
L109590 68470
L109660 68450
L109690 68420
L109690 68260
L109590 68260
" />
<path d="M109900 68470
L109900 67970
L110190 68470
L110190 67970
" />
<path d="M110430 68470
L110430 67970
L110550 67970
L110620 68000
L110660 68040
L110690 68090
L110710 68190
L110710 68260
L110690 68350
L110660 68400
L110620 68450
L110550 68470
L110430 68470
" />
</g>
</g>
<g style="fill:#008484; fill-opacity:0.0; 
stroke:#008484; stroke-width:0; stroke-opacity:1; 
stroke-linecap:round; stroke-linejoin:round;">
<g >
</g>
<g style="fill:#840000; fill-opacity:0.0; 
stroke:#840000; stroke-width:0; stroke-opacity:1; 
stroke-linecap:round; stroke-linejoin:round;">
</g>
<g style="fill:#FFFFC2; fill-opacity:0.0; 
stroke:#FFFFC2; stroke-width:0; stroke-opacity:1; 
stroke-linecap:round; stroke-linejoin:round;">
</g>
<g style="fill:#FFFFC2; fill-opacity:0.6; 
stroke:#FFFFC2; stroke-width:0; stroke-opacity:1; 
stroke-linecap:round; stroke-linejoin:round;">
<rect x="111500" y="55000" width="1000" height="2000" rx="0" />
</g>
<g style="fill:#840000; fill-opacity:0.6; 
stroke:#840000; stroke-width:0; stroke-opacity:1; 
stroke-linecap:round; stroke-linejoin:round;">
</g>
<g style="fill:#840000; fill-opacity:0.0; 
stroke:#840000; stroke-width:100; stroke-opacity:1; 
stroke-linecap:round; stroke-linejoin:round;">
<rect x="111500" y="55000" width="1000" height="2000" rx="0" />
</g>
<g style="fill:#840000; fill-opacity:0.0; 
stroke:#840000; stroke-width:60; stroke-opacity:1; 
stroke-linecap:round; stroke-linejoin:round;">
<circle cx="112000" cy="56500" r="250" /> 
<circle cx="112000" cy="55500" r="250" /> 
</g>
<g style="fill:#840000; fill-opacity:0.0; 
stroke:#840000; stroke-width:100; stroke-opacity:1; 
stroke-linecap:round; stroke-linejoin:round;">
<rect x="111500" y="55000" width="1000" height="2000" rx="0" />
</g>
<g style="fill:#840000; fill-opacity:0.0; 
stroke:#840000; stroke-width:60; stroke-opacity:1; 
stroke-linecap:round; stroke-linejoin:round;">
<path style="fill:#840000; fill-opacity:0.0; 
stroke:#840000; stroke-width:60; stroke-opacity:1; 
stroke-linecap:round; stroke-linejoin:round;fill:none"
d="M 111790,56370
112130,56700
" /> 
<path style="fill:#840000; fill-opacity:0.0; 
stroke:#840000; stroke-width:60; stroke-opacity:1; 
stroke-linecap:round; stroke-linejoin:round;fill:none"
d="M 111790,55370
112130,55700
" /> 
<path style="fill:#840000; fill-opacity:0.0; 
stroke:#840000; stroke-width:60; stroke-opacity:1; 
stroke-linecap:round; stroke-linejoin:round;fill:none"
d="M 111860,56300
112200,56630
" /> 
<path style="fill:#840000; fill-opacity:0.0; 
stroke:#840000; stroke-width:60; stroke-opacity:1; 
stroke-linecap:round; stroke-linejoin:round;fill:none"
d="M 111860,55300
112200,55630
" /> 
<path d="M111500 55500
L110000 55500
" />
<text x="110750" y="55400"
textLength="540" font-size="660" lengthAdjust="spacingAndGlyphs"
text-anchor="middle" opacity="0">1</text>
<path d="M110890 55370
L110600 55370
" />
<path d="M110750 55370
L110750 54870
L110700 54940
L110650 54990
L110600 55010
" />
<path d="M111500 56500
L110000 56500
" />
<text x="110750" y="56400"
textLength="540" font-size="660" lengthAdjust="spacingAndGlyphs"
text-anchor="middle" opacity="0">2</text>
<path d="M110600 55920
L110630 55900
L110670 55870
L110790 55870
L110840 55900
L110860 55920
L110890 55970
L110890 56010
L110860 56090
L110580 56370
L110890 56370
" />
</g>
<g style="fill:#008484; fill-opacity:0.0; 
stroke:#008484; stroke-width:60; stroke-opacity:1; 
stroke-linecap:round; stroke-linejoin:round;">
<text x="113260" y="55850"
textLength="920" font-size="660" lengthAdjust="spacingAndGlyphs"
text-anchor="middle" opacity="0">J1</text>
<path d="M113090 55320
L113090 55680
L113060 55750
L113020 55800
L112950 55820
L112900 55820
" />
<path d="M113590 55820
L113300 55820
" />
<path d="M113450 55820
L113450 55320
L113400 55390
L113350 55440
L113300 55460
" />
<text x="116720" y="56760"
textLength="7850" font-size="660" lengthAdjust="spacingAndGlyphs"
text-anchor="middle" opacity="0">EBBA-02-C-SS-BU</text>
<path d="M112940 56470
L113110 56470
" />
<path d="M113180 56730
L112940 56730
L112940 56230
L113180 56230
" />
<path d="M113560 56470
L113630 56490
L113660 56520
L113680 56560
L113680 56640
L113660 56680
L113630 56710
L113580 56730
L113390 56730
L113390 56230
L113560 56230
L113610 56260
L113630 56280
L113660 56330
L113660 56370
L113630 56420
L113610 56450
L113560 56470
L113390 56470
" />
<path d="M114060 56470
L114130 56490
L114160 56520
L114180 56560
L114180 56640
L114160 56680
L114130 56710
L114080 56730
L113890 56730
L113890 56230
L114060 56230
L114110 56260
L114130 56280
L114160 56330
L114160 56370
L114130 56420
L114110 56450
L114060 56470
L113890 56470
" />
<path d="M114370 56590
L114610 56590
" />
<path d="M114320 56730
L114490 56230
L114660 56730
" />
<path d="M114820 56540
L115200 56540
" />
<path d="M115540 56230
L115580 56230
L115630 56260
L115660 56280
L115680 56330
L115700 56420
L115700 56540
L115680 56640
L115660 56680
L115630 56710
L115580 56730
L115540 56730
L115490 56710
L115470 56680
L115440 56640
L115420 56540
L115420 56420
L115440 56330
L115470 56280
L115490 56260
L115540 56230
" />
<path d="M115890 56280
L115920 56260
L115970 56230
L116080 56230
L116130 56260
L116160 56280
L116180 56330
L116180 56370
L116160 56450
L115870 56730
L116180 56730
" />
<path d="M116390 56540
L116770 56540
" />
<path d="M117300 56680
L117270 56710
L117200 56730
L117160 56730
L117080 56710
L117040 56660
L117010 56610
L116990 56520
L116990 56450
L117010 56350
L117040 56300
L117080 56260
L117160 56230
L117200 56230
L117270 56260
L117300 56280
" />
<path d="M117510 56540
L117890 56540
" />
<path d="M118110 56710
L118180 56730
L118300 56730
L118350 56710
L118370 56680
L118390 56640
L118390 56590
L118370 56540
L118350 56520
L118300 56490
L118200 56470
L118160 56450
L118130 56420
L118110 56370
L118110 56330
L118130 56280
L118160 56260
L118200 56230
L118320 56230
L118390 56260
" />
<path d="M118580 56710
L118660 56730
L118770 56730
L118820 56710
L118850 56680
L118870 56640
L118870 56590
L118850 56540
L118820 56520
L118770 56490
L118680 56470
L118630 56450
L118610 56420
L118580 56370
L118580 56330
L118610 56280
L118630 56260
L118680 56230
L118800 56230
L118870 56260
" />
<path d="M119080 56540
L119470 56540
" />
<path d="M119870 56470
L119940 56490
L119970 56520
L119990 56560
L119990 56640
L119970 56680
L119940 56710
L119890 56730
L119700 56730
L119700 56230
L119870 56230
L119920 56260
L119940 56280
L119970 56330
L119970 56370
L119940 56420
L119920 56450
L119870 56470
L119700 56470
" />
<path d="M120200 56230
L120200 56640
L120230 56680
L120250 56710
L120300 56730
L120390 56730
L120440 56710
L120470 56680
L120490 56640
L120490 56230
" />
</g>
</g>
<g style="fill:#008484; fill-opacity:0.0; 
stroke:#008484; stroke-width:0; stroke-opacity:1; 
stroke-linecap:round; stroke-linejoin:round;">
<g >
</g>
<g style="fill:#840000; fill-opacity:0.0; 
stroke:#840000; stroke-width:0; stroke-opacity:1; 
stroke-linecap:round; stroke-linejoin:round;">
</g>
<g style="fill:#840000; fill-opacity:0.0; 
stroke:#840000; stroke-width:60; stroke-opacity:1; 
stroke-linecap:round; stroke-linejoin:round;">
<path style="fill:#840000; fill-opacity:0.0; 
stroke:#840000; stroke-width:60; stroke-opacity:1; 
stroke-linecap:round; stroke-linejoin:round;fill:none"
d="M 126700,57000
127000,56500
" /> 
<path style="fill:#840000; fill-opacity:0.0; 
stroke:#840000; stroke-width:60; stroke-opacity:1; 
stroke-linecap:round; stroke-linejoin:round;fill:none"
d="M 127000,57500
127000,56500
" /> 
<path style="fill:#840000; fill-opacity:0.0; 
stroke:#840000; stroke-width:60; stroke-opacity:1; 
stroke-linecap:round; stroke-linejoin:round;fill:none"
d="M 127000,56500
127300,57000
" /> 
</g>
<g style="fill:#008484; fill-opacity:0.0; 
stroke:#008484; stroke-width:60; stroke-opacity:1; 
stroke-linecap:round; stroke-linejoin:round;">
<text x="127000" y="56040"
textLength="2870" font-size="660" lengthAdjust="spacingAndGlyphs"
text-anchor="middle" opacity="0">+24V_A</text>
<path d="M125710 55820
L126090 55820
" />
<path d="M125900 56010
L125900 55630
" />
<path d="M126300 55560
L126330 55540
L126380 55510
L126500 55510
L126540 55540
L126570 55560
L126590 55610
L126590 55650
L126570 55730
L126280 56010
L126590 56010
" />
<path d="M127020 55680
L127020 56010
" />
<path d="M126900 55490
L126780 55840
L127090 55840
" />
<path d="M127210 55510
L127380 56010
L127540 55510
" />
<path d="M127590 56060
L127970 56060
" />
<path d="M128070 55870
L128300 55870
" />
<path d="M128020 56010
L128190 55510
L128350 56010
" />
</g>
</g>
<g style="fill:#008484; fill-opacity:0.0; 
stroke:#008484; stroke-width:60; stroke-opacity:1; 
stroke-linecap:round; stroke-linejoin:round;">
</g>
<g style="fill:#008400; fill-opacity:0.0; 
stroke:#008400; stroke-width:60; stroke-opacity:1; 
stroke-linecap:round; stroke-linejoin:round;">
<path d="M102000 60500
L104500 60500
" />
<path d="M110000 58500
L110000 58000
" />
<path d="M127000 65500
L124000 65500
" />
<path d="M110000 56500
L110000 58000
" />
<path d="M125500 70000
L125500 69500
" />
<path d="M110000 58000
L115500 58000
" />
<path d="M115500 58000
L115500 57500
" />
<path d="M127000 64500
L127000 65500
" />
<path d="M127000 61500
L127000 61000
" />
<path d="M115500 57500
L124000 57500
" />
<path d="M124000 57500
L124000 65500
" />
<path d="M118000 63000
L118000 62500
" />
<path d="M110000 63000
L110000 62500
" />
<path d="M110000 66500
L110000 63000
" />
<path d="M110000 55500
L110000 55000
" />
<path d="M104500 66500
L104500 65500
" />
<path d="M104500 60500
L104500 62500
" />
<path d="M115500 58000
L117000 58000
" />
<path d="M107000 60500
L104500 60500
" />
<path d="M110000 63000
L118000 63000
" />
<path d="M117000 58500
L117000 58000
" />
<path d="M119000 58500
L119000 58000
" />
<path d="M119000 58000
L120500 58000
" />
<path d="M120500 58000
L120500 63000
" />
<path d="M120500 63000
L118000 63000
" />
<path d="M127000 58000
L127000 57500
" />
</g>
<g style="fill:#000000; fill-opacity:0.0; 
stroke:#000000; stroke-width:60; stroke-opacity:1; 
stroke-linecap:round; stroke-linejoin:round;">
<text x="102000" y="60400"
textLength="2560" font-size="660" lengthAdjust="spacingAndGlyphs"
text-anchor="end" opacity="0">kanal0</text>
<path d="M99580 60370
L99580 59870
" />
<path d="M99630 60180
L99770 60370
" />
<path d="M99770 60040
L99580 60230
" />
<path d="M100200 60370
L100200 60110
L100180 60060
L100130 60040
L100040 60040
L99990 60060
" />
<path d="M100200 60350
L100160 60370
L100040 60370
L99990 60350
L99970 60300
L99970 60250
L99990 60200
L100040 60180
L100160 60180
L100200 60160
" />
<path d="M100440 60040
L100440 60370
" />
<path d="M100440 60090
L100470 60060
L100510 60040
L100580 60040
L100630 60060
L100660 60110
L100660 60370
" />
<path d="M101110 60370
L101110 60110
L101080 60060
L101040 60040
L100940 60040
L100890 60060
" />
<path d="M101110 60350
L101060 60370
L100940 60370
L100890 60350
L100870 60300
L100870 60250
L100890 60200
L100940 60180
L101060 60180
L101110 60160
" />
<path d="M101420 60370
L101370 60350
L101350 60300
L101350 59870
" />
<path d="M101700 59870
L101750 59870
L101800 59900
L101820 59920
L101850 59970
L101870 60060
L101870 60180
L101850 60280
L101820 60320
L101800 60350
L101750 60370
L101700 60370
L101660 60350
L101630 60320
L101610 60280
L101580 60180
L101580 60060
L101610 59970
L101630 59920
L101660 59900
L101700 59870
" />
</g>
<g style="fill:#0000C2; fill-opacity:0.0; 
stroke:#0000C2; stroke-width:60; stroke-opacity:1; 
stroke-linecap:round; stroke-linejoin:round;">
<text x="131000" y="58970"
textLength="4300" font-size="660" lengthAdjust="spacingAndGlyphs"
text-anchor="start" opacity="0">Zelená LED</text>
<path d="M131100 58440
L131430 58440
L131100 58940
L131430 58940
" />
<path d="M131810 58920
L131760 58940
L131670 58940
L131620 58920
L131600 58870
L131600 58680
L131620 58630
L131670 58610
L131760 58610
L131810 58630
L131830 58680
L131830 58730
L131600 58770
" />
<path d="M132120 58940
L132070 58920
L132050 58870
L132050 58440
" />
<path d="M132500 58920
L132450 58940
L132360 58940
L132310 58920
L132290 58870
L132290 58680
L132310 58630
L132360 58610
L132450 58610
L132500 58630
L132530 58680
L132530 58730
L132290 58770
" />
<path d="M132740 58610
L132740 58940
" />
<path d="M132740 58660
L132760 58630
L132810 58610
L132880 58610
L132930 58630
L132950 58680
L132950 58940
" />
<path d="M133410 58940
L133410 58680
L133380 58630
L133330 58610
L133240 58610
L133190 58630
" />
<path d="M133410 58920
L133360 58940
L133240 58940
L133190 58920
L133170 58870
L133170 58820
L133190 58770
L133240 58750
L133360 58750
L133410 58730
" />
<path d="M133330 58420
L133260 58490
" />
<path d="M134260 58940
L134030 58940
L134030 58440
" />
<path d="M134430 58680
L134600 58680
" />
<path d="M134670 58940
L134430 58940
L134430 58440
L134670 58440
" />
<path d="M134880 58940
L134880 58440
L135000 58440
L135070 58470
L135120 58510
L135140 58560
L135170 58660
L135170 58730
L135140 58820
L135120 58870
L135070 58920
L135000 58940
L134880 58940
" />
<text x="131000" y="59780"
textLength="5250" font-size="660" lengthAdjust="spacingAndGlyphs"
text-anchor="start" opacity="0">LTL-42NGY8D</text>
<path d="M131380 59750
L131140 59750
L131140 59250
" />
<path d="M131480 59250
L131760 59250
" />
<path d="M131620 59750
L131620 59250
" />
<path d="M132170 59750
L131930 59750
L131930 59250
" />
<path d="M132330 59560
L132720 59560
" />
<path d="M133170 59420
L133170 59750
" />
<path d="M133050 59230
L132930 59580
L133240 59580
" />
<path d="M133410 59300
L133430 59280
L133480 59250
L133600 59250
L133640 59280
L133670 59300
L133690 59350
L133690 59390
L133670 59470
L133380 59750
L133690 59750
" />
<path d="M133910 59750
L133910 59250
L134190 59750
L134190 59250
" />
<path d="M134690 59280
L134640 59250
L134570 59250
L134500 59280
L134450 59320
L134430 59370
L134410 59470
L134410 59540
L134430 59630
L134450 59680
L134500 59730
L134570 59750
L134620 59750
L134690 59730
L134720 59700
L134720 59540
L134620 59540
" />
<path d="M135030 59510
L135030 59750
" />
<path d="M134860 59250
L135030 59510
L135190 59250
" />
<path d="M135430 59470
L135380 59440
L135360 59420
L135330 59370
L135330 59350
L135360 59300
L135380 59280
L135430 59250
L135530 59250
L135570 59280
L135600 59300
L135620 59350
L135620 59370
L135600 59420
L135570 59440
L135530 59470
L135430 59470
L135380 59490
L135360 59510
L135330 59560
L135330 59660
L135360 59700
L135380 59730
L135430 59750
L135530 59750
L135570 59730
L135600 59700
L135620 59660
L135620 59560
L135600 59510
L135570 59490
L135530 59470
" />
<path d="M135830 59750
L135830 59250
L135950 59250
L136030 59280
L136070 59320
L136100 59370
L136120 59470
L136120 59540
L136100 59630
L136070 59680
L136030 59730
L135950 59750
L135830 59750
" />
<text x="131000" y="60590"
textLength="3540" font-size="660" lengthAdjust="spacingAndGlyphs"
text-anchor="start" opacity="0">Uf = 2 V</text>
<path d="M131140 60060
L131140 60470
L131170 60510
L131190 60540
L131240 60560
L131330 60560
L131380 60540
L131410 60510
L131430 60470
L131430 60060
" />
<path d="M131600 60230
L131790 60230
" />
<path d="M131670 60560
L131670 60130
L131690 60090
L131740 60060
L131790 60060
" />
<path d="M132330 60300
L132720 60300
" />
<path d="M132720 60440
L132330 60440
" />
<path d="M133310 60110
L133330 60090
L133380 60060
L133500 60060
L133550 60090
L133570 60110
L133600 60160
L133600 60200
L133570 60280
L133290 60560
L133600 60560
" />
<path d="M134120 60060
L134290 60560
L134450 60060
" />
<text x="131000" y="61400"
textLength="4390" font-size="660" lengthAdjust="spacingAndGlyphs"
text-anchor="start" opacity="0">If = 10 mA</text>
<path d="M131140 61370
L131140 60870
" />
<path d="M131310 61040
L131500 61040
" />
<path d="M131380 61370
L131380 60940
L131410 60900
L131450 60870
L131500 60870
" />
<path d="M132050 61110
L132430 61110
" />
<path d="M132430 61250
L132050 61250
" />
<path d="M133310 61370
L133030 61370
" />
<path d="M133170 61370
L133170 60870
L133120 60940
L133070 60990
L133030 61010
" />
<path d="M133620 60870
L133670 60870
L133720 60900
L133740 60920
L133760 60970
L133790 61060
L133790 61180
L133760 61280
L133740 61320
L133720 61350
L133670 61370
L133620 61370
L133570 61350
L133550 61320
L133530 61280
L133500 61180
L133500 61060
L133530 60970
L133550 60920
L133570 60900
L133620 60870
" />
<path d="M134380 61370
L134380 61040
" />
<path d="M134380 61090
L134410 61060
L134450 61040
L134530 61040
L134570 61060
L134600 61110
L134600 61370
" />
<path d="M134600 61110
L134620 61060
L134670 61040
L134740 61040
L134790 61060
L134810 61110
L134810 61370
" />
<path d="M135030 61230
L135260 61230
" />
<path d="M134980 61370
L135140 60870
L135310 61370
" />
<text x="121000" y="68590"
textLength="3080" font-size="660" lengthAdjust="spacingAndGlyphs"
text-anchor="start" opacity="0">Pouzdro</text>
<path d="M121140 68560
L121140 68060
L121330 68060
L121380 68090
L121410 68110
L121430 68160
L121430 68230
L121410 68280
L121380 68300
L121330 68320
L121140 68320
" />
<path d="M121720 68560
L121670 68540
L121640 68510
L121620 68470
L121620 68320
L121640 68280
L121670 68250
L121720 68230
L121790 68230
L121830 68250
L121860 68280
L121880 68320
L121880 68470
L121860 68510
L121830 68540
L121790 68560
L121720 68560
" />
<path d="M122310 68230
L122310 68560
" />
<path d="M122100 68230
L122100 68490
L122120 68540
L122170 68560
L122240 68560
L122290 68540
L122310 68510
" />
<path d="M122500 68230
L122760 68230
L122500 68560
L122760 68560
" />
<path d="M123170 68560
L123170 68060
" />
<path d="M123170 68540
L123120 68560
L123030 68560
L122980 68540
L122950 68510
L122930 68470
L122930 68320
L122950 68280
L122980 68250
L123030 68230
L123120 68230
L123170 68250
" />
<path d="M123410 68560
L123410 68230
" />
<path d="M123410 68320
L123430 68280
L123450 68250
L123500 68230
L123550 68230
" />
<path d="M123790 68560
L123740 68540
L123720 68510
L123690 68470
L123690 68320
L123720 68280
L123740 68250
L123790 68230
L123860 68230
L123910 68250
L123930 68280
L123950 68320
L123950 68470
L123930 68510
L123910 68540
L123860 68560
L123790 68560
" />
<text x="121000" y="69400"
textLength="3700" font-size="660" lengthAdjust="spacingAndGlyphs"
text-anchor="start" opacity="0">přepínače</text>
<path d="M121140 69040
L121140 69540
" />
<path d="M121140 69060
L121190 69040
L121290 69040
L121330 69060
L121360 69090
L121380 69130
L121380 69280
L121360 69320
L121330 69350
L121290 69370
L121190 69370
L121140 69350
" />
<path d="M121600 69370
L121600 69040
" />
<path d="M121600 69130
L121620 69090
L121640 69060
L121690 69040
L121740 69040
" />
<path d="M121550 68850
L121640 68920
L121740 68850
" />
<path d="M122100 69350
L122050 69370
L121950 69370
L121910 69350
L121880 69300
L121880 69110
L121910 69060
L121950 69040
L122050 69040
L122100 69060
L122120 69110
L122120 69160
L121880 69200
" />
<path d="M122330 69040
L122330 69540
" />
<path d="M122330 69060
L122380 69040
L122480 69040
L122530 69060
L122550 69090
L122570 69130
L122570 69280
L122550 69320
L122530 69350
L122480 69370
L122380 69370
L122330 69350
" />
<path d="M122790 69370
L122790 69040
" />
<path d="M122830 68850
L122760 68920
" />
<path d="M123030 69040
L123030 69370
" />
<path d="M123030 69090
L123050 69060
L123100 69040
L123170 69040
L123220 69060
L123240 69110
L123240 69370
" />
<path d="M123690 69370
L123690 69110
L123670 69060
L123620 69040
L123530 69040
L123480 69060
" />
<path d="M123690 69350
L123640 69370
L123530 69370
L123480 69350
L123450 69300
L123450 69250
L123480 69200
L123530 69180
L123640 69180
L123690 69160
" />
<path d="M124140 69350
L124100 69370
L124000 69370
L123950 69350
L123930 69320
L123910 69280
L123910 69130
L123930 69090
L123950 69060
L124000 69040
L124100 69040
L124140 69060
" />
<path d="M123950 68850
L124050 68920
L124140 68850
" />
<path d="M124550 69350
L124500 69370
L124410 69370
L124360 69350
L124330 69300
L124330 69110
L124360 69060
L124410 69040
L124500 69040
L124550 69060
L124570 69110
L124570 69160
L124330 69200
" />
</g>
<g style="fill:#0000C2; fill-opacity:0.0; 
stroke:#0000C2; stroke-width:0; stroke-opacity:1; 
stroke-linecap:round; stroke-linejoin:round;">
</g>
<g style="fill:#008400; fill-opacity:0.0; 
stroke:#008400; stroke-width:0; stroke-opacity:1; 
stroke-linecap:round; stroke-linejoin:round;">
</g>
<g style="fill:#008400; fill-opacity:1.0; 
stroke:#008400; stroke-width:100; stroke-opacity:1; 
stroke-linecap:round; stroke-linejoin:round;">
<circle cx="110000" cy="58000" r="200" /> 
</g>
<g style="fill:#008400; fill-opacity:1.0; 
stroke:#008400; stroke-width:0; stroke-opacity:1; 
stroke-linecap:round; stroke-linejoin:round;">
</g>
<g style="fill:#008400; fill-opacity:1.0; 
stroke:#008400; stroke-width:100; stroke-opacity:1; 
stroke-linecap:round; stroke-linejoin:round;">
<circle cx="115500" cy="58000" r="200" /> 
</g>
<g style="fill:#008400; fill-opacity:1.0; 
stroke:#008400; stroke-width:0; stroke-opacity:1; 
stroke-linecap:round; stroke-linejoin:round;">
</g>
<g style="fill:#008400; fill-opacity:1.0; 
stroke:#008400; stroke-width:100; stroke-opacity:1; 
stroke-linecap:round; stroke-linejoin:round;">
<circle cx="118000" cy="63000" r="200" /> 
</g>
<g style="fill:#008400; fill-opacity:1.0; 
stroke:#008400; stroke-width:0; stroke-opacity:1; 
stroke-linecap:round; stroke-linejoin:round;">
</g>
<g style="fill:#008400; fill-opacity:1.0; 
stroke:#008400; stroke-width:100; stroke-opacity:1; 
stroke-linecap:round; stroke-linejoin:round;">
<circle cx="104500" cy="60500" r="200" /> 
</g>
<g style="fill:#008400; fill-opacity:1.0; 
stroke:#008400; stroke-width:0; stroke-opacity:1; 
stroke-linecap:round; stroke-linejoin:round;">
</g>
<g style="fill:#008400; fill-opacity:1.0; 
stroke:#008400; stroke-width:100; stroke-opacity:1; 
stroke-linecap:round; stroke-linejoin:round;">
<circle cx="110000" cy="63000" r="200" /> 
</g>
<g style="fill:#008400; fill-opacity:1.0; 
stroke:#008400; stroke-width:60; stroke-opacity:1; 
stroke-linecap:round; stroke-linejoin:round;">
</g>
<g style="fill:#000084; fill-opacity:1.0; 
stroke:#000084; stroke-width:60; stroke-opacity:1; 
stroke-linecap:round; stroke-linejoin:round;">
</g>
<g style="fill:#000084; fill-opacity:0.0; 
stroke:#000084; stroke-width:60; stroke-opacity:1; 
stroke-linecap:round; stroke-linejoin:round;">
<path d="M118760 59260
L119240 59740
" />
<path d="M119240 59260
L118760 59740
" />
</g> 
</svg>
