<?xml version="1.0" standalone="no"?>
 <!DOCTYPE svg PUBLIC "-//W3C//DTD SVG 1.1//EN" 
 "http://www.w3.org/Graphics/SVG/1.1/DTD/svg11.dtd"> 
<svg
  xmlns:svg="http://www.w3.org/2000/svg"
  xmlns="http://www.w3.org/2000/svg"
  xmlns:xlink="http://www.w3.org/1999/xlink"
  version="1.1"
  width="29.700220cm" height="21.000720cm" viewBox="0 0 116930 82680">
<title>SVG Picture created as ochrana-napajeni-1-wire.svg date 2021/07/10 20:22:27 </title>
  <desc>Picture generated by Eeschema-SVG </desc>
<g style="fill:#000000; fill-opacity:1;stroke:#000000; stroke-opacity:1;
stroke-linecap:round; stroke-linejoin:round;"
 transform="translate(0 0) scale(1 1)">
</g>
<g style="fill:#000000; fill-opacity:0.0; 
stroke:#000000; stroke-width:0; stroke-opacity:1; 
stroke-linecap:round; stroke-linejoin:round;">
<g >
</g>
<g style="fill:#840000; fill-opacity:0.0; 
stroke:#840000; stroke-width:0; stroke-opacity:1; 
stroke-linecap:round; stroke-linejoin:round;">
</g>
<g style="fill:#FFFFC2; fill-opacity:0.0; 
stroke:#FFFFC2; stroke-width:0; stroke-opacity:1; 
stroke-linecap:round; stroke-linejoin:round;">
</g>
<g style="fill:#FFFFC2; fill-opacity:0.6; 
stroke:#FFFFC2; stroke-width:0; stroke-opacity:1; 
stroke-linecap:round; stroke-linejoin:round;">
<rect x="49500" y="28500" width="7000" height="8000" rx="0" />
</g>
<g style="fill:#840000; fill-opacity:0.6; 
stroke:#840000; stroke-width:0; stroke-opacity:1; 
stroke-linecap:round; stroke-linejoin:round;">
</g>
<g style="fill:#840000; fill-opacity:0.0; 
stroke:#840000; stroke-width:60; stroke-opacity:1; 
stroke-linecap:round; stroke-linejoin:round;">
<rect x="49500" y="28500" width="7000" height="8000" rx="0" />
<rect x="49500" y="28500" width="7000" height="8000" rx="0" />
<path d="M49500 29000
L48500 29000
" />
</g>
<g style="fill:#008484; fill-opacity:0.0; 
stroke:#008484; stroke-width:60; stroke-opacity:1; 
stroke-linecap:round; stroke-linejoin:round;">
<text x="49900" y="29250"
textLength="770" font-size="660" lengthAdjust="spacingAndGlyphs"
text-anchor="start" opacity="0">IN</text>
<path d="M50040 29220
L50040 28720
" />
<path d="M50280 29220
L50280 28720
L50570 29220
L50570 28720
" />
</g>
<g style="fill:#840000; fill-opacity:0.0; 
stroke:#840000; stroke-width:60; stroke-opacity:1; 
stroke-linecap:round; stroke-linejoin:round;">
<text x="49000" y="28900"
textLength="540" font-size="660" lengthAdjust="spacingAndGlyphs"
text-anchor="middle" opacity="0">1</text>
<path d="M49140 28870
L48850 28870
" />
<path d="M49000 28870
L49000 28370
L48950 28440
L48900 28490
L48850 28510
" />
<path d="M56500 35000
L57500 35000
" />
</g>
<g style="fill:#008484; fill-opacity:0.0; 
stroke:#008484; stroke-width:60; stroke-opacity:1; 
stroke-linecap:round; stroke-linejoin:round;">
<text x="56100" y="35250"
textLength="1920" font-size="660" lengthAdjust="spacingAndGlyphs"
text-anchor="end" opacity="0">IMON</text>
<path d="M54330 35220
L54330 34720
" />
<path d="M54570 35220
L54570 34720
L54730 35080
L54900 34720
L54900 35220
" />
<path d="M55230 34720
L55330 34720
L55370 34750
L55420 34790
L55450 34890
L55450 35050
L55420 35150
L55370 35200
L55330 35220
L55230 35220
L55180 35200
L55140 35150
L55110 35050
L55110 34890
L55140 34790
L55180 34750
L55230 34720
" />
<path d="M55660 35220
L55660 34720
L55950 35220
L55950 34720
" />
</g>
<g style="fill:#840000; fill-opacity:0.0; 
stroke:#840000; stroke-width:60; stroke-opacity:1; 
stroke-linecap:round; stroke-linejoin:round;">
<text x="57000" y="34900"
textLength="1010" font-size="660" lengthAdjust="spacingAndGlyphs"
text-anchor="middle" opacity="0">10</text>
<path d="M56900 34870
L56610 34870
" />
<path d="M56760 34870
L56760 34370
L56710 34440
L56660 34490
L56610 34510
" />
<path d="M57210 34370
L57260 34370
L57300 34400
L57330 34420
L57350 34470
L57380 34560
L57380 34680
L57350 34780
L57330 34820
L57300 34850
L57260 34870
L57210 34870
L57160 34850
L57140 34820
L57110 34780
L57090 34680
L57090 34560
L57110 34470
L57140 34420
L57160 34400
L57210 34370
" />
<path d="M56500 34000
L57500 34000
" />
</g>
<g style="fill:#008484; fill-opacity:0.0; 
stroke:#008484; stroke-width:60; stroke-opacity:1; 
stroke-linecap:round; stroke-linejoin:round;">
<text x="56100" y="34250"
textLength="1510" font-size="660" lengthAdjust="spacingAndGlyphs"
text-anchor="end" opacity="0">ILIM</text>
<path d="M54730 34220
L54730 33720
" />
<path d="M55210 34220
L54970 34220
L54970 33720
" />
<path d="M55370 34220
L55370 33720
" />
<path d="M55610 34220
L55610 33720
L55780 34080
L55950 33720
L55950 34220
" />
</g>
<g style="fill:#840000; fill-opacity:0.0; 
stroke:#840000; stroke-width:60; stroke-opacity:1; 
stroke-linecap:round; stroke-linejoin:round;">
<text x="57000" y="33900"
textLength="1010" font-size="660" lengthAdjust="spacingAndGlyphs"
text-anchor="middle" opacity="0">11</text>
<path d="M56900 33870
L56610 33870
" />
<path d="M56760 33870
L56760 33370
L56710 33440
L56660 33490
L56610 33510
" />
<path d="M57380 33870
L57090 33870
" />
<path d="M57230 33870
L57230 33370
L57190 33440
L57140 33490
L57090 33510
" />
<path d="M56500 33000
L57500 33000
" />
</g>
<g style="fill:#008484; fill-opacity:0.0; 
stroke:#008484; stroke-width:60; stroke-opacity:1; 
stroke-linecap:round; stroke-linejoin:round;">
<text x="56100" y="33250"
textLength="1770" font-size="660" lengthAdjust="spacingAndGlyphs"
text-anchor="end" opacity="0">dVdT</text>
<path d="M54680 33220
L54680 32720
" />
<path d="M54680 33200
L54640 33220
L54540 33220
L54490 33200
L54470 33170
L54450 33130
L54450 32980
L54470 32940
L54490 32910
L54540 32890
L54640 32890
L54680 32910
" />
<path d="M54850 32720
L55020 33220
L55180 32720
" />
<path d="M55570 33220
L55570 32720
" />
<path d="M55570 33200
L55520 33220
L55420 33220
L55370 33200
L55350 33170
L55330 33130
L55330 32980
L55350 32940
L55370 32910
L55420 32890
L55520 32890
L55570 32910
" />
<path d="M55730 32720
L56020 32720
" />
<path d="M55870 33220
L55870 32720
" />
</g>
<g style="fill:#840000; fill-opacity:0.0; 
stroke:#840000; stroke-width:60; stroke-opacity:1; 
stroke-linecap:round; stroke-linejoin:round;">
<text x="57000" y="32900"
textLength="1010" font-size="660" lengthAdjust="spacingAndGlyphs"
text-anchor="middle" opacity="0">12</text>
<path d="M56900 32870
L56610 32870
" />
<path d="M56760 32870
L56760 32370
L56710 32440
L56660 32490
L56610 32510
" />
<path d="M57090 32420
L57110 32400
L57160 32370
L57280 32370
L57330 32400
L57350 32420
L57380 32470
L57380 32510
L57350 32590
L57070 32870
L57380 32870
" />
<path d="M56500 32000
L57500 32000
" />
<path d="M56250 32250
L56750 31750
" />
<path d="M56250 31750
L56750 32250
" />
<path d="M57350 31850
L57650 32150
" />
<path d="M57650 31850
L57350 32150
" />
</g>
<g style="fill:#008484; fill-opacity:0.0; 
stroke:#008484; stroke-width:60; stroke-opacity:1; 
stroke-linecap:round; stroke-linejoin:round;">
<text x="56100" y="32250"
textLength="1080" font-size="660" lengthAdjust="spacingAndGlyphs"
text-anchor="end" opacity="0">NC</text>
<path d="M55160 32220
L55160 31720
L55450 32220
L55450 31720
" />
<path d="M55970 32170
L55950 32200
L55870 32220
L55830 32220
L55760 32200
L55710 32150
L55680 32100
L55660 32010
L55660 31940
L55680 31840
L55710 31790
L55760 31750
L55830 31720
L55870 31720
L55950 31750
L55970 31770
" />
</g>
<g style="fill:#840000; fill-opacity:0.0; 
stroke:#840000; stroke-width:60; stroke-opacity:1; 
stroke-linecap:round; stroke-linejoin:round;">
<text x="57000" y="31900"
textLength="1010" font-size="660" lengthAdjust="spacingAndGlyphs"
text-anchor="middle" opacity="0">13</text>
<path d="M56900 31870
L56610 31870
" />
<path d="M56760 31870
L56760 31370
L56710 31440
L56660 31490
L56610 31510
" />
<path d="M57070 31370
L57380 31370
L57210 31560
L57280 31560
L57330 31590
L57350 31610
L57380 31660
L57380 31780
L57350 31820
L57330 31850
L57280 31870
L57140 31870
L57090 31850
L57070 31820
" />
<circle cx="56750" cy="31000" r="250" /> 
<path d="M57000 31000
L57500 31000
" />
</g>
<g style="fill:#008484; fill-opacity:0.0; 
stroke:#008484; stroke-width:60; stroke-opacity:1; 
stroke-linecap:round; stroke-linejoin:round;">
<text x="56100" y="31250"
textLength="1270" font-size="660" lengthAdjust="spacingAndGlyphs"
text-anchor="end" opacity="0">FLT</text>
<path d="M55140 30960
L54970 30960
" />
<path d="M54970 31220
L54970 30720
L55210 30720
" />
<path d="M55640 31220
L55400 31220
L55400 30720
" />
<path d="M55730 30720
L56020 30720
" />
<path d="M55870 31220
L55870 30720
" />
</g>
<g style="fill:#840000; fill-opacity:0.0; 
stroke:#840000; stroke-width:60; stroke-opacity:1; 
stroke-linecap:round; stroke-linejoin:round;">
<text x="57000" y="30900"
textLength="1010" font-size="660" lengthAdjust="spacingAndGlyphs"
text-anchor="middle" opacity="0">14</text>
<path d="M56900 30870
L56610 30870
" />
<path d="M56760 30870
L56760 30370
L56710 30440
L56660 30490
L56610 30510
" />
<path d="M57330 30540
L57330 30870
" />
<path d="M57210 30350
L57090 30700
L57400 30700
" />
<path d="M56500 30000
L57500 30000
" />
</g>
<g style="fill:#008484; fill-opacity:0.0; 
stroke:#008484; stroke-width:60; stroke-opacity:1; 
stroke-linecap:round; stroke-linejoin:round;">
<text x="56100" y="30250"
textLength="1490" font-size="660" lengthAdjust="spacingAndGlyphs"
text-anchor="end" opacity="0">OUT</text>
<path d="M54850 29720
L54950 29720
L54990 29750
L55040 29790
L55070 29890
L55070 30050
L55040 30150
L54990 30200
L54950 30220
L54850 30220
L54800 30200
L54760 30150
L54730 30050
L54730 29890
L54760 29790
L54800 29750
L54850 29720
" />
<path d="M55280 29720
L55280 30130
L55300 30170
L55330 30200
L55370 30220
L55470 30220
L55520 30200
L55540 30170
L55570 30130
L55570 29720
" />
<path d="M55730 29720
L56020 29720
" />
<path d="M55870 30220
L55870 29720
" />
</g>
<g style="fill:#840000; fill-opacity:0.0; 
stroke:#840000; stroke-width:60; stroke-opacity:1; 
stroke-linecap:round; stroke-linejoin:round;">
<text x="57000" y="29900"
textLength="1010" font-size="660" lengthAdjust="spacingAndGlyphs"
text-anchor="middle" opacity="0">15</text>
<path d="M56900 29870
L56610 29870
" />
<path d="M56760 29870
L56760 29370
L56710 29440
L56660 29490
L56610 29510
" />
<path d="M57350 29370
L57110 29370
L57090 29610
L57110 29590
L57160 29560
L57280 29560
L57330 29590
L57350 29610
L57380 29660
L57380 29780
L57350 29820
L57330 29850
L57280 29870
L57160 29870
L57110 29850
L57090 29820
" />
<path d="M56500 29000
L57500 29000
" />
</g>
<g style="fill:#008484; fill-opacity:0.0; 
stroke:#008484; stroke-width:60; stroke-opacity:1; 
stroke-linecap:round; stroke-linejoin:round;">
<text x="56100" y="29250"
textLength="1490" font-size="660" lengthAdjust="spacingAndGlyphs"
text-anchor="end" opacity="0">OUT</text>
<path d="M54850 28720
L54950 28720
L54990 28750
L55040 28790
L55070 28890
L55070 29050
L55040 29150
L54990 29200
L54950 29220
L54850 29220
L54800 29200
L54760 29150
L54730 29050
L54730 28890
L54760 28790
L54800 28750
L54850 28720
" />
<path d="M55280 28720
L55280 29130
L55300 29170
L55330 29200
L55370 29220
L55470 29220
L55520 29200
L55540 29170
L55570 29130
L55570 28720
" />
<path d="M55730 28720
L56020 28720
" />
<path d="M55870 29220
L55870 28720
" />
</g>
<g style="fill:#840000; fill-opacity:0.0; 
stroke:#840000; stroke-width:60; stroke-opacity:1; 
stroke-linecap:round; stroke-linejoin:round;">
<text x="57000" y="28900"
textLength="1010" font-size="660" lengthAdjust="spacingAndGlyphs"
text-anchor="middle" opacity="0">16</text>
<path d="M56900 28870
L56610 28870
" />
<path d="M56760 28870
L56760 28370
L56710 28440
L56660 28490
L56610 28510
" />
<path d="M57330 28370
L57230 28370
L57190 28400
L57160 28420
L57110 28490
L57090 28590
L57090 28780
L57110 28820
L57140 28850
L57190 28870
L57280 28870
L57330 28850
L57350 28820
L57380 28780
L57380 28660
L57350 28610
L57330 28590
L57280 28560
L57190 28560
L57140 28590
L57110 28610
L57090 28660
" />
<path d="M49500 30000
L48500 30000
" />
</g>
<g style="fill:#008484; fill-opacity:0.0; 
stroke:#008484; stroke-width:60; stroke-opacity:1; 
stroke-linecap:round; stroke-linejoin:round;">
<text x="49900" y="30250"
textLength="820" font-size="660" lengthAdjust="spacingAndGlyphs"
text-anchor="start" opacity="0">IN</text>
<path d="M50040 30220
L50040 29720
" />
<path d="M50280 30220
L50280 29720
L50570 30220
L50570 29720
" />
</g>
<g style="fill:#840000; fill-opacity:0.0; 
stroke:#840000; stroke-width:60; stroke-opacity:1; 
stroke-linecap:round; stroke-linejoin:round;">
<text x="49000" y="29900"
textLength="540" font-size="660" lengthAdjust="spacingAndGlyphs"
text-anchor="middle" opacity="0">2</text>
<path d="M48850 29420
L48880 29400
L48920 29370
L49040 29370
L49090 29400
L49110 29420
L49140 29470
L49140 29510
L49110 29590
L48830 29870
L49140 29870
" />
<path d="M49500 31000
L48500 31000
" />
</g>
<g style="fill:#008484; fill-opacity:0.0; 
stroke:#008484; stroke-width:60; stroke-opacity:1; 
stroke-linecap:round; stroke-linejoin:round;">
<text x="49900" y="31250"
textLength="1940" font-size="660" lengthAdjust="spacingAndGlyphs"
text-anchor="start" opacity="0">UVLO</text>
<path d="M50040 30720
L50040 31130
L50070 31170
L50090 31200
L50140 31220
L50230 31220
L50280 31200
L50310 31170
L50330 31130
L50330 30720
" />
<path d="M50500 30720
L50660 31220
L50830 30720
" />
<path d="M51230 31220
L51000 31220
L51000 30720
" />
<path d="M51500 30720
L51590 30720
L51640 30750
L51690 30790
L51710 30890
L51710 31050
L51690 31150
L51640 31200
L51590 31220
L51500 31220
L51450 31200
L51400 31150
L51380 31050
L51380 30890
L51400 30790
L51450 30750
L51500 30720
" />
</g>
<g style="fill:#840000; fill-opacity:0.0; 
stroke:#840000; stroke-width:60; stroke-opacity:1; 
stroke-linecap:round; stroke-linejoin:round;">
<text x="49000" y="30900"
textLength="540" font-size="660" lengthAdjust="spacingAndGlyphs"
text-anchor="middle" opacity="0">3</text>
<path d="M48830 30370
L49140 30370
L48970 30560
L49040 30560
L49090 30590
L49110 30610
L49140 30660
L49140 30780
L49110 30820
L49090 30850
L49040 30870
L48900 30870
L48850 30850
L48830 30820
" />
<path d="M49500 32000
L48500 32000
" />
<path d="M49750 31750
L49250 32250
" />
<path d="M49750 32250
L49250 31750
" />
<path d="M48350 31850
L48650 32150
" />
<path d="M48650 31850
L48350 32150
" />
</g>
<g style="fill:#008484; fill-opacity:0.0; 
stroke:#008484; stroke-width:60; stroke-opacity:1; 
stroke-linecap:round; stroke-linejoin:round;">
<text x="49900" y="32250"
textLength="1080" font-size="660" lengthAdjust="spacingAndGlyphs"
text-anchor="start" opacity="0">NC</text>
<path d="M50040 32220
L50040 31720
L50330 32220
L50330 31720
" />
<path d="M50850 32170
L50830 32200
L50760 32220
L50710 32220
L50640 32200
L50590 32150
L50570 32100
L50540 32010
L50540 31940
L50570 31840
L50590 31790
L50640 31750
L50710 31720
L50760 31720
L50830 31750
L50850 31770
" />
</g>
<g style="fill:#840000; fill-opacity:0.0; 
stroke:#840000; stroke-width:60; stroke-opacity:1; 
stroke-linecap:round; stroke-linejoin:round;">
<text x="49000" y="31900"
textLength="540" font-size="660" lengthAdjust="spacingAndGlyphs"
text-anchor="middle" opacity="0">4</text>
<path d="M49090 31540
L49090 31870
" />
<path d="M48970 31350
L48850 31700
L49160 31700
" />
<path d="M49500 33000
L48500 33000
" />
</g>
<g style="fill:#008484; fill-opacity:0.0; 
stroke:#008484; stroke-width:60; stroke-opacity:1; 
stroke-linecap:round; stroke-linejoin:round;">
<text x="49900" y="33250"
textLength="1510" font-size="660" lengthAdjust="spacingAndGlyphs"
text-anchor="start" opacity="0">OVP</text>
<path d="M50140 32720
L50230 32720
L50280 32750
L50330 32790
L50350 32890
L50350 33050
L50330 33150
L50280 33200
L50230 33220
L50140 33220
L50090 33200
L50040 33150
L50020 33050
L50020 32890
L50040 32790
L50090 32750
L50140 32720
" />
<path d="M50500 32720
L50660 33220
L50830 32720
" />
<path d="M51000 33220
L51000 32720
L51190 32720
L51230 32750
L51260 32770
L51280 32820
L51280 32890
L51260 32940
L51230 32960
L51190 32980
L51000 32980
" />
</g>
<g style="fill:#840000; fill-opacity:0.0; 
stroke:#840000; stroke-width:60; stroke-opacity:1; 
stroke-linecap:round; stroke-linejoin:round;">
<text x="49000" y="32900"
textLength="540" font-size="660" lengthAdjust="spacingAndGlyphs"
text-anchor="middle" opacity="0">5</text>
<path d="M49110 32370
L48880 32370
L48850 32610
L48880 32590
L48920 32560
L49040 32560
L49090 32590
L49110 32610
L49140 32660
L49140 32780
L49110 32820
L49090 32850
L49040 32870
L48920 32870
L48880 32850
L48850 32820
" />
<path d="M49500 34000
L48500 34000
" />
</g>
<g style="fill:#008484; fill-opacity:0.0; 
stroke:#008484; stroke-width:60; stroke-opacity:1; 
stroke-linecap:round; stroke-linejoin:round;">
<text x="49900" y="34250"
textLength="2110" font-size="660" lengthAdjust="spacingAndGlyphs"
text-anchor="start" opacity="0">MODE</text>
<path d="M50040 34220
L50040 33720
L50210 34080
L50380 33720
L50380 34220
" />
<path d="M50710 33720
L50810 33720
L50850 33750
L50900 33790
L50930 33890
L50930 34050
L50900 34150
L50850 34200
L50810 34220
L50710 34220
L50660 34200
L50620 34150
L50590 34050
L50590 33890
L50620 33790
L50660 33750
L50710 33720
" />
<path d="M51140 34220
L51140 33720
L51260 33720
L51330 33750
L51380 33790
L51400 33840
L51430 33940
L51430 34010
L51400 34100
L51380 34150
L51330 34200
L51260 34220
L51140 34220
" />
<path d="M51640 33960
L51810 33960
" />
<path d="M51880 34220
L51640 34220
L51640 33720
L51880 33720
" />
</g>
<g style="fill:#840000; fill-opacity:0.0; 
stroke:#840000; stroke-width:60; stroke-opacity:1; 
stroke-linecap:round; stroke-linejoin:round;">
<text x="49000" y="33900"
textLength="540" font-size="660" lengthAdjust="spacingAndGlyphs"
text-anchor="middle" opacity="0">6</text>
<path d="M49090 33370
L49000 33370
L48950 33400
L48920 33420
L48880 33490
L48850 33590
L48850 33780
L48880 33820
L48900 33850
L48950 33870
L49040 33870
L49090 33850
L49110 33820
L49140 33780
L49140 33660
L49110 33610
L49090 33590
L49040 33560
L48950 33560
L48900 33590
L48880 33610
L48850 33660
" />
<circle cx="49250" cy="35000" r="250" /> 
<path d="M49000 35000
L48500 35000
" />
</g>
<g style="fill:#008484; fill-opacity:0.0; 
stroke:#008484; stroke-width:60; stroke-opacity:1; 
stroke-linecap:round; stroke-linejoin:round;">
<text x="49900" y="35250"
textLength="2080" font-size="660" lengthAdjust="spacingAndGlyphs"
text-anchor="start" opacity="0">SHDN</text>
<path d="M50020 35200
L50090 35220
L50210 35220
L50260 35200
L50280 35170
L50310 35130
L50310 35080
L50280 35030
L50260 35010
L50210 34980
L50120 34960
L50070 34940
L50040 34910
L50020 34860
L50020 34820
L50040 34770
L50070 34750
L50120 34720
L50230 34720
L50310 34750
" />
<path d="M50520 35220
L50520 34720
" />
<path d="M50520 34960
L50810 34960
" />
<path d="M50810 35220
L50810 34720
" />
<path d="M51040 35220
L51040 34720
L51160 34720
L51230 34750
L51280 34790
L51310 34840
L51330 34940
L51330 35010
L51310 35100
L51280 35150
L51230 35200
L51160 35220
L51040 35220
" />
<path d="M51540 35220
L51540 34720
L51830 35220
L51830 34720
" />
</g>
<g style="fill:#840000; fill-opacity:0.0; 
stroke:#840000; stroke-width:60; stroke-opacity:1; 
stroke-linecap:round; stroke-linejoin:round;">
<text x="49000" y="34900"
textLength="540" font-size="660" lengthAdjust="spacingAndGlyphs"
text-anchor="middle" opacity="0">7</text>
<path d="M48830 34370
L49160 34370
L48950 34870
" />
<path d="M49500 36000
L48500 36000
" />
</g>
<g style="fill:#008484; fill-opacity:0.0; 
stroke:#008484; stroke-width:60; stroke-opacity:1; 
stroke-linecap:round; stroke-linejoin:round;">
<text x="49900" y="36250"
textLength="1460" font-size="660" lengthAdjust="spacingAndGlyphs"
text-anchor="start" opacity="0">RTN</text>
<path d="M50330 36220
L50160 35980
" />
<path d="M50040 36220
L50040 35720
L50230 35720
L50280 35750
L50310 35770
L50330 35820
L50330 35890
L50310 35940
L50280 35960
L50230 35980
L50040 35980
" />
<path d="M50470 35720
L50760 35720
" />
<path d="M50620 36220
L50620 35720
" />
<path d="M50930 36220
L50930 35720
L51210 36220
L51210 35720
" />
</g>
<g style="fill:#840000; fill-opacity:0.0; 
stroke:#840000; stroke-width:60; stroke-opacity:1; 
stroke-linecap:round; stroke-linejoin:round;">
<text x="49000" y="35900"
textLength="540" font-size="660" lengthAdjust="spacingAndGlyphs"
text-anchor="middle" opacity="0">8</text>
<path d="M48950 35590
L48900 35560
L48880 35540
L48850 35490
L48850 35470
L48880 35420
L48900 35400
L48950 35370
L49040 35370
L49090 35400
L49110 35420
L49140 35470
L49140 35490
L49110 35540
L49090 35560
L49040 35590
L48950 35590
L48900 35610
L48880 35630
L48850 35680
L48850 35780
L48880 35820
L48900 35850
L48950 35870
L49040 35870
L49090 35850
L49110 35820
L49140 35780
L49140 35680
L49110 35630
L49090 35610
L49040 35590
" />
<path d="M56500 36000
L57500 36000
" />
</g>
<g style="fill:#008484; fill-opacity:0.0; 
stroke:#008484; stroke-width:60; stroke-opacity:1; 
stroke-linecap:round; stroke-linejoin:round;">
<text x="56100" y="36250"
textLength="1580" font-size="660" lengthAdjust="spacingAndGlyphs"
text-anchor="end" opacity="0">GND</text>
<path d="M54920 35750
L54870 35720
L54800 35720
L54730 35750
L54680 35790
L54660 35840
L54640 35940
L54640 36010
L54660 36100
L54680 36150
L54730 36200
L54800 36220
L54850 36220
L54920 36200
L54950 36170
L54950 36010
L54850 36010
" />
<path d="M55160 36220
L55160 35720
L55450 36220
L55450 35720
" />
<path d="M55680 36220
L55680 35720
L55800 35720
L55870 35750
L55920 35790
L55950 35840
L55970 35940
L55970 36010
L55950 36100
L55920 36150
L55870 36200
L55800 36220
L55680 36220
" />
</g>
<g style="fill:#840000; fill-opacity:0.0; 
stroke:#840000; stroke-width:60; stroke-opacity:1; 
stroke-linecap:round; stroke-linejoin:round;">
<text x="57000" y="35900"
textLength="540" font-size="660" lengthAdjust="spacingAndGlyphs"
text-anchor="middle" opacity="0">9</text>
<path d="M56900 35870
L57000 35870
L57040 35850
L57070 35820
L57110 35750
L57140 35660
L57140 35470
L57110 35420
L57090 35400
L57040 35370
L56950 35370
L56900 35400
L56880 35420
L56850 35470
L56850 35590
L56880 35630
L56900 35660
L56950 35680
L57040 35680
L57090 35660
L57110 35630
L57140 35590
" />
</g>
<g style="fill:#008484; fill-opacity:0.0; 
stroke:#008484; stroke-width:60; stroke-opacity:1; 
stroke-linecap:round; stroke-linejoin:round;">
<text x="53000" y="27020"
textLength="1060" font-size="660" lengthAdjust="spacingAndGlyphs"
text-anchor="middle" opacity="0">U1</text>
<path d="M52610 26490
L52610 26900
L52640 26940
L52660 26970
L52710 26990
L52800 26990
L52850 26970
L52880 26940
L52900 26900
L52900 26490
" />
<path d="M53400 26990
L53110 26990
" />
<path d="M53260 26990
L53260 26490
L53210 26560
L53160 26610
L53110 26630
" />
<text x="53000" y="27930"
textLength="3800" font-size="660" lengthAdjust="spacingAndGlyphs"
text-anchor="middle" opacity="0">TPS26600</text>
<path d="M51170 27400
L51460 27400
" />
<path d="M51320 27900
L51320 27400
" />
<path d="M51630 27900
L51630 27400
L51820 27400
L51860 27430
L51890 27450
L51910 27500
L51910 27570
L51890 27620
L51860 27640
L51820 27660
L51630 27660
" />
<path d="M52100 27880
L52170 27900
L52290 27900
L52340 27880
L52360 27850
L52390 27810
L52390 27760
L52360 27710
L52340 27690
L52290 27660
L52200 27640
L52150 27620
L52130 27590
L52100 27540
L52100 27500
L52130 27450
L52150 27430
L52200 27400
L52320 27400
L52390 27430
" />
<path d="M52580 27450
L52600 27430
L52650 27400
L52770 27400
L52820 27430
L52840 27450
L52860 27500
L52860 27540
L52840 27620
L52550 27900
L52860 27900
" />
<path d="M53290 27400
L53200 27400
L53150 27430
L53130 27450
L53080 27520
L53050 27620
L53050 27810
L53080 27850
L53100 27880
L53150 27900
L53250 27900
L53290 27880
L53320 27850
L53340 27810
L53340 27690
L53320 27640
L53290 27620
L53250 27590
L53150 27590
L53100 27620
L53080 27640
L53050 27690
" />
<path d="M53770 27400
L53670 27400
L53630 27430
L53600 27450
L53550 27520
L53530 27620
L53530 27810
L53550 27850
L53580 27880
L53630 27900
L53720 27900
L53770 27880
L53790 27850
L53820 27810
L53820 27690
L53790 27640
L53770 27620
L53720 27590
L53630 27590
L53580 27620
L53550 27640
L53530 27690
" />
<path d="M54130 27400
L54170 27400
L54220 27430
L54250 27450
L54270 27500
L54290 27590
L54290 27710
L54270 27810
L54250 27850
L54220 27880
L54170 27900
L54130 27900
L54080 27880
L54050 27850
L54030 27810
L54010 27710
L54010 27590
L54030 27500
L54050 27450
L54080 27430
L54130 27400
" />
<path d="M54600 27400
L54650 27400
L54700 27430
L54720 27450
L54750 27500
L54770 27590
L54770 27710
L54750 27810
L54720 27850
L54700 27880
L54650 27900
L54600 27900
L54550 27880
L54530 27850
L54510 27810
L54480 27710
L54480 27590
L54510 27500
L54530 27450
L54550 27430
L54600 27400
" />
</g>
</g>
<g style="fill:#008484; fill-opacity:0.0; 
stroke:#008484; stroke-width:0; stroke-opacity:1; 
stroke-linecap:round; stroke-linejoin:round;">
<g >
</g>
<g style="fill:#840000; fill-opacity:0.0; 
stroke:#840000; stroke-width:0; stroke-opacity:1; 
stroke-linecap:round; stroke-linejoin:round;">
</g>
<g style="fill:#840000; fill-opacity:0.0; 
stroke:#840000; stroke-width:60; stroke-opacity:1; 
stroke-linecap:round; stroke-linejoin:round;">
<path style="fill:#840000; fill-opacity:0.0; 
stroke:#840000; stroke-width:60; stroke-opacity:1; 
stroke-linecap:round; stroke-linejoin:round;fill:none"
d="M 43000,28500
43000,29000
43500,29000
43000,29500
42500,29000
43000,29000
" /> 
</g>
<g style="fill:#008484; fill-opacity:0.0; 
stroke:#008484; stroke-width:60; stroke-opacity:1; 
stroke-linecap:round; stroke-linejoin:round;">
<text x="43050" y="30500"
textLength="1580" font-size="660" lengthAdjust="spacingAndGlyphs"
text-anchor="middle" opacity="0">GND</text>
<path d="M42660 30000
L42620 29970
L42550 29970
L42470 30000
L42430 30040
L42400 30090
L42380 30190
L42380 30260
L42400 30350
L42430 30400
L42470 30450
L42550 30470
L42590 30470
L42660 30450
L42690 30420
L42690 30260
L42590 30260
" />
<path d="M42900 30470
L42900 29970
L43190 30470
L43190 29970
" />
<path d="M43430 30470
L43430 29970
L43550 29970
L43620 30000
L43660 30040
L43690 30090
L43710 30190
L43710 30260
L43690 30350
L43660 30400
L43620 30450
L43550 30470
L43430 30470
" />
</g>
</g>
<g style="fill:#008484; fill-opacity:0.0; 
stroke:#008484; stroke-width:0; stroke-opacity:1; 
stroke-linecap:round; stroke-linejoin:round;">
<g >
</g>
<g style="fill:#840000; fill-opacity:0.0; 
stroke:#840000; stroke-width:0; stroke-opacity:1; 
stroke-linecap:round; stroke-linejoin:round;">
</g>
<g style="fill:#840000; fill-opacity:0.0; 
stroke:#840000; stroke-width:100; stroke-opacity:1; 
stroke-linecap:round; stroke-linejoin:round;">
<path style="fill:#840000; fill-opacity:0.0; 
stroke:#840000; stroke-width:100; stroke-opacity:1; 
stroke-linecap:round; stroke-linejoin:round;fill:none"
d="M 74700,30700
76300,30700
" /> 
<path style="fill:#840000; fill-opacity:0.0; 
stroke:#840000; stroke-width:100; stroke-opacity:1; 
stroke-linecap:round; stroke-linejoin:round;fill:none"
d="M 74700,31300
76300,31300
" /> 
</g>
<g style="fill:#840000; fill-opacity:0.0; 
stroke:#840000; stroke-width:60; stroke-opacity:1; 
stroke-linecap:round; stroke-linejoin:round;">
<path d="M75500 30640
L75500 29500
" />
<path d="M75500 31360
L75500 32500
" />
</g>
<g style="fill:#008484; fill-opacity:0.0; 
stroke:#008484; stroke-width:60; stroke-opacity:1; 
stroke-linecap:round; stroke-linejoin:round;">
<text x="77120" y="30810"
textLength="1040" font-size="660" lengthAdjust="spacingAndGlyphs"
text-anchor="middle" opacity="0">C3</text>
<path d="M77030 30730
L77010 30760
L76940 30780
L76890 30780
L76820 30760
L76770 30710
L76750 30660
L76720 30570
L76720 30500
L76750 30400
L76770 30350
L76820 30310
L76890 30280
L76940 30280
L77010 30310
L77030 30330
" />
<path d="M77200 30280
L77510 30280
L77340 30470
L77410 30470
L77460 30500
L77480 30520
L77510 30570
L77510 30690
L77480 30730
L77460 30760
L77410 30780
L77270 30780
L77220 30760
L77200 30730
" />
<text x="77090" y="31720"
textLength="990" font-size="660" lengthAdjust="spacingAndGlyphs"
text-anchor="middle" opacity="0">1u</text>
<path d="M77000 31690
L76720 31690
" />
<path d="M76860 31690
L76860 31190
L76810 31260
L76760 31310
L76720 31330
" />
<path d="M77430 31360
L77430 31690
" />
<path d="M77220 31360
L77220 31620
L77240 31670
L77290 31690
L77360 31690
L77410 31670
L77430 31640
" />
</g>
</g>
<g style="fill:#008484; fill-opacity:0.0; 
stroke:#008484; stroke-width:0; stroke-opacity:1; 
stroke-linecap:round; stroke-linejoin:round;">
<g >
</g>
<g style="fill:#840000; fill-opacity:0.0; 
stroke:#840000; stroke-width:0; stroke-opacity:1; 
stroke-linecap:round; stroke-linejoin:round;">
</g>
<g style="fill:#840000; fill-opacity:0.0; 
stroke:#840000; stroke-width:60; stroke-opacity:1; 
stroke-linecap:round; stroke-linejoin:round;">
<path style="fill:#840000; fill-opacity:0.0; 
stroke:#840000; stroke-width:60; stroke-opacity:1; 
stroke-linecap:round; stroke-linejoin:round;fill:none"
d="M 75500,33500
75500,34000
76000,34000
75500,34500
75000,34000
75500,34000
" /> 
</g>
<g style="fill:#008484; fill-opacity:0.0; 
stroke:#008484; stroke-width:60; stroke-opacity:1; 
stroke-linecap:round; stroke-linejoin:round;">
<text x="75550" y="35500"
textLength="1580" font-size="660" lengthAdjust="spacingAndGlyphs"
text-anchor="middle" opacity="0">GND</text>
<path d="M75160 35000
L75120 34970
L75050 34970
L74970 35000
L74930 35040
L74900 35090
L74880 35190
L74880 35260
L74900 35350
L74930 35400
L74970 35450
L75050 35470
L75090 35470
L75160 35450
L75190 35420
L75190 35260
L75090 35260
" />
<path d="M75400 35470
L75400 34970
L75690 35470
L75690 34970
" />
<path d="M75930 35470
L75930 34970
L76050 34970
L76120 35000
L76160 35040
L76190 35090
L76210 35190
L76210 35260
L76190 35350
L76160 35400
L76120 35450
L76050 35470
L75930 35470
" />
</g>
</g>
<g style="fill:#008484; fill-opacity:0.0; 
stroke:#008484; stroke-width:0; stroke-opacity:1; 
stroke-linecap:round; stroke-linejoin:round;">
<g >
</g>
<g style="fill:#840000; fill-opacity:0.0; 
stroke:#840000; stroke-width:0; stroke-opacity:1; 
stroke-linecap:round; stroke-linejoin:round;">
</g>
<g style="fill:#840000; fill-opacity:0.0; 
stroke:#840000; stroke-width:100; stroke-opacity:1; 
stroke-linecap:round; stroke-linejoin:round;">
<path style="fill:#840000; fill-opacity:0.0; 
stroke:#840000; stroke-width:100; stroke-opacity:1; 
stroke-linecap:round; stroke-linejoin:round;fill:none"
d="M 65700,38200
67300,38200
" /> 
<path style="fill:#840000; fill-opacity:0.0; 
stroke:#840000; stroke-width:100; stroke-opacity:1; 
stroke-linecap:round; stroke-linejoin:round;fill:none"
d="M 65700,38800
67300,38800
" /> 
</g>
<g style="fill:#840000; fill-opacity:0.0; 
stroke:#840000; stroke-width:60; stroke-opacity:1; 
stroke-linecap:round; stroke-linejoin:round;">
<path d="M66500 38140
L66500 37000
" />
<path d="M66500 38860
L66500 40000
" />
</g>
<g style="fill:#008484; fill-opacity:0.0; 
stroke:#008484; stroke-width:60; stroke-opacity:1; 
stroke-linecap:round; stroke-linejoin:round;">
<text x="68120" y="38310"
textLength="1040" font-size="660" lengthAdjust="spacingAndGlyphs"
text-anchor="middle" opacity="0">C2</text>
<path d="M68030 38230
L68010 38260
L67940 38280
L67890 38280
L67820 38260
L67770 38210
L67750 38160
L67720 38070
L67720 38000
L67750 37900
L67770 37850
L67820 37810
L67890 37780
L67940 37780
L68010 37810
L68030 37830
" />
<path d="M68220 37830
L68250 37810
L68290 37780
L68410 37780
L68460 37810
L68480 37830
L68510 37880
L68510 37920
L68480 38000
L68200 38280
L68510 38280
" />
<text x="68450" y="39220"
textLength="1700" font-size="660" lengthAdjust="spacingAndGlyphs"
text-anchor="middle" opacity="0">1,2n</text>
<path d="M68000 39190
L67720 39190
" />
<path d="M67860 39190
L67860 38690
L67810 38760
L67770 38810
L67720 38830
" />
<path d="M68240 39170
L68240 39190
L68220 39240
L68200 39260
" />
<path d="M68430 38740
L68460 38720
L68500 38690
L68620 38690
L68670 38720
L68700 38740
L68720 38790
L68720 38830
L68700 38910
L68410 39190
L68720 39190
" />
<path d="M68930 38860
L68930 39190
" />
<path d="M68930 38910
L68960 38880
L69000 38860
L69080 38860
L69120 38880
L69150 38930
L69150 39190
" />
</g>
</g>
<g style="fill:#008484; fill-opacity:0.0; 
stroke:#008484; stroke-width:0; stroke-opacity:1; 
stroke-linecap:round; stroke-linejoin:round;">
<g >
</g>
<g style="fill:#840000; fill-opacity:0.0; 
stroke:#840000; stroke-width:0; stroke-opacity:1; 
stroke-linecap:round; stroke-linejoin:round;">
</g>
<g style="fill:#840000; fill-opacity:0.0; 
stroke:#840000; stroke-width:60; stroke-opacity:1; 
stroke-linecap:round; stroke-linejoin:round;">
<path style="fill:#840000; fill-opacity:0.0; 
stroke:#840000; stroke-width:60; stroke-opacity:1; 
stroke-linecap:round; stroke-linejoin:round;fill:none"
d="M 58000,37000
58000,37500
58500,37500
58000,38000
57500,37500
58000,37500
" /> 
</g>
<g style="fill:#008484; fill-opacity:0.0; 
stroke:#008484; stroke-width:60; stroke-opacity:1; 
stroke-linecap:round; stroke-linejoin:round;">
<text x="58050" y="39000"
textLength="1580" font-size="660" lengthAdjust="spacingAndGlyphs"
text-anchor="middle" opacity="0">GND</text>
<path d="M57660 38500
L57620 38470
L57550 38470
L57470 38500
L57430 38540
L57400 38590
L57380 38690
L57380 38760
L57400 38850
L57430 38900
L57470 38950
L57550 38970
L57590 38970
L57660 38950
L57690 38920
L57690 38760
L57590 38760
" />
<path d="M57900 38970
L57900 38470
L58190 38970
L58190 38470
" />
<path d="M58430 38970
L58430 38470
L58550 38470
L58620 38500
L58660 38540
L58690 38590
L58710 38690
L58710 38760
L58690 38850
L58660 38900
L58620 38950
L58550 38970
L58430 38970
" />
</g>
</g>
<g style="fill:#008484; fill-opacity:0.0; 
stroke:#008484; stroke-width:0; stroke-opacity:1; 
stroke-linecap:round; stroke-linejoin:round;">
<g >
</g>
<g style="fill:#840000; fill-opacity:0.0; 
stroke:#840000; stroke-width:0; stroke-opacity:1; 
stroke-linecap:round; stroke-linejoin:round;">
</g>
<g style="fill:#840000; fill-opacity:0.0; 
stroke:#840000; stroke-width:180; stroke-opacity:1; 
stroke-linecap:round; stroke-linejoin:round;">
<circle cx="70500" cy="34900" r="100" /> 
<circle cx="69500" cy="34900" r="100" /> 
</g>
<g style="fill:#840000; fill-opacity:0.0; 
stroke:#840000; stroke-width:100; stroke-opacity:1; 
stroke-linecap:round; stroke-linejoin:round;">
<path style="fill:#840000; fill-opacity:0.0; 
stroke:#840000; stroke-width:100; stroke-opacity:1; 
stroke-linecap:round; stroke-linejoin:round;fill:none"
d="M 71000,34500
71000,35300
" /> 
<path style="fill:#840000; fill-opacity:0.0; 
stroke:#840000; stroke-width:100; stroke-opacity:1; 
stroke-linecap:round; stroke-linejoin:round;fill:none"
d="M 71000,34500
69000,34500
" /> 
</g>
<g style="fill:#840000; fill-opacity:0.0; 
stroke:#840000; stroke-width:60; stroke-opacity:1; 
stroke-linecap:round; stroke-linejoin:round;">
<path style="fill:#840000; fill-opacity:0.0; 
stroke:#840000; stroke-width:60; stroke-opacity:1; 
stroke-linecap:round; stroke-linejoin:round;fill:none"
d="M 70500,34500
70500,34900
" /> 
<path style="fill:#840000; fill-opacity:0.0; 
stroke:#840000; stroke-width:60; stroke-opacity:1; 
stroke-linecap:round; stroke-linejoin:round;fill:none"
d="M 69500,34500
69500,34900
" /> 
</g>
<g style="fill:#840000; fill-opacity:0.0; 
stroke:#840000; stroke-width:100; stroke-opacity:1; 
stroke-linecap:round; stroke-linejoin:round;">
<path style="fill:#840000; fill-opacity:0.0; 
stroke:#840000; stroke-width:100; stroke-opacity:1; 
stroke-linecap:round; stroke-linejoin:round;fill:none"
d="M 69000,34500
69000,35300
71000,35300
" /> 
</g>
<g style="fill:#840000; fill-opacity:0.0; 
stroke:#840000; stroke-width:60; stroke-opacity:1; 
stroke-linecap:round; stroke-linejoin:round;">
<path d="M70500 34500
L70500 33500
" />
<g transform="rotate(-90 70400 34000)">
<text x="70400" y="34000"
textLength="540" font-size="660" lengthAdjust="spacingAndGlyphs"
text-anchor="middle" opacity="0">1</text>
</g>
<path d="M70370 33850
L70370 34140
" />
<path d="M70370 34000
L69870 34000
L69940 34040
L69990 34090
L70010 34140
" />
<path d="M69500 34500
L69500 33500
" />
<g transform="rotate(-90 69400 34000)">
<text x="69400" y="34000"
textLength="540" font-size="660" lengthAdjust="spacingAndGlyphs"
text-anchor="middle" opacity="0">2</text>
</g>
<path d="M68920 34140
L68900 34110
L68870 34070
L68870 33950
L68900 33900
L68920 33880
L68970 33850
L69010 33850
L69090 33880
L69370 34160
L69370 33850
" />
</g>
<g style="fill:#008484; fill-opacity:0.0; 
stroke:#008484; stroke-width:60; stroke-opacity:1; 
stroke-linecap:round; stroke-linejoin:round;">
<text x="71980" y="35220"
textLength="1040" font-size="660" lengthAdjust="spacingAndGlyphs"
text-anchor="middle" opacity="0">P3</text>
<path d="M71610 35190
L71610 34690
L71800 34690
L71840 34720
L71870 34740
L71890 34790
L71890 34860
L71870 34910
L71840 34930
L71800 34950
L71610 34950
" />
<path d="M72060 34690
L72370 34690
L72200 34880
L72270 34880
L72320 34910
L72340 34930
L72370 34980
L72370 35100
L72340 35140
L72320 35170
L72270 35190
L72130 35190
L72080 35170
L72060 35140
" />
<text x="70400" y="36220"
textLength="7200" font-size="660" lengthAdjust="spacingAndGlyphs"
text-anchor="middle" opacity="0">1x2_pins_header_rl</text>
<path d="M67200 36190
L66920 36190
" />
<path d="M67060 36190
L67060 35690
L67010 35760
L66970 35810
L66920 35830
" />
<path d="M67370 36190
L67630 35860
" />
<path d="M67370 35860
L67630 36190
" />
<path d="M67800 35740
L67820 35720
L67870 35690
L67990 35690
L68040 35720
L68060 35740
L68090 35790
L68090 35830
L68060 35910
L67780 36190
L68090 36190
" />
<path d="M68180 36240
L68560 36240
" />
<path d="M68680 35860
L68680 36360
" />
<path d="M68680 35880
L68730 35860
L68820 35860
L68870 35880
L68900 35910
L68920 35950
L68920 36100
L68900 36140
L68870 36170
L68820 36190
L68730 36190
L68680 36170
" />
<path d="M69130 36190
L69130 35860
" />
<path d="M69130 35690
L69110 35720
L69130 35740
L69160 35720
L69130 35690
L69130 35740
" />
<path d="M69370 35860
L69370 36190
" />
<path d="M69370 35910
L69400 35880
L69440 35860
L69510 35860
L69560 35880
L69590 35930
L69590 36190
" />
<path d="M69800 36170
L69850 36190
L69940 36190
L69990 36170
L70010 36120
L70010 36100
L69990 36050
L69940 36020
L69870 36020
L69820 36000
L69800 35950
L69800 35930
L69820 35880
L69870 35860
L69940 35860
L69990 35880
" />
<path d="M70110 36240
L70490 36240
" />
<path d="M70610 36190
L70610 35690
" />
<path d="M70820 36190
L70820 35930
L70800 35880
L70750 35860
L70680 35860
L70630 35880
L70610 35910
" />
<path d="M71250 36170
L71200 36190
L71110 36190
L71060 36170
L71040 36120
L71040 35930
L71060 35880
L71110 35860
L71200 35860
L71250 35880
L71280 35930
L71280 35980
L71040 36020
" />
<path d="M71700 36190
L71700 35930
L71680 35880
L71630 35860
L71540 35860
L71490 35880
" />
<path d="M71700 36170
L71660 36190
L71540 36190
L71490 36170
L71470 36120
L71470 36070
L71490 36020
L71540 36000
L71660 36000
L71700 35980
" />
<path d="M72160 36190
L72160 35690
" />
<path d="M72160 36170
L72110 36190
L72010 36190
L71970 36170
L71940 36140
L71920 36100
L71920 35950
L71940 35910
L71970 35880
L72010 35860
L72110 35860
L72160 35880
" />
<path d="M72590 36170
L72540 36190
L72440 36190
L72400 36170
L72370 36120
L72370 35930
L72400 35880
L72440 35860
L72540 35860
L72590 35880
L72610 35930
L72610 35980
L72370 36020
" />
<path d="M72820 36190
L72820 35860
" />
<path d="M72820 35950
L72850 35910
L72870 35880
L72920 35860
L72970 35860
" />
<path d="M73010 36240
L73400 36240
" />
<path d="M73510 36190
L73510 35860
" />
<path d="M73510 35950
L73540 35910
L73560 35880
L73610 35860
L73660 35860
" />
<path d="M73900 36190
L73850 36170
L73820 36120
L73820 35690
" />
</g>
</g>
<g style="fill:#008484; fill-opacity:0.0; 
stroke:#008484; stroke-width:0; stroke-opacity:1; 
stroke-linecap:round; stroke-linejoin:round;">
<g >
</g>
<g style="fill:#840000; fill-opacity:0.0; 
stroke:#840000; stroke-width:0; stroke-opacity:1; 
stroke-linecap:round; stroke-linejoin:round;">
</g>
<g style="fill:#840000; fill-opacity:0.0; 
stroke:#840000; stroke-width:60; stroke-opacity:1; 
stroke-linecap:round; stroke-linejoin:round;">
<path style="fill:#840000; fill-opacity:0.0; 
stroke:#840000; stroke-width:60; stroke-opacity:1; 
stroke-linecap:round; stroke-linejoin:round;fill:none"
d="M 74500,27500
74500,27000
74100,26750
74500,26500
74900,26750
74500,27000
" /> 
<path d="M74500 27500
L74500 27500
" />
</g>
<g style="fill:#008484; fill-opacity:0.0; 
stroke:#008484; stroke-width:60; stroke-opacity:1; 
stroke-linecap:round; stroke-linejoin:round;">
<text x="74500" y="26040"
textLength="3770" font-size="660" lengthAdjust="spacingAndGlyphs"
text-anchor="middle" opacity="0">PWR_FLAG</text>
<path d="M72760 26010
L72760 25510
L72950 25510
L73000 25540
L73020 25560
L73040 25610
L73040 25680
L73020 25730
L73000 25750
L72950 25770
L72760 25770
" />
<path d="M73210 25510
L73330 26010
L73420 25650
L73520 26010
L73640 25510
" />
<path d="M74110 26010
L73950 25770
" />
<path d="M73830 26010
L73830 25510
L74020 25510
L74070 25540
L74090 25560
L74110 25610
L74110 25680
L74090 25730
L74070 25750
L74020 25770
L73830 25770
" />
<path d="M74210 26060
L74590 26060
" />
<path d="M74880 25750
L74710 25750
" />
<path d="M74710 26010
L74710 25510
L74950 25510
" />
<path d="M75380 26010
L75140 26010
L75140 25510
" />
<path d="M75520 25870
L75760 25870
" />
<path d="M75470 26010
L75640 25510
L75800 26010
" />
<path d="M76230 25540
L76190 25510
L76110 25510
L76040 25540
L76000 25580
L75970 25630
L75950 25730
L75950 25800
L75970 25890
L76000 25940
L76040 25990
L76110 26010
L76160 26010
L76230 25990
L76260 25960
L76260 25800
L76160 25800
" />
</g>
</g>
<g style="fill:#008484; fill-opacity:0.0; 
stroke:#008484; stroke-width:0; stroke-opacity:1; 
stroke-linecap:round; stroke-linejoin:round;">
<g >
</g>
<g style="fill:#840000; fill-opacity:0.0; 
stroke:#840000; stroke-width:0; stroke-opacity:1; 
stroke-linecap:round; stroke-linejoin:round;">
</g>
<g style="fill:#840000; fill-opacity:0.0; 
stroke:#840000; stroke-width:60; stroke-opacity:1; 
stroke-linecap:round; stroke-linejoin:round;">
<path style="fill:#840000; fill-opacity:0.0; 
stroke:#840000; stroke-width:60; stroke-opacity:1; 
stroke-linecap:round; stroke-linejoin:round;fill:none"
d="M 55000,23000
55000,23500
55400,23750
55000,24000
54600,23750
55000,23500
" /> 
<path d="M55000 23000
L55000 23000
" />
</g>
<g style="fill:#008484; fill-opacity:0.0; 
stroke:#008484; stroke-width:60; stroke-opacity:1; 
stroke-linecap:round; stroke-linejoin:round;">
<text x="54990" y="24950"
textLength="3770" font-size="660" lengthAdjust="spacingAndGlyphs"
text-anchor="middle" opacity="0">PWR_FLAG</text>
<path d="M53250 24920
L53250 24420
L53440 24420
L53490 24450
L53510 24470
L53530 24520
L53530 24590
L53510 24640
L53490 24660
L53440 24680
L53250 24680
" />
<path d="M53700 24420
L53820 24920
L53910 24560
L54010 24920
L54130 24420
" />
<path d="M54600 24920
L54440 24680
" />
<path d="M54320 24920
L54320 24420
L54510 24420
L54560 24450
L54580 24470
L54600 24520
L54600 24590
L54580 24640
L54560 24660
L54510 24680
L54320 24680
" />
<path d="M54700 24970
L55080 24970
" />
<path d="M55370 24660
L55200 24660
" />
<path d="M55200 24920
L55200 24420
L55440 24420
" />
<path d="M55870 24920
L55630 24920
L55630 24420
" />
<path d="M56010 24780
L56250 24780
" />
<path d="M55960 24920
L56130 24420
L56290 24920
" />
<path d="M56720 24450
L56680 24420
L56600 24420
L56530 24450
L56490 24490
L56460 24540
L56440 24640
L56440 24710
L56460 24800
L56490 24850
L56530 24900
L56600 24920
L56650 24920
L56720 24900
L56750 24870
L56750 24710
L56650 24710
" />
</g>
</g>
<g style="fill:#008484; fill-opacity:0.0; 
stroke:#008484; stroke-width:0; stroke-opacity:1; 
stroke-linecap:round; stroke-linejoin:round;">
<g >
</g>
<g style="fill:#840000; fill-opacity:0.0; 
stroke:#840000; stroke-width:0; stroke-opacity:1; 
stroke-linecap:round; stroke-linejoin:round;">
</g>
<g style="fill:#840000; fill-opacity:0.0; 
stroke:#840000; stroke-width:60; stroke-opacity:1; 
stroke-linecap:round; stroke-linejoin:round;">
<path style="fill:#840000; fill-opacity:0.0; 
stroke:#840000; stroke-width:60; stroke-opacity:1; 
stroke-linecap:round; stroke-linejoin:round;fill:none"
d="M 52000,23000
52000,23500
52500,23500
52000,24000
51500,23500
52000,23500
" /> 
</g>
<g style="fill:#008484; fill-opacity:0.0; 
stroke:#008484; stroke-width:60; stroke-opacity:1; 
stroke-linecap:round; stroke-linejoin:round;">
<text x="52050" y="25000"
textLength="1580" font-size="660" lengthAdjust="spacingAndGlyphs"
text-anchor="middle" opacity="0">GND</text>
<path d="M51660 24500
L51620 24470
L51550 24470
L51470 24500
L51430 24540
L51400 24590
L51380 24690
L51380 24760
L51400 24850
L51430 24900
L51470 24950
L51550 24970
L51590 24970
L51660 24950
L51690 24920
L51690 24760
L51590 24760
" />
<path d="M51900 24970
L51900 24470
L52190 24970
L52190 24470
" />
<path d="M52430 24970
L52430 24470
L52550 24470
L52620 24500
L52660 24540
L52690 24590
L52710 24690
L52710 24760
L52690 24850
L52660 24900
L52620 24950
L52550 24970
L52430 24970
" />
</g>
</g>
<g style="fill:#008484; fill-opacity:0.0; 
stroke:#008484; stroke-width:0; stroke-opacity:1; 
stroke-linecap:round; stroke-linejoin:round;">
<g >
</g>
<g style="fill:#840000; fill-opacity:0.0; 
stroke:#840000; stroke-width:0; stroke-opacity:1; 
stroke-linecap:round; stroke-linejoin:round;">
</g>
<g style="fill:#840000; fill-opacity:0.0; 
stroke:#840000; stroke-width:100; stroke-opacity:1; 
stroke-linecap:round; stroke-linejoin:round;">
<rect x="36600" y="27500" width="800" height="2000" rx="0" />
</g>
<g style="fill:#840000; fill-opacity:0.0; 
stroke:#840000; stroke-width:60; stroke-opacity:1; 
stroke-linecap:round; stroke-linejoin:round;">
<path d="M37000 27500
L37000 27000
" />
<path d="M37000 29500
L37000 30000
" />
</g>
<g style="fill:#008484; fill-opacity:0.0; 
stroke:#008484; stroke-width:60; stroke-opacity:1; 
stroke-linecap:round; stroke-linejoin:round;">
<text x="38220" y="28310"
textLength="1040" font-size="660" lengthAdjust="spacingAndGlyphs"
text-anchor="middle" opacity="0">R5</text>
<path d="M38130 28280
L37970 28040
" />
<path d="M37850 28280
L37850 27780
L38040 27780
L38080 27810
L38110 27830
L38130 27880
L38130 27950
L38110 28000
L38080 28020
L38040 28040
L37850 28040
" />
<path d="M38580 27780
L38350 27780
L38320 28020
L38350 28000
L38390 27970
L38510 27970
L38560 28000
L38580 28020
L38610 28070
L38610 28190
L38580 28230
L38560 28260
L38510 28280
L38390 28280
L38350 28260
L38320 28230
" />
<text x="38640" y="29220"
textLength="1890" font-size="660" lengthAdjust="spacingAndGlyphs"
text-anchor="middle" opacity="0">100k</text>
<path d="M38100 29190
L37810 29190
" />
<path d="M37960 29190
L37960 28690
L37910 28760
L37860 28810
L37810 28830
" />
<path d="M38410 28690
L38460 28690
L38500 28720
L38530 28740
L38550 28790
L38580 28880
L38580 29000
L38550 29100
L38530 29140
L38500 29170
L38460 29190
L38410 29190
L38360 29170
L38340 29140
L38310 29100
L38290 29000
L38290 28880
L38310 28790
L38340 28740
L38360 28720
L38410 28690
" />
<path d="M38890 28690
L38930 28690
L38980 28720
L39000 28740
L39030 28790
L39050 28880
L39050 29000
L39030 29100
L39000 29140
L38980 29170
L38930 29190
L38890 29190
L38840 29170
L38810 29140
L38790 29100
L38770 29000
L38770 28880
L38790 28790
L38810 28740
L38840 28720
L38890 28690
" />
<path d="M39270 29190
L39270 28690
" />
<path d="M39310 29000
L39460 29190
" />
<path d="M39460 28860
L39270 29050
" />
</g>
</g>
<g style="fill:#008484; fill-opacity:0.0; 
stroke:#008484; stroke-width:0; stroke-opacity:1; 
stroke-linecap:round; stroke-linejoin:round;">
<g >
</g>
<g style="fill:#840000; fill-opacity:0.0; 
stroke:#840000; stroke-width:0; stroke-opacity:1; 
stroke-linecap:round; stroke-linejoin:round;">
</g>
<g style="fill:#840000; fill-opacity:0.0; 
stroke:#840000; stroke-width:100; stroke-opacity:1; 
stroke-linecap:round; stroke-linejoin:round;">
<rect x="36600" y="37000" width="800" height="2000" rx="0" />
</g>
<g style="fill:#840000; fill-opacity:0.0; 
stroke:#840000; stroke-width:60; stroke-opacity:1; 
stroke-linecap:round; stroke-linejoin:round;">
<path d="M37000 37000
L37000 36500
" />
<path d="M37000 39000
L37000 39500
" />
</g>
<g style="fill:#008484; fill-opacity:0.0; 
stroke:#008484; stroke-width:60; stroke-opacity:1; 
stroke-linecap:round; stroke-linejoin:round;">
<text x="38450" y="37810"
textLength="1510" font-size="660" lengthAdjust="spacingAndGlyphs"
text-anchor="middle" opacity="0">R11</text>
<path d="M38120 37780
L37960 37540
" />
<path d="M37840 37780
L37840 37280
L38030 37280
L38080 37310
L38100 37330
L38120 37380
L38120 37450
L38100 37500
L38080 37520
L38030 37540
L37840 37540
" />
<path d="M38600 37780
L38310 37780
" />
<path d="M38460 37780
L38460 37280
L38410 37350
L38360 37400
L38310 37420
" />
<path d="M39080 37780
L38790 37780
" />
<path d="M38930 37780
L38930 37280
L38890 37350
L38840 37400
L38790 37420
" />
<text x="38410" y="38720"
textLength="1420" font-size="660" lengthAdjust="spacingAndGlyphs"
text-anchor="middle" opacity="0">30k</text>
<path d="M37800 38190
L38110 38190
L37940 38380
L38010 38380
L38060 38410
L38080 38430
L38110 38480
L38110 38600
L38080 38640
L38060 38670
L38010 38690
L37870 38690
L37820 38670
L37800 38640
" />
<path d="M38420 38190
L38460 38190
L38510 38220
L38540 38240
L38560 38290
L38580 38380
L38580 38500
L38560 38600
L38540 38640
L38510 38670
L38460 38690
L38420 38690
L38370 38670
L38350 38640
L38320 38600
L38300 38500
L38300 38380
L38320 38290
L38350 38240
L38370 38220
L38420 38190
" />
<path d="M38800 38690
L38800 38190
" />
<path d="M38850 38500
L38990 38690
" />
<path d="M38990 38360
L38800 38550
" />
</g>
</g>
<g style="fill:#008484; fill-opacity:0.0; 
stroke:#008484; stroke-width:0; stroke-opacity:1; 
stroke-linecap:round; stroke-linejoin:round;">
<g >
</g>
<g style="fill:#840000; fill-opacity:0.0; 
stroke:#840000; stroke-width:0; stroke-opacity:1; 
stroke-linecap:round; stroke-linejoin:round;">
</g>
<g style="fill:#840000; fill-opacity:0.0; 
stroke:#840000; stroke-width:100; stroke-opacity:1; 
stroke-linecap:round; stroke-linejoin:round;">
<rect x="36600" y="42000" width="800" height="2000" rx="0" />
</g>
<g style="fill:#840000; fill-opacity:0.0; 
stroke:#840000; stroke-width:60; stroke-opacity:1; 
stroke-linecap:round; stroke-linejoin:round;">
<path d="M37000 42000
L37000 41500
" />
<path d="M37000 44000
L37000 44500
" />
</g>
<g style="fill:#008484; fill-opacity:0.0; 
stroke:#008484; stroke-width:60; stroke-opacity:1; 
stroke-linecap:round; stroke-linejoin:round;">
<text x="38450" y="42810"
textLength="1510" font-size="660" lengthAdjust="spacingAndGlyphs"
text-anchor="middle" opacity="0">R12</text>
<path d="M38120 42780
L37960 42540
" />
<path d="M37840 42780
L37840 42280
L38030 42280
L38080 42310
L38100 42330
L38120 42380
L38120 42450
L38100 42500
L38080 42520
L38030 42540
L37840 42540
" />
<path d="M38600 42780
L38310 42780
" />
<path d="M38460 42780
L38460 42280
L38410 42350
L38360 42400
L38310 42420
" />
<path d="M38790 42330
L38810 42310
L38860 42280
L38980 42280
L39030 42310
L39050 42330
L39080 42380
L39080 42420
L39050 42500
L38770 42780
L39080 42780
" />
<text x="38440" y="43720"
textLength="1490" font-size="660" lengthAdjust="spacingAndGlyphs"
text-anchor="middle" opacity="0">200</text>
<path d="M37820 43240
L37840 43220
L37890 43190
L38010 43190
L38050 43220
L38080 43240
L38100 43290
L38100 43330
L38080 43410
L37790 43690
L38100 43690
" />
<path d="M38410 43190
L38460 43190
L38510 43220
L38530 43240
L38550 43290
L38580 43380
L38580 43500
L38550 43600
L38530 43640
L38510 43670
L38460 43690
L38410 43690
L38360 43670
L38340 43640
L38320 43600
L38290 43500
L38290 43380
L38320 43290
L38340 43240
L38360 43220
L38410 43190
" />
<path d="M38890 43190
L38940 43190
L38980 43220
L39010 43240
L39030 43290
L39050 43380
L39050 43500
L39030 43600
L39010 43640
L38980 43670
L38940 43690
L38890 43690
L38840 43670
L38820 43640
L38790 43600
L38770 43500
L38770 43380
L38790 43290
L38820 43240
L38840 43220
L38890 43190
" />
</g>
</g>
<g style="fill:#008484; fill-opacity:0.0; 
stroke:#008484; stroke-width:0; stroke-opacity:1; 
stroke-linecap:round; stroke-linejoin:round;">
<g >
</g>
<g style="fill:#840000; fill-opacity:0.0; 
stroke:#840000; stroke-width:0; stroke-opacity:1; 
stroke-linecap:round; stroke-linejoin:round;">
</g>
<g style="fill:#840000; fill-opacity:0.0; 
stroke:#840000; stroke-width:100; stroke-opacity:1; 
stroke-linecap:round; stroke-linejoin:round;">
<rect x="36600" y="32500" width="800" height="2000" rx="0" />
</g>
<g style="fill:#840000; fill-opacity:0.0; 
stroke:#840000; stroke-width:60; stroke-opacity:1; 
stroke-linecap:round; stroke-linejoin:round;">
<path d="M37000 32500
L37000 32000
" />
<path d="M37000 34500
L37000 35000
" />
</g>
<g style="fill:#008484; fill-opacity:0.0; 
stroke:#008484; stroke-width:60; stroke-opacity:1; 
stroke-linecap:round; stroke-linejoin:round;">
<text x="38450" y="33310"
textLength="1510" font-size="660" lengthAdjust="spacingAndGlyphs"
text-anchor="middle" opacity="0">R10</text>
<path d="M38120 33280
L37960 33040
" />
<path d="M37840 33280
L37840 32780
L38030 32780
L38080 32810
L38100 32830
L38120 32880
L38120 32950
L38100 33000
L38080 33020
L38030 33040
L37840 33040
" />
<path d="M38600 33280
L38310 33280
" />
<path d="M38460 33280
L38460 32780
L38410 32850
L38360 32900
L38310 32920
" />
<path d="M38910 32780
L38960 32780
L39000 32810
L39030 32830
L39050 32880
L39080 32970
L39080 33090
L39050 33190
L39030 33230
L39000 33260
L38960 33280
L38910 33280
L38860 33260
L38840 33230
L38810 33190
L38790 33090
L38790 32970
L38810 32880
L38840 32830
L38860 32810
L38910 32780
" />
<text x="38640" y="34220"
textLength="1890" font-size="660" lengthAdjust="spacingAndGlyphs"
text-anchor="middle" opacity="0">3k16</text>
<path d="M37790 33690
L38100 33690
L37930 33880
L38000 33880
L38050 33910
L38080 33930
L38100 33980
L38100 34100
L38080 34140
L38050 34170
L38000 34190
L37860 34190
L37810 34170
L37790 34140
" />
<path d="M38310 34190
L38310 33690
" />
<path d="M38360 34000
L38500 34190
" />
<path d="M38500 33860
L38310 34050
" />
<path d="M38980 34190
L38690 34190
" />
<path d="M38840 34190
L38840 33690
L38790 33760
L38740 33810
L38690 33830
" />
<path d="M39410 33690
L39310 33690
L39270 33720
L39240 33740
L39190 33810
L39170 33910
L39170 34100
L39190 34140
L39220 34170
L39270 34190
L39360 34190
L39410 34170
L39430 34140
L39460 34100
L39460 33980
L39430 33930
L39410 33910
L39360 33880
L39270 33880
L39220 33910
L39190 33930
L39170 33980
" />
</g>
</g>
<g style="fill:#008484; fill-opacity:0.0; 
stroke:#008484; stroke-width:0; stroke-opacity:1; 
stroke-linecap:round; stroke-linejoin:round;">
<g >
</g>
<g style="fill:#840000; fill-opacity:0.0; 
stroke:#840000; stroke-width:0; stroke-opacity:1; 
stroke-linecap:round; stroke-linejoin:round;">
</g>
<g style="fill:#840000; fill-opacity:0.0; 
stroke:#840000; stroke-width:100; stroke-opacity:1; 
stroke-linecap:round; stroke-linejoin:round;">
<rect x="60600" y="42000" width="800" height="2000" rx="0" />
</g>
<g style="fill:#840000; fill-opacity:0.0; 
stroke:#840000; stroke-width:60; stroke-opacity:1; 
stroke-linecap:round; stroke-linejoin:round;">
<path d="M61000 42000
L61000 41500
" />
<path d="M61000 44000
L61000 44500
" />
</g>
<g style="fill:#008484; fill-opacity:0.0; 
stroke:#008484; stroke-width:60; stroke-opacity:1; 
stroke-linecap:round; stroke-linejoin:round;">
<text x="62450" y="42810"
textLength="1510" font-size="660" lengthAdjust="spacingAndGlyphs"
text-anchor="middle" opacity="0">R18</text>
<path d="M62120 42780
L61960 42540
" />
<path d="M61840 42780
L61840 42280
L62030 42280
L62080 42310
L62100 42330
L62120 42380
L62120 42450
L62100 42500
L62080 42520
L62030 42540
L61840 42540
" />
<path d="M62600 42780
L62310 42780
" />
<path d="M62460 42780
L62460 42280
L62410 42350
L62360 42400
L62310 42420
" />
<path d="M62890 42500
L62840 42470
L62810 42450
L62790 42400
L62790 42380
L62810 42330
L62840 42310
L62890 42280
L62980 42280
L63030 42310
L63050 42330
L63080 42380
L63080 42400
L63050 42450
L63030 42470
L62980 42500
L62890 42500
L62840 42520
L62810 42540
L62790 42590
L62790 42690
L62810 42730
L62840 42760
L62890 42780
L62980 42780
L63030 42760
L63050 42730
L63080 42690
L63080 42590
L63050 42540
L63030 42520
L62980 42500
" />
<text x="62640" y="43720"
textLength="1890" font-size="660" lengthAdjust="spacingAndGlyphs"
text-anchor="middle" opacity="0">5k36</text>
<path d="M62080 43190
L61840 43190
L61810 43430
L61840 43410
L61890 43380
L62000 43380
L62050 43410
L62080 43430
L62100 43480
L62100 43600
L62080 43640
L62050 43670
L62000 43690
L61890 43690
L61840 43670
L61810 43640
" />
<path d="M62310 43690
L62310 43190
" />
<path d="M62360 43500
L62500 43690
" />
<path d="M62500 43360
L62310 43550
" />
<path d="M62670 43190
L62980 43190
L62810 43380
L62890 43380
L62930 43410
L62960 43430
L62980 43480
L62980 43600
L62960 43640
L62930 43670
L62890 43690
L62740 43690
L62690 43670
L62670 43640
" />
<path d="M63410 43190
L63310 43190
L63270 43220
L63240 43240
L63190 43310
L63170 43410
L63170 43600
L63190 43640
L63220 43670
L63270 43690
L63360 43690
L63410 43670
L63430 43640
L63460 43600
L63460 43480
L63430 43430
L63410 43410
L63360 43380
L63270 43380
L63220 43410
L63190 43430
L63170 43480
" />
</g>
</g>
<g style="fill:#008484; fill-opacity:0.0; 
stroke:#008484; stroke-width:0; stroke-opacity:1; 
stroke-linecap:round; stroke-linejoin:round;">
<g >
</g>
<g style="fill:#840000; fill-opacity:0.0; 
stroke:#840000; stroke-width:0; stroke-opacity:1; 
stroke-linecap:round; stroke-linejoin:round;">
</g>
<g style="fill:#840000; fill-opacity:0.0; 
stroke:#840000; stroke-width:100; stroke-opacity:1; 
stroke-linecap:round; stroke-linejoin:round;">
<rect x="70100" y="30500" width="800" height="2000" rx="0" />
</g>
<g style="fill:#840000; fill-opacity:0.0; 
stroke:#840000; stroke-width:60; stroke-opacity:1; 
stroke-linecap:round; stroke-linejoin:round;">
<path d="M70500 30500
L70500 30000
" />
<path d="M70500 32500
L70500 33000
" />
</g>
<g style="fill:#008484; fill-opacity:0.0; 
stroke:#008484; stroke-width:60; stroke-opacity:1; 
stroke-linecap:round; stroke-linejoin:round;">
<text x="71950" y="31310"
textLength="1510" font-size="660" lengthAdjust="spacingAndGlyphs"
text-anchor="middle" opacity="0">R21</text>
<path d="M71620 31280
L71460 31040
" />
<path d="M71340 31280
L71340 30780
L71530 30780
L71580 30810
L71600 30830
L71620 30880
L71620 30950
L71600 31000
L71580 31020
L71530 31040
L71340 31040
" />
<path d="M71810 30830
L71840 30810
L71890 30780
L72000 30780
L72050 30810
L72080 30830
L72100 30880
L72100 30920
L72080 31000
L71790 31280
L72100 31280
" />
<path d="M72580 31280
L72290 31280
" />
<path d="M72430 31280
L72430 30780
L72390 30850
L72340 30900
L72290 30920
" />
<text x="71940" y="32220"
textLength="1490" font-size="660" lengthAdjust="spacingAndGlyphs"
text-anchor="middle" opacity="0">604</text>
<path d="M71550 31690
L71460 31690
L71410 31720
L71390 31740
L71340 31810
L71320 31910
L71320 32100
L71340 32140
L71360 32170
L71410 32190
L71510 32190
L71550 32170
L71580 32140
L71600 32100
L71600 31980
L71580 31930
L71550 31910
L71510 31880
L71410 31880
L71360 31910
L71340 31930
L71320 31980
" />
<path d="M71910 31690
L71960 31690
L72010 31720
L72030 31740
L72050 31790
L72080 31880
L72080 32000
L72050 32100
L72030 32140
L72010 32170
L71960 32190
L71910 32190
L71860 32170
L71840 32140
L71820 32100
L71790 32000
L71790 31880
L71820 31790
L71840 31740
L71860 31720
L71910 31690
" />
<path d="M72510 31860
L72510 32190
" />
<path d="M72390 31670
L72270 32020
L72580 32020
" />
</g>
</g>
<g style="fill:#008484; fill-opacity:0.0; 
stroke:#008484; stroke-width:0; stroke-opacity:1; 
stroke-linecap:round; stroke-linejoin:round;">
<g >
</g>
<g style="fill:#840000; fill-opacity:0.0; 
stroke:#840000; stroke-width:0; stroke-opacity:1; 
stroke-linecap:round; stroke-linejoin:round;">
</g>
<g style="fill:#840000; fill-opacity:0.0; 
stroke:#840000; stroke-width:100; stroke-opacity:1; 
stroke-linecap:round; stroke-linejoin:round;">
<rect x="60600" y="37000" width="800" height="2000" rx="0" />
</g>
<g style="fill:#840000; fill-opacity:0.0; 
stroke:#840000; stroke-width:60; stroke-opacity:1; 
stroke-linecap:round; stroke-linejoin:round;">
<path style="fill:#840000; fill-opacity:0.0; 
stroke:#840000; stroke-width:60; stroke-opacity:1; 
stroke-linecap:round; stroke-linejoin:round;fill:none"
d="M 62000,37400
62000,37000
61600,37000
62000,37000
60000,39000
" /> 
<path d="M61000 37000
L61000 36500
" />
<g transform="rotate(-90 60900 36750)">
<text x="60900" y="36750"
textLength="540" font-size="660" lengthAdjust="spacingAndGlyphs"
text-anchor="middle" opacity="0">1</text>
</g>
<path d="M60870 36600
L60870 36890
" />
<path d="M60870 36750
L60370 36750
L60440 36790
L60490 36840
L60510 36890
" />
<path d="M60000 39000
L60000 39500
" />
<g transform="rotate(-90 59900 39250)">
<text x="59900" y="39250"
textLength="540" font-size="660" lengthAdjust="spacingAndGlyphs"
text-anchor="middle" opacity="0">2</text>
</g>
<path d="M59420 39390
L59400 39360
L59370 39320
L59370 39200
L59400 39150
L59420 39130
L59470 39100
L59510 39100
L59590 39130
L59870 39410
L59870 39100
" />
<path d="M61000 39000
L61000 39500
" />
<g transform="rotate(-90 60900 39250)">
<text x="60900" y="39250"
textLength="540" font-size="660" lengthAdjust="spacingAndGlyphs"
text-anchor="middle" opacity="0">3</text>
</g>
<path d="M60370 39410
L60370 39100
L60560 39270
L60560 39200
L60590 39150
L60610 39130
L60660 39100
L60780 39100
L60820 39130
L60850 39150
L60870 39200
L60870 39340
L60850 39390
L60820 39410
" />
</g>
<g style="fill:#008484; fill-opacity:0.0; 
stroke:#008484; stroke-width:60; stroke-opacity:1; 
stroke-linecap:round; stroke-linejoin:round;">
<text x="63030" y="37810"
textLength="1510" font-size="660" lengthAdjust="spacingAndGlyphs"
text-anchor="middle" opacity="0">R17</text>
<path d="M62700 37780
L62540 37540
" />
<path d="M62420 37780
L62420 37280
L62610 37280
L62660 37310
L62680 37330
L62700 37380
L62700 37450
L62680 37500
L62660 37520
L62610 37540
L62420 37540
" />
<path d="M63180 37780
L62890 37780
" />
<path d="M63040 37780
L63040 37280
L62990 37350
L62940 37400
L62890 37420
" />
<path d="M63350 37280
L63680 37280
L63470 37780
" />
<text x="63220" y="38720"
textLength="1890" font-size="660" lengthAdjust="spacingAndGlyphs"
text-anchor="middle" opacity="0">200k</text>
<path d="M62390 38240
L62420 38220
L62470 38190
L62580 38190
L62630 38220
L62660 38240
L62680 38290
L62680 38330
L62660 38410
L62370 38690
L62680 38690
" />
<path d="M62990 38190
L63040 38190
L63080 38220
L63110 38240
L63130 38290
L63160 38380
L63160 38500
L63130 38600
L63110 38640
L63080 38670
L63040 38690
L62990 38690
L62940 38670
L62920 38640
L62890 38600
L62870 38500
L62870 38380
L62890 38290
L62920 38240
L62940 38220
L62990 38190
" />
<path d="M63470 38190
L63510 38190
L63560 38220
L63580 38240
L63610 38290
L63630 38380
L63630 38500
L63610 38600
L63580 38640
L63560 38670
L63510 38690
L63470 38690
L63420 38670
L63390 38640
L63370 38600
L63350 38500
L63350 38380
L63370 38290
L63390 38240
L63420 38220
L63470 38190
" />
<path d="M63850 38690
L63850 38190
" />
<path d="M63890 38500
L64040 38690
" />
<path d="M64040 38360
L63850 38550
" />
</g>
</g>
<g style="fill:#008484; fill-opacity:0.0; 
stroke:#008484; stroke-width:0; stroke-opacity:1; 
stroke-linecap:round; stroke-linejoin:round;">
<g >
</g>
<g style="fill:#840000; fill-opacity:0.0; 
stroke:#840000; stroke-width:0; stroke-opacity:1; 
stroke-linecap:round; stroke-linejoin:round;">
</g>
<g style="fill:#840000; fill-opacity:0.0; 
stroke:#840000; stroke-width:60; stroke-opacity:1; 
stroke-linecap:round; stroke-linejoin:round;">
<path style="fill:#840000; fill-opacity:0.0; 
stroke:#840000; stroke-width:60; stroke-opacity:1; 
stroke-linecap:round; stroke-linejoin:round;fill:none"
d="M 70700,27000
71000,26500
" /> 
<path style="fill:#840000; fill-opacity:0.0; 
stroke:#840000; stroke-width:60; stroke-opacity:1; 
stroke-linecap:round; stroke-linejoin:round;fill:none"
d="M 71000,27500
71000,26500
" /> 
<path style="fill:#840000; fill-opacity:0.0; 
stroke:#840000; stroke-width:60; stroke-opacity:1; 
stroke-linecap:round; stroke-linejoin:round;fill:none"
d="M 71000,26500
71300,27000
" /> 
</g>
<g style="fill:#008484; fill-opacity:0.0; 
stroke:#008484; stroke-width:60; stroke-opacity:1; 
stroke-linecap:round; stroke-linejoin:round;">
<text x="71150" y="26040"
textLength="1580" font-size="660" lengthAdjust="spacingAndGlyphs"
text-anchor="middle" opacity="0">+5V</text>
<path d="M70500 25820
L70880 25820
" />
<path d="M70690 26010
L70690 25630
" />
<path d="M71360 25510
L71120 25510
L71100 25750
L71120 25730
L71170 25700
L71290 25700
L71340 25730
L71360 25750
L71380 25800
L71380 25920
L71360 25960
L71340 25990
L71290 26010
L71170 26010
L71120 25990
L71100 25960
" />
<path d="M71530 25510
L71690 26010
L71860 25510
" />
</g>
</g>
<g style="fill:#008484; fill-opacity:0.0; 
stroke:#008484; stroke-width:0; stroke-opacity:1; 
stroke-linecap:round; stroke-linejoin:round;">
<g >
</g>
<g style="fill:#840000; fill-opacity:0.0; 
stroke:#840000; stroke-width:0; stroke-opacity:1; 
stroke-linecap:round; stroke-linejoin:round;">
</g>
<g style="fill:#FFFFC2; fill-opacity:0.0; 
stroke:#FFFFC2; stroke-width:0; stroke-opacity:1; 
stroke-linecap:round; stroke-linejoin:round;">
</g>
<g style="fill:#FFFFC2; fill-opacity:0.6; 
stroke:#FFFFC2; stroke-width:0; stroke-opacity:1; 
stroke-linecap:round; stroke-linejoin:round;">
<rect x="50500" y="19500" width="2000" height="1000" rx="0" />
</g>
<g style="fill:#840000; fill-opacity:0.6; 
stroke:#840000; stroke-width:0; stroke-opacity:1; 
stroke-linecap:round; stroke-linejoin:round;">
</g>
<g style="fill:#840000; fill-opacity:0.0; 
stroke:#840000; stroke-width:100; stroke-opacity:1; 
stroke-linecap:round; stroke-linejoin:round;">
<rect x="50500" y="19500" width="2000" height="1000" rx="0" />
</g>
<g style="fill:#840000; fill-opacity:0.0; 
stroke:#840000; stroke-width:60; stroke-opacity:1; 
stroke-linecap:round; stroke-linejoin:round;">
<circle cx="52000" cy="20000" r="250" /> 
<circle cx="51000" cy="20000" r="250" /> 
</g>
<g style="fill:#840000; fill-opacity:0.0; 
stroke:#840000; stroke-width:100; stroke-opacity:1; 
stroke-linecap:round; stroke-linejoin:round;">
<rect x="50500" y="19500" width="2000" height="1000" rx="0" />
</g>
<g style="fill:#840000; fill-opacity:0.0; 
stroke:#840000; stroke-width:60; stroke-opacity:1; 
stroke-linecap:round; stroke-linejoin:round;">
<path style="fill:#840000; fill-opacity:0.0; 
stroke:#840000; stroke-width:60; stroke-opacity:1; 
stroke-linecap:round; stroke-linejoin:round;fill:none"
d="M 51870,20210
52200,19870
" /> 
<path style="fill:#840000; fill-opacity:0.0; 
stroke:#840000; stroke-width:60; stroke-opacity:1; 
stroke-linecap:round; stroke-linejoin:round;fill:none"
d="M 50870,20210
51200,19870
" /> 
<path style="fill:#840000; fill-opacity:0.0; 
stroke:#840000; stroke-width:60; stroke-opacity:1; 
stroke-linecap:round; stroke-linejoin:round;fill:none"
d="M 51800,20140
52130,19800
" /> 
<path style="fill:#840000; fill-opacity:0.0; 
stroke:#840000; stroke-width:60; stroke-opacity:1; 
stroke-linecap:round; stroke-linejoin:round;fill:none"
d="M 50800,20140
51130,19800
" /> 
<path d="M51000 20500
L51000 22000
" />
<g transform="rotate(-90 50900 21250)">
<text x="50900" y="21250"
textLength="540" font-size="660" lengthAdjust="spacingAndGlyphs"
text-anchor="middle" opacity="0">1</text>
</g>
<path d="M50870 21100
L50870 21390
" />
<path d="M50870 21250
L50370 21250
L50440 21290
L50490 21340
L50510 21390
" />
<path d="M52000 20500
L52000 22000
" />
<g transform="rotate(-90 51900 21250)">
<text x="51900" y="21250"
textLength="540" font-size="660" lengthAdjust="spacingAndGlyphs"
text-anchor="middle" opacity="0">2</text>
</g>
<path d="M51420 21390
L51400 21360
L51370 21320
L51370 21200
L51400 21150
L51420 21130
L51470 21100
L51510 21100
L51590 21130
L51870 21410
L51870 21100
" />
</g>
<g style="fill:#008484; fill-opacity:0.0; 
stroke:#008484; stroke-width:60; stroke-opacity:1; 
stroke-linecap:round; stroke-linejoin:round;">
<text x="53340" y="20580"
textLength="920" font-size="660" lengthAdjust="spacingAndGlyphs"
text-anchor="middle" opacity="0">J1</text>
<path d="M53170 20050
L53170 20410
L53140 20480
L53100 20530
L53030 20550
L52980 20550
" />
<path d="M53670 20550
L53380 20550
" />
<path d="M53530 20550
L53530 20050
L53480 20120
L53430 20170
L53380 20190
" />
<text x="57050" y="21490"
textLength="8350" font-size="660" lengthAdjust="spacingAndGlyphs"
text-anchor="middle" opacity="0">1x2_screw_term_block</text>
<path d="M53280 21460
L53000 21460
" />
<path d="M53140 21460
L53140 20960
L53090 21030
L53050 21080
L53000 21100
" />
<path d="M53450 21460
L53710 21130
" />
<path d="M53450 21130
L53710 21460
" />
<path d="M53880 21010
L53900 20990
L53950 20960
L54070 20960
L54120 20990
L54140 21010
L54160 21060
L54160 21100
L54140 21180
L53850 21460
L54160 21460
" />
<path d="M54260 21510
L54640 21510
" />
<path d="M54740 21440
L54780 21460
L54880 21460
L54930 21440
L54950 21390
L54950 21370
L54930 21320
L54880 21290
L54810 21290
L54760 21270
L54740 21220
L54740 21200
L54760 21150
L54810 21130
L54880 21130
L54930 21150
" />
<path d="M55380 21440
L55330 21460
L55240 21460
L55190 21440
L55160 21410
L55140 21370
L55140 21220
L55160 21180
L55190 21150
L55240 21130
L55330 21130
L55380 21150
" />
<path d="M55590 21460
L55590 21130
" />
<path d="M55590 21220
L55620 21180
L55640 21150
L55690 21130
L55740 21130
" />
<path d="M56090 21440
L56050 21460
L55950 21460
L55900 21440
L55880 21390
L55880 21200
L55900 21150
L55950 21130
L56050 21130
L56090 21150
L56120 21200
L56120 21250
L55880 21290
" />
<path d="M56280 21130
L56380 21460
L56470 21220
L56570 21460
L56660 21130
" />
<path d="M56740 21510
L57120 21510
" />
<path d="M57160 21130
L57350 21130
" />
<path d="M57240 20960
L57240 21390
L57260 21440
L57310 21460
L57350 21460
" />
<path d="M57710 21440
L57660 21460
L57570 21460
L57520 21440
L57500 21390
L57500 21200
L57520 21150
L57570 21130
L57660 21130
L57710 21150
L57740 21200
L57740 21250
L57500 21290
" />
<path d="M57950 21460
L57950 21130
" />
<path d="M57950 21220
L57970 21180
L58000 21150
L58050 21130
L58090 21130
" />
<path d="M58260 21460
L58260 21130
" />
<path d="M58260 21180
L58280 21150
L58330 21130
L58400 21130
L58450 21150
L58470 21200
L58470 21460
" />
<path d="M58470 21200
L58500 21150
L58550 21130
L58620 21130
L58660 21150
L58690 21200
L58690 21460
" />
<path d="M58810 21510
L59190 21510
" />
<path d="M59310 21460
L59310 20960
" />
<path d="M59310 21150
L59350 21130
L59450 21130
L59500 21150
L59520 21180
L59550 21220
L59550 21370
L59520 21410
L59500 21440
L59450 21460
L59350 21460
L59310 21440
" />
<path d="M59830 21460
L59780 21440
L59760 21390
L59760 20960
" />
<path d="M60090 21460
L60050 21440
L60020 21410
L60000 21370
L60000 21220
L60020 21180
L60050 21150
L60090 21130
L60160 21130
L60210 21150
L60240 21180
L60260 21220
L60260 21370
L60240 21410
L60210 21440
L60160 21460
L60090 21460
" />
<path d="M60690 21440
L60640 21460
L60550 21460
L60500 21440
L60470 21410
L60450 21370
L60450 21220
L60470 21180
L60500 21150
L60550 21130
L60640 21130
L60690 21150
" />
<path d="M60900 21460
L60900 20960
" />
<path d="M60950 21270
L61090 21460
" />
<path d="M61090 21130
L60900 21320
" />
</g>
</g>
<g style="fill:#008484; fill-opacity:0.0; 
stroke:#008484; stroke-width:0; stroke-opacity:1; 
stroke-linecap:round; stroke-linejoin:round;">
<g >
</g>
<g style="fill:#840000; fill-opacity:0.0; 
stroke:#840000; stroke-width:0; stroke-opacity:1; 
stroke-linecap:round; stroke-linejoin:round;">
</g>
<g style="fill:#840000; fill-opacity:0.0; 
stroke:#840000; stroke-width:100; stroke-opacity:1; 
stroke-linecap:round; stroke-linejoin:round;">
<path style="fill:#840000; fill-opacity:0.0; 
stroke:#840000; stroke-width:100; stroke-opacity:1; 
stroke-linecap:round; stroke-linejoin:round;fill:none"
d="M 42200,26700
43800,26700
" /> 
<path style="fill:#840000; fill-opacity:0.0; 
stroke:#840000; stroke-width:100; stroke-opacity:1; 
stroke-linecap:round; stroke-linejoin:round;fill:none"
d="M 42200,27300
43800,27300
" /> 
</g>
<g style="fill:#840000; fill-opacity:0.0; 
stroke:#840000; stroke-width:60; stroke-opacity:1; 
stroke-linecap:round; stroke-linejoin:round;">
<path d="M43000 26640
L43000 25500
" />
<path d="M43000 27360
L43000 28500
" />
</g>
<g style="fill:#008484; fill-opacity:0.0; 
stroke:#008484; stroke-width:60; stroke-opacity:1; 
stroke-linecap:round; stroke-linejoin:round;">
<text x="41520" y="26770"
textLength="1040" font-size="660" lengthAdjust="spacingAndGlyphs"
text-anchor="middle" opacity="0">C1</text>
<path d="M41430 26690
L41410 26720
L41340 26740
L41290 26740
L41220 26720
L41170 26670
L41150 26620
L41120 26530
L41120 26460
L41150 26360
L41170 26310
L41220 26270
L41290 26240
L41340 26240
L41410 26270
L41430 26290
" />
<path d="M41910 26740
L41620 26740
" />
<path d="M41770 26740
L41770 26240
L41720 26310
L41670 26360
L41620 26380
" />
<text x="41490" y="27770"
textLength="990" font-size="660" lengthAdjust="spacingAndGlyphs"
text-anchor="middle" opacity="0">1u</text>
<path d="M41400 27740
L41120 27740
" />
<path d="M41260 27740
L41260 27240
L41210 27310
L41160 27360
L41120 27380
" />
<path d="M41830 27410
L41830 27740
" />
<path d="M41620 27410
L41620 27670
L41640 27720
L41690 27740
L41760 27740
L41810 27720
L41830 27690
" />
</g>
</g>
<g style="fill:#008484; fill-opacity:0.0; 
stroke:#008484; stroke-width:60; stroke-opacity:1; 
stroke-linecap:round; stroke-linejoin:round;">
</g>
<g style="fill:#008400; fill-opacity:0.0; 
stroke:#008400; stroke-width:60; stroke-opacity:1; 
stroke-linecap:round; stroke-linejoin:round;">
<path d="M71000 27500
L71000 29000
" />
<path d="M55000 22500
L55000 23000
" />
<path d="M52000 22500
L55000 22500
" />
<path d="M52000 22000
L52000 22500
" />
<path d="M60500 29000
L57500 29000
" />
<path d="M37000 31000
L37000 32000
" />
<path d="M37000 44500
L37000 46500
" />
<path d="M37000 39500
L37000 41500
" />
<path d="M71000 29000
L74500 29000
" />
<path d="M70500 29000
L71000 29000
" />
<path d="M45500 33000
L45500 35500
" />
<path d="M66500 40000
L66500 46500
" />
<path d="M61000 46500
L66500 46500
" />
<path d="M37000 30000
L37000 31000
" />
<path d="M61000 40500
L61000 41500
" />
<path d="M60000 40500
L61000 40500
" />
<path d="M52000 22500
L52000 23000
" />
<path d="M61000 44500
L61000 46500
" />
<path d="M48500 33000
L45500 33000
" />
<path d="M37000 27000
L37000 22500
" />
<path d="M37000 46500
L47500 46500
" />
<path d="M47500 36000
L47500 46500
" />
<path d="M47500 36000
L48500 36000
" />
<path d="M47500 46500
L61000 46500
" />
<path d="M43000 25500
L43000 25000
" />
<path d="M37000 31000
L48500 31000
" />
<path d="M45500 22500
L51000 22500
" />
<path d="M74500 29000
L74500 27500
" />
<path d="M60500 29000
L60500 30000
" />
<path d="M57500 30000
L60500 30000
" />
<path d="M51000 22000
L51000 22500
" />
<path d="M57500 34000
L61000 34000
" />
<path d="M66500 33000
L66500 37000
" />
<path d="M57500 33000
L66500 33000
" />
<path d="M60000 39500
L60000 40500
" />
<path d="M60500 29000
L70500 29000
" />
<path d="M37000 35500
L45500 35500
" />
<path d="M45500 22500
L45500 25000
" />
<path d="M37000 22500
L45500 22500
" />
<path d="M75500 33500
L75500 32500
" />
<path d="M37000 35500
L37000 36500
" />
<path d="M75500 29000
L75500 29500
" />
<path d="M74500 29000
L75500 29000
" />
<path d="M45500 30000
L45500 29000
" />
<path d="M48500 30000
L45500 30000
" />
<path d="M45500 25000
L43000 25000
" />
<path d="M45500 29000
L45500 25000
" />
<path d="M48500 29000
L45500 29000
" />
<path d="M61000 34000
L61000 36500
" />
<path d="M37000 35000
L37000 35500
" />
<path d="M69500 31000
L57500 31000
" />
<path d="M69500 33500
L69500 31000
" />
<path d="M70500 33000
L70500 33500
" />
<path d="M70500 30000
L70500 29000
" />
<path d="M58000 36000
L58000 37000
" />
<path d="M57500 36000
L58000 36000
" />
<path d="M61000 39500
L61000 40500
" />
</g>
<g style="fill:#0000C2; fill-opacity:0.0; 
stroke:#0000C2; stroke-width:60; stroke-opacity:1; 
stroke-linecap:round; stroke-linejoin:round;">
<text x="53000" y="41590"
textLength="6770" font-size="660" lengthAdjust="spacingAndGlyphs"
text-anchor="start" opacity="0">max. I = 0,073 A</text>
<path d="M53140 41560
L53140 41230
" />
<path d="M53140 41280
L53170 41250
L53220 41230
L53290 41230
L53330 41250
L53360 41300
L53360 41560
" />
<path d="M53360 41300
L53380 41250
L53430 41230
L53500 41230
L53550 41250
L53570 41300
L53570 41560
" />
<path d="M54030 41560
L54030 41300
L54000 41250
L53950 41230
L53860 41230
L53810 41250
" />
<path d="M54030 41540
L53980 41560
L53860 41560
L53810 41540
L53790 41490
L53790 41440
L53810 41390
L53860 41370
L53980 41370
L54030 41350
" />
<path d="M54220 41560
L54480 41230
" />
<path d="M54220 41230
L54480 41560
" />
<path d="M54670 41510
L54690 41540
L54670 41560
L54640 41540
L54670 41510
L54670 41560
" />
<path d="M55290 41560
L55290 41060
" />
<path d="M55910 41300
L56290 41300
" />
<path d="M56290 41440
L55910 41440
" />
<path d="M57000 41060
L57050 41060
L57100 41090
L57120 41110
L57140 41160
L57170 41250
L57170 41370
L57140 41470
L57120 41510
L57100 41540
L57050 41560
L57000 41560
L56950 41540
L56930 41510
L56910 41470
L56880 41370
L56880 41250
L56910 41160
L56930 41110
L56950 41090
L57000 41060
" />
<path d="M57410 41540
L57410 41560
L57380 41610
L57360 41630
" />
<path d="M57720 41060
L57760 41060
L57810 41090
L57830 41110
L57860 41160
L57880 41250
L57880 41370
L57860 41470
L57830 41510
L57810 41540
L57760 41560
L57720 41560
L57670 41540
L57640 41510
L57620 41470
L57600 41370
L57600 41250
L57620 41160
L57640 41110
L57670 41090
L57720 41060
" />
<path d="M58050 41060
L58380 41060
L58170 41560
" />
<path d="M58530 41060
L58830 41060
L58670 41250
L58740 41250
L58790 41280
L58810 41300
L58830 41350
L58830 41470
L58810 41510
L58790 41540
L58740 41560
L58600 41560
L58550 41540
L58530 41510
" />
<path d="M59410 41420
L59640 41420
" />
<path d="M59360 41560
L59530 41060
L59690 41560
" />
<text x="53000" y="42400"
textLength="3080" font-size="660" lengthAdjust="spacingAndGlyphs"
text-anchor="start" opacity="0">114,64k</text>
<path d="M53410 42370
L53120 42370
" />
<path d="M53260 42370
L53260 41870
L53220 41940
L53170 41990
L53120 42010
" />
<path d="M53880 42370
L53600 42370
" />
<path d="M53740 42370
L53740 41870
L53690 41940
L53640 41990
L53600 42010
" />
<path d="M54310 42040
L54310 42370
" />
<path d="M54190 41850
L54070 42200
L54380 42200
" />
<path d="M54600 42350
L54600 42370
L54570 42420
L54550 42440
" />
<path d="M55030 41870
L54930 41870
L54880 41900
L54860 41920
L54810 41990
L54790 42090
L54790 42280
L54810 42320
L54830 42350
L54880 42370
L54980 42370
L55030 42350
L55050 42320
L55070 42280
L55070 42160
L55050 42110
L55030 42090
L54980 42060
L54880 42060
L54830 42090
L54810 42110
L54790 42160
" />
<path d="M55500 42040
L55500 42370
" />
<path d="M55380 41850
L55260 42200
L55570 42200
" />
<path d="M55760 42370
L55760 41870
" />
<path d="M55810 42180
L55950 42370
" />
<path d="M55950 42040
L55760 42230
" />
<text x="70000" y="37400"
textLength="4750" font-size="660" lengthAdjust="spacingAndGlyphs"
text-anchor="start" opacity="0">erven LED</text>
<path d="M70430 37320
L70410 37350
L70330 37370
L70290 37370
L70220 37350
L70170 37300
L70140 37250
L70120 37160
L70120 37090
L70140 36990
L70170 36940
L70220 36900
L70290 36870
L70330 36870
L70410 36900
L70430 36920
" />
<path d="M70220 36680
L70310 36750
L70410 36680
" />
<path d="M70830 37350
L70790 37370
L70690 37370
L70640 37350
L70620 37300
L70620 37110
L70640 37060
L70690 37040
L70790 37040
L70830 37060
L70860 37110
L70860 37160
L70620 37200
" />
<path d="M71070 37370
L71070 37040
" />
<path d="M71070 37130
L71100 37090
L71120 37060
L71170 37040
L71220 37040
" />
<path d="M71330 37040
L71450 37370
L71570 37040
" />
<path d="M71950 37350
L71910 37370
L71810 37370
L71760 37350
L71740 37300
L71740 37110
L71760 37060
L71810 37040
L71910 37040
L71950 37060
L71980 37110
L71980 37160
L71740 37200
" />
<path d="M72190 37040
L72190 37370
" />
<path d="M72190 37090
L72220 37060
L72260 37040
L72330 37040
L72380 37060
L72410 37110
L72410 37370
" />
<path d="M72860 37370
L72860 37110
L72830 37060
L72790 37040
L72690 37040
L72640 37060
" />
<path d="M72860 37350
L72810 37370
L72690 37370
L72640 37350
L72620 37300
L72620 37250
L72640 37200
L72690 37180
L72810 37180
L72860 37160
" />
<path d="M72790 36850
L72720 36920
" />
<path d="M73720 37370
L73480 37370
L73480 36870
" />
<path d="M73880 37110
L74050 37110
" />
<path d="M74120 37370
L73880 37370
L73880 36870
L74120 36870
" />
<path d="M74330 37370
L74330 36870
L74450 36870
L74530 36900
L74570 36940
L74600 36990
L74620 37090
L74620 37160
L74600 37250
L74570 37300
L74530 37350
L74450 37370
L74330 37370
" />
<text x="75000" y="28400"
textLength="4130" font-size="660" lengthAdjust="spacingAndGlyphs"
text-anchor="start" opacity="0">Vstup 5 V</text>
<path d="M75070 27870
L75240 28370
L75410 27870
" />
<path d="M75530 28040
L75640 28370
" />
<path d="M75760 28040
L75640 28370
L75600 28490
L75570 28510
L75530 28540
" />
<path d="M75690 27850
L75620 27920
" />
<path d="M75930 28350
L75980 28370
L76070 28370
L76120 28350
L76140 28300
L76140 28280
L76120 28230
L76070 28200
L76000 28200
L75950 28180
L75930 28130
L75930 28110
L75950 28060
L76000 28040
L76070 28040
L76120 28060
" />
<path d="M76290 28040
L76480 28040
" />
<path d="M76360 27870
L76360 28300
L76380 28350
L76430 28370
L76480 28370
" />
<path d="M76860 28040
L76860 28370
" />
<path d="M76640 28040
L76640 28300
L76670 28350
L76720 28370
L76790 28370
L76830 28350
L76860 28320
" />
<path d="M77100 28040
L77100 28540
" />
<path d="M77100 28060
L77140 28040
L77240 28040
L77290 28060
L77310 28090
L77330 28130
L77330 28280
L77310 28320
L77290 28350
L77240 28370
L77140 28370
L77100 28350
" />
<path d="M78170 27870
L77930 27870
L77910 28110
L77930 28090
L77980 28060
L78100 28060
L78140 28090
L78170 28110
L78190 28160
L78190 28280
L78170 28320
L78140 28350
L78100 28370
L77980 28370
L77930 28350
L77910 28320
" />
<path d="M78720 27870
L78880 28370
L79050 27870
" />
<text x="50000" y="18900"
textLength="3750" font-size="660" lengthAdjust="spacingAndGlyphs"
text-anchor="start" opacity="0">Vstup 5 V</text>
<path d="M50070 18370
L50240 18870
L50410 18370
" />
<path d="M50550 18850
L50600 18870
L50690 18870
L50740 18850
L50760 18800
L50760 18780
L50740 18730
L50690 18700
L50620 18700
L50570 18680
L50550 18630
L50550 18610
L50570 18560
L50620 18540
L50690 18540
L50740 18560
" />
<path d="M50910 18540
L51100 18540
" />
<path d="M50980 18370
L50980 18800
L51000 18850
L51050 18870
L51100 18870
" />
<path d="M51480 18540
L51480 18870
" />
<path d="M51260 18540
L51260 18800
L51290 18850
L51330 18870
L51410 18870
L51450 18850
L51480 18820
" />
<path d="M51720 18540
L51720 19040
" />
<path d="M51720 18560
L51760 18540
L51860 18540
L51910 18560
L51930 18590
L51950 18630
L51950 18780
L51930 18820
L51910 18850
L51860 18870
L51760 18870
L51720 18850
" />
<path d="M52790 18370
L52550 18370
L52530 18610
L52550 18590
L52600 18560
L52720 18560
L52760 18590
L52790 18610
L52810 18660
L52810 18780
L52790 18820
L52760 18850
L52720 18870
L52600 18870
L52550 18850
L52530 18820
" />
<path d="M53330 18370
L53500 18870
L53670 18370
" />
</g>
<g style="fill:#0000C2; fill-opacity:0.0; 
stroke:#0000C2; stroke-width:0; stroke-opacity:1; 
stroke-linecap:round; stroke-linejoin:round;">
</g>
<g style="fill:#008400; fill-opacity:0.0; 
stroke:#008400; stroke-width:0; stroke-opacity:1; 
stroke-linecap:round; stroke-linejoin:round;">
</g>
<g style="fill:#008400; fill-opacity:1.0; 
stroke:#008400; stroke-width:100; stroke-opacity:1; 
stroke-linecap:round; stroke-linejoin:round;">
<circle cx="45500" cy="25000" r="200" /> 
</g>
<g style="fill:#008400; fill-opacity:1.0; 
stroke:#008400; stroke-width:0; stroke-opacity:1; 
stroke-linecap:round; stroke-linejoin:round;">
</g>
<g style="fill:#008400; fill-opacity:1.0; 
stroke:#008400; stroke-width:100; stroke-opacity:1; 
stroke-linecap:round; stroke-linejoin:round;">
<circle cx="47500" cy="46500" r="200" /> 
</g>
<g style="fill:#008400; fill-opacity:1.0; 
stroke:#008400; stroke-width:0; stroke-opacity:1; 
stroke-linecap:round; stroke-linejoin:round;">
</g>
<g style="fill:#008400; fill-opacity:1.0; 
stroke:#008400; stroke-width:100; stroke-opacity:1; 
stroke-linecap:round; stroke-linejoin:round;">
<circle cx="61000" cy="40500" r="200" /> 
</g>
<g style="fill:#008400; fill-opacity:1.0; 
stroke:#008400; stroke-width:0; stroke-opacity:1; 
stroke-linecap:round; stroke-linejoin:round;">
</g>
<g style="fill:#008400; fill-opacity:1.0; 
stroke:#008400; stroke-width:100; stroke-opacity:1; 
stroke-linecap:round; stroke-linejoin:round;">
<circle cx="45500" cy="29000" r="200" /> 
</g>
<g style="fill:#008400; fill-opacity:1.0; 
stroke:#008400; stroke-width:0; stroke-opacity:1; 
stroke-linecap:round; stroke-linejoin:round;">
</g>
<g style="fill:#008400; fill-opacity:1.0; 
stroke:#008400; stroke-width:100; stroke-opacity:1; 
stroke-linecap:round; stroke-linejoin:round;">
<circle cx="61000" cy="46500" r="200" /> 
</g>
<g style="fill:#008400; fill-opacity:1.0; 
stroke:#008400; stroke-width:0; stroke-opacity:1; 
stroke-linecap:round; stroke-linejoin:round;">
</g>
<g style="fill:#008400; fill-opacity:1.0; 
stroke:#008400; stroke-width:100; stroke-opacity:1; 
stroke-linecap:round; stroke-linejoin:round;">
<circle cx="74500" cy="29000" r="200" /> 
</g>
<g style="fill:#008400; fill-opacity:1.0; 
stroke:#008400; stroke-width:0; stroke-opacity:1; 
stroke-linecap:round; stroke-linejoin:round;">
</g>
<g style="fill:#008400; fill-opacity:1.0; 
stroke:#008400; stroke-width:100; stroke-opacity:1; 
stroke-linecap:round; stroke-linejoin:round;">
<circle cx="37000" cy="35500" r="200" /> 
</g>
<g style="fill:#008400; fill-opacity:1.0; 
stroke:#008400; stroke-width:0; stroke-opacity:1; 
stroke-linecap:round; stroke-linejoin:round;">
</g>
<g style="fill:#008400; fill-opacity:1.0; 
stroke:#008400; stroke-width:100; stroke-opacity:1; 
stroke-linecap:round; stroke-linejoin:round;">
<circle cx="71000" cy="29000" r="200" /> 
</g>
<g style="fill:#008400; fill-opacity:1.0; 
stroke:#008400; stroke-width:0; stroke-opacity:1; 
stroke-linecap:round; stroke-linejoin:round;">
</g>
<g style="fill:#008400; fill-opacity:1.0; 
stroke:#008400; stroke-width:100; stroke-opacity:1; 
stroke-linecap:round; stroke-linejoin:round;">
<circle cx="45500" cy="22500" r="200" /> 
</g>
<g style="fill:#008400; fill-opacity:1.0; 
stroke:#008400; stroke-width:0; stroke-opacity:1; 
stroke-linecap:round; stroke-linejoin:round;">
</g>
<g style="fill:#008400; fill-opacity:1.0; 
stroke:#008400; stroke-width:100; stroke-opacity:1; 
stroke-linecap:round; stroke-linejoin:round;">
<circle cx="70500" cy="29000" r="200" /> 
</g>
<g style="fill:#008400; fill-opacity:1.0; 
stroke:#008400; stroke-width:0; stroke-opacity:1; 
stroke-linecap:round; stroke-linejoin:round;">
</g>
<g style="fill:#008400; fill-opacity:1.0; 
stroke:#008400; stroke-width:100; stroke-opacity:1; 
stroke-linecap:round; stroke-linejoin:round;">
<circle cx="52000" cy="22500" r="200" /> 
</g>
<g style="fill:#008400; fill-opacity:1.0; 
stroke:#008400; stroke-width:0; stroke-opacity:1; 
stroke-linecap:round; stroke-linejoin:round;">
</g>
<g style="fill:#008400; fill-opacity:1.0; 
stroke:#008400; stroke-width:100; stroke-opacity:1; 
stroke-linecap:round; stroke-linejoin:round;">
<circle cx="37000" cy="31000" r="200" /> 
</g>
<g style="fill:#008400; fill-opacity:1.0; 
stroke:#008400; stroke-width:0; stroke-opacity:1; 
stroke-linecap:round; stroke-linejoin:round;">
</g>
<g style="fill:#008400; fill-opacity:1.0; 
stroke:#008400; stroke-width:100; stroke-opacity:1; 
stroke-linecap:round; stroke-linejoin:round;">
<circle cx="60500" cy="29000" r="200" /> 
</g> 
</svg>
