<?xml version="1.0" standalone="no"?>
 <!DOCTYPE svg PUBLIC "-//W3C//DTD SVG 1.1//EN" 
 "http://www.w3.org/Graphics/SVG/1.1/DTD/svg11.dtd"> 
<svg
  xmlns:svg="http://www.w3.org/2000/svg"
  xmlns="http://www.w3.org/2000/svg"
  xmlns:xlink="http://www.w3.org/1999/xlink"
  version="1.1"
  width="29.700220cm" height="21.000720cm" viewBox="0 0 116930 82680">
<title>SVG Picture created as ochrana-krby-lcd-teplotni-senzor.svg date 2021/07/10 21:38:27 </title>
  <desc>Picture generated by Eeschema-SVG </desc>
<g style="fill:#000000; fill-opacity:1;stroke:#000000; stroke-opacity:1;
stroke-linecap:round; stroke-linejoin:round;"
 transform="translate(0 0) scale(1 1)">
</g>
<g style="fill:#000000; fill-opacity:0.0; 
stroke:#000000; stroke-width:0; stroke-opacity:1; 
stroke-linecap:round; stroke-linejoin:round;">
<g >
</g>
<g style="fill:#840000; fill-opacity:0.0; 
stroke:#840000; stroke-width:0; stroke-opacity:1; 
stroke-linecap:round; stroke-linejoin:round;">
</g>
<g style="fill:#840000; fill-opacity:0.0; 
stroke:#840000; stroke-width:80; stroke-opacity:1; 
stroke-linecap:round; stroke-linejoin:round;">
<path style="fill:#840000; fill-opacity:0.0; 
stroke:#840000; stroke-width:80; stroke-opacity:1; 
stroke-linecap:round; stroke-linejoin:round;fill:none"
d="M 46500,30500
46350,30650
" /> 
<path style="fill:#840000; fill-opacity:0.0; 
stroke:#840000; stroke-width:80; stroke-opacity:1; 
stroke-linecap:round; stroke-linejoin:round;fill:none"
d="M 47500,30500
47650,30350
" /> 
</g>
<g style="fill:#840000; fill-opacity:0.0; 
stroke:#840000; stroke-width:60; stroke-opacity:1; 
stroke-linecap:round; stroke-linejoin:round;">
<path style="fill:#840000; fill-opacity:0.0; 
stroke:#840000; stroke-width:60; stroke-opacity:1; 
stroke-linecap:round; stroke-linejoin:round;fill:none"
d="M 47000,31500
47000,30500
" /> 
</g>
<g style="fill:#840000; fill-opacity:0.0; 
stroke:#840000; stroke-width:80; stroke-opacity:1; 
stroke-linecap:round; stroke-linejoin:round;">
<path style="fill:#840000; fill-opacity:0.0; 
stroke:#840000; stroke-width:80; stroke-opacity:1; 
stroke-linecap:round; stroke-linejoin:round;fill:none"
d="M 47500,30500
46500,30500
" /> 
<path style="fill:#840000; fill-opacity:0.0; 
stroke:#840000; stroke-width:80; stroke-opacity:1; 
stroke-linecap:round; stroke-linejoin:round;fill:none"
d="M 47500,31500
46500,31500
47000,30500
Z" /> 
</g>
<g style="fill:#840000; fill-opacity:0.0; 
stroke:#840000; stroke-width:60; stroke-opacity:1; 
stroke-linecap:round; stroke-linejoin:round;">
<path d="M47000 30500
L47000 29500
" />
<path d="M47000 31500
L47000 32500
" />
</g>
<g style="fill:#008484; fill-opacity:0.0; 
stroke:#008484; stroke-width:60; stroke-opacity:1; 
stroke-linecap:round; stroke-linejoin:round;">
<text x="48460" y="30810"
textLength="990" font-size="660" lengthAdjust="spacingAndGlyphs"
text-anchor="middle" opacity="0">D6</text>
<path d="M48090 30780
L48090 30280
L48210 30280
L48280 30310
L48320 30350
L48350 30400
L48370 30500
L48370 30570
L48350 30660
L48320 30710
L48280 30760
L48210 30780
L48090 30780
" />
<path d="M48800 30280
L48710 30280
L48660 30310
L48630 30330
L48590 30400
L48560 30500
L48560 30690
L48590 30730
L48610 30760
L48660 30780
L48750 30780
L48800 30760
L48820 30730
L48850 30690
L48850 30570
L48820 30520
L48800 30500
L48750 30470
L48660 30470
L48610 30500
L48590 30520
L48560 30570
" />
<text x="50630" y="31720"
textLength="5390" font-size="660" lengthAdjust="spacingAndGlyphs"
text-anchor="middle" opacity="0">ESD9L5.0ST5G</text>
<path d="M48080 31430
L48240 31430
" />
<path d="M48320 31690
L48080 31690
L48080 31190
L48320 31190
" />
<path d="M48510 31670
L48580 31690
L48700 31690
L48740 31670
L48770 31640
L48790 31600
L48790 31550
L48770 31500
L48740 31480
L48700 31450
L48600 31430
L48550 31410
L48530 31380
L48510 31330
L48510 31290
L48530 31240
L48550 31220
L48600 31190
L48720 31190
L48790 31220
" />
<path d="M49010 31690
L49010 31190
L49130 31190
L49200 31220
L49240 31260
L49270 31310
L49290 31410
L49290 31480
L49270 31570
L49240 31620
L49200 31670
L49130 31690
L49010 31690
" />
<path d="M49530 31690
L49630 31690
L49670 31670
L49700 31640
L49740 31570
L49770 31480
L49770 31290
L49740 31240
L49720 31220
L49670 31190
L49580 31190
L49530 31220
L49510 31240
L49480 31290
L49480 31410
L49510 31450
L49530 31480
L49580 31500
L49670 31500
L49720 31480
L49740 31450
L49770 31410
" />
<path d="M50220 31690
L49980 31690
L49980 31190
" />
<path d="M50630 31190
L50390 31190
L50360 31430
L50390 31410
L50430 31380
L50550 31380
L50600 31410
L50630 31430
L50650 31480
L50650 31600
L50630 31640
L50600 31670
L50550 31690
L50430 31690
L50390 31670
L50360 31640
" />
<path d="M50860 31640
L50890 31670
L50860 31690
L50840 31670
L50860 31640
L50860 31690
" />
<path d="M51200 31190
L51240 31190
L51290 31220
L51320 31240
L51340 31290
L51360 31380
L51360 31500
L51340 31600
L51320 31640
L51290 31670
L51240 31690
L51200 31690
L51150 31670
L51130 31640
L51100 31600
L51080 31500
L51080 31380
L51100 31290
L51130 31240
L51150 31220
L51200 31190
" />
<path d="M51550 31670
L51630 31690
L51740 31690
L51790 31670
L51820 31640
L51840 31600
L51840 31550
L51820 31500
L51790 31480
L51740 31450
L51650 31430
L51600 31410
L51580 31380
L51550 31330
L51550 31290
L51580 31240
L51600 31220
L51650 31190
L51770 31190
L51840 31220
" />
<path d="M51980 31190
L52270 31190
" />
<path d="M52130 31690
L52130 31190
" />
<path d="M52670 31190
L52430 31190
L52410 31430
L52430 31410
L52480 31380
L52600 31380
L52650 31410
L52670 31430
L52700 31480
L52700 31600
L52670 31640
L52650 31670
L52600 31690
L52480 31690
L52430 31670
L52410 31640
" />
<path d="M53170 31220
L53130 31190
L53050 31190
L52980 31220
L52930 31260
L52910 31310
L52890 31410
L52890 31480
L52910 31570
L52930 31620
L52980 31670
L53050 31690
L53100 31690
L53170 31670
L53200 31640
L53200 31480
L53100 31480
" />
</g>
</g>
<g style="fill:#008484; fill-opacity:0.0; 
stroke:#008484; stroke-width:0; stroke-opacity:1; 
stroke-linecap:round; stroke-linejoin:round;">
<g >
</g>
<g style="fill:#840000; fill-opacity:0.0; 
stroke:#840000; stroke-width:0; stroke-opacity:1; 
stroke-linecap:round; stroke-linejoin:round;">
</g>
<g style="fill:#840000; fill-opacity:1.0; 
stroke:#840000; stroke-width:60; stroke-opacity:1; 
stroke-linecap:round; stroke-linejoin:round;">
<circle cx="41500" cy="31200" r="100" /> 
<circle cx="41500" cy="29000" r="100" /> 
</g>
<g style="fill:#840000; fill-opacity:0.0; 
stroke:#840000; stroke-width:60; stroke-opacity:1; 
stroke-linecap:round; stroke-linejoin:round;">
<rect x="39800" y="30900" width="1300" height="600" rx="0" />
<rect x="39800" y="28700" width="1300" height="600" rx="0" />
<line x1="39000" y1="28300" x2="43000" y2="28300" />
<path style="fill:#840000; fill-opacity:0.0; 
stroke:#840000; stroke-width:60; stroke-opacity:1; 
stroke-linecap:round; stroke-linejoin:round;fill:none"
d="M 43100,29000
42800,29000
" /> 
<path style="fill:#840000; fill-opacity:0.0; 
stroke:#840000; stroke-width:60; stroke-opacity:1; 
stroke-linecap:round; stroke-linejoin:round;fill:none"
d="M 43000,31900
43000,28300
" /> 
<path style="fill:#840000; fill-opacity:0.0; 
stroke:#840000; stroke-width:60; stroke-opacity:1; 
stroke-linecap:round; stroke-linejoin:round;fill:none"
d="M 42000,29400
41000,29400
" /> 
<path style="fill:#840000; fill-opacity:0.0; 
stroke:#840000; stroke-width:60; stroke-opacity:1; 
stroke-linecap:round; stroke-linejoin:round;fill:none"
d="M 41500,30500
41500,29500
" /> 
<path style="fill:#840000; fill-opacity:0.0; 
stroke:#840000; stroke-width:60; stroke-opacity:1; 
stroke-linecap:round; stroke-linejoin:round;fill:none"
d="M 41500,29000
42900,29000
" /> 
<path style="fill:#840000; fill-opacity:0.0; 
stroke:#840000; stroke-width:60; stroke-opacity:1; 
stroke-linecap:round; stroke-linejoin:round;fill:none"
d="M 41500,29000
41500,29400
" /> 
</g>
<g style="fill:#840000; fill-opacity:0.0; 
stroke:#840000; stroke-width:80; stroke-opacity:1; 
stroke-linecap:round; stroke-linejoin:round;">
<path style="fill:#840000; fill-opacity:0.0; 
stroke:#840000; stroke-width:80; stroke-opacity:1; 
stroke-linecap:round; stroke-linejoin:round;fill:none"
d="M 41500,29000
Z" /> 
<path style="fill:#840000; fill-opacity:0.0; 
stroke:#840000; stroke-width:80; stroke-opacity:1; 
stroke-linecap:round; stroke-linejoin:round;fill:none"
d="M 41500,29000
Z" /> 
</g>
<g style="fill:#840000; fill-opacity:0.0; 
stroke:#840000; stroke-width:60; stroke-opacity:1; 
stroke-linecap:round; stroke-linejoin:round;">
<path style="fill:#840000; fill-opacity:0.0; 
stroke:#840000; stroke-width:60; stroke-opacity:1; 
stroke-linecap:round; stroke-linejoin:round;fill:none"
d="M 41200,31200
41100,31200
" /> 
<path style="fill:#840000; fill-opacity:0.0; 
stroke:#840000; stroke-width:60; stroke-opacity:1; 
stroke-linecap:round; stroke-linejoin:round;fill:none"
d="M 41100,29000
41700,29000
" /> 
<path style="fill:#840000; fill-opacity:0.0; 
stroke:#840000; stroke-width:60; stroke-opacity:1; 
stroke-linecap:round; stroke-linejoin:round;fill:none"
d="M 41000,29500
42000,29500
" /> 
<path style="fill:#840000; fill-opacity:0.0; 
stroke:#840000; stroke-width:60; stroke-opacity:1; 
stroke-linecap:round; stroke-linejoin:round;fill:none"
d="M 41000,29500
40900,29600
" /> 
<path style="fill:#840000; fill-opacity:0.0; 
stroke:#840000; stroke-width:60; stroke-opacity:1; 
stroke-linecap:round; stroke-linejoin:round;fill:none"
d="M 39800,31200
39500,31200
" /> 
<path style="fill:#840000; fill-opacity:0.0; 
stroke:#840000; stroke-width:60; stroke-opacity:1; 
stroke-linecap:round; stroke-linejoin:round;fill:none"
d="M 39800,29000
39500,29000
" /> 
<path style="fill:#840000; fill-opacity:0.0; 
stroke:#840000; stroke-width:60; stroke-opacity:1; 
stroke-linecap:round; stroke-linejoin:round;fill:none"
d="M 39500,29000
39000,29000
" /> 
<path style="fill:#840000; fill-opacity:0.0; 
stroke:#840000; stroke-width:60; stroke-opacity:1; 
stroke-linecap:round; stroke-linejoin:round;fill:none"
d="M 39000,31900
43000,31900
" /> 
<path style="fill:#840000; fill-opacity:0.0; 
stroke:#840000; stroke-width:60; stroke-opacity:1; 
stroke-linecap:round; stroke-linejoin:round;fill:none"
d="M 39000,31900
39000,28300
" /> 
<path style="fill:#840000; fill-opacity:0.0; 
stroke:#840000; stroke-width:60; stroke-opacity:1; 
stroke-linecap:round; stroke-linejoin:round;fill:none"
d="M 41000,29400
40950,29400
40850,29500
" /> 
<path style="fill:#840000; fill-opacity:0.0; 
stroke:#840000; stroke-width:60; stroke-opacity:1; 
stroke-linecap:round; stroke-linejoin:round;fill:none"
d="M 39500,31200
39500,30000
39000,30000
" /> 
<path style="fill:#840000; fill-opacity:0.0; 
stroke:#840000; stroke-width:60; stroke-opacity:1; 
stroke-linecap:round; stroke-linejoin:round;fill:none"
d="M 41500,30200
41500,31200
41400,31200
41200,31200
" /> 
<path style="fill:#840000; fill-opacity:0.0; 
stroke:#840000; stroke-width:60; stroke-opacity:1; 
stroke-linecap:round; stroke-linejoin:round;fill:none"
d="M 41000,30500
42000,30500
41500,29500
Z" /> 
<path style="fill:#840000; fill-opacity:0.0; 
stroke:#840000; stroke-width:60; stroke-opacity:1; 
stroke-linecap:round; stroke-linejoin:round;fill:none"
d="M 41500,31200
41800,31200
42500,31200
42500,30000
43000,30000
" /> 
<path d="M43000 29000
L44000 29000
" />
<text x="43500" y="28900"
textLength="540" font-size="660" lengthAdjust="spacingAndGlyphs"
text-anchor="middle" opacity="0">1</text>
<path d="M43640 28870
L43350 28870
" />
<path d="M43500 28870
L43500 28370
L43450 28440
L43400 28490
L43350 28510
" />
<path d="M43000 30000
L44000 30000
" />
<text x="43500" y="29900"
textLength="540" font-size="660" lengthAdjust="spacingAndGlyphs"
text-anchor="middle" opacity="0">2</text>
<path d="M43350 29420
L43380 29400
L43420 29370
L43540 29370
L43590 29400
L43610 29420
L43640 29470
L43640 29510
L43610 29590
L43330 29870
L43640 29870
" />
<path d="M39000 30000
L38000 30000
" />
<text x="38500" y="29900"
textLength="540" font-size="660" lengthAdjust="spacingAndGlyphs"
text-anchor="middle" opacity="0">5</text>
<path d="M38610 29370
L38380 29370
L38350 29610
L38380 29590
L38420 29560
L38540 29560
L38590 29590
L38610 29610
L38640 29660
L38640 29780
L38610 29820
L38590 29850
L38540 29870
L38420 29870
L38380 29850
L38350 29820
" />
<path d="M39000 29000
L38000 29000
" />
<text x="38500" y="28900"
textLength="540" font-size="660" lengthAdjust="spacingAndGlyphs"
text-anchor="middle" opacity="0">6</text>
<path d="M38590 28370
L38500 28370
L38450 28400
L38420 28420
L38380 28490
L38350 28590
L38350 28780
L38380 28820
L38400 28850
L38450 28870
L38540 28870
L38590 28850
L38610 28820
L38640 28780
L38640 28660
L38610 28610
L38590 28590
L38540 28560
L38450 28560
L38400 28590
L38380 28610
L38350 28660
" />
</g>
<g style="fill:#008484; fill-opacity:0.0; 
stroke:#008484; stroke-width:60; stroke-opacity:1; 
stroke-linecap:round; stroke-linejoin:round;">
<text x="41000" y="27770"
textLength="1040" font-size="660" lengthAdjust="spacingAndGlyphs"
text-anchor="middle" opacity="0">D1</text>
<path d="M40630 27740
L40630 27240
L40750 27240
L40820 27270
L40860 27310
L40890 27360
L40910 27460
L40910 27530
L40890 27620
L40860 27670
L40820 27720
L40750 27740
L40630 27740
" />
<path d="M41390 27740
L41100 27740
" />
<path d="M41250 27740
L41250 27240
L41200 27310
L41150 27360
L41100 27380
" />
<text x="41000" y="32770"
textLength="2940" font-size="660" lengthAdjust="spacingAndGlyphs"
text-anchor="middle" opacity="0">DS9503</text>
<path d="M39670 32740
L39670 32240
L39790 32240
L39860 32270
L39910 32310
L39940 32360
L39960 32460
L39960 32530
L39940 32620
L39910 32670
L39860 32720
L39790 32740
L39670 32740
" />
<path d="M40150 32720
L40220 32740
L40340 32740
L40390 32720
L40410 32690
L40440 32650
L40440 32600
L40410 32550
L40390 32530
L40340 32500
L40250 32480
L40200 32460
L40170 32430
L40150 32380
L40150 32340
L40170 32290
L40200 32270
L40250 32240
L40360 32240
L40440 32270
" />
<path d="M40670 32740
L40770 32740
L40820 32720
L40840 32690
L40890 32620
L40910 32530
L40910 32340
L40890 32290
L40860 32270
L40820 32240
L40720 32240
L40670 32270
L40650 32290
L40630 32340
L40630 32460
L40650 32500
L40670 32530
L40720 32550
L40820 32550
L40860 32530
L40890 32500
L40910 32460
" />
<path d="M41360 32240
L41130 32240
L41100 32480
L41130 32460
L41170 32430
L41290 32430
L41340 32460
L41360 32480
L41390 32530
L41390 32650
L41360 32690
L41340 32720
L41290 32740
L41170 32740
L41130 32720
L41100 32690
" />
<path d="M41700 32240
L41750 32240
L41790 32270
L41820 32290
L41840 32340
L41860 32430
L41860 32550
L41840 32650
L41820 32690
L41790 32720
L41750 32740
L41700 32740
L41650 32720
L41630 32690
L41600 32650
L41580 32550
L41580 32430
L41600 32340
L41630 32290
L41650 32270
L41700 32240
" />
<path d="M42030 32240
L42340 32240
L42170 32430
L42250 32430
L42290 32460
L42320 32480
L42340 32530
L42340 32650
L42320 32690
L42290 32720
L42250 32740
L42100 32740
L42050 32720
L42030 32690
" />
</g>
</g>
<g style="fill:#008484; fill-opacity:0.0; 
stroke:#008484; stroke-width:0; stroke-opacity:1; 
stroke-linecap:round; stroke-linejoin:round;">
<g >
</g>
<g style="fill:#840000; fill-opacity:0.0; 
stroke:#840000; stroke-width:0; stroke-opacity:1; 
stroke-linecap:round; stroke-linejoin:round;">
</g>
<g style="fill:#840000; fill-opacity:0.0; 
stroke:#840000; stroke-width:100; stroke-opacity:1; 
stroke-linecap:round; stroke-linejoin:round;">
<rect x="61100" y="18500" width="800" height="2000" rx="0" />
</g>
<g style="fill:#840000; fill-opacity:0.0; 
stroke:#840000; stroke-width:60; stroke-opacity:1; 
stroke-linecap:round; stroke-linejoin:round;">
<path d="M61500 18500
L61500 18000
" />
<path d="M61500 20500
L61500 21000
" />
</g>
<g style="fill:#008484; fill-opacity:0.0; 
stroke:#008484; stroke-width:60; stroke-opacity:1; 
stroke-linecap:round; stroke-linejoin:round;">
<text x="62720" y="19310"
textLength="1040" font-size="660" lengthAdjust="spacingAndGlyphs"
text-anchor="middle" opacity="0">R8</text>
<path d="M62630 19280
L62470 19040
" />
<path d="M62350 19280
L62350 18780
L62540 18780
L62580 18810
L62610 18830
L62630 18880
L62630 18950
L62610 19000
L62580 19020
L62540 19040
L62350 19040
" />
<path d="M62920 19000
L62870 18970
L62850 18950
L62820 18900
L62820 18880
L62850 18830
L62870 18810
L62920 18780
L63010 18780
L63060 18810
L63080 18830
L63110 18880
L63110 18900
L63080 18950
L63060 18970
L63010 19000
L62920 19000
L62870 19020
L62850 19040
L62820 19090
L62820 19190
L62850 19230
L62870 19260
L62920 19280
L63010 19280
L63060 19260
L63080 19230
L63110 19190
L63110 19090
L63080 19040
L63060 19020
L63010 19000
" />
<text x="62940" y="20220"
textLength="1490" font-size="660" lengthAdjust="spacingAndGlyphs"
text-anchor="middle" opacity="0">130</text>
<path d="M62600 20190
L62320 20190
" />
<path d="M62460 20190
L62460 19690
L62410 19760
L62360 19810
L62320 19830
" />
<path d="M62770 19690
L63080 19690
L62910 19880
L62980 19880
L63030 19910
L63050 19930
L63080 19980
L63080 20100
L63050 20140
L63030 20170
L62980 20190
L62840 20190
L62790 20170
L62770 20140
" />
<path d="M63390 19690
L63440 19690
L63480 19720
L63510 19740
L63530 19790
L63550 19880
L63550 20000
L63530 20100
L63510 20140
L63480 20170
L63440 20190
L63390 20190
L63340 20170
L63320 20140
L63290 20100
L63270 20000
L63270 19880
L63290 19790
L63320 19740
L63340 19720
L63390 19690
" />
</g>
</g>
<g style="fill:#008484; fill-opacity:0.0; 
stroke:#008484; stroke-width:0; stroke-opacity:1; 
stroke-linecap:round; stroke-linejoin:round;">
<g >
</g>
<g style="fill:#840000; fill-opacity:0.0; 
stroke:#840000; stroke-width:0; stroke-opacity:1; 
stroke-linecap:round; stroke-linejoin:round;">
</g>
<g style="fill:#840000; fill-opacity:0.0; 
stroke:#840000; stroke-width:100; stroke-opacity:1; 
stroke-linecap:round; stroke-linejoin:round;">
<rect x="54600" y="30000" width="800" height="2000" rx="0" />
</g>
<g style="fill:#840000; fill-opacity:0.0; 
stroke:#840000; stroke-width:60; stroke-opacity:1; 
stroke-linecap:round; stroke-linejoin:round;">
<path d="M55000 30000
L55000 29500
" />
<path d="M55000 32000
L55000 32500
" />
</g>
<g style="fill:#008484; fill-opacity:0.0; 
stroke:#008484; stroke-width:60; stroke-opacity:1; 
stroke-linecap:round; stroke-linejoin:round;">
<text x="56220" y="30810"
textLength="1040" font-size="660" lengthAdjust="spacingAndGlyphs"
text-anchor="middle" opacity="0">R5</text>
<path d="M56130 30780
L55970 30540
" />
<path d="M55850 30780
L55850 30280
L56040 30280
L56080 30310
L56110 30330
L56130 30380
L56130 30450
L56110 30500
L56080 30520
L56040 30540
L55850 30540
" />
<path d="M56580 30280
L56350 30280
L56320 30520
L56350 30500
L56390 30470
L56510 30470
L56560 30500
L56580 30520
L56610 30570
L56610 30690
L56580 30730
L56560 30760
L56510 30780
L56390 30780
L56350 30760
L56320 30730
" />
<text x="56410" y="31720"
textLength="1420" font-size="660" lengthAdjust="spacingAndGlyphs"
text-anchor="middle" opacity="0">10k</text>
<path d="M56110 31690
L55820 31690
" />
<path d="M55960 31690
L55960 31190
L55920 31260
L55870 31310
L55820 31330
" />
<path d="M56420 31190
L56460 31190
L56510 31220
L56540 31240
L56560 31290
L56580 31380
L56580 31500
L56560 31600
L56540 31640
L56510 31670
L56460 31690
L56420 31690
L56370 31670
L56350 31640
L56320 31600
L56300 31500
L56300 31380
L56320 31290
L56350 31240
L56370 31220
L56420 31190
" />
<path d="M56800 31690
L56800 31190
" />
<path d="M56850 31500
L56990 31690
" />
<path d="M56990 31360
L56800 31550
" />
</g>
</g>
<g style="fill:#008484; fill-opacity:0.0; 
stroke:#008484; stroke-width:0; stroke-opacity:1; 
stroke-linecap:round; stroke-linejoin:round;">
<g >
</g>
<g style="fill:#840000; fill-opacity:0.0; 
stroke:#840000; stroke-width:0; stroke-opacity:1; 
stroke-linecap:round; stroke-linejoin:round;">
</g>
<g style="fill:#840000; fill-opacity:0.0; 
stroke:#840000; stroke-width:180; stroke-opacity:1; 
stroke-linecap:round; stroke-linejoin:round;">
<circle cx="62900" cy="23500" r="100" /> 
<circle cx="62900" cy="24500" r="100" /> 
</g>
<g style="fill:#840000; fill-opacity:0.0; 
stroke:#840000; stroke-width:100; stroke-opacity:1; 
stroke-linecap:round; stroke-linejoin:round;">
<path style="fill:#840000; fill-opacity:0.0; 
stroke:#840000; stroke-width:100; stroke-opacity:1; 
stroke-linecap:round; stroke-linejoin:round;fill:none"
d="M 62500,23000
63300,23000
" /> 
<path style="fill:#840000; fill-opacity:0.0; 
stroke:#840000; stroke-width:100; stroke-opacity:1; 
stroke-linecap:round; stroke-linejoin:round;fill:none"
d="M 62500,23000
62500,25000
" /> 
</g>
<g style="fill:#840000; fill-opacity:0.0; 
stroke:#840000; stroke-width:60; stroke-opacity:1; 
stroke-linecap:round; stroke-linejoin:round;">
<path style="fill:#840000; fill-opacity:0.0; 
stroke:#840000; stroke-width:60; stroke-opacity:1; 
stroke-linecap:round; stroke-linejoin:round;fill:none"
d="M 62500,23500
62900,23500
" /> 
<path style="fill:#840000; fill-opacity:0.0; 
stroke:#840000; stroke-width:60; stroke-opacity:1; 
stroke-linecap:round; stroke-linejoin:round;fill:none"
d="M 62500,24500
62900,24500
" /> 
</g>
<g style="fill:#840000; fill-opacity:0.0; 
stroke:#840000; stroke-width:100; stroke-opacity:1; 
stroke-linecap:round; stroke-linejoin:round;">
<path style="fill:#840000; fill-opacity:0.0; 
stroke:#840000; stroke-width:100; stroke-opacity:1; 
stroke-linecap:round; stroke-linejoin:round;fill:none"
d="M 62500,25000
63300,25000
63300,23000
" /> 
</g>
<g style="fill:#840000; fill-opacity:0.0; 
stroke:#840000; stroke-width:60; stroke-opacity:1; 
stroke-linecap:round; stroke-linejoin:round;">
<path d="M62500 23500
L61500 23500
" />
<text x="62000" y="23400"
textLength="540" font-size="660" lengthAdjust="spacingAndGlyphs"
text-anchor="middle" opacity="0">1</text>
<path d="M62140 23370
L61850 23370
" />
<path d="M62000 23370
L62000 22870
L61950 22940
L61900 22990
L61850 23010
" />
<path d="M62500 24500
L61500 24500
" />
<text x="62000" y="24400"
textLength="540" font-size="660" lengthAdjust="spacingAndGlyphs"
text-anchor="middle" opacity="0">2</text>
<path d="M61850 23920
L61880 23900
L61920 23870
L62040 23870
L62090 23900
L62110 23920
L62140 23970
L62140 24010
L62110 24090
L61830 24370
L62140 24370
" />
</g>
<g style="fill:#008484; fill-opacity:0.0; 
stroke:#008484; stroke-width:60; stroke-opacity:1; 
stroke-linecap:round; stroke-linejoin:round;">
<text x="64120" y="23850"
textLength="1040" font-size="660" lengthAdjust="spacingAndGlyphs"
text-anchor="middle" opacity="0">P1</text>
<path d="M63750 23820
L63750 23320
L63940 23320
L63980 23350
L64010 23370
L64030 23420
L64030 23490
L64010 23540
L63980 23560
L63940 23580
L63750 23580
" />
<path d="M64510 23820
L64220 23820
" />
<path d="M64370 23820
L64370 23320
L64320 23390
L64270 23440
L64220 23460
" />
<text x="67200" y="24760"
textLength="7200" font-size="660" lengthAdjust="spacingAndGlyphs"
text-anchor="middle" opacity="0">1x2_pins_header_rl</text>
<path d="M64000 24730
L63720 24730
" />
<path d="M63860 24730
L63860 24230
L63810 24300
L63770 24350
L63720 24370
" />
<path d="M64170 24730
L64430 24400
" />
<path d="M64170 24400
L64430 24730
" />
<path d="M64600 24280
L64620 24260
L64670 24230
L64790 24230
L64840 24260
L64860 24280
L64890 24330
L64890 24370
L64860 24450
L64580 24730
L64890 24730
" />
<path d="M64980 24780
L65360 24780
" />
<path d="M65480 24400
L65480 24900
" />
<path d="M65480 24420
L65530 24400
L65620 24400
L65670 24420
L65700 24450
L65720 24490
L65720 24640
L65700 24680
L65670 24710
L65620 24730
L65530 24730
L65480 24710
" />
<path d="M65930 24730
L65930 24400
" />
<path d="M65930 24230
L65910 24260
L65930 24280
L65960 24260
L65930 24230
L65930 24280
" />
<path d="M66170 24400
L66170 24730
" />
<path d="M66170 24450
L66200 24420
L66240 24400
L66310 24400
L66360 24420
L66390 24470
L66390 24730
" />
<path d="M66600 24710
L66650 24730
L66740 24730
L66790 24710
L66810 24660
L66810 24640
L66790 24590
L66740 24560
L66670 24560
L66620 24540
L66600 24490
L66600 24470
L66620 24420
L66670 24400
L66740 24400
L66790 24420
" />
<path d="M66910 24780
L67290 24780
" />
<path d="M67410 24730
L67410 24230
" />
<path d="M67620 24730
L67620 24470
L67600 24420
L67550 24400
L67480 24400
L67430 24420
L67410 24450
" />
<path d="M68050 24710
L68000 24730
L67910 24730
L67860 24710
L67840 24660
L67840 24470
L67860 24420
L67910 24400
L68000 24400
L68050 24420
L68080 24470
L68080 24520
L67840 24560
" />
<path d="M68500 24730
L68500 24470
L68480 24420
L68430 24400
L68340 24400
L68290 24420
" />
<path d="M68500 24710
L68460 24730
L68340 24730
L68290 24710
L68270 24660
L68270 24610
L68290 24560
L68340 24540
L68460 24540
L68500 24520
" />
<path d="M68960 24730
L68960 24230
" />
<path d="M68960 24710
L68910 24730
L68810 24730
L68770 24710
L68740 24680
L68720 24640
L68720 24490
L68740 24450
L68770 24420
L68810 24400
L68910 24400
L68960 24420
" />
<path d="M69390 24710
L69340 24730
L69240 24730
L69200 24710
L69170 24660
L69170 24470
L69200 24420
L69240 24400
L69340 24400
L69390 24420
L69410 24470
L69410 24520
L69170 24560
" />
<path d="M69620 24730
L69620 24400
" />
<path d="M69620 24490
L69650 24450
L69670 24420
L69720 24400
L69770 24400
" />
<path d="M69810 24780
L70200 24780
" />
<path d="M70310 24730
L70310 24400
" />
<path d="M70310 24490
L70340 24450
L70360 24420
L70410 24400
L70460 24400
" />
<path d="M70700 24730
L70650 24710
L70620 24660
L70620 24230
" />
</g>
</g>
<g style="fill:#008484; fill-opacity:0.0; 
stroke:#008484; stroke-width:0; stroke-opacity:1; 
stroke-linecap:round; stroke-linejoin:round;">
<g >
</g>
<g style="fill:#840000; fill-opacity:0.0; 
stroke:#840000; stroke-width:0; stroke-opacity:1; 
stroke-linecap:round; stroke-linejoin:round;">
</g>
<g style="fill:#840000; fill-opacity:0.0; 
stroke:#840000; stroke-width:60; stroke-opacity:1; 
stroke-linecap:round; stroke-linejoin:round;">
<path style="fill:#840000; fill-opacity:0.0; 
stroke:#840000; stroke-width:60; stroke-opacity:1; 
stroke-linecap:round; stroke-linejoin:round;fill:none"
d="M 61200,16500
61500,16000
" /> 
<path style="fill:#840000; fill-opacity:0.0; 
stroke:#840000; stroke-width:60; stroke-opacity:1; 
stroke-linecap:round; stroke-linejoin:round;fill:none"
d="M 61500,17000
61500,16000
" /> 
<path style="fill:#840000; fill-opacity:0.0; 
stroke:#840000; stroke-width:60; stroke-opacity:1; 
stroke-linecap:round; stroke-linejoin:round;fill:none"
d="M 61500,16000
61800,16500
" /> 
</g>
<g style="fill:#008484; fill-opacity:0.0; 
stroke:#008484; stroke-width:60; stroke-opacity:1; 
stroke-linecap:round; stroke-linejoin:round;">
<text x="61650" y="15540"
textLength="1580" font-size="660" lengthAdjust="spacingAndGlyphs"
text-anchor="middle" opacity="0">+5V</text>
<path d="M61000 15320
L61380 15320
" />
<path d="M61190 15510
L61190 15130
" />
<path d="M61860 15010
L61620 15010
L61600 15250
L61620 15230
L61670 15200
L61790 15200
L61840 15230
L61860 15250
L61880 15300
L61880 15420
L61860 15460
L61840 15490
L61790 15510
L61670 15510
L61620 15490
L61600 15460
" />
<path d="M62030 15010
L62190 15510
L62360 15010
" />
</g>
</g>
<g style="fill:#008484; fill-opacity:0.0; 
stroke:#008484; stroke-width:0; stroke-opacity:1; 
stroke-linecap:round; stroke-linejoin:round;">
<g >
</g>
<g style="fill:#840000; fill-opacity:0.0; 
stroke:#840000; stroke-width:0; stroke-opacity:1; 
stroke-linecap:round; stroke-linejoin:round;">
</g>
<g style="fill:#840000; fill-opacity:0.0; 
stroke:#840000; stroke-width:100; stroke-opacity:1; 
stroke-linecap:round; stroke-linejoin:round;">
<circle cx="61150" cy="29000" r="1100" /> 
</g>
<g style="fill:#840000; fill-opacity:1.0; 
stroke:#840000; stroke-width:60; stroke-opacity:1; 
stroke-linecap:round; stroke-linejoin:round;">
<circle cx="61500" cy="29700" r="100" /> 
<circle cx="61500" cy="28300" r="100" /> 
</g>
<g style="fill:#840000; fill-opacity:0.0; 
stroke:#840000; stroke-width:60; stroke-opacity:1; 
stroke-linecap:round; stroke-linejoin:round;">
<path style="fill:#840000; fill-opacity:0.0; 
stroke:#840000; stroke-width:60; stroke-opacity:1; 
stroke-linecap:round; stroke-linejoin:round;fill:none"
d="M 60600,29000
59500,29000
" /> 
</g>
<g style="fill:#840000; fill-opacity:0.0; 
stroke:#840000; stroke-width:100; stroke-opacity:1; 
stroke-linecap:round; stroke-linejoin:round;">
<path style="fill:#840000; fill-opacity:0.0; 
stroke:#840000; stroke-width:100; stroke-opacity:1; 
stroke-linecap:round; stroke-linejoin:round;fill:none"
d="M 60600,28250
60600,29750
" /> 
<path style="fill:#840000; fill-opacity:0.0; 
stroke:#840000; stroke-width:100; stroke-opacity:1; 
stroke-linecap:round; stroke-linejoin:round;fill:none"
d="M 60800,29500
60800,29900
" /> 
<path style="fill:#840000; fill-opacity:0.0; 
stroke:#840000; stroke-width:100; stroke-opacity:1; 
stroke-linecap:round; stroke-linejoin:round;fill:none"
d="M 60800,28800
60800,29200
" /> 
<path style="fill:#840000; fill-opacity:0.0; 
stroke:#840000; stroke-width:100; stroke-opacity:1; 
stroke-linecap:round; stroke-linejoin:round;fill:none"
d="M 60800,28100
60800,28500
" /> 
</g>
<g style="fill:#840000; fill-opacity:0.0; 
stroke:#840000; stroke-width:60; stroke-opacity:1; 
stroke-linecap:round; stroke-linejoin:round;">
<path style="fill:#840000; fill-opacity:0.0; 
stroke:#840000; stroke-width:60; stroke-opacity:1; 
stroke-linecap:round; stroke-linejoin:round;fill:none"
d="M 61500,28000
61500,28300
" /> 
<path style="fill:#840000; fill-opacity:0.0; 
stroke:#840000; stroke-width:60; stroke-opacity:1; 
stroke-linecap:round; stroke-linejoin:round;fill:none"
d="M 61500,30000
61500,29000
60800,29000
" /> 
<path style="fill:#840000; fill-opacity:0.0; 
stroke:#840000; stroke-width:60; stroke-opacity:1; 
stroke-linecap:round; stroke-linejoin:round;fill:none"
d="M 60800,29700
61800,29700
61800,28300
60800,28300
" /> 
</g>
<g style="fill:#840000; fill-opacity:1.0; 
stroke:#840000; stroke-width:60; stroke-opacity:1; 
stroke-linecap:round; stroke-linejoin:round;">
<path style="fill:#840000; fill-opacity:1.0; 
stroke:#840000; stroke-width:60; stroke-opacity:1; 
stroke-linecap:round; stroke-linejoin:round;fill-rule:evenodd;"
d="M 60900,29000
61300,28850
61300,29150
Z" /> 
</g>
<g style="fill:#840000; fill-opacity:0.0; 
stroke:#840000; stroke-width:60; stroke-opacity:1; 
stroke-linecap:round; stroke-linejoin:round;">
<path style="fill:#840000; fill-opacity:0.0; 
stroke:#840000; stroke-width:60; stroke-opacity:1; 
stroke-linecap:round; stroke-linejoin:round;fill:none"
d="M 61600,28800
61650,28850
61950,28850
62000,28900
" /> 
<path style="fill:#840000; fill-opacity:0.0; 
stroke:#840000; stroke-width:60; stroke-opacity:1; 
stroke-linecap:round; stroke-linejoin:round;fill:none"
d="M 61800,28850
61650,29100
61950,29100
Z" /> 
<path d="M59500 29000
L58500 29000
" />
<text x="59000" y="29600"
textLength="540" font-size="660" lengthAdjust="spacingAndGlyphs"
text-anchor="middle" opacity="0">1</text>
<path d="M59140 29570
L58850 29570
" />
<path d="M59000 29570
L59000 29070
L58950 29140
L58900 29190
L58850 29210
" />
<path d="M61500 30000
L61500 31000
" />
<g transform="rotate(-90 61600 30500)">
<text x="61600" y="31000"
textLength="540" font-size="660" lengthAdjust="spacingAndGlyphs"
text-anchor="middle" opacity="0">2</text>
</g>
<path d="M61620 30640
L61600 30610
L61570 30570
L61570 30450
L61600 30400
L61620 30380
L61670 30350
L61710 30350
L61790 30380
L62070 30660
L62070 30350
" />
<path d="M61500 28000
L61500 27000
" />
<g transform="rotate(-90 61600 27500)">
<text x="61600" y="28000"
textLength="540" font-size="660" lengthAdjust="spacingAndGlyphs"
text-anchor="middle" opacity="0">3</text>
</g>
<path d="M61570 27660
L61570 27350
L61760 27520
L61760 27450
L61790 27400
L61810 27380
L61860 27350
L61980 27350
L62020 27380
L62050 27400
L62070 27450
L62070 27590
L62050 27640
L62020 27660
" />
</g>
<g style="fill:#008484; fill-opacity:0.0; 
stroke:#008484; stroke-width:60; stroke-opacity:1; 
stroke-linecap:round; stroke-linejoin:round;">
<text x="63070" y="28810"
textLength="1060" font-size="660" lengthAdjust="spacingAndGlyphs"
text-anchor="middle" opacity="0">Q1</text>
<path d="M63020 28830
L62970 28810
L62920 28760
L62850 28690
L62800 28660
L62760 28660
" />
<path d="M62780 28780
L62730 28760
L62680 28710
L62660 28610
L62660 28450
L62680 28350
L62730 28310
L62780 28280
L62870 28280
L62920 28310
L62970 28350
L62990 28450
L62990 28610
L62970 28710
L62920 28760
L62870 28780
L62780 28780
" />
<path d="M63470 28780
L63180 28780
" />
<path d="M63330 28780
L63330 28280
L63280 28350
L63230 28400
L63180 28420
" />
<text x="64260" y="29720"
textLength="3440" font-size="660" lengthAdjust="spacingAndGlyphs"
text-anchor="middle" opacity="0">BSS138P</text>
<path d="M62850 29430
L62920 29450
L62950 29480
L62970 29520
L62970 29600
L62950 29640
L62920 29670
L62870 29690
L62680 29690
L62680 29190
L62850 29190
L62900 29220
L62920 29240
L62950 29290
L62950 29330
L62920 29380
L62900 29410
L62850 29430
L62680 29430
" />
<path d="M63160 29670
L63230 29690
L63350 29690
L63400 29670
L63420 29640
L63450 29600
L63450 29550
L63420 29500
L63400 29480
L63350 29450
L63260 29430
L63210 29410
L63180 29380
L63160 29330
L63160 29290
L63180 29240
L63210 29220
L63260 29190
L63370 29190
L63450 29220
" />
<path d="M63640 29670
L63710 29690
L63830 29690
L63870 29670
L63900 29640
L63920 29600
L63920 29550
L63900 29500
L63870 29480
L63830 29450
L63730 29430
L63680 29410
L63660 29380
L63640 29330
L63640 29290
L63660 29240
L63680 29220
L63730 29190
L63850 29190
L63920 29220
" />
<path d="M64400 29690
L64110 29690
" />
<path d="M64260 29690
L64260 29190
L64210 29260
L64160 29310
L64110 29330
" />
<path d="M64560 29190
L64870 29190
L64710 29380
L64780 29380
L64830 29410
L64850 29430
L64870 29480
L64870 29600
L64850 29640
L64830 29670
L64780 29690
L64640 29690
L64590 29670
L64560 29640
" />
<path d="M65160 29410
L65110 29380
L65090 29360
L65060 29310
L65060 29290
L65090 29240
L65110 29220
L65160 29190
L65260 29190
L65300 29220
L65330 29240
L65350 29290
L65350 29310
L65330 29360
L65300 29380
L65260 29410
L65160 29410
L65110 29430
L65090 29450
L65060 29500
L65060 29600
L65090 29640
L65110 29670
L65160 29690
L65260 29690
L65300 29670
L65330 29640
L65350 29600
L65350 29500
L65330 29450
L65300 29430
L65260 29410
" />
<path d="M65560 29690
L65560 29190
L65760 29190
L65800 29220
L65830 29240
L65850 29290
L65850 29360
L65830 29410
L65800 29430
L65760 29450
L65560 29450
" />
</g>
</g>
<g style="fill:#008484; fill-opacity:0.0; 
stroke:#008484; stroke-width:0; stroke-opacity:1; 
stroke-linecap:round; stroke-linejoin:round;">
<g >
</g>
<g style="fill:#840000; fill-opacity:0.0; 
stroke:#840000; stroke-width:0; stroke-opacity:1; 
stroke-linecap:round; stroke-linejoin:round;">
</g>
<g style="fill:#FFFFC2; fill-opacity:0.0; 
stroke:#FFFFC2; stroke-width:0; stroke-opacity:1; 
stroke-linecap:round; stroke-linejoin:round;">
</g>
<g style="fill:#FFFFC2; fill-opacity:0.6; 
stroke:#FFFFC2; stroke-width:0; stroke-opacity:1; 
stroke-linecap:round; stroke-linejoin:round;">
<rect x="27500" y="28500" width="1000" height="3000" rx="0" />
</g>
<g style="fill:#840000; fill-opacity:0.6; 
stroke:#840000; stroke-width:0; stroke-opacity:1; 
stroke-linecap:round; stroke-linejoin:round;">
</g>
<g style="fill:#840000; fill-opacity:0.0; 
stroke:#840000; stroke-width:100; stroke-opacity:1; 
stroke-linecap:round; stroke-linejoin:round;">
<rect x="27500" y="28500" width="1000" height="3000" rx="0" />
</g>
<g style="fill:#840000; fill-opacity:0.0; 
stroke:#840000; stroke-width:60; stroke-opacity:1; 
stroke-linecap:round; stroke-linejoin:round;">
<circle cx="28000" cy="29000" r="250" /> 
<circle cx="28000" cy="30000" r="250" /> 
<circle cx="28000" cy="31000" r="250" /> 
</g>
<g style="fill:#840000; fill-opacity:0.0; 
stroke:#840000; stroke-width:100; stroke-opacity:1; 
stroke-linecap:round; stroke-linejoin:round;">
<rect x="27500" y="28500" width="1000" height="3000" rx="0" />
</g>
<g style="fill:#840000; fill-opacity:0.0; 
stroke:#840000; stroke-width:60; stroke-opacity:1; 
stroke-linecap:round; stroke-linejoin:round;">
<path style="fill:#840000; fill-opacity:0.0; 
stroke:#840000; stroke-width:60; stroke-opacity:1; 
stroke-linecap:round; stroke-linejoin:round;fill:none"
d="M 28210,29130
27870,28800
" /> 
<path style="fill:#840000; fill-opacity:0.0; 
stroke:#840000; stroke-width:60; stroke-opacity:1; 
stroke-linecap:round; stroke-linejoin:round;fill:none"
d="M 28210,30130
27870,29800
" /> 
<path style="fill:#840000; fill-opacity:0.0; 
stroke:#840000; stroke-width:60; stroke-opacity:1; 
stroke-linecap:round; stroke-linejoin:round;fill:none"
d="M 28210,31130
27870,30800
" /> 
<path style="fill:#840000; fill-opacity:0.0; 
stroke:#840000; stroke-width:60; stroke-opacity:1; 
stroke-linecap:round; stroke-linejoin:round;fill:none"
d="M 28140,29200
27800,28870
" /> 
<path style="fill:#840000; fill-opacity:0.0; 
stroke:#840000; stroke-width:60; stroke-opacity:1; 
stroke-linecap:round; stroke-linejoin:round;fill:none"
d="M 28140,30200
27800,29870
" /> 
<path style="fill:#840000; fill-opacity:0.0; 
stroke:#840000; stroke-width:60; stroke-opacity:1; 
stroke-linecap:round; stroke-linejoin:round;fill:none"
d="M 28140,31200
27800,30870
" /> 
<path d="M28500 31000
L30000 31000
" />
<text x="29250" y="30900"
textLength="540" font-size="660" lengthAdjust="spacingAndGlyphs"
text-anchor="middle" opacity="0">1</text>
<path d="M29390 30870
L29100 30870
" />
<path d="M29250 30870
L29250 30370
L29200 30440
L29150 30490
L29100 30510
" />
<path d="M28500 30000
L30000 30000
" />
<text x="29250" y="29900"
textLength="540" font-size="660" lengthAdjust="spacingAndGlyphs"
text-anchor="middle" opacity="0">2</text>
<path d="M29100 29420
L29130 29400
L29170 29370
L29290 29370
L29340 29400
L29360 29420
L29390 29470
L29390 29510
L29360 29590
L29080 29870
L29390 29870
" />
<path d="M28500 29000
L30000 29000
" />
<text x="29250" y="28900"
textLength="540" font-size="660" lengthAdjust="spacingAndGlyphs"
text-anchor="middle" opacity="0">3</text>
<path d="M29080 28370
L29390 28370
L29220 28560
L29290 28560
L29340 28590
L29360 28610
L29390 28660
L29390 28780
L29360 28820
L29340 28850
L29290 28870
L29150 28870
L29100 28850
L29080 28820
" />
</g>
<g style="fill:#008484; fill-opacity:0.0; 
stroke:#008484; stroke-width:60; stroke-opacity:1; 
stroke-linecap:round; stroke-linejoin:round;">
<text x="28000" y="32220"
textLength="920" font-size="660" lengthAdjust="spacingAndGlyphs"
text-anchor="middle" opacity="0">J1</text>
<path d="M27830 31690
L27830 32050
L27800 32120
L27760 32170
L27690 32190
L27640 32190
" />
<path d="M28330 32190
L28040 32190
" />
<path d="M28190 32190
L28190 31690
L28140 31760
L28090 31810
L28040 31830
" />
<g transform="rotate(-90 27970 24000)">
<text x="27970" y="24250"
textLength="8490" font-size="660" lengthAdjust="spacingAndGlyphs"
text-anchor="middle" opacity="0">Screw_Terminal_01x03</text>
</g>
<path d="M28170 28110
L28190 28040
L28190 27920
L28170 27880
L28140 27850
L28100 27830
L28050 27830
L28000 27850
L27980 27880
L27950 27920
L27930 28020
L27910 28070
L27880 28090
L27830 28110
L27790 28110
L27740 28090
L27720 28070
L27690 28020
L27690 27900
L27720 27830
" />
<path d="M28170 27400
L28190 27450
L28190 27540
L28170 27590
L28140 27610
L28100 27640
L27950 27640
L27910 27610
L27880 27590
L27860 27540
L27860 27450
L27880 27400
" />
<path d="M28190 27190
L27860 27190
" />
<path d="M27950 27190
L27910 27160
L27880 27140
L27860 27090
L27860 27040
" />
<path d="M28170 26690
L28190 26730
L28190 26830
L28170 26880
L28120 26900
L27930 26900
L27880 26880
L27860 26830
L27860 26730
L27880 26690
L27930 26660
L27980 26660
L28020 26900
" />
<path d="M27860 26500
L28190 26400
L27950 26300
L28190 26210
L27860 26110
" />
<path d="M28240 26040
L28240 25660
" />
<path d="M27690 25610
L27690 25330
" />
<path d="M28190 25470
L27690 25470
" />
<path d="M28170 24970
L28190 25020
L28190 25110
L28170 25160
L28120 25190
L27930 25190
L27880 25160
L27860 25110
L27860 25020
L27880 24970
L27930 24950
L27980 24950
L28020 25190
" />
<path d="M28190 24730
L27860 24730
" />
<path d="M27950 24730
L27910 24710
L27880 24690
L27860 24640
L27860 24590
" />
<path d="M28190 24420
L27860 24420
" />
<path d="M27910 24420
L27880 24400
L27860 24350
L27860 24280
L27880 24230
L27930 24210
L28190 24210
" />
<path d="M27930 24210
L27880 24190
L27860 24140
L27860 24070
L27880 24020
L27930 24000
L28190 24000
" />
<path d="M28190 23760
L27860 23760
" />
<path d="M27690 23760
L27720 23780
L27740 23760
L27720 23730
L27690 23760
L27740 23760
" />
<path d="M27860 23520
L28190 23520
" />
<path d="M27910 23520
L27880 23500
L27860 23450
L27860 23380
L27880 23330
L27930 23300
L28190 23300
" />
<path d="M28190 22850
L27930 22850
L27880 22880
L27860 22920
L27860 23020
L27880 23070
" />
<path d="M28170 22850
L28190 22900
L28190 23020
L28170 23070
L28120 23090
L28070 23090
L28020 23070
L28000 23020
L28000 22900
L27980 22850
" />
<path d="M28190 22540
L28170 22590
L28120 22610
L27690 22610
" />
<path d="M28240 22470
L28240 22090
" />
<path d="M27690 21880
L27690 21830
L27720 21780
L27740 21760
L27790 21730
L27880 21710
L28000 21710
L28100 21730
L28140 21760
L28170 21780
L28190 21830
L28190 21880
L28170 21920
L28140 21950
L28100 21970
L28000 22000
L27880 22000
L27790 21970
L27740 21950
L27720 21920
L27690 21880
" />
<path d="M28190 21230
L28190 21520
" />
<path d="M28190 21380
L27690 21380
L27760 21420
L27810 21470
L27830 21520
" />
<path d="M28190 21070
L27860 20800
" />
<path d="M27860 21070
L28190 20800
" />
<path d="M27690 20520
L27690 20470
L27720 20420
L27740 20400
L27790 20380
L27880 20350
L28000 20350
L28100 20380
L28140 20400
L28170 20420
L28190 20470
L28190 20520
L28170 20570
L28140 20590
L28100 20610
L28000 20640
L27880 20640
L27790 20610
L27740 20590
L27720 20570
L27690 20520
" />
<path d="M27690 20190
L27690 19880
L27880 20040
L27880 19970
L27910 19920
L27930 19900
L27980 19880
L28100 19880
L28140 19900
L28170 19920
L28190 19970
L28190 20110
L28170 20160
L28140 20190
" />
</g>
</g>
<g style="fill:#008484; fill-opacity:0.0; 
stroke:#008484; stroke-width:0; stroke-opacity:1; 
stroke-linecap:round; stroke-linejoin:round;">
<g >
</g>
<g style="fill:#840000; fill-opacity:0.0; 
stroke:#840000; stroke-width:0; stroke-opacity:1; 
stroke-linecap:round; stroke-linejoin:round;">
</g>
<g style="fill:#840000; fill-opacity:0.0; 
stroke:#840000; stroke-width:60; stroke-opacity:1; 
stroke-linecap:round; stroke-linejoin:round;">
<path style="fill:#840000; fill-opacity:0.0; 
stroke:#840000; stroke-width:60; stroke-opacity:1; 
stroke-linecap:round; stroke-linejoin:round;fill:none"
d="M 37000,32500
37000,33000
37500,33000
37000,33500
36500,33000
37000,33000
" /> 
</g>
<g style="fill:#008484; fill-opacity:0.0; 
stroke:#008484; stroke-width:60; stroke-opacity:1; 
stroke-linecap:round; stroke-linejoin:round;">
<text x="37050" y="34500"
textLength="1580" font-size="660" lengthAdjust="spacingAndGlyphs"
text-anchor="middle" opacity="0">GND</text>
<path d="M36660 34000
L36620 33970
L36550 33970
L36470 34000
L36430 34040
L36400 34090
L36380 34190
L36380 34260
L36400 34350
L36430 34400
L36470 34450
L36550 34470
L36590 34470
L36660 34450
L36690 34420
L36690 34260
L36590 34260
" />
<path d="M36900 34470
L36900 33970
L37190 34470
L37190 33970
" />
<path d="M37430 34470
L37430 33970
L37550 33970
L37620 34000
L37660 34040
L37690 34090
L37710 34190
L37710 34260
L37690 34350
L37660 34400
L37620 34450
L37550 34470
L37430 34470
" />
</g>
</g>
<g style="fill:#008484; fill-opacity:0.0; 
stroke:#008484; stroke-width:60; stroke-opacity:1; 
stroke-linecap:round; stroke-linejoin:round;">
</g>
<g style="fill:#008400; fill-opacity:0.0; 
stroke:#008400; stroke-width:60; stroke-opacity:1; 
stroke-linecap:round; stroke-linejoin:round;">
<path d="M45000 33000
L47000 33000
" />
<path d="M38000 30000
L37000 30000
" />
<path d="M32500 30000
L32500 43000
" />
<path d="M30000 30000
L32500 30000
" />
<path d="M31000 31000
L31000 43000
" />
<path d="M30000 31000
L31000 31000
" />
<path d="M30000 29000
L38000 29000
" />
<path d="M47000 33000
L55000 33000
" />
<path d="M47000 29000
L55000 29000
" />
<path d="M61500 31000
L61500 33000
" />
<path d="M55000 32500
L55000 33000
" />
<path d="M61500 24500
L61500 27000
" />
<path d="M45000 30000
L45000 33000
" />
<path d="M47000 33000
L47000 32500
" />
<path d="M44000 30000
L45000 30000
" />
<path d="M44000 29000
L47000 29000
" />
<path d="M61500 18000
L61500 17000
" />
<path d="M47000 29000
L47000 29500
" />
<path d="M55000 29000
L55000 29500
" />
<path d="M58500 29000
L55000 29000
" />
<path d="M37000 30000
L37000 32500
" />
<path d="M61500 21000
L61500 23500
" />
<path d="M61500 33000
L55000 33000
" />
</g>
<g style="fill:#0000C2; fill-opacity:0.0; 
stroke:#0000C2; stroke-width:60; stroke-opacity:1; 
stroke-linecap:round; stroke-linejoin:round;">
<text x="29500" y="27900"
textLength="7700" font-size="660" lengthAdjust="spacingAndGlyphs"
text-anchor="start" opacity="0">Vstupní řídicí signál</text>
<path d="M29570 27370
L29740 27870
L29910 27370
" />
<path d="M30050 27850
L30100 27870
L30190 27870
L30240 27850
L30260 27800
L30260 27780
L30240 27730
L30190 27700
L30120 27700
L30070 27680
L30050 27630
L30050 27610
L30070 27560
L30120 27540
L30190 27540
L30240 27560
" />
<path d="M30410 27540
L30600 27540
" />
<path d="M30480 27370
L30480 27800
L30500 27850
L30550 27870
L30600 27870
" />
<path d="M30980 27540
L30980 27870
" />
<path d="M30760 27540
L30760 27800
L30790 27850
L30830 27870
L30910 27870
L30950 27850
L30980 27820
" />
<path d="M31220 27540
L31220 28040
" />
<path d="M31220 27560
L31260 27540
L31360 27540
L31410 27560
L31430 27590
L31450 27630
L31450 27780
L31430 27820
L31410 27850
L31360 27870
L31260 27870
L31220 27850
" />
<path d="M31670 27540
L31670 27870
" />
<path d="M31670 27590
L31690 27560
L31740 27540
L31810 27540
L31860 27560
L31880 27610
L31880 27870
" />
<path d="M32120 27870
L32120 27540
" />
<path d="M32170 27350
L32100 27420
" />
<path d="M32740 27870
L32740 27540
" />
<path d="M32740 27630
L32760 27590
L32790 27560
L32830 27540
L32880 27540
" />
<path d="M32690 27350
L32790 27420
L32880 27350
" />
<path d="M33050 27870
L33050 27540
" />
<path d="M33100 27350
L33030 27420
" />
<path d="M33500 27870
L33500 27370
" />
<path d="M33500 27850
L33450 27870
L33360 27870
L33310 27850
L33290 27820
L33260 27780
L33260 27630
L33290 27590
L33310 27560
L33360 27540
L33450 27540
L33500 27560
" />
<path d="M33740 27870
L33740 27540
" />
<path d="M33740 27370
L33720 27400
L33740 27420
L33760 27400
L33740 27370
L33740 27420
" />
<path d="M34190 27850
L34140 27870
L34050 27870
L34000 27850
L33980 27820
L33950 27780
L33950 27630
L33980 27590
L34000 27560
L34050 27540
L34140 27540
L34190 27560
" />
<path d="M34410 27870
L34410 27540
" />
<path d="M34450 27350
L34380 27420
" />
<path d="M35000 27850
L35050 27870
L35140 27870
L35190 27850
L35220 27800
L35220 27780
L35190 27730
L35140 27700
L35070 27700
L35030 27680
L35000 27630
L35000 27610
L35030 27560
L35070 27540
L35140 27540
L35190 27560
" />
<path d="M35430 27870
L35430 27540
" />
<path d="M35430 27370
L35410 27400
L35430 27420
L35450 27400
L35430 27370
L35430 27420
" />
<path d="M35880 27540
L35880 27940
L35860 27990
L35830 28010
L35790 28040
L35720 28040
L35670 28010
" />
<path d="M35880 27850
L35830 27870
L35740 27870
L35690 27850
L35670 27820
L35640 27780
L35640 27630
L35670 27590
L35690 27560
L35740 27540
L35830 27540
L35880 27560
" />
<path d="M36120 27540
L36120 27870
" />
<path d="M36120 27590
L36140 27560
L36190 27540
L36260 27540
L36310 27560
L36330 27610
L36330 27870
" />
<path d="M36790 27870
L36790 27610
L36760 27560
L36720 27540
L36620 27540
L36570 27560
" />
<path d="M36790 27850
L36740 27870
L36620 27870
L36570 27850
L36550 27800
L36550 27750
L36570 27700
L36620 27680
L36740 27680
L36790 27660
" />
<path d="M36720 27350
L36640 27420
" />
<path d="M37100 27870
L37050 27850
L37030 27800
L37030 27370
" />
<text x="23000" y="31900"
textLength="4040" font-size="660" lengthAdjust="spacingAndGlyphs"
text-anchor="start" opacity="0">Modrá LED</text>
<path d="M23140 31870
L23140 31370
L23310 31730
L23480 31370
L23480 31870
" />
<path d="M23790 31870
L23740 31850
L23720 31820
L23690 31780
L23690 31630
L23720 31590
L23740 31560
L23790 31540
L23860 31540
L23910 31560
L23930 31590
L23950 31630
L23950 31780
L23930 31820
L23910 31850
L23860 31870
L23790 31870
" />
<path d="M24380 31870
L24380 31370
" />
<path d="M24380 31850
L24330 31870
L24240 31870
L24190 31850
L24170 31820
L24140 31780
L24140 31630
L24170 31590
L24190 31560
L24240 31540
L24330 31540
L24380 31560
" />
<path d="M24620 31870
L24620 31540
" />
<path d="M24620 31630
L24640 31590
L24670 31560
L24720 31540
L24760 31540
" />
<path d="M25140 31870
L25140 31610
L25120 31560
L25070 31540
L24980 31540
L24930 31560
" />
<path d="M25140 31850
L25100 31870
L24980 31870
L24930 31850
L24910 31800
L24910 31750
L24930 31700
L24980 31680
L25100 31680
L25140 31660
" />
<path d="M25070 31350
L25000 31420
" />
<path d="M26000 31870
L25760 31870
L25760 31370
" />
<path d="M26170 31610
L26330 31610
" />
<path d="M26410 31870
L26170 31870
L26170 31370
L26410 31370
" />
<path d="M26620 31870
L26620 31370
L26740 31370
L26810 31400
L26860 31440
L26880 31490
L26910 31590
L26910 31660
L26880 31750
L26860 31800
L26810 31850
L26740 31870
L26620 31870
" />
<text x="22000" y="30400"
textLength="5230" font-size="660" lengthAdjust="spacingAndGlyphs"
text-anchor="start" opacity="0">Oranžová LED</text>
<path d="M22240 29870
L22330 29870
L22380 29900
L22430 29940
L22450 30040
L22450 30200
L22430 30300
L22380 30350
L22330 30370
L22240 30370
L22190 30350
L22140 30300
L22120 30200
L22120 30040
L22140 29940
L22190 29900
L22240 29870
" />
<path d="M22670 30370
L22670 30040
" />
<path d="M22670 30130
L22690 30090
L22720 30060
L22760 30040
L22810 30040
" />
<path d="M23190 30370
L23190 30110
L23170 30060
L23120 30040
L23030 30040
L22980 30060
" />
<path d="M23190 30350
L23140 30370
L23030 30370
L22980 30350
L22950 30300
L22950 30250
L22980 30200
L23030 30180
L23140 30180
L23190 30160
" />
<path d="M23430 30040
L23430 30370
" />
<path d="M23430 30090
L23450 30060
L23500 30040
L23570 30040
L23620 30060
L23640 30110
L23640 30370
" />
<path d="M23830 30040
L24100 30040
L23830 30370
L24100 30370
" />
<path d="M23880 29850
L23980 29920
L24070 29850
" />
<path d="M24360 30370
L24310 30350
L24290 30320
L24260 30280
L24260 30130
L24290 30090
L24310 30060
L24360 30040
L24430 30040
L24480 30060
L24500 30090
L24530 30130
L24530 30280
L24500 30320
L24480 30350
L24430 30370
L24360 30370
" />
<path d="M24690 30040
L24810 30370
L24930 30040
" />
<path d="M25330 30370
L25330 30110
L25310 30060
L25260 30040
L25170 30040
L25120 30060
" />
<path d="M25330 30350
L25290 30370
L25170 30370
L25120 30350
L25100 30300
L25100 30250
L25120 30200
L25170 30180
L25290 30180
L25330 30160
" />
<path d="M25260 29850
L25190 29920
" />
<path d="M26190 30370
L25950 30370
L25950 29870
" />
<path d="M26360 30110
L26530 30110
" />
<path d="M26600 30370
L26360 30370
L26360 29870
L26600 29870
" />
<path d="M26810 30370
L26810 29870
L26930 29870
L27000 29900
L27050 29940
L27070 29990
L27100 30090
L27100 30160
L27070 30250
L27050 30300
L27000 30350
L26930 30370
L26810 30370
" />
<text x="22500" y="28900"
textLength="4750" font-size="660" lengthAdjust="spacingAndGlyphs"
text-anchor="start" opacity="0">Červená LED</text>
<path d="M22930 28820
L22910 28850
L22830 28870
L22790 28870
L22720 28850
L22670 28800
L22640 28750
L22620 28660
L22620 28590
L22640 28490
L22670 28440
L22720 28400
L22790 28370
L22830 28370
L22910 28400
L22930 28420
" />
<path d="M22720 28180
L22810 28250
L22910 28180
" />
<path d="M23330 28850
L23290 28870
L23190 28870
L23140 28850
L23120 28800
L23120 28610
L23140 28560
L23190 28540
L23290 28540
L23330 28560
L23360 28610
L23360 28660
L23120 28700
" />
<path d="M23570 28870
L23570 28540
" />
<path d="M23570 28630
L23600 28590
L23620 28560
L23670 28540
L23720 28540
" />
<path d="M23830 28540
L23950 28870
L24070 28540
" />
<path d="M24450 28850
L24410 28870
L24310 28870
L24260 28850
L24240 28800
L24240 28610
L24260 28560
L24310 28540
L24410 28540
L24450 28560
L24480 28610
L24480 28660
L24240 28700
" />
<path d="M24690 28540
L24690 28870
" />
<path d="M24690 28590
L24720 28560
L24760 28540
L24830 28540
L24880 28560
L24910 28610
L24910 28870
" />
<path d="M25360 28870
L25360 28610
L25330 28560
L25290 28540
L25190 28540
L25140 28560
" />
<path d="M25360 28850
L25310 28870
L25190 28870
L25140 28850
L25120 28800
L25120 28750
L25140 28700
L25190 28680
L25310 28680
L25360 28660
" />
<path d="M25290 28350
L25220 28420
" />
<path d="M26220 28870
L25980 28870
L25980 28370
" />
<path d="M26380 28610
L26550 28610
" />
<path d="M26620 28870
L26380 28870
L26380 28370
L26620 28370
" />
<path d="M26830 28870
L26830 28370
L26950 28370
L27030 28400
L27070 28440
L27100 28490
L27120 28590
L27120 28660
L27100 28750
L27070 28800
L27030 28850
L26950 28870
L26830 28870
" />
<text x="62500" y="22400"
textLength="4750" font-size="660" lengthAdjust="spacingAndGlyphs"
text-anchor="start" opacity="0">Červená LED</text>
<path d="M62930 22320
L62910 22350
L62830 22370
L62790 22370
L62720 22350
L62670 22300
L62640 22250
L62620 22160
L62620 22090
L62640 21990
L62670 21940
L62720 21900
L62790 21870
L62830 21870
L62910 21900
L62930 21920
" />
<path d="M62720 21680
L62810 21750
L62910 21680
" />
<path d="M63330 22350
L63290 22370
L63190 22370
L63140 22350
L63120 22300
L63120 22110
L63140 22060
L63190 22040
L63290 22040
L63330 22060
L63360 22110
L63360 22160
L63120 22200
" />
<path d="M63570 22370
L63570 22040
" />
<path d="M63570 22130
L63600 22090
L63620 22060
L63670 22040
L63720 22040
" />
<path d="M63830 22040
L63950 22370
L64070 22040
" />
<path d="M64450 22350
L64410 22370
L64310 22370
L64260 22350
L64240 22300
L64240 22110
L64260 22060
L64310 22040
L64410 22040
L64450 22060
L64480 22110
L64480 22160
L64240 22200
" />
<path d="M64690 22040
L64690 22370
" />
<path d="M64690 22090
L64720 22060
L64760 22040
L64830 22040
L64880 22060
L64910 22110
L64910 22370
" />
<path d="M65360 22370
L65360 22110
L65330 22060
L65290 22040
L65190 22040
L65140 22060
" />
<path d="M65360 22350
L65310 22370
L65190 22370
L65140 22350
L65120 22300
L65120 22250
L65140 22200
L65190 22180
L65310 22180
L65360 22160
" />
<path d="M65290 21850
L65220 21920
" />
<path d="M66220 22370
L65980 22370
L65980 21870
" />
<path d="M66380 22110
L66550 22110
" />
<path d="M66620 22370
L66380 22370
L66380 21870
L66620 21870
" />
<path d="M66830 22370
L66830 21870
L66950 21870
L67030 21900
L67070 21940
L67100 21990
L67120 22090
L67120 22160
L67100 22250
L67070 22300
L67030 22350
L66950 22370
L66830 22370
" />
</g>
<g style="fill:#0000C2; fill-opacity:0.0; 
stroke:#0000C2; stroke-width:0; stroke-opacity:1; 
stroke-linecap:round; stroke-linejoin:round;">
</g>
<g style="fill:#008400; fill-opacity:0.0; 
stroke:#008400; stroke-width:0; stroke-opacity:1; 
stroke-linecap:round; stroke-linejoin:round;">
</g>
<g style="fill:#008400; fill-opacity:1.0; 
stroke:#008400; stroke-width:100; stroke-opacity:1; 
stroke-linecap:round; stroke-linejoin:round;">
<circle cx="55000" cy="33000" r="200" /> 
</g>
<g style="fill:#008400; fill-opacity:1.0; 
stroke:#008400; stroke-width:0; stroke-opacity:1; 
stroke-linecap:round; stroke-linejoin:round;">
</g>
<g style="fill:#008400; fill-opacity:1.0; 
stroke:#008400; stroke-width:100; stroke-opacity:1; 
stroke-linecap:round; stroke-linejoin:round;">
<circle cx="47000" cy="33000" r="200" /> 
</g>
<g style="fill:#008400; fill-opacity:1.0; 
stroke:#008400; stroke-width:0; stroke-opacity:1; 
stroke-linecap:round; stroke-linejoin:round;">
</g>
<g style="fill:#008400; fill-opacity:1.0; 
stroke:#008400; stroke-width:100; stroke-opacity:1; 
stroke-linecap:round; stroke-linejoin:round;">
<circle cx="55000" cy="29000" r="200" /> 
</g>
<g style="fill:#008400; fill-opacity:1.0; 
stroke:#008400; stroke-width:0; stroke-opacity:1; 
stroke-linecap:round; stroke-linejoin:round;">
</g>
<g style="fill:#008400; fill-opacity:1.0; 
stroke:#008400; stroke-width:100; stroke-opacity:1; 
stroke-linecap:round; stroke-linejoin:round;">
<circle cx="47000" cy="29000" r="200" /> 
</g> 
</svg>
