<?xml version="1.0" standalone="no"?>
 <!DOCTYPE svg PUBLIC "-//W3C//DTD SVG 1.1//EN" 
 "http://www.w3.org/Graphics/SVG/1.1/DTD/svg11.dtd"> 
<svg
  xmlns:svg="http://www.w3.org/2000/svg"
  xmlns="http://www.w3.org/2000/svg"
  xmlns:xlink="http://www.w3.org/1999/xlink"
  version="1.1"
  width="29.700220cm" height="21.000720cm" viewBox="0 0 116930 82680">
<title>SVG Picture created as ochrana-napajeni-3_3-v.svg date 2020/12/16 13:11:56 </title>
  <desc>Picture generated by Eeschema-SVG </desc>
<g style="fill:#000000; fill-opacity:1;stroke:#000000; stroke-opacity:1;
stroke-linecap:round; stroke-linejoin:round;"
 transform="translate(0 0) scale(1 1)">
</g>
<g style="fill:#000000; fill-opacity:0.0; 
stroke:#000000; stroke-width:0; stroke-opacity:1; 
stroke-linecap:round; stroke-linejoin:round;">
<g >
</g>
<g style="fill:#840000; fill-opacity:0.0; 
stroke:#840000; stroke-width:0; stroke-opacity:1; 
stroke-linecap:round; stroke-linejoin:round;">
</g>
<g style="fill:#840000; fill-opacity:0.0; 
stroke:#840000; stroke-width:60; stroke-opacity:1; 
stroke-linecap:round; stroke-linejoin:round;">
<path style="fill:#840000; fill-opacity:0.0; 
stroke:#840000; stroke-width:60; stroke-opacity:1; 
stroke-linecap:round; stroke-linejoin:round;fill:none"
d="M 43500,24000
43500,23500
43100,23250
43500,23000
43900,23250
43500,23500
" /> 
<path d="M43500 24000
L43500 24000
" />
</g>
<g style="fill:#008484; fill-opacity:0.0; 
stroke:#008484; stroke-width:60; stroke-opacity:1; 
stroke-linecap:round; stroke-linejoin:round;">
<text x="43500" y="22540"
textLength="3720" font-size="660" lengthAdjust="spacingAndGlyphs"
text-anchor="middle" opacity="0">PWR_FLAG</text>
<path d="M41760 22510
L41760 22010
L41950 22010
L42000 22040
L42020 22060
L42040 22110
L42040 22180
L42020 22230
L42000 22250
L41950 22270
L41760 22270
" />
<path d="M42210 22010
L42330 22510
L42420 22150
L42520 22510
L42640 22010
" />
<path d="M43110 22510
L42950 22270
" />
<path d="M42830 22510
L42830 22010
L43020 22010
L43070 22040
L43090 22060
L43110 22110
L43110 22180
L43090 22230
L43070 22250
L43020 22270
L42830 22270
" />
<path d="M43210 22560
L43590 22560
" />
<path d="M43880 22250
L43710 22250
" />
<path d="M43710 22510
L43710 22010
L43950 22010
" />
<path d="M44380 22510
L44140 22510
L44140 22010
" />
<path d="M44520 22370
L44760 22370
" />
<path d="M44470 22510
L44640 22010
L44800 22510
" />
<path d="M45230 22040
L45190 22010
L45110 22010
L45040 22040
L45000 22080
L44970 22130
L44950 22230
L44950 22300
L44970 22390
L45000 22440
L45040 22490
L45110 22510
L45160 22510
L45230 22490
L45260 22460
L45260 22300
L45160 22300
" />
</g>
</g>
<g style="fill:#008484; fill-opacity:0.0; 
stroke:#008484; stroke-width:0; stroke-opacity:1; 
stroke-linecap:round; stroke-linejoin:round;">
<g >
</g>
<g style="fill:#840000; fill-opacity:0.0; 
stroke:#840000; stroke-width:0; stroke-opacity:1; 
stroke-linecap:round; stroke-linejoin:round;">
</g>
<g style="fill:#840000; fill-opacity:0.0; 
stroke:#840000; stroke-width:60; stroke-opacity:1; 
stroke-linecap:round; stroke-linejoin:round;">
<path style="fill:#840000; fill-opacity:0.0; 
stroke:#840000; stroke-width:60; stroke-opacity:1; 
stroke-linecap:round; stroke-linejoin:round;fill:none"
d="M 52500,31500
52500,32000
53000,32000
52500,32500
52000,32000
52500,32000
" /> 
</g>
<g style="fill:#008484; fill-opacity:0.0; 
stroke:#008484; stroke-width:60; stroke-opacity:1; 
stroke-linecap:round; stroke-linejoin:round;">
<text x="52550" y="33500"
textLength="1580" font-size="660" lengthAdjust="spacingAndGlyphs"
text-anchor="middle" opacity="0">GND</text>
<path d="M52160 33000
L52120 32970
L52050 32970
L51970 33000
L51930 33040
L51900 33090
L51880 33190
L51880 33260
L51900 33350
L51930 33400
L51970 33450
L52050 33470
L52090 33470
L52160 33450
L52190 33420
L52190 33260
L52090 33260
" />
<path d="M52400 33470
L52400 32970
L52690 33470
L52690 32970
" />
<path d="M52930 33470
L52930 32970
L53050 32970
L53120 33000
L53160 33040
L53190 33090
L53210 33190
L53210 33260
L53190 33350
L53160 33400
L53120 33450
L53050 33470
L52930 33470
" />
</g>
</g>
<g style="fill:#008484; fill-opacity:0.0; 
stroke:#008484; stroke-width:0; stroke-opacity:1; 
stroke-linecap:round; stroke-linejoin:round;">
<g >
</g>
<g style="fill:#840000; fill-opacity:0.0; 
stroke:#840000; stroke-width:0; stroke-opacity:1; 
stroke-linecap:round; stroke-linejoin:round;">
</g>
<g style="fill:#840000; fill-opacity:0.0; 
stroke:#840000; stroke-width:60; stroke-opacity:1; 
stroke-linecap:round; stroke-linejoin:round;">
<path style="fill:#840000; fill-opacity:0.0; 
stroke:#840000; stroke-width:60; stroke-opacity:1; 
stroke-linecap:round; stroke-linejoin:round;fill:none"
d="M 45000,31500
45000,32000
45500,32000
45000,32500
44500,32000
45000,32000
" /> 
</g>
<g style="fill:#008484; fill-opacity:0.0; 
stroke:#008484; stroke-width:60; stroke-opacity:1; 
stroke-linecap:round; stroke-linejoin:round;">
<text x="45050" y="33500"
textLength="1580" font-size="660" lengthAdjust="spacingAndGlyphs"
text-anchor="middle" opacity="0">GND</text>
<path d="M44660 33000
L44620 32970
L44550 32970
L44470 33000
L44430 33040
L44400 33090
L44380 33190
L44380 33260
L44400 33350
L44430 33400
L44470 33450
L44550 33470
L44590 33470
L44660 33450
L44690 33420
L44690 33260
L44590 33260
" />
<path d="M44900 33470
L44900 32970
L45190 33470
L45190 32970
" />
<path d="M45430 33470
L45430 32970
L45550 32970
L45620 33000
L45660 33040
L45690 33090
L45710 33190
L45710 33260
L45690 33350
L45660 33400
L45620 33450
L45550 33470
L45430 33470
" />
</g>
</g>
<g style="fill:#008484; fill-opacity:0.0; 
stroke:#008484; stroke-width:0; stroke-opacity:1; 
stroke-linecap:round; stroke-linejoin:round;">
<g >
</g>
<g style="fill:#840000; fill-opacity:0.0; 
stroke:#840000; stroke-width:0; stroke-opacity:1; 
stroke-linecap:round; stroke-linejoin:round;">
</g>
<g style="fill:#FFFFC2; fill-opacity:0.0; 
stroke:#FFFFC2; stroke-width:0; stroke-opacity:1; 
stroke-linecap:round; stroke-linejoin:round;">
</g>
<g style="fill:#FFFFC2; fill-opacity:0.6; 
stroke:#FFFFC2; stroke-width:0; stroke-opacity:1; 
stroke-linecap:round; stroke-linejoin:round;">
<rect x="51000" y="22000" width="2000" height="1000" rx="0" />
</g>
<g style="fill:#840000; fill-opacity:0.6; 
stroke:#840000; stroke-width:0; stroke-opacity:1; 
stroke-linecap:round; stroke-linejoin:round;">
</g>
<g style="fill:#840000; fill-opacity:0.0; 
stroke:#840000; stroke-width:100; stroke-opacity:1; 
stroke-linecap:round; stroke-linejoin:round;">
<rect x="51000" y="22000" width="2000" height="1000" rx="0" />
</g>
<g style="fill:#840000; fill-opacity:0.0; 
stroke:#840000; stroke-width:60; stroke-opacity:1; 
stroke-linecap:round; stroke-linejoin:round;">
<circle cx="52500" cy="22500" r="250" /> 
<circle cx="51500" cy="22500" r="250" /> 
</g>
<g style="fill:#840000; fill-opacity:0.0; 
stroke:#840000; stroke-width:100; stroke-opacity:1; 
stroke-linecap:round; stroke-linejoin:round;">
<rect x="51000" y="22000" width="2000" height="1000" rx="0" />
</g>
<g style="fill:#840000; fill-opacity:0.0; 
stroke:#840000; stroke-width:60; stroke-opacity:1; 
stroke-linecap:round; stroke-linejoin:round;">
<path style="fill:#840000; fill-opacity:0.0; 
stroke:#840000; stroke-width:60; stroke-opacity:1; 
stroke-linecap:round; stroke-linejoin:round;fill:none"
d="M 52370,22710
52700,22370
" /> 
<path style="fill:#840000; fill-opacity:0.0; 
stroke:#840000; stroke-width:60; stroke-opacity:1; 
stroke-linecap:round; stroke-linejoin:round;fill:none"
d="M 51370,22710
51700,22370
" /> 
<path style="fill:#840000; fill-opacity:0.0; 
stroke:#840000; stroke-width:60; stroke-opacity:1; 
stroke-linecap:round; stroke-linejoin:round;fill:none"
d="M 52300,22640
52630,22300
" /> 
<path style="fill:#840000; fill-opacity:0.0; 
stroke:#840000; stroke-width:60; stroke-opacity:1; 
stroke-linecap:round; stroke-linejoin:round;fill:none"
d="M 51300,22640
51630,22300
" /> 
<path d="M51500 23000
L51500 24500
" />
<g transform="rotate(-90 51400 23750)">
<text x="51400" y="23750"
textLength="540" font-size="660" lengthAdjust="spacingAndGlyphs"
text-anchor="middle" opacity="0">1</text>
</g>
<path d="M51370 23600
L51370 23890
" />
<path d="M51370 23750
L50870 23750
L50940 23790
L50990 23840
L51010 23890
" />
<path d="M52500 23000
L52500 24500
" />
<g transform="rotate(-90 52400 23750)">
<text x="52400" y="23750"
textLength="540" font-size="660" lengthAdjust="spacingAndGlyphs"
text-anchor="middle" opacity="0">2</text>
</g>
<path d="M51920 23890
L51900 23860
L51870 23820
L51870 23700
L51900 23650
L51920 23630
L51970 23600
L52010 23600
L52090 23630
L52370 23910
L52370 23600
" />
</g>
<g style="fill:#008484; fill-opacity:0.0; 
stroke:#008484; stroke-width:60; stroke-opacity:1; 
stroke-linecap:round; stroke-linejoin:round;">
<text x="53840" y="23080"
textLength="920" font-size="660" lengthAdjust="spacingAndGlyphs"
text-anchor="middle" opacity="0">J6</text>
<path d="M53670 22550
L53670 22910
L53640 22980
L53600 23030
L53530 23050
L53480 23050
" />
<path d="M54120 22550
L54030 22550
L53980 22580
L53950 22600
L53910 22670
L53880 22770
L53880 22960
L53910 23000
L53930 23030
L53980 23050
L54070 23050
L54120 23030
L54140 23000
L54170 22960
L54170 22840
L54140 22790
L54120 22770
L54070 22740
L53980 22740
L53930 22770
L53910 22790
L53880 22840
" />
<text x="57550" y="23990"
textLength="8350" font-size="660" lengthAdjust="spacingAndGlyphs"
text-anchor="middle" opacity="0">1x2_screw_term_block</text>
<path d="M53780 23960
L53500 23960
" />
<path d="M53640 23960
L53640 23460
L53590 23530
L53550 23580
L53500 23600
" />
<path d="M53950 23960
L54210 23630
" />
<path d="M53950 23630
L54210 23960
" />
<path d="M54380 23510
L54400 23490
L54450 23460
L54570 23460
L54620 23490
L54640 23510
L54660 23560
L54660 23600
L54640 23680
L54350 23960
L54660 23960
" />
<path d="M54760 24010
L55140 24010
" />
<path d="M55240 23940
L55280 23960
L55380 23960
L55430 23940
L55450 23890
L55450 23870
L55430 23820
L55380 23790
L55310 23790
L55260 23770
L55240 23720
L55240 23700
L55260 23650
L55310 23630
L55380 23630
L55430 23650
" />
<path d="M55880 23940
L55830 23960
L55740 23960
L55690 23940
L55660 23910
L55640 23870
L55640 23720
L55660 23680
L55690 23650
L55740 23630
L55830 23630
L55880 23650
" />
<path d="M56090 23960
L56090 23630
" />
<path d="M56090 23720
L56120 23680
L56140 23650
L56190 23630
L56240 23630
" />
<path d="M56590 23940
L56550 23960
L56450 23960
L56400 23940
L56380 23890
L56380 23700
L56400 23650
L56450 23630
L56550 23630
L56590 23650
L56620 23700
L56620 23750
L56380 23790
" />
<path d="M56780 23630
L56880 23960
L56970 23720
L57070 23960
L57160 23630
" />
<path d="M57240 24010
L57620 24010
" />
<path d="M57660 23630
L57850 23630
" />
<path d="M57740 23460
L57740 23890
L57760 23940
L57810 23960
L57850 23960
" />
<path d="M58210 23940
L58160 23960
L58070 23960
L58020 23940
L58000 23890
L58000 23700
L58020 23650
L58070 23630
L58160 23630
L58210 23650
L58240 23700
L58240 23750
L58000 23790
" />
<path d="M58450 23960
L58450 23630
" />
<path d="M58450 23720
L58470 23680
L58500 23650
L58550 23630
L58590 23630
" />
<path d="M58760 23960
L58760 23630
" />
<path d="M58760 23680
L58780 23650
L58830 23630
L58900 23630
L58950 23650
L58970 23700
L58970 23960
" />
<path d="M58970 23700
L59000 23650
L59050 23630
L59120 23630
L59160 23650
L59190 23700
L59190 23960
" />
<path d="M59310 24010
L59690 24010
" />
<path d="M59810 23960
L59810 23460
" />
<path d="M59810 23650
L59850 23630
L59950 23630
L60000 23650
L60020 23680
L60050 23720
L60050 23870
L60020 23910
L60000 23940
L59950 23960
L59850 23960
L59810 23940
" />
<path d="M60330 23960
L60280 23940
L60260 23890
L60260 23460
" />
<path d="M60590 23960
L60550 23940
L60520 23910
L60500 23870
L60500 23720
L60520 23680
L60550 23650
L60590 23630
L60660 23630
L60710 23650
L60740 23680
L60760 23720
L60760 23870
L60740 23910
L60710 23940
L60660 23960
L60590 23960
" />
<path d="M61190 23940
L61140 23960
L61050 23960
L61000 23940
L60970 23910
L60950 23870
L60950 23720
L60970 23680
L61000 23650
L61050 23630
L61140 23630
L61190 23650
" />
<path d="M61400 23960
L61400 23460
" />
<path d="M61450 23770
L61590 23960
" />
<path d="M61590 23630
L61400 23820
" />
</g>
</g>
<g style="fill:#008484; fill-opacity:0.0; 
stroke:#008484; stroke-width:0; stroke-opacity:1; 
stroke-linecap:round; stroke-linejoin:round;">
<g >
</g>
<g style="fill:#840000; fill-opacity:0.0; 
stroke:#840000; stroke-width:0; stroke-opacity:1; 
stroke-linecap:round; stroke-linejoin:round;">
</g>
<g style="fill:#840000; fill-opacity:0.0; 
stroke:#840000; stroke-width:100; stroke-opacity:1; 
stroke-linecap:round; stroke-linejoin:round;">
<rect x="48500" y="26200" width="2000" height="600" rx="0" />
</g>
<g style="fill:#840000; fill-opacity:0.0; 
stroke:#840000; stroke-width:60; stroke-opacity:1; 
stroke-linecap:round; stroke-linejoin:round;">
<path style="fill:#840000; fill-opacity:0.0; 
stroke:#840000; stroke-width:60; stroke-opacity:1; 
stroke-linecap:round; stroke-linejoin:round;fill:none"
d="M 50500,26500
48500,26500
" /> 
<path style="fill:#840000; fill-opacity:0.0; 
stroke:#840000; stroke-width:60; stroke-opacity:1; 
stroke-linecap:round; stroke-linejoin:round;fill:none"
d="M 50500,25900
50100,25900
48900,27100
48500,27100
" /> 
<path d="M50500 26500
L51000 26500
" />
<path d="M48500 26500
L48000 26500
" />
</g>
<g style="fill:#008484; fill-opacity:0.0; 
stroke:#008484; stroke-width:60; stroke-opacity:1; 
stroke-linecap:round; stroke-linejoin:round;">
<text x="49500" y="24520"
textLength="960" font-size="660" lengthAdjust="spacingAndGlyphs"
text-anchor="middle" opacity="0">F1</text>
<path d="M49330 24230
L49160 24230
" />
<path d="M49160 24490
L49160 23990
L49400 23990
" />
<path d="M49850 24490
L49570 24490
" />
<path d="M49710 24490
L49710 23990
L49660 24060
L49610 24110
L49570 24130
" />
<text x="49500" y="25430"
textLength="3230" font-size="660" lengthAdjust="spacingAndGlyphs"
text-anchor="middle" opacity="0">Polyfuse</text>
<path d="M48030 25400
L48030 24900
L48220 24900
L48270 24930
L48290 24950
L48320 25000
L48320 25070
L48290 25120
L48270 25140
L48220 25160
L48030 25160
" />
<path d="M48600 25400
L48550 25380
L48530 25350
L48510 25310
L48510 25160
L48530 25120
L48550 25090
L48600 25070
L48670 25070
L48720 25090
L48750 25120
L48770 25160
L48770 25310
L48750 25350
L48720 25380
L48670 25400
L48600 25400
" />
<path d="M49050 25400
L49010 25380
L48980 25330
L48980 24900
" />
<path d="M49200 25070
L49320 25400
" />
<path d="M49440 25070
L49320 25400
L49270 25520
L49250 25540
L49200 25570
" />
<path d="M49550 25070
L49750 25070
" />
<path d="M49630 25400
L49630 24970
L49650 24930
L49700 24900
L49750 24900
" />
<path d="M50130 25070
L50130 25400
" />
<path d="M49910 25070
L49910 25330
L49940 25380
L49980 25400
L50050 25400
L50100 25380
L50130 25350
" />
<path d="M50340 25380
L50390 25400
L50480 25400
L50530 25380
L50550 25330
L50550 25310
L50530 25260
L50480 25230
L50410 25230
L50360 25210
L50340 25160
L50340 25140
L50360 25090
L50410 25070
L50480 25070
L50530 25090
" />
<path d="M50960 25380
L50910 25400
L50820 25400
L50770 25380
L50750 25330
L50750 25140
L50770 25090
L50820 25070
L50910 25070
L50960 25090
L50980 25140
L50980 25190
L50750 25230
" />
</g>
</g>
<g style="fill:#008484; fill-opacity:0.0; 
stroke:#008484; stroke-width:0; stroke-opacity:1; 
stroke-linecap:round; stroke-linejoin:round;">
<g >
</g>
<g style="fill:#840000; fill-opacity:0.0; 
stroke:#840000; stroke-width:0; stroke-opacity:1; 
stroke-linecap:round; stroke-linejoin:round;">
</g>
<g style="fill:#840000; fill-opacity:0.0; 
stroke:#840000; stroke-width:80; stroke-opacity:1; 
stroke-linecap:round; stroke-linejoin:round;">
<path style="fill:#840000; fill-opacity:0.0; 
stroke:#840000; stroke-width:80; stroke-opacity:1; 
stroke-linecap:round; stroke-linejoin:round;fill:none"
d="M 44500,28500
44350,28650
" /> 
<path style="fill:#840000; fill-opacity:0.0; 
stroke:#840000; stroke-width:80; stroke-opacity:1; 
stroke-linecap:round; stroke-linejoin:round;fill:none"
d="M 45500,28500
45650,28350
" /> 
</g>
<g style="fill:#840000; fill-opacity:0.0; 
stroke:#840000; stroke-width:60; stroke-opacity:1; 
stroke-linecap:round; stroke-linejoin:round;">
<path style="fill:#840000; fill-opacity:0.0; 
stroke:#840000; stroke-width:60; stroke-opacity:1; 
stroke-linecap:round; stroke-linejoin:round;fill:none"
d="M 45000,29500
45000,28500
" /> 
</g>
<g style="fill:#840000; fill-opacity:0.0; 
stroke:#840000; stroke-width:80; stroke-opacity:1; 
stroke-linecap:round; stroke-linejoin:round;">
<path style="fill:#840000; fill-opacity:0.0; 
stroke:#840000; stroke-width:80; stroke-opacity:1; 
stroke-linecap:round; stroke-linejoin:round;fill:none"
d="M 45500,28500
44500,28500
" /> 
<path style="fill:#840000; fill-opacity:0.0; 
stroke:#840000; stroke-width:80; stroke-opacity:1; 
stroke-linecap:round; stroke-linejoin:round;fill:none"
d="M 45500,29500
44500,29500
45000,28500
Z" /> 
</g>
<g style="fill:#840000; fill-opacity:0.0; 
stroke:#840000; stroke-width:60; stroke-opacity:1; 
stroke-linecap:round; stroke-linejoin:round;">
<path d="M45000 28500
L45000 27500
" />
<path d="M45000 29500
L45000 30500
" />
</g>
<g style="fill:#008484; fill-opacity:0.0; 
stroke:#008484; stroke-width:60; stroke-opacity:1; 
stroke-linecap:round; stroke-linejoin:round;">
<text x="46690" y="28810"
textLength="1510" font-size="660" lengthAdjust="spacingAndGlyphs"
text-anchor="middle" opacity="0">D17</text>
<path d="M46080 28780
L46080 28280
L46200 28280
L46270 28310
L46320 28350
L46340 28400
L46360 28500
L46360 28570
L46340 28660
L46320 28710
L46270 28760
L46200 28780
L46080 28780
" />
<path d="M46840 28780
L46550 28780
" />
<path d="M46700 28780
L46700 28280
L46650 28350
L46600 28400
L46550 28420
" />
<path d="M47010 28280
L47340 28280
L47130 28780
" />
<text x="48310" y="29720"
textLength="4750" font-size="660" lengthAdjust="spacingAndGlyphs"
text-anchor="middle" opacity="0">undir_transil</text>
<path d="M46290 29360
L46290 29690
" />
<path d="M46080 29360
L46080 29620
L46100 29670
L46150 29690
L46220 29690
L46270 29670
L46290 29640
" />
<path d="M46530 29360
L46530 29690
" />
<path d="M46530 29410
L46560 29380
L46600 29360
L46670 29360
L46720 29380
L46750 29430
L46750 29690
" />
<path d="M47200 29690
L47200 29190
" />
<path d="M47200 29670
L47150 29690
L47060 29690
L47010 29670
L46980 29640
L46960 29600
L46960 29450
L46980 29410
L47010 29380
L47060 29360
L47150 29360
L47200 29380
" />
<path d="M47440 29690
L47440 29360
" />
<path d="M47440 29190
L47410 29220
L47440 29240
L47460 29220
L47440 29190
L47440 29240
" />
<path d="M47670 29690
L47670 29360
" />
<path d="M47670 29450
L47700 29410
L47720 29380
L47770 29360
L47820 29360
" />
<path d="M47860 29740
L48250 29740
" />
<path d="M48290 29360
L48480 29360
" />
<path d="M48360 29190
L48360 29620
L48390 29670
L48440 29690
L48480 29690
" />
<path d="M48650 29690
L48650 29360
" />
<path d="M48650 29450
L48670 29410
L48700 29380
L48750 29360
L48790 29360
" />
<path d="M49170 29690
L49170 29430
L49150 29380
L49100 29360
L49010 29360
L48960 29380
" />
<path d="M49170 29670
L49130 29690
L49010 29690
L48960 29670
L48940 29620
L48940 29570
L48960 29520
L49010 29500
L49130 29500
L49170 29480
" />
<path d="M49410 29360
L49410 29690
" />
<path d="M49410 29410
L49440 29380
L49480 29360
L49560 29360
L49600 29380
L49630 29430
L49630 29690
" />
<path d="M49840 29670
L49890 29690
L49980 29690
L50030 29670
L50060 29620
L50060 29600
L50030 29550
L49980 29520
L49910 29520
L49860 29500
L49840 29450
L49840 29430
L49860 29380
L49910 29360
L49980 29360
L50030 29380
" />
<path d="M50270 29690
L50270 29360
" />
<path d="M50270 29190
L50250 29220
L50270 29240
L50290 29220
L50270 29190
L50270 29240
" />
<path d="M50580 29690
L50530 29670
L50510 29620
L50510 29190
" />
</g>
</g>
<g style="fill:#008484; fill-opacity:0.0; 
stroke:#008484; stroke-width:0; stroke-opacity:1; 
stroke-linecap:round; stroke-linejoin:round;">
<g >
</g>
<g style="fill:#840000; fill-opacity:0.0; 
stroke:#840000; stroke-width:0; stroke-opacity:1; 
stroke-linecap:round; stroke-linejoin:round;">
</g>
<g style="fill:#840000; fill-opacity:0.0; 
stroke:#840000; stroke-width:60; stroke-opacity:1; 
stroke-linecap:round; stroke-linejoin:round;">
<path style="fill:#840000; fill-opacity:0.0; 
stroke:#840000; stroke-width:60; stroke-opacity:1; 
stroke-linecap:round; stroke-linejoin:round;fill:none"
d="M 46700,23500
47000,23000
" /> 
<path style="fill:#840000; fill-opacity:0.0; 
stroke:#840000; stroke-width:60; stroke-opacity:1; 
stroke-linecap:round; stroke-linejoin:round;fill:none"
d="M 47000,24000
47000,23000
" /> 
<path style="fill:#840000; fill-opacity:0.0; 
stroke:#840000; stroke-width:60; stroke-opacity:1; 
stroke-linecap:round; stroke-linejoin:round;fill:none"
d="M 47000,23000
47300,23500
" /> 
</g>
<g style="fill:#008484; fill-opacity:0.0; 
stroke:#008484; stroke-width:60; stroke-opacity:1; 
stroke-linecap:round; stroke-linejoin:round;">
<text x="47150" y="22540"
textLength="2300" font-size="660" lengthAdjust="spacingAndGlyphs"
text-anchor="middle" opacity="0">+3.3V</text>
<path d="M46150 22320
L46530 22320
" />
<path d="M46340 22510
L46340 22130
" />
<path d="M46720 22010
L47030 22010
L46860 22200
L46930 22200
L46980 22230
L47000 22250
L47030 22300
L47030 22420
L47000 22460
L46980 22490
L46930 22510
L46790 22510
L46740 22490
L46720 22460
" />
<path d="M47240 22460
L47260 22490
L47240 22510
L47220 22490
L47240 22460
L47240 22510
" />
<path d="M47430 22010
L47740 22010
L47570 22200
L47650 22200
L47690 22230
L47720 22250
L47740 22300
L47740 22420
L47720 22460
L47690 22490
L47650 22510
L47500 22510
L47450 22490
L47430 22460
" />
<path d="M47880 22010
L48050 22510
L48220 22010
" />
</g>
</g>
<g style="fill:#008484; fill-opacity:0.0; 
stroke:#008484; stroke-width:60; stroke-opacity:1; 
stroke-linecap:round; stroke-linejoin:round;">
</g>
<g style="fill:#008400; fill-opacity:0.0; 
stroke:#008400; stroke-width:60; stroke-opacity:1; 
stroke-linecap:round; stroke-linejoin:round;">
<path d="M47000 24000
L47000 26500
" />
<path d="M45000 31500
L45000 30500
" />
<path d="M45000 26500
L47000 26500
" />
<path d="M45000 27500
L45000 26500
" />
<path d="M47000 26500
L48000 26500
" />
<path d="M43500 26500
L45000 26500
" />
<path d="M51000 26500
L51500 26500
" />
<path d="M43500 24000
L43500 26500
" />
<path d="M52500 24500
L52500 31500
" />
<path d="M51500 24500
L51500 26500
" />
</g>
<g style="fill:#0000C2; fill-opacity:0.0; 
stroke:#0000C2; stroke-width:60; stroke-opacity:1; 
stroke-linecap:round; stroke-linejoin:round;">
<text x="40000" y="25280"
textLength="2820" font-size="660" lengthAdjust="spacingAndGlyphs"
text-anchor="start" opacity="0">output </text>
<path d="M40220 25250
L40170 25230
L40140 25200
L40120 25160
L40120 25010
L40140 24970
L40170 24940
L40220 24920
L40290 24920
L40330 24940
L40360 24970
L40380 25010
L40380 25160
L40360 25200
L40330 25230
L40290 25250
L40220 25250
" />
<path d="M40810 24920
L40810 25250
" />
<path d="M40600 24920
L40600 25180
L40620 25230
L40670 25250
L40740 25250
L40790 25230
L40810 25200
" />
<path d="M40980 24920
L41170 24920
" />
<path d="M41050 24750
L41050 25180
L41070 25230
L41120 25250
L41170 25250
" />
<path d="M41330 24920
L41330 25420
" />
<path d="M41330 24940
L41380 24920
L41480 24920
L41530 24940
L41550 24970
L41570 25010
L41570 25160
L41550 25200
L41530 25230
L41480 25250
L41380 25250
L41330 25230
" />
<path d="M42000 24920
L42000 25250
" />
<path d="M41790 24920
L41790 25180
L41810 25230
L41860 25250
L41930 25250
L41980 25230
L42000 25200
" />
<path d="M42170 24920
L42360 24920
" />
<path d="M42240 24750
L42240 25180
L42260 25230
L42310 25250
L42360 25250
" />
<text x="40000" y="26090"
textLength="2770" font-size="660" lengthAdjust="spacingAndGlyphs"
text-anchor="start" opacity="0">voltage</text>
<path d="M40100 25730
L40220 26060
L40330 25730
" />
<path d="M40600 26060
L40550 26040
L40530 26010
L40500 25970
L40500 25820
L40530 25780
L40550 25750
L40600 25730
L40670 25730
L40720 25750
L40740 25780
L40760 25820
L40760 25970
L40740 26010
L40720 26040
L40670 26060
L40600 26060
" />
<path d="M41050 26060
L41000 26040
L40980 25990
L40980 25560
" />
<path d="M41170 25730
L41360 25730
" />
<path d="M41240 25560
L41240 25990
L41260 26040
L41310 26060
L41360 26060
" />
<path d="M41740 26060
L41740 25800
L41720 25750
L41670 25730
L41570 25730
L41530 25750
" />
<path d="M41740 26040
L41690 26060
L41570 26060
L41530 26040
L41500 25990
L41500 25940
L41530 25890
L41570 25870
L41690 25870
L41740 25850
" />
<path d="M42190 25730
L42190 26130
L42170 26180
L42140 26200
L42100 26230
L42030 26230
L41980 26200
" />
<path d="M42190 26040
L42140 26060
L42050 26060
L42000 26040
L41980 26010
L41950 25970
L41950 25820
L41980 25780
L42000 25750
L42050 25730
L42140 25730
L42190 25750
" />
<path d="M42620 26040
L42570 26060
L42480 26060
L42430 26040
L42410 25990
L42410 25800
L42430 25750
L42480 25730
L42570 25730
L42620 25750
L42640 25800
L42640 25850
L42410 25890
" />
<text x="40000" y="26900"
textLength="2680" font-size="660" lengthAdjust="spacingAndGlyphs"
text-anchor="start" opacity="0">+3,3 V</text>
<path d="M40140 26680
L40530 26680
" />
<path d="M40330 26870
L40330 26490
" />
<path d="M40720 26370
L41030 26370
L40860 26560
L40930 26560
L40980 26590
L41000 26610
L41030 26660
L41030 26780
L41000 26820
L40980 26850
L40930 26870
L40790 26870
L40740 26850
L40720 26820
" />
<path d="M41260 26850
L41260 26870
L41240 26920
L41220 26940
" />
<path d="M41430 26370
L41740 26370
L41570 26560
L41640 26560
L41690 26590
L41720 26610
L41740 26660
L41740 26780
L41720 26820
L41690 26850
L41640 26870
L41500 26870
L41450 26850
L41430 26820
" />
<path d="M42260 26370
L42430 26870
L42600 26370
" />
<text x="50000" y="20590"
textLength="5040" font-size="660" lengthAdjust="spacingAndGlyphs"
text-anchor="start" opacity="0">input voltage</text>
<path d="M50140 20560
L50140 20230
" />
<path d="M50140 20060
L50120 20090
L50140 20110
L50170 20090
L50140 20060
L50140 20110
" />
<path d="M50380 20230
L50380 20560
" />
<path d="M50380 20280
L50410 20250
L50450 20230
L50530 20230
L50570 20250
L50600 20300
L50600 20560
" />
<path d="M50830 20230
L50830 20730
" />
<path d="M50830 20250
L50880 20230
L50980 20230
L51030 20250
L51050 20280
L51070 20320
L51070 20470
L51050 20510
L51030 20540
L50980 20560
L50880 20560
L50830 20540
" />
<path d="M51500 20230
L51500 20560
" />
<path d="M51290 20230
L51290 20490
L51310 20540
L51360 20560
L51430 20560
L51480 20540
L51500 20510
" />
<path d="M51670 20230
L51860 20230
" />
<path d="M51740 20060
L51740 20490
L51760 20540
L51810 20560
L51860 20560
" />
<path d="M52360 20230
L52480 20560
L52600 20230
" />
<path d="M52860 20560
L52810 20540
L52790 20510
L52760 20470
L52760 20320
L52790 20280
L52810 20250
L52860 20230
L52930 20230
L52980 20250
L53000 20280
L53030 20320
L53030 20470
L53000 20510
L52980 20540
L52930 20560
L52860 20560
" />
<path d="M53310 20560
L53260 20540
L53240 20490
L53240 20060
" />
<path d="M53430 20230
L53620 20230
" />
<path d="M53500 20060
L53500 20490
L53530 20540
L53570 20560
L53620 20560
" />
<path d="M54000 20560
L54000 20300
L53980 20250
L53930 20230
L53830 20230
L53790 20250
" />
<path d="M54000 20540
L53950 20560
L53830 20560
L53790 20540
L53760 20490
L53760 20440
L53790 20390
L53830 20370
L53950 20370
L54000 20350
" />
<path d="M54450 20230
L54450 20630
L54430 20680
L54410 20700
L54360 20730
L54290 20730
L54240 20700
" />
<path d="M54450 20540
L54410 20560
L54310 20560
L54260 20540
L54240 20510
L54220 20470
L54220 20320
L54240 20280
L54260 20250
L54310 20230
L54410 20230
L54450 20250
" />
<path d="M54880 20540
L54830 20560
L54740 20560
L54690 20540
L54670 20490
L54670 20300
L54690 20250
L54740 20230
L54830 20230
L54880 20250
L54910 20300
L54910 20350
L54670 20390
" />
<text x="50000" y="21400"
textLength="6390" font-size="660" lengthAdjust="spacingAndGlyphs"
text-anchor="start" opacity="0">from RPI +3,3 V</text>
<path d="M50070 21040
L50260 21040
" />
<path d="M50140 21370
L50140 20940
L50170 20900
L50220 20870
L50260 20870
" />
<path d="M50430 21370
L50430 21040
" />
<path d="M50430 21130
L50450 21090
L50480 21060
L50530 21040
L50570 21040
" />
<path d="M50810 21370
L50760 21350
L50740 21320
L50720 21280
L50720 21130
L50740 21090
L50760 21060
L50810 21040
L50880 21040
L50930 21060
L50950 21090
L50980 21130
L50980 21280
L50950 21320
L50930 21350
L50880 21370
L50810 21370
" />
<path d="M51190 21370
L51190 21040
" />
<path d="M51190 21090
L51220 21060
L51260 21040
L51330 21040
L51380 21060
L51410 21110
L51410 21370
" />
<path d="M51410 21110
L51430 21060
L51480 21040
L51550 21040
L51600 21060
L51620 21110
L51620 21370
" />
<path d="M52530 21370
L52360 21130
" />
<path d="M52240 21370
L52240 20870
L52430 20870
L52480 20900
L52500 20920
L52530 20970
L52530 21040
L52500 21090
L52480 21110
L52430 21130
L52240 21130
" />
<path d="M52740 21370
L52740 20870
L52930 20870
L52980 20900
L53000 20920
L53030 20970
L53030 21040
L53000 21090
L52980 21110
L52930 21130
L52740 21130
" />
<path d="M53240 21370
L53240 20870
" />
<path d="M53860 21180
L54240 21180
" />
<path d="M54050 21370
L54050 20990
" />
<path d="M54430 20870
L54740 20870
L54570 21060
L54640 21060
L54690 21090
L54720 21110
L54740 21160
L54740 21280
L54720 21320
L54690 21350
L54640 21370
L54500 21370
L54450 21350
L54430 21320
" />
<path d="M54980 21350
L54980 21370
L54950 21420
L54930 21440
" />
<path d="M55140 20870
L55450 20870
L55290 21060
L55360 21060
L55410 21090
L55430 21110
L55450 21160
L55450 21280
L55430 21320
L55410 21350
L55360 21370
L55220 21370
L55170 21350
L55140 21320
" />
<path d="M55980 20870
L56140 21370
L56310 20870
" />
</g>
<g style="fill:#0000C2; fill-opacity:0.0; 
stroke:#0000C2; stroke-width:0; stroke-opacity:1; 
stroke-linecap:round; stroke-linejoin:round;">
</g>
<g style="fill:#008400; fill-opacity:0.0; 
stroke:#008400; stroke-width:0; stroke-opacity:1; 
stroke-linecap:round; stroke-linejoin:round;">
</g>
<g style="fill:#008400; fill-opacity:1.0; 
stroke:#008400; stroke-width:100; stroke-opacity:1; 
stroke-linecap:round; stroke-linejoin:round;">
<circle cx="45000" cy="26500" r="200" /> 
</g>
<g style="fill:#008400; fill-opacity:1.0; 
stroke:#008400; stroke-width:0; stroke-opacity:1; 
stroke-linecap:round; stroke-linejoin:round;">
</g>
<g style="fill:#008400; fill-opacity:1.0; 
stroke:#008400; stroke-width:100; stroke-opacity:1; 
stroke-linecap:round; stroke-linejoin:round;">
<circle cx="47000" cy="26500" r="200" /> 
</g> 
</svg>
