<?xml version="1.0" standalone="no"?>
 <!DOCTYPE svg PUBLIC "-//W3C//DTD SVG 1.1//EN" 
 "http://www.w3.org/Graphics/SVG/1.1/DTD/svg11.dtd"> 
<svg
  xmlns:svg="http://www.w3.org/2000/svg"
  xmlns="http://www.w3.org/2000/svg"
  xmlns:xlink="http://www.w3.org/1999/xlink"
  version="1.1"
  width="29.700220cm" height="21.000720cm" viewBox="0 0 116930 82680">
<title>SVG Picture created as ochrana-napajeni-3_3-v.svg date 2021/07/10 20:29:44 </title>
  <desc>Picture generated by Eeschema-SVG </desc>
<g style="fill:#000000; fill-opacity:1;stroke:#000000; stroke-opacity:1;
stroke-linecap:round; stroke-linejoin:round;"
 transform="translate(0 0) scale(1 1)">
</g>
<g style="fill:#000000; fill-opacity:0.0; 
stroke:#000000; stroke-width:0; stroke-opacity:1; 
stroke-linecap:round; stroke-linejoin:round;">
<g >
</g>
<g style="fill:#840000; fill-opacity:0.0; 
stroke:#840000; stroke-width:0; stroke-opacity:1; 
stroke-linecap:round; stroke-linejoin:round;">
</g>
<g style="fill:#840000; fill-opacity:0.0; 
stroke:#840000; stroke-width:60; stroke-opacity:1; 
stroke-linecap:round; stroke-linejoin:round;">
<path style="fill:#840000; fill-opacity:0.0; 
stroke:#840000; stroke-width:60; stroke-opacity:1; 
stroke-linecap:round; stroke-linejoin:round;fill:none"
d="M 43500,24000
43500,23500
43100,23250
43500,23000
43900,23250
43500,23500
" /> 
<path d="M43500 24000
L43500 24000
" />
</g>
<g style="fill:#008484; fill-opacity:0.0; 
stroke:#008484; stroke-width:60; stroke-opacity:1; 
stroke-linecap:round; stroke-linejoin:round;">
<text x="43500" y="22540"
textLength="3720" font-size="660" lengthAdjust="spacingAndGlyphs"
text-anchor="middle" opacity="0">PWR_FLAG</text>
<path d="M41760 22510
L41760 22010
L41950 22010
L42000 22040
L42020 22060
L42040 22110
L42040 22180
L42020 22230
L42000 22250
L41950 22270
L41760 22270
" />
<path d="M42210 22010
L42330 22510
L42420 22150
L42520 22510
L42640 22010
" />
<path d="M43110 22510
L42950 22270
" />
<path d="M42830 22510
L42830 22010
L43020 22010
L43070 22040
L43090 22060
L43110 22110
L43110 22180
L43090 22230
L43070 22250
L43020 22270
L42830 22270
" />
<path d="M43210 22560
L43590 22560
" />
<path d="M43880 22250
L43710 22250
" />
<path d="M43710 22510
L43710 22010
L43950 22010
" />
<path d="M44380 22510
L44140 22510
L44140 22010
" />
<path d="M44520 22370
L44760 22370
" />
<path d="M44470 22510
L44640 22010
L44800 22510
" />
<path d="M45230 22040
L45190 22010
L45110 22010
L45040 22040
L45000 22080
L44970 22130
L44950 22230
L44950 22300
L44970 22390
L45000 22440
L45040 22490
L45110 22510
L45160 22510
L45230 22490
L45260 22460
L45260 22300
L45160 22300
" />
</g>
</g>
<g style="fill:#008484; fill-opacity:0.0; 
stroke:#008484; stroke-width:0; stroke-opacity:1; 
stroke-linecap:round; stroke-linejoin:round;">
<g >
</g>
<g style="fill:#840000; fill-opacity:0.0; 
stroke:#840000; stroke-width:0; stroke-opacity:1; 
stroke-linecap:round; stroke-linejoin:round;">
</g>
<g style="fill:#840000; fill-opacity:0.0; 
stroke:#840000; stroke-width:60; stroke-opacity:1; 
stroke-linecap:round; stroke-linejoin:round;">
<path style="fill:#840000; fill-opacity:0.0; 
stroke:#840000; stroke-width:60; stroke-opacity:1; 
stroke-linecap:round; stroke-linejoin:round;fill:none"
d="M 52500,31500
52500,32000
53000,32000
52500,32500
52000,32000
52500,32000
" /> 
</g>
<g style="fill:#008484; fill-opacity:0.0; 
stroke:#008484; stroke-width:60; stroke-opacity:1; 
stroke-linecap:round; stroke-linejoin:round;">
<text x="52550" y="33500"
textLength="1580" font-size="660" lengthAdjust="spacingAndGlyphs"
text-anchor="middle" opacity="0">GND</text>
<path d="M52160 33000
L52120 32970
L52050 32970
L51970 33000
L51930 33040
L51900 33090
L51880 33190
L51880 33260
L51900 33350
L51930 33400
L51970 33450
L52050 33470
L52090 33470
L52160 33450
L52190 33420
L52190 33260
L52090 33260
" />
<path d="M52400 33470
L52400 32970
L52690 33470
L52690 32970
" />
<path d="M52930 33470
L52930 32970
L53050 32970
L53120 33000
L53160 33040
L53190 33090
L53210 33190
L53210 33260
L53190 33350
L53160 33400
L53120 33450
L53050 33470
L52930 33470
" />
</g>
</g>
<g style="fill:#008484; fill-opacity:0.0; 
stroke:#008484; stroke-width:0; stroke-opacity:1; 
stroke-linecap:round; stroke-linejoin:round;">
<g >
</g>
<g style="fill:#840000; fill-opacity:0.0; 
stroke:#840000; stroke-width:0; stroke-opacity:1; 
stroke-linecap:round; stroke-linejoin:round;">
</g>
<g style="fill:#840000; fill-opacity:0.0; 
stroke:#840000; stroke-width:60; stroke-opacity:1; 
stroke-linecap:round; stroke-linejoin:round;">
<path style="fill:#840000; fill-opacity:0.0; 
stroke:#840000; stroke-width:60; stroke-opacity:1; 
stroke-linecap:round; stroke-linejoin:round;fill:none"
d="M 45000,31500
45000,32000
45500,32000
45000,32500
44500,32000
45000,32000
" /> 
</g>
<g style="fill:#008484; fill-opacity:0.0; 
stroke:#008484; stroke-width:60; stroke-opacity:1; 
stroke-linecap:round; stroke-linejoin:round;">
<text x="45050" y="33500"
textLength="1580" font-size="660" lengthAdjust="spacingAndGlyphs"
text-anchor="middle" opacity="0">GND</text>
<path d="M44660 33000
L44620 32970
L44550 32970
L44470 33000
L44430 33040
L44400 33090
L44380 33190
L44380 33260
L44400 33350
L44430 33400
L44470 33450
L44550 33470
L44590 33470
L44660 33450
L44690 33420
L44690 33260
L44590 33260
" />
<path d="M44900 33470
L44900 32970
L45190 33470
L45190 32970
" />
<path d="M45430 33470
L45430 32970
L45550 32970
L45620 33000
L45660 33040
L45690 33090
L45710 33190
L45710 33260
L45690 33350
L45660 33400
L45620 33450
L45550 33470
L45430 33470
" />
</g>
</g>
<g style="fill:#008484; fill-opacity:0.0; 
stroke:#008484; stroke-width:0; stroke-opacity:1; 
stroke-linecap:round; stroke-linejoin:round;">
<g >
</g>
<g style="fill:#840000; fill-opacity:0.0; 
stroke:#840000; stroke-width:0; stroke-opacity:1; 
stroke-linecap:round; stroke-linejoin:round;">
</g>
<g style="fill:#FFFFC2; fill-opacity:0.0; 
stroke:#FFFFC2; stroke-width:0; stroke-opacity:1; 
stroke-linecap:round; stroke-linejoin:round;">
</g>
<g style="fill:#FFFFC2; fill-opacity:0.6; 
stroke:#FFFFC2; stroke-width:0; stroke-opacity:1; 
stroke-linecap:round; stroke-linejoin:round;">
<rect x="51000" y="22000" width="2000" height="1000" rx="0" />
</g>
<g style="fill:#840000; fill-opacity:0.6; 
stroke:#840000; stroke-width:0; stroke-opacity:1; 
stroke-linecap:round; stroke-linejoin:round;">
</g>
<g style="fill:#840000; fill-opacity:0.0; 
stroke:#840000; stroke-width:100; stroke-opacity:1; 
stroke-linecap:round; stroke-linejoin:round;">
<rect x="51000" y="22000" width="2000" height="1000" rx="0" />
</g>
<g style="fill:#840000; fill-opacity:0.0; 
stroke:#840000; stroke-width:60; stroke-opacity:1; 
stroke-linecap:round; stroke-linejoin:round;">
<circle cx="52500" cy="22500" r="250" /> 
<circle cx="51500" cy="22500" r="250" /> 
</g>
<g style="fill:#840000; fill-opacity:0.0; 
stroke:#840000; stroke-width:100; stroke-opacity:1; 
stroke-linecap:round; stroke-linejoin:round;">
<rect x="51000" y="22000" width="2000" height="1000" rx="0" />
</g>
<g style="fill:#840000; fill-opacity:0.0; 
stroke:#840000; stroke-width:60; stroke-opacity:1; 
stroke-linecap:round; stroke-linejoin:round;">
<path style="fill:#840000; fill-opacity:0.0; 
stroke:#840000; stroke-width:60; stroke-opacity:1; 
stroke-linecap:round; stroke-linejoin:round;fill:none"
d="M 52370,22710
52700,22370
" /> 
<path style="fill:#840000; fill-opacity:0.0; 
stroke:#840000; stroke-width:60; stroke-opacity:1; 
stroke-linecap:round; stroke-linejoin:round;fill:none"
d="M 51370,22710
51700,22370
" /> 
<path style="fill:#840000; fill-opacity:0.0; 
stroke:#840000; stroke-width:60; stroke-opacity:1; 
stroke-linecap:round; stroke-linejoin:round;fill:none"
d="M 52300,22640
52630,22300
" /> 
<path style="fill:#840000; fill-opacity:0.0; 
stroke:#840000; stroke-width:60; stroke-opacity:1; 
stroke-linecap:round; stroke-linejoin:round;fill:none"
d="M 51300,22640
51630,22300
" /> 
<path d="M51500 23000
L51500 24500
" />
<g transform="rotate(-90 51400 23750)">
<text x="51400" y="23750"
textLength="540" font-size="660" lengthAdjust="spacingAndGlyphs"
text-anchor="middle" opacity="0">1</text>
</g>
<path d="M51370 23600
L51370 23890
" />
<path d="M51370 23750
L50870 23750
L50940 23790
L50990 23840
L51010 23890
" />
<path d="M52500 23000
L52500 24500
" />
<g transform="rotate(-90 52400 23750)">
<text x="52400" y="23750"
textLength="540" font-size="660" lengthAdjust="spacingAndGlyphs"
text-anchor="middle" opacity="0">2</text>
</g>
<path d="M51920 23890
L51900 23860
L51870 23820
L51870 23700
L51900 23650
L51920 23630
L51970 23600
L52010 23600
L52090 23630
L52370 23910
L52370 23600
" />
</g>
<g style="fill:#008484; fill-opacity:0.0; 
stroke:#008484; stroke-width:60; stroke-opacity:1; 
stroke-linecap:round; stroke-linejoin:round;">
<text x="53840" y="23080"
textLength="920" font-size="660" lengthAdjust="spacingAndGlyphs"
text-anchor="middle" opacity="0">J6</text>
<path d="M53670 22550
L53670 22910
L53640 22980
L53600 23030
L53530 23050
L53480 23050
" />
<path d="M54120 22550
L54030 22550
L53980 22580
L53950 22600
L53910 22670
L53880 22770
L53880 22960
L53910 23000
L53930 23030
L53980 23050
L54070 23050
L54120 23030
L54140 23000
L54170 22960
L54170 22840
L54140 22790
L54120 22770
L54070 22740
L53980 22740
L53930 22770
L53910 22790
L53880 22840
" />
<text x="57550" y="23990"
textLength="8350" font-size="660" lengthAdjust="spacingAndGlyphs"
text-anchor="middle" opacity="0">1x2_screw_term_block</text>
<path d="M53780 23960
L53500 23960
" />
<path d="M53640 23960
L53640 23460
L53590 23530
L53550 23580
L53500 23600
" />
<path d="M53950 23960
L54210 23630
" />
<path d="M53950 23630
L54210 23960
" />
<path d="M54380 23510
L54400 23490
L54450 23460
L54570 23460
L54620 23490
L54640 23510
L54660 23560
L54660 23600
L54640 23680
L54350 23960
L54660 23960
" />
<path d="M54760 24010
L55140 24010
" />
<path d="M55240 23940
L55280 23960
L55380 23960
L55430 23940
L55450 23890
L55450 23870
L55430 23820
L55380 23790
L55310 23790
L55260 23770
L55240 23720
L55240 23700
L55260 23650
L55310 23630
L55380 23630
L55430 23650
" />
<path d="M55880 23940
L55830 23960
L55740 23960
L55690 23940
L55660 23910
L55640 23870
L55640 23720
L55660 23680
L55690 23650
L55740 23630
L55830 23630
L55880 23650
" />
<path d="M56090 23960
L56090 23630
" />
<path d="M56090 23720
L56120 23680
L56140 23650
L56190 23630
L56240 23630
" />
<path d="M56590 23940
L56550 23960
L56450 23960
L56400 23940
L56380 23890
L56380 23700
L56400 23650
L56450 23630
L56550 23630
L56590 23650
L56620 23700
L56620 23750
L56380 23790
" />
<path d="M56780 23630
L56880 23960
L56970 23720
L57070 23960
L57160 23630
" />
<path d="M57240 24010
L57620 24010
" />
<path d="M57660 23630
L57850 23630
" />
<path d="M57740 23460
L57740 23890
L57760 23940
L57810 23960
L57850 23960
" />
<path d="M58210 23940
L58160 23960
L58070 23960
L58020 23940
L58000 23890
L58000 23700
L58020 23650
L58070 23630
L58160 23630
L58210 23650
L58240 23700
L58240 23750
L58000 23790
" />
<path d="M58450 23960
L58450 23630
" />
<path d="M58450 23720
L58470 23680
L58500 23650
L58550 23630
L58590 23630
" />
<path d="M58760 23960
L58760 23630
" />
<path d="M58760 23680
L58780 23650
L58830 23630
L58900 23630
L58950 23650
L58970 23700
L58970 23960
" />
<path d="M58970 23700
L59000 23650
L59050 23630
L59120 23630
L59160 23650
L59190 23700
L59190 23960
" />
<path d="M59310 24010
L59690 24010
" />
<path d="M59810 23960
L59810 23460
" />
<path d="M59810 23650
L59850 23630
L59950 23630
L60000 23650
L60020 23680
L60050 23720
L60050 23870
L60020 23910
L60000 23940
L59950 23960
L59850 23960
L59810 23940
" />
<path d="M60330 23960
L60280 23940
L60260 23890
L60260 23460
" />
<path d="M60590 23960
L60550 23940
L60520 23910
L60500 23870
L60500 23720
L60520 23680
L60550 23650
L60590 23630
L60660 23630
L60710 23650
L60740 23680
L60760 23720
L60760 23870
L60740 23910
L60710 23940
L60660 23960
L60590 23960
" />
<path d="M61190 23940
L61140 23960
L61050 23960
L61000 23940
L60970 23910
L60950 23870
L60950 23720
L60970 23680
L61000 23650
L61050 23630
L61140 23630
L61190 23650
" />
<path d="M61400 23960
L61400 23460
" />
<path d="M61450 23770
L61590 23960
" />
<path d="M61590 23630
L61400 23820
" />
</g>
</g>
<g style="fill:#008484; fill-opacity:0.0; 
stroke:#008484; stroke-width:0; stroke-opacity:1; 
stroke-linecap:round; stroke-linejoin:round;">
<g >
</g>
<g style="fill:#840000; fill-opacity:0.0; 
stroke:#840000; stroke-width:0; stroke-opacity:1; 
stroke-linecap:round; stroke-linejoin:round;">
</g>
<g style="fill:#840000; fill-opacity:0.0; 
stroke:#840000; stroke-width:100; stroke-opacity:1; 
stroke-linecap:round; stroke-linejoin:round;">
<rect x="48500" y="26200" width="2000" height="600" rx="0" />
</g>
<g style="fill:#840000; fill-opacity:0.0; 
stroke:#840000; stroke-width:60; stroke-opacity:1; 
stroke-linecap:round; stroke-linejoin:round;">
<path style="fill:#840000; fill-opacity:0.0; 
stroke:#840000; stroke-width:60; stroke-opacity:1; 
stroke-linecap:round; stroke-linejoin:round;fill:none"
d="M 50500,26500
48500,26500
" /> 
<path style="fill:#840000; fill-opacity:0.0; 
stroke:#840000; stroke-width:60; stroke-opacity:1; 
stroke-linecap:round; stroke-linejoin:round;fill:none"
d="M 50500,25900
50100,25900
48900,27100
48500,27100
" /> 
<path d="M50500 26500
L51000 26500
" />
<path d="M48500 26500
L48000 26500
" />
</g>
<g style="fill:#008484; fill-opacity:0.0; 
stroke:#008484; stroke-width:60; stroke-opacity:1; 
stroke-linecap:round; stroke-linejoin:round;">
<text x="49500" y="24520"
textLength="960" font-size="660" lengthAdjust="spacingAndGlyphs"
text-anchor="middle" opacity="0">F1</text>
<path d="M49330 24230
L49160 24230
" />
<path d="M49160 24490
L49160 23990
L49400 23990
" />
<path d="M49850 24490
L49570 24490
" />
<path d="M49710 24490
L49710 23990
L49660 24060
L49610 24110
L49570 24130
" />
<text x="49500" y="25430"
textLength="3350" font-size="660" lengthAdjust="spacingAndGlyphs"
text-anchor="middle" opacity="0">RXEF005</text>
<path d="M48260 25400
L48090 25160
" />
<path d="M47970 25400
L47970 24900
L48160 24900
L48210 24930
L48230 24950
L48260 25000
L48260 25070
L48230 25120
L48210 25140
L48160 25160
L47970 25160
" />
<path d="M48420 24900
L48760 25400
" />
<path d="M48760 24900
L48420 25400
" />
<path d="M48950 25140
L49110 25140
" />
<path d="M49190 25400
L48950 25400
L48950 24900
L49190 24900
" />
<path d="M49570 25140
L49400 25140
" />
<path d="M49400 25400
L49400 24900
L49640 24900
" />
<path d="M49920 24900
L49970 24900
L50020 24930
L50040 24950
L50070 25000
L50090 25090
L50090 25210
L50070 25310
L50040 25350
L50020 25380
L49970 25400
L49920 25400
L49880 25380
L49850 25350
L49830 25310
L49800 25210
L49800 25090
L49830 25000
L49850 24950
L49880 24930
L49920 24900
" />
<path d="M50400 24900
L50450 24900
L50500 24930
L50520 24950
L50540 25000
L50570 25090
L50570 25210
L50540 25310
L50520 25350
L50500 25380
L50450 25400
L50400 25400
L50350 25380
L50330 25350
L50300 25310
L50280 25210
L50280 25090
L50300 25000
L50330 24950
L50350 24930
L50400 24900
" />
<path d="M51020 24900
L50780 24900
L50760 25140
L50780 25120
L50830 25090
L50950 25090
L51000 25120
L51020 25140
L51040 25190
L51040 25310
L51020 25350
L51000 25380
L50950 25400
L50830 25400
L50780 25380
L50760 25350
" />
</g>
</g>
<g style="fill:#008484; fill-opacity:0.0; 
stroke:#008484; stroke-width:0; stroke-opacity:1; 
stroke-linecap:round; stroke-linejoin:round;">
<g >
</g>
<g style="fill:#840000; fill-opacity:0.0; 
stroke:#840000; stroke-width:0; stroke-opacity:1; 
stroke-linecap:round; stroke-linejoin:round;">
</g>
<g style="fill:#840000; fill-opacity:0.0; 
stroke:#840000; stroke-width:80; stroke-opacity:1; 
stroke-linecap:round; stroke-linejoin:round;">
<path style="fill:#840000; fill-opacity:0.0; 
stroke:#840000; stroke-width:80; stroke-opacity:1; 
stroke-linecap:round; stroke-linejoin:round;fill:none"
d="M 44500,28500
44350,28650
" /> 
<path style="fill:#840000; fill-opacity:0.0; 
stroke:#840000; stroke-width:80; stroke-opacity:1; 
stroke-linecap:round; stroke-linejoin:round;fill:none"
d="M 45500,28500
45650,28350
" /> 
</g>
<g style="fill:#840000; fill-opacity:0.0; 
stroke:#840000; stroke-width:60; stroke-opacity:1; 
stroke-linecap:round; stroke-linejoin:round;">
<path style="fill:#840000; fill-opacity:0.0; 
stroke:#840000; stroke-width:60; stroke-opacity:1; 
stroke-linecap:round; stroke-linejoin:round;fill:none"
d="M 45000,29500
45000,28500
" /> 
</g>
<g style="fill:#840000; fill-opacity:0.0; 
stroke:#840000; stroke-width:80; stroke-opacity:1; 
stroke-linecap:round; stroke-linejoin:round;">
<path style="fill:#840000; fill-opacity:0.0; 
stroke:#840000; stroke-width:80; stroke-opacity:1; 
stroke-linecap:round; stroke-linejoin:round;fill:none"
d="M 45500,28500
44500,28500
" /> 
<path style="fill:#840000; fill-opacity:0.0; 
stroke:#840000; stroke-width:80; stroke-opacity:1; 
stroke-linecap:round; stroke-linejoin:round;fill:none"
d="M 45500,29500
44500,29500
45000,28500
Z" /> 
</g>
<g style="fill:#840000; fill-opacity:0.0; 
stroke:#840000; stroke-width:60; stroke-opacity:1; 
stroke-linecap:round; stroke-linejoin:round;">
<path d="M45000 28500
L45000 27500
" />
<path d="M45000 29500
L45000 30500
" />
</g>
<g style="fill:#008484; fill-opacity:0.0; 
stroke:#008484; stroke-width:60; stroke-opacity:1; 
stroke-linecap:round; stroke-linejoin:round;">
<text x="46690" y="28810"
textLength="1510" font-size="660" lengthAdjust="spacingAndGlyphs"
text-anchor="middle" opacity="0">D17</text>
<path d="M46080 28780
L46080 28280
L46200 28280
L46270 28310
L46320 28350
L46340 28400
L46360 28500
L46360 28570
L46340 28660
L46320 28710
L46270 28760
L46200 28780
L46080 28780
" />
<path d="M46840 28780
L46550 28780
" />
<path d="M46700 28780
L46700 28280
L46650 28350
L46600 28400
L46550 28420
" />
<path d="M47010 28280
L47340 28280
L47130 28780
" />
<text x="47820" y="29720"
textLength="3770" font-size="660" lengthAdjust="spacingAndGlyphs"
text-anchor="middle" opacity="0">SM2T3V3A</text>
<path d="M46050 29670
L46120 29690
L46240 29690
L46290 29670
L46320 29640
L46340 29600
L46340 29550
L46320 29500
L46290 29480
L46240 29450
L46150 29430
L46100 29410
L46080 29380
L46050 29330
L46050 29290
L46080 29240
L46100 29220
L46150 29190
L46270 29190
L46340 29220
" />
<path d="M46550 29690
L46550 29190
L46720 29550
L46890 29190
L46890 29690
" />
<path d="M47100 29240
L47120 29220
L47170 29190
L47290 29190
L47340 29220
L47360 29240
L47390 29290
L47390 29330
L47360 29410
L47080 29690
L47390 29690
" />
<path d="M47530 29190
L47820 29190
" />
<path d="M47670 29690
L47670 29190
" />
<path d="M47930 29190
L48240 29190
L48080 29380
L48150 29380
L48200 29410
L48220 29430
L48240 29480
L48240 29600
L48220 29640
L48200 29670
L48150 29690
L48010 29690
L47960 29670
L47930 29640
" />
<path d="M48390 29190
L48550 29690
L48720 29190
" />
<path d="M48840 29190
L49150 29190
L48980 29380
L49050 29380
L49100 29410
L49120 29430
L49150 29480
L49150 29600
L49120 29640
L49100 29670
L49050 29690
L48910 29690
L48860 29670
L48840 29640
" />
<path d="M49340 29550
L49580 29550
" />
<path d="M49290 29690
L49460 29190
L49620 29690
" />
</g>
</g>
<g style="fill:#008484; fill-opacity:0.0; 
stroke:#008484; stroke-width:0; stroke-opacity:1; 
stroke-linecap:round; stroke-linejoin:round;">
<g >
</g>
<g style="fill:#840000; fill-opacity:0.0; 
stroke:#840000; stroke-width:0; stroke-opacity:1; 
stroke-linecap:round; stroke-linejoin:round;">
</g>
<g style="fill:#840000; fill-opacity:0.0; 
stroke:#840000; stroke-width:60; stroke-opacity:1; 
stroke-linecap:round; stroke-linejoin:round;">
<path style="fill:#840000; fill-opacity:0.0; 
stroke:#840000; stroke-width:60; stroke-opacity:1; 
stroke-linecap:round; stroke-linejoin:round;fill:none"
d="M 46700,23500
47000,23000
" /> 
<path style="fill:#840000; fill-opacity:0.0; 
stroke:#840000; stroke-width:60; stroke-opacity:1; 
stroke-linecap:round; stroke-linejoin:round;fill:none"
d="M 47000,24000
47000,23000
" /> 
<path style="fill:#840000; fill-opacity:0.0; 
stroke:#840000; stroke-width:60; stroke-opacity:1; 
stroke-linecap:round; stroke-linejoin:round;fill:none"
d="M 47000,23000
47300,23500
" /> 
</g>
<g style="fill:#008484; fill-opacity:0.0; 
stroke:#008484; stroke-width:60; stroke-opacity:1; 
stroke-linecap:round; stroke-linejoin:round;">
<text x="47150" y="22540"
textLength="2300" font-size="660" lengthAdjust="spacingAndGlyphs"
text-anchor="middle" opacity="0">+3.3V</text>
<path d="M46150 22320
L46530 22320
" />
<path d="M46340 22510
L46340 22130
" />
<path d="M46720 22010
L47030 22010
L46860 22200
L46930 22200
L46980 22230
L47000 22250
L47030 22300
L47030 22420
L47000 22460
L46980 22490
L46930 22510
L46790 22510
L46740 22490
L46720 22460
" />
<path d="M47240 22460
L47260 22490
L47240 22510
L47220 22490
L47240 22460
L47240 22510
" />
<path d="M47430 22010
L47740 22010
L47570 22200
L47650 22200
L47690 22230
L47720 22250
L47740 22300
L47740 22420
L47720 22460
L47690 22490
L47650 22510
L47500 22510
L47450 22490
L47430 22460
" />
<path d="M47880 22010
L48050 22510
L48220 22010
" />
</g>
</g>
<g style="fill:#008484; fill-opacity:0.0; 
stroke:#008484; stroke-width:60; stroke-opacity:1; 
stroke-linecap:round; stroke-linejoin:round;">
</g>
<g style="fill:#008400; fill-opacity:0.0; 
stroke:#008400; stroke-width:60; stroke-opacity:1; 
stroke-linecap:round; stroke-linejoin:round;">
<path d="M47000 24000
L47000 26500
" />
<path d="M45000 31500
L45000 30500
" />
<path d="M45000 26500
L47000 26500
" />
<path d="M45000 27500
L45000 26500
" />
<path d="M47000 26500
L48000 26500
" />
<path d="M43500 26500
L45000 26500
" />
<path d="M51000 26500
L51500 26500
" />
<path d="M43500 24000
L43500 26500
" />
<path d="M52500 24500
L52500 31500
" />
<path d="M51500 24500
L51500 26500
" />
</g>
<g style="fill:#0000C2; fill-opacity:0.0; 
stroke:#0000C2; stroke-width:60; stroke-opacity:1; 
stroke-linecap:round; stroke-linejoin:round;">
<text x="38000" y="26900"
textLength="4850" font-size="660" lengthAdjust="spacingAndGlyphs"
text-anchor="start" opacity="0">Výstup 3,3 V</text>
<path d="M38070 26370
L38240 26870
L38410 26370
" />
<path d="M38530 26540
L38640 26870
" />
<path d="M38760 26540
L38640 26870
L38600 26990
L38570 27010
L38530 27040
" />
<path d="M38690 26350
L38620 26420
" />
<path d="M38930 26850
L38980 26870
L39070 26870
L39120 26850
L39140 26800
L39140 26780
L39120 26730
L39070 26700
L39000 26700
L38950 26680
L38930 26630
L38930 26610
L38950 26560
L39000 26540
L39070 26540
L39120 26560
" />
<path d="M39290 26540
L39480 26540
" />
<path d="M39360 26370
L39360 26800
L39380 26850
L39430 26870
L39480 26870
" />
<path d="M39860 26540
L39860 26870
" />
<path d="M39640 26540
L39640 26800
L39670 26850
L39720 26870
L39790 26870
L39830 26850
L39860 26820
" />
<path d="M40100 26540
L40100 27040
" />
<path d="M40100 26560
L40140 26540
L40240 26540
L40290 26560
L40310 26590
L40330 26630
L40330 26780
L40310 26820
L40290 26850
L40240 26870
L40140 26870
L40100 26850
" />
<path d="M40880 26370
L41190 26370
L41030 26560
L41100 26560
L41140 26590
L41170 26610
L41190 26660
L41190 26780
L41170 26820
L41140 26850
L41100 26870
L40950 26870
L40910 26850
L40880 26820
" />
<path d="M41430 26850
L41430 26870
L41410 26920
L41380 26940
" />
<path d="M41600 26370
L41910 26370
L41740 26560
L41810 26560
L41860 26590
L41880 26610
L41910 26660
L41910 26780
L41880 26820
L41860 26850
L41810 26870
L41670 26870
L41620 26850
L41600 26820
" />
<path d="M42430 26370
L42600 26870
L42760 26370
" />
<text x="50000" y="21400"
textLength="6870" font-size="660" lengthAdjust="spacingAndGlyphs"
text-anchor="start" opacity="0">Vstup 3,3 V z RPI</text>
<path d="M50070 20870
L50240 21370
L50410 20870
" />
<path d="M50550 21350
L50600 21370
L50690 21370
L50740 21350
L50760 21300
L50760 21280
L50740 21230
L50690 21200
L50620 21200
L50570 21180
L50550 21130
L50550 21110
L50570 21060
L50620 21040
L50690 21040
L50740 21060
" />
<path d="M50910 21040
L51100 21040
" />
<path d="M50980 20870
L50980 21300
L51000 21350
L51050 21370
L51100 21370
" />
<path d="M51480 21040
L51480 21370
" />
<path d="M51260 21040
L51260 21300
L51290 21350
L51330 21370
L51410 21370
L51450 21350
L51480 21320
" />
<path d="M51720 21040
L51720 21540
" />
<path d="M51720 21060
L51760 21040
L51860 21040
L51910 21060
L51930 21090
L51950 21130
L51950 21280
L51930 21320
L51910 21350
L51860 21370
L51760 21370
L51720 21350
" />
<path d="M52500 20870
L52810 20870
L52640 21060
L52720 21060
L52760 21090
L52790 21110
L52810 21160
L52810 21280
L52790 21320
L52760 21350
L52720 21370
L52570 21370
L52530 21350
L52500 21320
" />
<path d="M53050 21350
L53050 21370
L53030 21420
L53000 21440
" />
<path d="M53220 20870
L53530 20870
L53360 21060
L53430 21060
L53480 21090
L53500 21110
L53530 21160
L53530 21280
L53500 21320
L53480 21350
L53430 21370
L53290 21370
L53240 21350
L53220 21320
" />
<path d="M54050 20870
L54220 21370
L54380 20870
" />
<path d="M54880 21040
L55140 21040
L54880 21370
L55140 21370
" />
<path d="M56000 21370
L55830 21130
" />
<path d="M55720 21370
L55720 20870
L55910 20870
L55950 20900
L55980 20920
L56000 20970
L56000 21040
L55980 21090
L55950 21110
L55910 21130
L55720 21130
" />
<path d="M56220 21370
L56220 20870
L56410 20870
L56450 20900
L56480 20920
L56500 20970
L56500 21040
L56480 21090
L56450 21110
L56410 21130
L56220 21130
" />
<path d="M56720 21370
L56720 20870
" />
</g>
<g style="fill:#0000C2; fill-opacity:0.0; 
stroke:#0000C2; stroke-width:0; stroke-opacity:1; 
stroke-linecap:round; stroke-linejoin:round;">
</g>
<g style="fill:#008400; fill-opacity:0.0; 
stroke:#008400; stroke-width:0; stroke-opacity:1; 
stroke-linecap:round; stroke-linejoin:round;">
</g>
<g style="fill:#008400; fill-opacity:1.0; 
stroke:#008400; stroke-width:100; stroke-opacity:1; 
stroke-linecap:round; stroke-linejoin:round;">
<circle cx="45000" cy="26500" r="200" /> 
</g>
<g style="fill:#008400; fill-opacity:1.0; 
stroke:#008400; stroke-width:0; stroke-opacity:1; 
stroke-linecap:round; stroke-linejoin:round;">
</g>
<g style="fill:#008400; fill-opacity:1.0; 
stroke:#008400; stroke-width:100; stroke-opacity:1; 
stroke-linecap:round; stroke-linejoin:round;">
<circle cx="47000" cy="26500" r="200" /> 
</g> 
</svg>
