<?xml version="1.0" standalone="no"?>
 <!DOCTYPE svg PUBLIC "-//W3C//DTD SVG 1.1//EN" 
 "http://www.w3.org/Graphics/SVG/1.1/DTD/svg11.dtd"> 
<svg
  xmlns:svg="http://www.w3.org/2000/svg"
  xmlns="http://www.w3.org/2000/svg"
  xmlns:xlink="http://www.w3.org/1999/xlink"
  version="1.1"
  width="29.700220cm" height="21.000720cm" viewBox="0 0 116930 82680">
<title>SVG Picture created as rele-modul-jeden-kanal.svg date 2021/07/10 21:34:06 </title>
  <desc>Picture generated by Eeschema-SVG </desc>
<g style="fill:#000000; fill-opacity:1;stroke:#000000; stroke-opacity:1;
stroke-linecap:round; stroke-linejoin:round;"
 transform="translate(0 0) scale(1 1)">
</g>
<g style="fill:#000000; fill-opacity:0.0; 
stroke:#000000; stroke-width:0; stroke-opacity:1; 
stroke-linecap:round; stroke-linejoin:round;">
<g >
</g>
<g style="fill:#840000; fill-opacity:0.0; 
stroke:#840000; stroke-width:0; stroke-opacity:1; 
stroke-linecap:round; stroke-linejoin:round;">
</g>
<g style="fill:#FFFFC2; fill-opacity:0.0; 
stroke:#FFFFC2; stroke-width:0; stroke-opacity:1; 
stroke-linecap:round; stroke-linejoin:round;">
</g>
<g style="fill:#FFFFC2; fill-opacity:0.6; 
stroke:#FFFFC2; stroke-width:0; stroke-opacity:1; 
stroke-linecap:round; stroke-linejoin:round;">
<rect x="28500" y="30000" width="4000" height="3000" rx="0" />
</g>
<g style="fill:#840000; fill-opacity:0.6; 
stroke:#840000; stroke-width:0; stroke-opacity:1; 
stroke-linecap:round; stroke-linejoin:round;">
</g>
<g style="fill:#840000; fill-opacity:0.0; 
stroke:#840000; stroke-width:100; stroke-opacity:1; 
stroke-linecap:round; stroke-linejoin:round;">
<rect x="28500" y="30000" width="4000" height="3000" rx="0" />
<rect x="28500" y="30000" width="4000" height="3000" rx="0" />
<path style="fill:#840000; fill-opacity:0.0; 
stroke:#840000; stroke-width:100; stroke-opacity:1; 
stroke-linecap:round; stroke-linejoin:round;fill:none"
d="M 29250,31750
29750,31750
" /> 
</g>
<g style="fill:#840000; fill-opacity:0.0; 
stroke:#840000; stroke-width:60; stroke-opacity:1; 
stroke-linecap:round; stroke-linejoin:round;">
<path style="fill:#840000; fill-opacity:0.0; 
stroke:#840000; stroke-width:60; stroke-opacity:1; 
stroke-linecap:round; stroke-linejoin:round;fill:none"
d="M 31500,31250
32250,30500
" /> 
</g>
<g style="fill:#840000; fill-opacity:1.0; 
stroke:#840000; stroke-width:60; stroke-opacity:1; 
stroke-linecap:round; stroke-linejoin:round;">
<path style="fill:#840000; fill-opacity:1.0; 
stroke:#840000; stroke-width:60; stroke-opacity:1; 
stroke-linecap:round; stroke-linejoin:round;fill-rule:evenodd;"
d="M 32250,32500
31500,31750
" /> 
</g>
<g style="fill:#840000; fill-opacity:0.0; 
stroke:#840000; stroke-width:60; stroke-opacity:1; 
stroke-linecap:round; stroke-linejoin:round;">
<path style="fill:#840000; fill-opacity:0.0; 
stroke:#840000; stroke-width:60; stroke-opacity:1; 
stroke-linecap:round; stroke-linejoin:round;fill:none"
d="M 32250,32500
32500,32500
" /> 
<path style="fill:#840000; fill-opacity:0.0; 
stroke:#840000; stroke-width:60; stroke-opacity:1; 
stroke-linecap:round; stroke-linejoin:round;fill:none"
d="M 32250,30500
32500,30500
" /> 
<path style="fill:#840000; fill-opacity:0.0; 
stroke:#840000; stroke-width:60; stroke-opacity:1; 
stroke-linecap:round; stroke-linejoin:round;fill:none"
d="M 28500,30500
29500,30500
29500,31750
" /> 
<path style="fill:#840000; fill-opacity:0.0; 
stroke:#840000; stroke-width:60; stroke-opacity:1; 
stroke-linecap:round; stroke-linejoin:round;fill:none"
d="M 29500,31750
29500,32500
28500,32500
" /> 
</g>
<g style="fill:#840000; fill-opacity:0.0; 
stroke:#840000; stroke-width:200; stroke-opacity:1; 
stroke-linecap:round; stroke-linejoin:round;">
<path style="fill:#840000; fill-opacity:0.0; 
stroke:#840000; stroke-width:200; stroke-opacity:1; 
stroke-linecap:round; stroke-linejoin:round;fill:none"
d="M 31500,30750
31500,32250
31500,32250
" /> 
</g>
<g style="fill:#840000; fill-opacity:0.0; 
stroke:#840000; stroke-width:100; stroke-opacity:1; 
stroke-linecap:round; stroke-linejoin:round;">
<path style="fill:#840000; fill-opacity:0.0; 
stroke:#840000; stroke-width:100; stroke-opacity:1; 
stroke-linecap:round; stroke-linejoin:round;fill:none"
d="M 29500,31750
29250,31250
29750,31250
Z" /> 
</g>
<g style="fill:#840000; fill-opacity:0.0; 
stroke:#840000; stroke-width:60; stroke-opacity:1; 
stroke-linecap:round; stroke-linejoin:round;">
<path style="fill:#840000; fill-opacity:0.0; 
stroke:#840000; stroke-width:60; stroke-opacity:1; 
stroke-linecap:round; stroke-linejoin:round;fill:none"
d="M 30300,31700
30800,31700
30650,31750
30650,31650
30800,31700
" /> 
<path style="fill:#840000; fill-opacity:0.0; 
stroke:#840000; stroke-width:60; stroke-opacity:1; 
stroke-linecap:round; stroke-linejoin:round;fill:none"
d="M 30300,31300
30800,31300
30650,31350
30650,31250
30800,31300
" /> 
</g>
<g style="fill:#840000; fill-opacity:1.0; 
stroke:#840000; stroke-width:60; stroke-opacity:1; 
stroke-linecap:round; stroke-linejoin:round;">
<path style="fill:#840000; fill-opacity:1.0; 
stroke:#840000; stroke-width:60; stroke-opacity:1; 
stroke-linecap:round; stroke-linejoin:round;fill-rule:evenodd;"
d="M 31700,32150
31900,31950
32100,32350
31700,32150
Z" /> 
</g>
<g style="fill:#840000; fill-opacity:0.0; 
stroke:#840000; stroke-width:60; stroke-opacity:1; 
stroke-linecap:round; stroke-linejoin:round;">
<path d="M28500 30500
L27500 30500
" />
<text x="28000" y="30400"
textLength="490" font-size="660" lengthAdjust="spacingAndGlyphs"
text-anchor="middle" opacity="0">1</text>
<path d="M28140 30370
L27850 30370
" />
<path d="M28000 30370
L28000 29870
L27950 29940
L27900 29990
L27850 30010
" />
<path d="M28500 32500
L27500 32500
" />
<text x="28000" y="32400"
textLength="540" font-size="660" lengthAdjust="spacingAndGlyphs"
text-anchor="middle" opacity="0">2</text>
<path d="M27850 31920
L27880 31900
L27920 31870
L28040 31870
L28090 31900
L28110 31920
L28140 31970
L28140 32010
L28110 32090
L27830 32370
L28140 32370
" />
<path d="M32500 32500
L33500 32500
" />
<text x="33000" y="32400"
textLength="540" font-size="660" lengthAdjust="spacingAndGlyphs"
text-anchor="middle" opacity="0">3</text>
<path d="M32830 31870
L33140 31870
L32970 32060
L33040 32060
L33090 32090
L33110 32110
L33140 32160
L33140 32280
L33110 32320
L33090 32350
L33040 32370
L32900 32370
L32850 32350
L32830 32320
" />
<path d="M32500 30500
L33500 30500
" />
<text x="33000" y="30400"
textLength="540" font-size="660" lengthAdjust="spacingAndGlyphs"
text-anchor="middle" opacity="0">4</text>
<path d="M33090 30040
L33090 30370
" />
<path d="M32970 29850
L32850 30200
L33160 30200
" />
</g>
<g style="fill:#008484; fill-opacity:0.0; 
stroke:#008484; stroke-width:60; stroke-opacity:1; 
stroke-linecap:round; stroke-linejoin:round;">
<text x="30500" y="29770"
textLength="1060" font-size="660" lengthAdjust="spacingAndGlyphs"
text-anchor="middle" opacity="0">U1</text>
<path d="M30110 29240
L30110 29650
L30140 29690
L30160 29720
L30210 29740
L30300 29740
L30350 29720
L30380 29690
L30400 29650
L30400 29240
" />
<path d="M30900 29740
L30610 29740
" />
<path d="M30760 29740
L30760 29240
L30710 29310
L30660 29360
L30610 29380
" />
<text x="30500" y="33770"
textLength="1990" font-size="660" lengthAdjust="spacingAndGlyphs"
text-anchor="middle" opacity="0">817C</text>
<path d="M29720 33460
L29670 33430
L29650 33410
L29630 33360
L29630 33340
L29650 33290
L29670 33270
L29720 33240
L29820 33240
L29860 33270
L29890 33290
L29910 33340
L29910 33360
L29890 33410
L29860 33430
L29820 33460
L29720 33460
L29670 33480
L29650 33500
L29630 33550
L29630 33650
L29650 33690
L29670 33720
L29720 33740
L29820 33740
L29860 33720
L29890 33690
L29910 33650
L29910 33550
L29890 33500
L29860 33480
L29820 33460
" />
<path d="M30390 33740
L30100 33740
" />
<path d="M30250 33740
L30250 33240
L30200 33310
L30150 33360
L30100 33380
" />
<path d="M30550 33240
L30890 33240
L30670 33740
" />
<path d="M31360 33690
L31340 33720
L31270 33740
L31220 33740
L31150 33720
L31100 33670
L31080 33620
L31050 33530
L31050 33460
L31080 33360
L31100 33310
L31150 33270
L31220 33240
L31270 33240
L31340 33270
L31360 33290
" />
</g>
</g>
<g style="fill:#008484; fill-opacity:0.0; 
stroke:#008484; stroke-width:0; stroke-opacity:1; 
stroke-linecap:round; stroke-linejoin:round;">
<g >
</g>
<g style="fill:#840000; fill-opacity:0.0; 
stroke:#840000; stroke-width:0; stroke-opacity:1; 
stroke-linecap:round; stroke-linejoin:round;">
</g>
<g style="fill:#FFFFC2; fill-opacity:0.0; 
stroke:#FFFFC2; stroke-width:0; stroke-opacity:1; 
stroke-linecap:round; stroke-linejoin:round;">
</g>
<g style="fill:#FFFFC2; fill-opacity:0.6; 
stroke:#FFFFC2; stroke-width:0; stroke-opacity:1; 
stroke-linecap:round; stroke-linejoin:round;">
<rect x="58500" y="24000" width="1000" height="3000" rx="0" />
</g>
<g style="fill:#840000; fill-opacity:0.6; 
stroke:#840000; stroke-width:0; stroke-opacity:1; 
stroke-linecap:round; stroke-linejoin:round;">
</g>
<g style="fill:#840000; fill-opacity:0.0; 
stroke:#840000; stroke-width:100; stroke-opacity:1; 
stroke-linecap:round; stroke-linejoin:round;">
<rect x="58500" y="24000" width="1000" height="3000" rx="0" />
</g>
<g style="fill:#840000; fill-opacity:0.0; 
stroke:#840000; stroke-width:60; stroke-opacity:1; 
stroke-linecap:round; stroke-linejoin:round;">
<circle cx="59000" cy="26500" r="250" /> 
<circle cx="59000" cy="25500" r="250" /> 
<circle cx="59000" cy="24500" r="250" /> 
</g>
<g style="fill:#840000; fill-opacity:0.0; 
stroke:#840000; stroke-width:100; stroke-opacity:1; 
stroke-linecap:round; stroke-linejoin:round;">
<rect x="58500" y="24000" width="1000" height="3000" rx="0" />
</g>
<g style="fill:#840000; fill-opacity:0.0; 
stroke:#840000; stroke-width:60; stroke-opacity:1; 
stroke-linecap:round; stroke-linejoin:round;">
<path style="fill:#840000; fill-opacity:0.0; 
stroke:#840000; stroke-width:60; stroke-opacity:1; 
stroke-linecap:round; stroke-linejoin:round;fill:none"
d="M 58790,26370
59130,26700
" /> 
<path style="fill:#840000; fill-opacity:0.0; 
stroke:#840000; stroke-width:60; stroke-opacity:1; 
stroke-linecap:round; stroke-linejoin:round;fill:none"
d="M 58790,25370
59130,25700
" /> 
<path style="fill:#840000; fill-opacity:0.0; 
stroke:#840000; stroke-width:60; stroke-opacity:1; 
stroke-linecap:round; stroke-linejoin:round;fill:none"
d="M 58790,24370
59130,24700
" /> 
<path style="fill:#840000; fill-opacity:0.0; 
stroke:#840000; stroke-width:60; stroke-opacity:1; 
stroke-linecap:round; stroke-linejoin:round;fill:none"
d="M 58860,26300
59200,26630
" /> 
<path style="fill:#840000; fill-opacity:0.0; 
stroke:#840000; stroke-width:60; stroke-opacity:1; 
stroke-linecap:round; stroke-linejoin:round;fill:none"
d="M 58860,25300
59200,25630
" /> 
<path style="fill:#840000; fill-opacity:0.0; 
stroke:#840000; stroke-width:60; stroke-opacity:1; 
stroke-linecap:round; stroke-linejoin:round;fill:none"
d="M 58860,24300
59200,24630
" /> 
<path d="M58500 24500
L57000 24500
" />
<text x="57750" y="24400"
textLength="540" font-size="660" lengthAdjust="spacingAndGlyphs"
text-anchor="middle" opacity="0">1</text>
<path d="M57890 24370
L57600 24370
" />
<path d="M57750 24370
L57750 23870
L57700 23940
L57650 23990
L57600 24010
" />
<path d="M58500 25500
L57000 25500
" />
<text x="57750" y="25400"
textLength="540" font-size="660" lengthAdjust="spacingAndGlyphs"
text-anchor="middle" opacity="0">2</text>
<path d="M57600 24920
L57630 24900
L57670 24870
L57790 24870
L57840 24900
L57860 24920
L57890 24970
L57890 25010
L57860 25090
L57580 25370
L57890 25370
" />
<path d="M58500 26500
L57000 26500
" />
<text x="57750" y="26400"
textLength="540" font-size="660" lengthAdjust="spacingAndGlyphs"
text-anchor="middle" opacity="0">3</text>
<path d="M57580 25870
L57890 25870
L57720 26060
L57790 26060
L57840 26090
L57860 26110
L57890 26160
L57890 26280
L57860 26320
L57840 26350
L57790 26370
L57650 26370
L57600 26350
L57580 26320
" />
</g>
<g style="fill:#008484; fill-opacity:0.0; 
stroke:#008484; stroke-width:60; stroke-opacity:1; 
stroke-linecap:round; stroke-linejoin:round;">
<text x="58960" y="23770"
textLength="920" font-size="660" lengthAdjust="spacingAndGlyphs"
text-anchor="middle" opacity="0">J1</text>
<path d="M58790 23240
L58790 23600
L58760 23670
L58720 23720
L58650 23740
L58600 23740
" />
<path d="M59290 23740
L59000 23740
" />
<path d="M59150 23740
L59150 23240
L59100 23310
L59050 23360
L59000 23380
" />
<g transform="rotate(-90 59020 31750)">
<text x="59020" y="32000"
textLength="8490" font-size="660" lengthAdjust="spacingAndGlyphs"
text-anchor="middle" opacity="0">Screw_Terminal_01x03</text>
</g>
<path d="M59220 35860
L59240 35790
L59240 35670
L59220 35630
L59190 35600
L59150 35580
L59100 35580
L59050 35600
L59030 35630
L59000 35670
L58980 35770
L58960 35820
L58930 35840
L58880 35860
L58840 35860
L58790 35840
L58770 35820
L58740 35770
L58740 35650
L58770 35580
" />
<path d="M59220 35150
L59240 35200
L59240 35290
L59220 35340
L59190 35360
L59150 35390
L59000 35390
L58960 35360
L58930 35340
L58910 35290
L58910 35200
L58930 35150
" />
<path d="M59240 34940
L58910 34940
" />
<path d="M59000 34940
L58960 34910
L58930 34890
L58910 34840
L58910 34790
" />
<path d="M59220 34440
L59240 34480
L59240 34580
L59220 34630
L59170 34650
L58980 34650
L58930 34630
L58910 34580
L58910 34480
L58930 34440
L58980 34410
L59030 34410
L59070 34650
" />
<path d="M58910 34250
L59240 34150
L59000 34050
L59240 33960
L58910 33860
" />
<path d="M59290 33790
L59290 33410
" />
<path d="M58740 33360
L58740 33080
" />
<path d="M59240 33220
L58740 33220
" />
<path d="M59220 32720
L59240 32770
L59240 32860
L59220 32910
L59170 32940
L58980 32940
L58930 32910
L58910 32860
L58910 32770
L58930 32720
L58980 32700
L59030 32700
L59070 32940
" />
<path d="M59240 32480
L58910 32480
" />
<path d="M59000 32480
L58960 32460
L58930 32440
L58910 32390
L58910 32340
" />
<path d="M59240 32170
L58910 32170
" />
<path d="M58960 32170
L58930 32150
L58910 32100
L58910 32030
L58930 31980
L58980 31960
L59240 31960
" />
<path d="M58980 31960
L58930 31940
L58910 31890
L58910 31820
L58930 31770
L58980 31750
L59240 31750
" />
<path d="M59240 31510
L58910 31510
" />
<path d="M58740 31510
L58770 31530
L58790 31510
L58770 31480
L58740 31510
L58790 31510
" />
<path d="M58910 31270
L59240 31270
" />
<path d="M58960 31270
L58930 31250
L58910 31200
L58910 31130
L58930 31080
L58980 31050
L59240 31050
" />
<path d="M59240 30600
L58980 30600
L58930 30630
L58910 30670
L58910 30770
L58930 30820
" />
<path d="M59220 30600
L59240 30650
L59240 30770
L59220 30820
L59170 30840
L59120 30840
L59070 30820
L59050 30770
L59050 30650
L59030 30600
" />
<path d="M59240 30290
L59220 30340
L59170 30360
L58740 30360
" />
<path d="M59290 30220
L59290 29840
" />
<path d="M58740 29630
L58740 29580
L58770 29530
L58790 29510
L58840 29480
L58930 29460
L59050 29460
L59150 29480
L59190 29510
L59220 29530
L59240 29580
L59240 29630
L59220 29670
L59190 29700
L59150 29720
L59050 29750
L58930 29750
L58840 29720
L58790 29700
L58770 29670
L58740 29630
" />
<path d="M59240 28980
L59240 29270
" />
<path d="M59240 29130
L58740 29130
L58810 29170
L58860 29220
L58880 29270
" />
<path d="M59240 28820
L58910 28550
" />
<path d="M58910 28820
L59240 28550
" />
<path d="M58740 28270
L58740 28220
L58770 28170
L58790 28150
L58840 28130
L58930 28100
L59050 28100
L59150 28130
L59190 28150
L59220 28170
L59240 28220
L59240 28270
L59220 28320
L59190 28340
L59150 28360
L59050 28390
L58930 28390
L58840 28360
L58790 28340
L58770 28320
L58740 28270
" />
<path d="M58740 27940
L58740 27630
L58930 27790
L58930 27720
L58960 27670
L58980 27650
L59030 27630
L59150 27630
L59190 27650
L59220 27670
L59240 27720
L59240 27860
L59220 27910
L59190 27940
" />
</g>
</g>
<g style="fill:#008484; fill-opacity:0.0; 
stroke:#008484; stroke-width:0; stroke-opacity:1; 
stroke-linecap:round; stroke-linejoin:round;">
<g >
</g>
<g style="fill:#840000; fill-opacity:0.0; 
stroke:#840000; stroke-width:0; stroke-opacity:1; 
stroke-linecap:round; stroke-linejoin:round;">
</g>
<g style="fill:#FFFFC2; fill-opacity:0.0; 
stroke:#FFFFC2; stroke-width:0; stroke-opacity:1; 
stroke-linecap:round; stroke-linejoin:round;">
</g>
<g style="fill:#FFFFC2; fill-opacity:0.6; 
stroke:#FFFFC2; stroke-width:0; stroke-opacity:1; 
stroke-linecap:round; stroke-linejoin:round;">
<rect x="43500" y="23500" width="8000" height="4000" rx="0" />
</g>
<g style="fill:#840000; fill-opacity:0.6; 
stroke:#840000; stroke-width:0; stroke-opacity:1; 
stroke-linecap:round; stroke-linejoin:round;">
</g>
<g style="fill:#840000; fill-opacity:0.0; 
stroke:#840000; stroke-width:100; stroke-opacity:1; 
stroke-linecap:round; stroke-linejoin:round;">
<rect x="43500" y="23500" width="8000" height="4000" rx="0" />
<rect x="43500" y="23500" width="8000" height="4000" rx="0" />
<rect x="44250" y="24750" width="2500" height="1500" rx="0" />
</g>
<g style="fill:#840000; fill-opacity:0.0; 
stroke:#840000; stroke-width:60; stroke-opacity:1; 
stroke-linecap:round; stroke-linejoin:round;">
<path style="fill:#840000; fill-opacity:0.0; 
stroke:#840000; stroke-width:60; stroke-opacity:1; 
stroke-linecap:round; stroke-linejoin:round;fill:none"
d="M 50500,23500
50500,24500
50250,24250
50500,24000
" /> 
</g>
<g style="fill:#840000; fill-opacity:0.0; 
stroke:#840000; stroke-width:100; stroke-opacity:1; 
stroke-linecap:round; stroke-linejoin:round;">
<path style="fill:#840000; fill-opacity:0.0; 
stroke:#840000; stroke-width:100; stroke-opacity:1; 
stroke-linecap:round; stroke-linejoin:round;fill:none"
d="M 44500,26250
46500,24750
" /> 
</g>
<g style="fill:#840000; fill-opacity:0.0; 
stroke:#840000; stroke-width:60; stroke-opacity:1; 
stroke-linecap:round; stroke-linejoin:round;">
<path style="fill:#840000; fill-opacity:0.0; 
stroke:#840000; stroke-width:60; stroke-opacity:1; 
stroke-linecap:round; stroke-linejoin:round;fill:none"
d="M 45500,27500
45500,26250
" /> 
<path style="fill:#840000; fill-opacity:0.0; 
stroke:#840000; stroke-width:60; stroke-opacity:1; 
stroke-linecap:round; stroke-linejoin:round;fill:none"
d="M 45500,23500
45500,24750
" /> 
</g>
<g style="fill:#840000; fill-opacity:0.0; 
stroke:#840000; stroke-width:100; stroke-opacity:1; 
stroke-linecap:round; stroke-linejoin:round;">
<path style="fill:#840000; fill-opacity:0.0; 
stroke:#840000; stroke-width:100; stroke-opacity:1; 
stroke-linecap:round; stroke-linejoin:round;fill:none"
d="M 46750,25500
47000,25500
" /> 
<path style="fill:#840000; fill-opacity:0.0; 
stroke:#840000; stroke-width:100; stroke-opacity:1; 
stroke-linecap:round; stroke-linejoin:round;fill:none"
d="M 47250,25500
47500,25500
" /> 
<path style="fill:#840000; fill-opacity:0.0; 
stroke:#840000; stroke-width:100; stroke-opacity:1; 
stroke-linecap:round; stroke-linejoin:round;fill:none"
d="M 47750,25500
48000,25500
" /> 
<path style="fill:#840000; fill-opacity:0.0; 
stroke:#840000; stroke-width:100; stroke-opacity:1; 
stroke-linecap:round; stroke-linejoin:round;fill:none"
d="M 48250,25500
48500,25500
" /> 
<path style="fill:#840000; fill-opacity:0.0; 
stroke:#840000; stroke-width:100; stroke-opacity:1; 
stroke-linecap:round; stroke-linejoin:round;fill:none"
d="M 48750,25500
49000,25500
" /> 
</g>
<g style="fill:#840000; fill-opacity:0.0; 
stroke:#840000; stroke-width:200; stroke-opacity:1; 
stroke-linecap:round; stroke-linejoin:round;">
<path style="fill:#840000; fill-opacity:0.0; 
stroke:#840000; stroke-width:200; stroke-opacity:1; 
stroke-linecap:round; stroke-linejoin:round;fill:none"
d="M 49500,26500
48750,24000
" /> 
</g>
<g style="fill:#840000; fill-opacity:0.0; 
stroke:#840000; stroke-width:60; stroke-opacity:1; 
stroke-linecap:round; stroke-linejoin:round;">
<path style="fill:#840000; fill-opacity:0.0; 
stroke:#840000; stroke-width:60; stroke-opacity:1; 
stroke-linecap:round; stroke-linejoin:round;fill:none"
d="M 49500,26500
49500,27500
" /> 
</g>
<g style="fill:#840000; fill-opacity:1.0; 
stroke:#840000; stroke-width:60; stroke-opacity:1; 
stroke-linecap:round; stroke-linejoin:round;">
<path style="fill:#840000; fill-opacity:1.0; 
stroke:#840000; stroke-width:60; stroke-opacity:1; 
stroke-linecap:round; stroke-linejoin:round;fill-rule:evenodd;"
d="M 48500,24000
48750,24250
48500,24500
48500,23500
" /> 
</g>
<g style="fill:#840000; fill-opacity:0.0; 
stroke:#840000; stroke-width:60; stroke-opacity:1; 
stroke-linecap:round; stroke-linejoin:round;">
<path d="M49500 27500
L49500 28500
" />
<g transform="rotate(-90 49400 28000)">
<text x="49400" y="28000"
textLength="540" font-size="660" lengthAdjust="spacingAndGlyphs"
text-anchor="middle" opacity="0">1</text>
</g>
<path d="M49370 27850
L49370 28140
" />
<path d="M49370 28000
L48870 28000
L48940 28040
L48990 28090
L49010 28140
" />
<path d="M45500 27500
L45500 28500
" />
<g transform="rotate(-90 45400 28000)">
<text x="45400" y="28000"
textLength="540" font-size="660" lengthAdjust="spacingAndGlyphs"
text-anchor="middle" opacity="0">2</text>
</g>
<path d="M44920 28140
L44900 28110
L44870 28070
L44870 27950
L44900 27900
L44920 27880
L44970 27850
L45010 27850
L45090 27880
L45370 28160
L45370 27850
" />
<path d="M50500 23500
L50500 22500
" />
<g transform="rotate(-90 50400 23000)">
<text x="50400" y="23000"
textLength="540" font-size="660" lengthAdjust="spacingAndGlyphs"
text-anchor="middle" opacity="0">3</text>
</g>
<path d="M49870 23160
L49870 22850
L50060 23020
L50060 22950
L50090 22900
L50110 22880
L50160 22850
L50280 22850
L50320 22880
L50350 22900
L50370 22950
L50370 23090
L50350 23140
L50320 23160
" />
<path d="M48500 23500
L48500 22500
" />
<g transform="rotate(-90 48400 23000)">
<text x="48400" y="23000"
textLength="540" font-size="660" lengthAdjust="spacingAndGlyphs"
text-anchor="middle" opacity="0">4</text>
</g>
<path d="M48040 22900
L48370 22900
" />
<path d="M47850 23020
L48200 23140
L48200 22830
" />
<path d="M45500 23500
L45500 22500
" />
<g transform="rotate(-90 45400 23000)">
<text x="45400" y="23000"
textLength="540" font-size="660" lengthAdjust="spacingAndGlyphs"
text-anchor="middle" opacity="0">5</text>
</g>
<path d="M44870 22880
L44870 23110
L45110 23140
L45090 23110
L45060 23070
L45060 22950
L45090 22900
L45110 22880
L45160 22850
L45280 22850
L45320 22880
L45350 22900
L45370 22950
L45370 23070
L45350 23110
L45320 23140
" />
</g>
<g style="fill:#008484; fill-opacity:0.0; 
stroke:#008484; stroke-width:60; stroke-opacity:1; 
stroke-linecap:round; stroke-linejoin:round;">
<text x="52320" y="25310"
textLength="1040" font-size="660" lengthAdjust="spacingAndGlyphs"
text-anchor="middle" opacity="0">K1</text>
<path d="M51950 25280
L51950 24780
" />
<path d="M52230 25280
L52020 25000
" />
<path d="M52230 24780
L51950 25070
" />
<path d="M52710 25280
L52420 25280
" />
<path d="M52570 25280
L52570 24780
L52520 24850
L52470 24900
L52420 24920
" />
<text x="47690" y="29770"
textLength="6390" font-size="660" lengthAdjust="spacingAndGlyphs"
text-anchor="middle" opacity="0">srd-05vdc-sl-c</text>
<path d="M44610 29720
L44660 29740
L44760 29740
L44800 29720
L44830 29670
L44830 29650
L44800 29600
L44760 29570
L44690 29570
L44640 29550
L44610 29500
L44610 29480
L44640 29430
L44690 29410
L44760 29410
L44800 29430
" />
<path d="M45040 29740
L45040 29410
" />
<path d="M45040 29500
L45070 29460
L45090 29430
L45140 29410
L45190 29410
" />
<path d="M45570 29740
L45570 29240
" />
<path d="M45570 29720
L45520 29740
L45420 29740
L45380 29720
L45350 29690
L45330 29650
L45330 29500
L45350 29460
L45380 29430
L45420 29410
L45520 29410
L45570 29430
" />
<path d="M45800 29550
L46190 29550
" />
<path d="M46520 29240
L46570 29240
L46610 29270
L46640 29290
L46660 29340
L46690 29430
L46690 29550
L46660 29650
L46640 29690
L46610 29720
L46570 29740
L46520 29740
L46470 29720
L46450 29690
L46420 29650
L46400 29550
L46400 29430
L46420 29340
L46450 29290
L46470 29270
L46520 29240
" />
<path d="M47140 29240
L46900 29240
L46880 29480
L46900 29460
L46950 29430
L47070 29430
L47110 29460
L47140 29480
L47160 29530
L47160 29650
L47140 29690
L47110 29720
L47070 29740
L46950 29740
L46900 29720
L46880 29690
" />
<path d="M47330 29410
L47450 29740
L47570 29410
" />
<path d="M47970 29740
L47970 29240
" />
<path d="M47970 29720
L47920 29740
L47830 29740
L47780 29720
L47760 29690
L47730 29650
L47730 29500
L47760 29460
L47780 29430
L47830 29410
L47920 29410
L47970 29430
" />
<path d="M48420 29720
L48380 29740
L48280 29740
L48230 29720
L48210 29690
L48190 29650
L48190 29500
L48210 29460
L48230 29430
L48280 29410
L48380 29410
L48420 29430
" />
<path d="M48640 29550
L49020 29550
" />
<path d="M49230 29720
L49280 29740
L49380 29740
L49420 29720
L49450 29670
L49450 29650
L49420 29600
L49380 29570
L49300 29570
L49260 29550
L49230 29500
L49230 29480
L49260 29430
L49300 29410
L49380 29410
L49420 29430
" />
<path d="M49730 29740
L49690 29720
L49660 29670
L49660 29240
" />
<path d="M49920 29550
L50300 29550
" />
<path d="M50760 29720
L50710 29740
L50610 29740
L50570 29720
L50540 29690
L50520 29650
L50520 29500
L50540 29460
L50570 29430
L50610 29410
L50710 29410
L50760 29430
" />
</g>
</g>
<g style="fill:#008484; fill-opacity:0.0; 
stroke:#008484; stroke-width:0; stroke-opacity:1; 
stroke-linecap:round; stroke-linejoin:round;">
<g >
</g>
<g style="fill:#840000; fill-opacity:0.0; 
stroke:#840000; stroke-width:0; stroke-opacity:1; 
stroke-linecap:round; stroke-linejoin:round;">
</g>
<g style="fill:#840000; fill-opacity:0.0; 
stroke:#840000; stroke-width:60; stroke-opacity:1; 
stroke-linecap:round; stroke-linejoin:round;">
<path style="fill:#840000; fill-opacity:0.0; 
stroke:#840000; stroke-width:60; stroke-opacity:1; 
stroke-linecap:round; stroke-linejoin:round;fill:none"
d="M 41500,35000
41500,35500
42000,35500
41500,36000
41000,35500
41500,35500
" /> 
</g>
<g style="fill:#008484; fill-opacity:0.0; 
stroke:#008484; stroke-width:60; stroke-opacity:1; 
stroke-linecap:round; stroke-linejoin:round;">
<text x="41550" y="37000"
textLength="1580" font-size="660" lengthAdjust="spacingAndGlyphs"
text-anchor="middle" opacity="0">GND</text>
<path d="M41160 36500
L41120 36470
L41050 36470
L40970 36500
L40930 36540
L40900 36590
L40880 36690
L40880 36760
L40900 36850
L40930 36900
L40970 36950
L41050 36970
L41090 36970
L41160 36950
L41190 36920
L41190 36760
L41090 36760
" />
<path d="M41400 36970
L41400 36470
L41690 36970
L41690 36470
" />
<path d="M41930 36970
L41930 36470
L42050 36470
L42120 36500
L42160 36540
L42190 36590
L42210 36690
L42210 36760
L42190 36850
L42160 36900
L42120 36950
L42050 36970
L41930 36970
" />
</g>
</g>
<g style="fill:#008484; fill-opacity:0.0; 
stroke:#008484; stroke-width:0; stroke-opacity:1; 
stroke-linecap:round; stroke-linejoin:round;">
<g >
</g>
<g style="fill:#840000; fill-opacity:0.0; 
stroke:#840000; stroke-width:0; stroke-opacity:1; 
stroke-linecap:round; stroke-linejoin:round;">
</g>
<g style="fill:#840000; fill-opacity:0.0; 
stroke:#840000; stroke-width:100; stroke-opacity:1; 
stroke-linecap:round; stroke-linejoin:round;">
<path style="fill:#840000; fill-opacity:0.0; 
stroke:#840000; stroke-width:100; stroke-opacity:1; 
stroke-linecap:round; stroke-linejoin:round;fill:none"
d="M 24500,33000
24500,32000
" /> 
</g>
<g style="fill:#840000; fill-opacity:0.0; 
stroke:#840000; stroke-width:60; stroke-opacity:1; 
stroke-linecap:round; stroke-linejoin:round;">
<path style="fill:#840000; fill-opacity:0.0; 
stroke:#840000; stroke-width:60; stroke-opacity:1; 
stroke-linecap:round; stroke-linejoin:round;fill:none"
d="M 24500,32500
25500,32500
" /> 
</g>
<g style="fill:#840000; fill-opacity:0.0; 
stroke:#840000; stroke-width:100; stroke-opacity:1; 
stroke-linecap:round; stroke-linejoin:round;">
<path style="fill:#840000; fill-opacity:0.0; 
stroke:#840000; stroke-width:100; stroke-opacity:1; 
stroke-linecap:round; stroke-linejoin:round;fill:none"
d="M 25500,33000
25500,32000
24500,32500
Z" /> 
</g>
<g style="fill:#840000; fill-opacity:0.0; 
stroke:#840000; stroke-width:60; stroke-opacity:1; 
stroke-linecap:round; stroke-linejoin:round;">
<path style="fill:#840000; fill-opacity:0.0; 
stroke:#840000; stroke-width:60; stroke-opacity:1; 
stroke-linecap:round; stroke-linejoin:round;fill:none"
d="M 23800,32800
23200,33400
23500,33400
23200,33400
23200,33100
" /> 
<path style="fill:#840000; fill-opacity:0.0; 
stroke:#840000; stroke-width:60; stroke-opacity:1; 
stroke-linecap:round; stroke-linejoin:round;fill:none"
d="M 24300,32800
23700,33400
24000,33400
23700,33400
23700,33100
" /> 
<path d="M24500 32500
L23500 32500
" />
<path d="M25500 32500
L26500 32500
" />
</g>
<g style="fill:#008484; fill-opacity:0.0; 
stroke:#008484; stroke-width:60; stroke-opacity:1; 
stroke-linecap:round; stroke-linejoin:round;">
<text x="24930" y="30600"
textLength="1040" font-size="660" lengthAdjust="spacingAndGlyphs"
text-anchor="middle" opacity="0">D1</text>
<path d="M24560 30570
L24560 30070
L24680 30070
L24750 30100
L24790 30140
L24820 30190
L24840 30290
L24840 30360
L24820 30450
L24790 30500
L24750 30550
L24680 30570
L24560 30570
" />
<path d="M25320 30570
L25030 30570
" />
<path d="M25180 30570
L25180 30070
L25130 30140
L25080 30190
L25030 30210
" />
<text x="24930" y="31510"
textLength="2990" font-size="660" lengthAdjust="spacingAndGlyphs"
text-anchor="middle" opacity="0">red LED</text>
<path d="M23580 31480
L23580 31150
" />
<path d="M23580 31240
L23600 31200
L23630 31170
L23680 31150
L23720 31150
" />
<path d="M24080 31460
L24030 31480
L23940 31480
L23890 31460
L23870 31410
L23870 31220
L23890 31170
L23940 31150
L24030 31150
L24080 31170
L24100 31220
L24100 31270
L23870 31310
" />
<path d="M24530 31480
L24530 30980
" />
<path d="M24530 31460
L24480 31480
L24390 31480
L24340 31460
L24320 31430
L24290 31390
L24290 31240
L24320 31200
L24340 31170
L24390 31150
L24480 31150
L24530 31170
" />
<path d="M25390 31480
L25150 31480
L25150 30980
" />
<path d="M25560 31220
L25720 31220
" />
<path d="M25790 31480
L25560 31480
L25560 30980
L25790 30980
" />
<path d="M26010 31480
L26010 30980
L26130 30980
L26200 31010
L26250 31050
L26270 31100
L26290 31200
L26290 31270
L26270 31360
L26250 31410
L26200 31460
L26130 31480
L26010 31480
" />
</g>
</g>
<g style="fill:#008484; fill-opacity:0.0; 
stroke:#008484; stroke-width:0; stroke-opacity:1; 
stroke-linecap:round; stroke-linejoin:round;">
<g >
</g>
<g style="fill:#840000; fill-opacity:0.0; 
stroke:#840000; stroke-width:0; stroke-opacity:1; 
stroke-linecap:round; stroke-linejoin:round;">
</g>
<g style="fill:#840000; fill-opacity:0.0; 
stroke:#840000; stroke-width:60; stroke-opacity:1; 
stroke-linecap:round; stroke-linejoin:round;">
<path style="fill:#840000; fill-opacity:0.0; 
stroke:#840000; stroke-width:60; stroke-opacity:1; 
stroke-linecap:round; stroke-linejoin:round;fill:none"
d="M 20000,29500
20000,30000
20500,30000
20000,30500
19500,30000
20000,30000
" /> 
</g>
<g style="fill:#008484; fill-opacity:0.0; 
stroke:#008484; stroke-width:60; stroke-opacity:1; 
stroke-linecap:round; stroke-linejoin:round;">
<text x="20050" y="31500"
textLength="1580" font-size="660" lengthAdjust="spacingAndGlyphs"
text-anchor="middle" opacity="0">GND</text>
<path d="M19660 31000
L19620 30970
L19550 30970
L19470 31000
L19430 31040
L19400 31090
L19380 31190
L19380 31260
L19400 31350
L19430 31400
L19470 31450
L19550 31470
L19590 31470
L19660 31450
L19690 31420
L19690 31260
L19590 31260
" />
<path d="M19900 31470
L19900 30970
L20190 31470
L20190 30970
" />
<path d="M20430 31470
L20430 30970
L20550 30970
L20620 31000
L20660 31040
L20690 31090
L20710 31190
L20710 31260
L20690 31350
L20660 31400
L20620 31450
L20550 31470
L20430 31470
" />
</g>
</g>
<g style="fill:#008484; fill-opacity:0.0; 
stroke:#008484; stroke-width:0; stroke-opacity:1; 
stroke-linecap:round; stroke-linejoin:round;">
<g >
</g>
<g style="fill:#840000; fill-opacity:0.0; 
stroke:#840000; stroke-width:0; stroke-opacity:1; 
stroke-linecap:round; stroke-linejoin:round;">
</g>
<g style="fill:#840000; fill-opacity:0.0; 
stroke:#840000; stroke-width:60; stroke-opacity:1; 
stroke-linecap:round; stroke-linejoin:round;">
<path style="fill:#840000; fill-opacity:0.0; 
stroke:#840000; stroke-width:60; stroke-opacity:1; 
stroke-linecap:round; stroke-linejoin:round;fill:none"
d="M 35700,19500
36000,19000
" /> 
<path style="fill:#840000; fill-opacity:0.0; 
stroke:#840000; stroke-width:60; stroke-opacity:1; 
stroke-linecap:round; stroke-linejoin:round;fill:none"
d="M 36000,20000
36000,19000
" /> 
<path style="fill:#840000; fill-opacity:0.0; 
stroke:#840000; stroke-width:60; stroke-opacity:1; 
stroke-linecap:round; stroke-linejoin:round;fill:none"
d="M 36000,19000
36300,19500
" /> 
</g>
<g style="fill:#008484; fill-opacity:0.0; 
stroke:#008484; stroke-width:60; stroke-opacity:1; 
stroke-linecap:round; stroke-linejoin:round;">
<text x="36150" y="18540"
textLength="1580" font-size="660" lengthAdjust="spacingAndGlyphs"
text-anchor="middle" opacity="0">+5V</text>
<path d="M35500 18320
L35880 18320
" />
<path d="M35690 18510
L35690 18130
" />
<path d="M36360 18010
L36120 18010
L36100 18250
L36120 18230
L36170 18200
L36290 18200
L36340 18230
L36360 18250
L36380 18300
L36380 18420
L36360 18460
L36340 18490
L36290 18510
L36170 18510
L36120 18490
L36100 18460
" />
<path d="M36530 18010
L36690 18510
L36860 18010
" />
</g>
</g>
<g style="fill:#008484; fill-opacity:0.0; 
stroke:#008484; stroke-width:0; stroke-opacity:1; 
stroke-linecap:round; stroke-linejoin:round;">
<g >
</g>
<g style="fill:#840000; fill-opacity:0.0; 
stroke:#840000; stroke-width:0; stroke-opacity:1; 
stroke-linecap:round; stroke-linejoin:round;">
</g>
<g style="fill:#840000; fill-opacity:0.0; 
stroke:#840000; stroke-width:60; stroke-opacity:1; 
stroke-linecap:round; stroke-linejoin:round;">
<path style="fill:#840000; fill-opacity:0.0; 
stroke:#840000; stroke-width:60; stroke-opacity:1; 
stroke-linecap:round; stroke-linejoin:round;fill:none"
d="M 26700,20500
27000,20000
" /> 
<path style="fill:#840000; fill-opacity:0.0; 
stroke:#840000; stroke-width:60; stroke-opacity:1; 
stroke-linecap:round; stroke-linejoin:round;fill:none"
d="M 27000,21000
27000,20000
" /> 
<path style="fill:#840000; fill-opacity:0.0; 
stroke:#840000; stroke-width:60; stroke-opacity:1; 
stroke-linecap:round; stroke-linejoin:round;fill:none"
d="M 27000,20000
27300,20500
" /> 
</g>
<g style="fill:#008484; fill-opacity:0.0; 
stroke:#008484; stroke-width:60; stroke-opacity:1; 
stroke-linecap:round; stroke-linejoin:round;">
<text x="27000" y="19540"
textLength="2300" font-size="660" lengthAdjust="spacingAndGlyphs"
text-anchor="middle" opacity="0">+3,3V</text>
<path d="M26000 19320
L26380 19320
" />
<path d="M26190 19510
L26190 19130
" />
<path d="M26570 19010
L26880 19010
L26710 19200
L26780 19200
L26830 19230
L26850 19250
L26880 19300
L26880 19420
L26850 19460
L26830 19490
L26780 19510
L26640 19510
L26590 19490
L26570 19460
" />
<path d="M27110 19490
L27110 19510
L27090 19560
L27070 19580
" />
<path d="M27280 19010
L27590 19010
L27420 19200
L27500 19200
L27540 19230
L27570 19250
L27590 19300
L27590 19420
L27570 19460
L27540 19490
L27500 19510
L27350 19510
L27300 19490
L27280 19460
" />
<path d="M27730 19010
L27900 19510
L28070 19010
" />
</g>
</g>
<g style="fill:#008484; fill-opacity:0.0; 
stroke:#008484; stroke-width:0; stroke-opacity:1; 
stroke-linecap:round; stroke-linejoin:round;">
<g >
</g>
<g style="fill:#840000; fill-opacity:0.0; 
stroke:#840000; stroke-width:0; stroke-opacity:1; 
stroke-linecap:round; stroke-linejoin:round;">
</g>
<g style="fill:#840000; fill-opacity:0.0; 
stroke:#840000; stroke-width:60; stroke-opacity:1; 
stroke-linecap:round; stroke-linejoin:round;">
<path style="fill:#840000; fill-opacity:0.0; 
stroke:#840000; stroke-width:60; stroke-opacity:1; 
stroke-linecap:round; stroke-linejoin:round;fill:none"
d="M 23500,21000
23500,20500
23100,20250
23500,20000
23900,20250
23500,20500
" /> 
<path d="M23500 21000
L23500 21000
" />
</g>
<g style="fill:#008484; fill-opacity:0.0; 
stroke:#008484; stroke-width:60; stroke-opacity:1; 
stroke-linecap:round; stroke-linejoin:round;">
<text x="23500" y="19540"
textLength="3770" font-size="660" lengthAdjust="spacingAndGlyphs"
text-anchor="middle" opacity="0">PWR_FLAG</text>
<path d="M21760 19510
L21760 19010
L21950 19010
L22000 19040
L22020 19060
L22040 19110
L22040 19180
L22020 19230
L22000 19250
L21950 19270
L21760 19270
" />
<path d="M22210 19010
L22330 19510
L22420 19150
L22520 19510
L22640 19010
" />
<path d="M23110 19510
L22950 19270
" />
<path d="M22830 19510
L22830 19010
L23020 19010
L23070 19040
L23090 19060
L23110 19110
L23110 19180
L23090 19230
L23070 19250
L23020 19270
L22830 19270
" />
<path d="M23210 19560
L23590 19560
" />
<path d="M23880 19250
L23710 19250
" />
<path d="M23710 19510
L23710 19010
L23950 19010
" />
<path d="M24380 19510
L24140 19510
L24140 19010
" />
<path d="M24520 19370
L24760 19370
" />
<path d="M24470 19510
L24640 19010
L24800 19510
" />
<path d="M25230 19040
L25190 19010
L25110 19010
L25040 19040
L25000 19080
L24970 19130
L24950 19230
L24950 19300
L24970 19390
L25000 19440
L25040 19490
L25110 19510
L25160 19510
L25230 19490
L25260 19460
L25260 19300
L25160 19300
" />
</g>
</g>
<g style="fill:#008484; fill-opacity:0.0; 
stroke:#008484; stroke-width:0; stroke-opacity:1; 
stroke-linecap:round; stroke-linejoin:round;">
<g >
</g>
<g style="fill:#840000; fill-opacity:0.0; 
stroke:#840000; stroke-width:0; stroke-opacity:1; 
stroke-linecap:round; stroke-linejoin:round;">
</g>
<g style="fill:#840000; fill-opacity:0.0; 
stroke:#840000; stroke-width:60; stroke-opacity:1; 
stroke-linecap:round; stroke-linejoin:round;">
<path style="fill:#840000; fill-opacity:0.0; 
stroke:#840000; stroke-width:60; stroke-opacity:1; 
stroke-linecap:round; stroke-linejoin:round;fill:none"
d="M 19700,23000
20000,22500
" /> 
<path style="fill:#840000; fill-opacity:0.0; 
stroke:#840000; stroke-width:60; stroke-opacity:1; 
stroke-linecap:round; stroke-linejoin:round;fill:none"
d="M 20000,23500
20000,22500
" /> 
<path style="fill:#840000; fill-opacity:0.0; 
stroke:#840000; stroke-width:60; stroke-opacity:1; 
stroke-linecap:round; stroke-linejoin:round;fill:none"
d="M 20000,22500
20300,23000
" /> 
</g>
<g style="fill:#008484; fill-opacity:0.0; 
stroke:#008484; stroke-width:60; stroke-opacity:1; 
stroke-linecap:round; stroke-linejoin:round;">
<text x="20000" y="22040"
textLength="2300" font-size="660" lengthAdjust="spacingAndGlyphs"
text-anchor="middle" opacity="0">+3,3V</text>
<path d="M19000 21820
L19380 21820
" />
<path d="M19190 22010
L19190 21630
" />
<path d="M19570 21510
L19880 21510
L19710 21700
L19780 21700
L19830 21730
L19850 21750
L19880 21800
L19880 21920
L19850 21960
L19830 21990
L19780 22010
L19640 22010
L19590 21990
L19570 21960
" />
<path d="M20110 21990
L20110 22010
L20090 22060
L20070 22080
" />
<path d="M20280 21510
L20590 21510
L20420 21700
L20500 21700
L20540 21730
L20570 21750
L20590 21800
L20590 21920
L20570 21960
L20540 21990
L20500 22010
L20350 22010
L20300 21990
L20280 21960
" />
<path d="M20730 21510
L20900 22010
L21070 21510
" />
</g>
</g>
<g style="fill:#008484; fill-opacity:0.0; 
stroke:#008484; stroke-width:0; stroke-opacity:1; 
stroke-linecap:round; stroke-linejoin:round;">
<g >
</g>
<g style="fill:#840000; fill-opacity:0.0; 
stroke:#840000; stroke-width:0; stroke-opacity:1; 
stroke-linecap:round; stroke-linejoin:round;">
</g>
<g style="fill:#840000; fill-opacity:0.0; 
stroke:#840000; stroke-width:60; stroke-opacity:1; 
stroke-linecap:round; stroke-linejoin:round;">
<path style="fill:#840000; fill-opacity:0.0; 
stroke:#840000; stroke-width:60; stroke-opacity:1; 
stroke-linecap:round; stroke-linejoin:round;fill:none"
d="M 39000,20000
39000,19500
38600,19250
39000,19000
39400,19250
39000,19500
" /> 
<path d="M39000 20000
L39000 20000
" />
</g>
<g style="fill:#008484; fill-opacity:0.0; 
stroke:#008484; stroke-width:60; stroke-opacity:1; 
stroke-linecap:round; stroke-linejoin:round;">
<text x="39000" y="18540"
textLength="3770" font-size="660" lengthAdjust="spacingAndGlyphs"
text-anchor="middle" opacity="0">PWR_FLAG</text>
<path d="M37260 18510
L37260 18010
L37450 18010
L37500 18040
L37520 18060
L37540 18110
L37540 18180
L37520 18230
L37500 18250
L37450 18270
L37260 18270
" />
<path d="M37710 18010
L37830 18510
L37920 18150
L38020 18510
L38140 18010
" />
<path d="M38610 18510
L38450 18270
" />
<path d="M38330 18510
L38330 18010
L38520 18010
L38570 18040
L38590 18060
L38610 18110
L38610 18180
L38590 18230
L38570 18250
L38520 18270
L38330 18270
" />
<path d="M38710 18560
L39090 18560
" />
<path d="M39380 18250
L39210 18250
" />
<path d="M39210 18510
L39210 18010
L39450 18010
" />
<path d="M39880 18510
L39640 18510
L39640 18010
" />
<path d="M40020 18370
L40260 18370
" />
<path d="M39970 18510
L40140 18010
L40300 18510
" />
<path d="M40730 18040
L40690 18010
L40610 18010
L40540 18040
L40500 18080
L40470 18130
L40450 18230
L40450 18300
L40470 18390
L40500 18440
L40540 18490
L40610 18510
L40660 18510
L40730 18490
L40760 18460
L40760 18300
L40660 18300
" />
</g>
</g>
<g style="fill:#008484; fill-opacity:0.0; 
stroke:#008484; stroke-width:0; stroke-opacity:1; 
stroke-linecap:round; stroke-linejoin:round;">
<g >
</g>
<g style="fill:#840000; fill-opacity:0.0; 
stroke:#840000; stroke-width:0; stroke-opacity:1; 
stroke-linecap:round; stroke-linejoin:round;">
</g>
<g style="fill:#840000; fill-opacity:0.0; 
stroke:#840000; stroke-width:180; stroke-opacity:1; 
stroke-linecap:round; stroke-linejoin:round;">
<circle cx="17100" cy="29000" r="100" /> 
<circle cx="17100" cy="25000" r="100" /> 
<circle cx="17100" cy="24000" r="110" /> 
<circle cx="17100" cy="28000" r="100" /> 
<circle cx="17100" cy="27000" r="100" /> 
<circle cx="17100" cy="26000" r="100" /> 
</g>
<g style="fill:#840000; fill-opacity:0.0; 
stroke:#840000; stroke-width:100; stroke-opacity:1; 
stroke-linecap:round; stroke-linejoin:round;">
<rect x="16750" y="23500" width="750" height="6000" rx="0" />
</g>
<g style="fill:#840000; fill-opacity:0.0; 
stroke:#840000; stroke-width:60; stroke-opacity:1; 
stroke-linecap:round; stroke-linejoin:round;">
<path style="fill:#840000; fill-opacity:0.0; 
stroke:#840000; stroke-width:60; stroke-opacity:1; 
stroke-linecap:round; stroke-linejoin:round;fill:none"
d="M 17100,29000
17500,29000
" /> 
<path style="fill:#840000; fill-opacity:0.0; 
stroke:#840000; stroke-width:60; stroke-opacity:1; 
stroke-linecap:round; stroke-linejoin:round;fill:none"
d="M 17100,25000
17450,25000
" /> 
<path style="fill:#840000; fill-opacity:0.0; 
stroke:#840000; stroke-width:60; stroke-opacity:1; 
stroke-linecap:round; stroke-linejoin:round;fill:none"
d="M 17100,24000
17500,24000
" /> 
<path style="fill:#840000; fill-opacity:0.0; 
stroke:#840000; stroke-width:60; stroke-opacity:1; 
stroke-linecap:round; stroke-linejoin:round;fill:none"
d="M 17500,28000
17100,28000
" /> 
<path style="fill:#840000; fill-opacity:0.0; 
stroke:#840000; stroke-width:60; stroke-opacity:1; 
stroke-linecap:round; stroke-linejoin:round;fill:none"
d="M 17500,27000
17100,27000
" /> 
<path style="fill:#840000; fill-opacity:0.0; 
stroke:#840000; stroke-width:60; stroke-opacity:1; 
stroke-linecap:round; stroke-linejoin:round;fill:none"
d="M 17500,26000
17100,26000
" /> 
<path d="M17500 29000
L18500 29000
" />
<text x="18000" y="28900"
textLength="540" font-size="660" lengthAdjust="spacingAndGlyphs"
text-anchor="middle" opacity="0">1</text>
<path d="M18140 28870
L17850 28870
" />
<path d="M18000 28870
L18000 28370
L17950 28440
L17900 28490
L17850 28510
" />
<path d="M17500 28000
L18500 28000
" />
<text x="18000" y="27900"
textLength="540" font-size="660" lengthAdjust="spacingAndGlyphs"
text-anchor="middle" opacity="0">2</text>
<path d="M17850 27420
L17880 27400
L17920 27370
L18040 27370
L18090 27400
L18110 27420
L18140 27470
L18140 27510
L18110 27590
L17830 27870
L18140 27870
" />
<path d="M17500 27000
L18500 27000
" />
<text x="18000" y="26900"
textLength="540" font-size="660" lengthAdjust="spacingAndGlyphs"
text-anchor="middle" opacity="0">3</text>
<path d="M17830 26370
L18140 26370
L17970 26560
L18040 26560
L18090 26590
L18110 26610
L18140 26660
L18140 26780
L18110 26820
L18090 26850
L18040 26870
L17900 26870
L17850 26850
L17830 26820
" />
<path d="M17500 26000
L18500 26000
" />
<text x="18000" y="25900"
textLength="540" font-size="660" lengthAdjust="spacingAndGlyphs"
text-anchor="middle" opacity="0">4</text>
<path d="M18090 25540
L18090 25870
" />
<path d="M17970 25350
L17850 25700
L18160 25700
" />
<path d="M17500 25000
L18500 25000
" />
<text x="18000" y="24900"
textLength="540" font-size="660" lengthAdjust="spacingAndGlyphs"
text-anchor="middle" opacity="0">5</text>
<path d="M18110 24370
L17880 24370
L17850 24610
L17880 24590
L17920 24560
L18040 24560
L18090 24590
L18110 24610
L18140 24660
L18140 24780
L18110 24820
L18090 24850
L18040 24870
L17920 24870
L17880 24850
L17850 24820
" />
<path d="M17500 24000
L18500 24000
" />
<text x="18000" y="23900"
textLength="540" font-size="660" lengthAdjust="spacingAndGlyphs"
text-anchor="middle" opacity="0">6</text>
<path d="M18090 23370
L18000 23370
L17950 23400
L17920 23420
L17880 23490
L17850 23590
L17850 23780
L17880 23820
L17900 23850
L17950 23870
L18040 23870
L18090 23850
L18110 23820
L18140 23780
L18140 23660
L18110 23610
L18090 23590
L18040 23560
L17950 23560
L17900 23590
L17880 23610
L17850 23660
" />
</g>
<g style="fill:#008484; fill-opacity:0.0; 
stroke:#008484; stroke-width:60; stroke-opacity:1; 
stroke-linecap:round; stroke-linejoin:round;">
<text x="17500" y="23220"
textLength="1040" font-size="660" lengthAdjust="spacingAndGlyphs"
text-anchor="middle" opacity="0">P1</text>
<path d="M17130 23190
L17130 22690
L17320 22690
L17360 22720
L17390 22740
L17410 22790
L17410 22860
L17390 22910
L17360 22930
L17320 22950
L17130 22950
" />
<path d="M17890 23190
L17600 23190
" />
<path d="M17750 23190
L17750 22690
L17700 22760
L17650 22810
L17600 22830
" />
<g transform="rotate(-90 17020 32990)">
<text x="17020" y="33240"
textLength="6250" font-size="660" lengthAdjust="spacingAndGlyphs"
text-anchor="middle" opacity="0">1x6_pins_header</text>
</g>
<path d="M17240 35700
L17240 35990
" />
<path d="M17240 35840
L16740 35840
L16810 35890
L16860 35940
L16880 35990
" />
<path d="M17240 35530
L16910 35270
" />
<path d="M16910 35530
L17240 35270
" />
<path d="M16740 34870
L16740 34960
L16770 35010
L16790 35030
L16860 35080
L16960 35100
L17150 35100
L17190 35080
L17220 35060
L17240 35010
L17240 34910
L17220 34870
L17190 34840
L17150 34820
L17030 34820
L16980 34840
L16960 34870
L16930 34910
L16930 35010
L16960 35060
L16980 35080
L17030 35100
" />
<path d="M17290 34720
L17290 34340
" />
<path d="M16910 34220
L17410 34220
" />
<path d="M16930 34220
L16910 34180
L16910 34080
L16930 34030
L16960 34010
L17000 33990
L17150 33990
L17190 34010
L17220 34030
L17240 34080
L17240 34180
L17220 34220
" />
<path d="M17240 33770
L16910 33770
" />
<path d="M16740 33770
L16770 33790
L16790 33770
L16770 33750
L16740 33770
L16790 33770
" />
<path d="M16910 33530
L17240 33530
" />
<path d="M16960 33530
L16930 33510
L16910 33460
L16910 33390
L16930 33340
L16980 33320
L17240 33320
" />
<path d="M17220 33100
L17240 33060
L17240 32960
L17220 32910
L17170 32890
L17150 32890
L17100 32910
L17070 32960
L17070 33030
L17050 33080
L17000 33100
L16980 33100
L16930 33080
L16910 33030
L16910 32960
L16930 32910
" />
<path d="M17290 32790
L17290 32410
" />
<path d="M17240 32290
L16740 32290
" />
<path d="M17240 32080
L16980 32080
L16930 32100
L16910 32150
L16910 32220
L16930 32270
L16960 32290
" />
<path d="M17220 31650
L17240 31700
L17240 31790
L17220 31840
L17170 31870
L16980 31870
L16930 31840
L16910 31790
L16910 31700
L16930 31650
L16980 31630
L17030 31630
L17070 31870
" />
<path d="M17240 31200
L16980 31200
L16930 31220
L16910 31270
L16910 31370
L16930 31410
" />
<path d="M17220 31200
L17240 31250
L17240 31370
L17220 31410
L17170 31440
L17120 31440
L17070 31410
L17050 31370
L17050 31250
L17030 31200
" />
<path d="M17240 30750
L16740 30750
" />
<path d="M17220 30750
L17240 30790
L17240 30890
L17220 30940
L17190 30960
L17150 30990
L17000 30990
L16960 30960
L16930 30940
L16910 30890
L16910 30790
L16930 30750
" />
<path d="M17220 30320
L17240 30370
L17240 30460
L17220 30510
L17170 30530
L16980 30530
L16930 30510
L16910 30460
L16910 30370
L16930 30320
L16980 30290
L17030 30290
L17070 30530
" />
<path d="M17240 30080
L16910 30080
" />
<path d="M17000 30080
L16960 30060
L16930 30030
L16910 29990
L16910 29940
" />
</g>
</g>
<g style="fill:#008484; fill-opacity:0.0; 
stroke:#008484; stroke-width:0; stroke-opacity:1; 
stroke-linecap:round; stroke-linejoin:round;">
<g >
</g>
<g style="fill:#840000; fill-opacity:0.0; 
stroke:#840000; stroke-width:0; stroke-opacity:1; 
stroke-linecap:round; stroke-linejoin:round;">
</g>
<g style="fill:#840000; fill-opacity:0.0; 
stroke:#840000; stroke-width:100; stroke-opacity:1; 
stroke-linecap:round; stroke-linejoin:round;">
<path style="fill:#840000; fill-opacity:0.0; 
stroke:#840000; stroke-width:100; stroke-opacity:1; 
stroke-linecap:round; stroke-linejoin:round;fill:none"
d="M 42000,25000
41000,25000
" /> 
</g>
<g style="fill:#840000; fill-opacity:0.0; 
stroke:#840000; stroke-width:60; stroke-opacity:1; 
stroke-linecap:round; stroke-linejoin:round;">
<path style="fill:#840000; fill-opacity:0.0; 
stroke:#840000; stroke-width:60; stroke-opacity:1; 
stroke-linecap:round; stroke-linejoin:round;fill:none"
d="M 41500,26000
41500,25000
" /> 
</g>
<g style="fill:#840000; fill-opacity:0.0; 
stroke:#840000; stroke-width:100; stroke-opacity:1; 
stroke-linecap:round; stroke-linejoin:round;">
<path style="fill:#840000; fill-opacity:0.0; 
stroke:#840000; stroke-width:100; stroke-opacity:1; 
stroke-linecap:round; stroke-linejoin:round;fill:none"
d="M 42000,26000
41000,26000
41500,25000
Z" /> 
</g>
<g style="fill:#840000; fill-opacity:0.0; 
stroke:#840000; stroke-width:60; stroke-opacity:1; 
stroke-linecap:round; stroke-linejoin:round;">
<path d="M41500 25000
L41500 24000
" />
<path d="M41500 26000
L41500 27000
" />
</g>
<g style="fill:#008484; fill-opacity:0.0; 
stroke:#008484; stroke-width:60; stroke-opacity:1; 
stroke-linecap:round; stroke-linejoin:round;">
<text x="42820" y="25310"
textLength="1040" font-size="660" lengthAdjust="spacingAndGlyphs"
text-anchor="middle" opacity="0">D2</text>
<path d="M42450 25280
L42450 24780
L42570 24780
L42640 24810
L42680 24850
L42710 24900
L42730 25000
L42730 25070
L42710 25160
L42680 25210
L42640 25260
L42570 25280
L42450 25280
" />
<path d="M42920 24830
L42950 24810
L42990 24780
L43110 24780
L43160 24810
L43180 24830
L43210 24880
L43210 24920
L43180 25000
L42900 25280
L43210 25280
" />
<text x="42580" y="26220"
textLength="560" font-size="660" lengthAdjust="spacingAndGlyphs"
text-anchor="middle" opacity="0">D</text>
<path d="M42440 26190
L42440 25690
L42560 25690
L42630 25720
L42680 25760
L42710 25810
L42730 25910
L42730 25980
L42710 26070
L42680 26120
L42630 26170
L42560 26190
L42440 26190
" />
</g>
</g>
<g style="fill:#008484; fill-opacity:0.0; 
stroke:#008484; stroke-width:0; stroke-opacity:1; 
stroke-linecap:round; stroke-linejoin:round;">
<g >
</g>
<g style="fill:#840000; fill-opacity:0.0; 
stroke:#840000; stroke-width:0; stroke-opacity:1; 
stroke-linecap:round; stroke-linejoin:round;">
</g>
<g style="fill:#840000; fill-opacity:0.0; 
stroke:#840000; stroke-width:100; stroke-opacity:1; 
stroke-linecap:round; stroke-linejoin:round;">
<circle cx="41000" cy="32500" r="1110" /> 
</g>
<g style="fill:#840000; fill-opacity:0.0; 
stroke:#840000; stroke-width:60; stroke-opacity:1; 
stroke-linecap:round; stroke-linejoin:round;">
<path style="fill:#840000; fill-opacity:0.0; 
stroke:#840000; stroke-width:60; stroke-opacity:1; 
stroke-linecap:round; stroke-linejoin:round;fill:none"
d="M 40750,32250
41500,31500
" /> 
<path style="fill:#840000; fill-opacity:0.0; 
stroke:#840000; stroke-width:60; stroke-opacity:1; 
stroke-linecap:round; stroke-linejoin:round;fill:none"
d="M 40750,32750
41500,33500
41500,33500
" /> 
</g>
<g style="fill:#840000; fill-opacity:0.0; 
stroke:#840000; stroke-width:200; stroke-opacity:1; 
stroke-linecap:round; stroke-linejoin:round;">
<path style="fill:#840000; fill-opacity:0.0; 
stroke:#840000; stroke-width:200; stroke-opacity:1; 
stroke-linecap:round; stroke-linejoin:round;fill:none"
d="M 40750,31750
40750,33250
40750,33250
" /> 
</g>
<g style="fill:#840000; fill-opacity:1.0; 
stroke:#840000; stroke-width:60; stroke-opacity:1; 
stroke-linecap:round; stroke-linejoin:round;">
<path style="fill:#840000; fill-opacity:1.0; 
stroke:#840000; stroke-width:60; stroke-opacity:1; 
stroke-linecap:round; stroke-linejoin:round;fill-rule:evenodd;"
d="M 41000,33200
41200,33000
41400,33400
41000,33200
Z" /> 
</g>
<g style="fill:#840000; fill-opacity:0.0; 
stroke:#840000; stroke-width:60; stroke-opacity:1; 
stroke-linecap:round; stroke-linejoin:round;">
<path d="M40750 32500
L38500 32500
" />
<text x="39620" y="33100"
textLength="540" font-size="660" lengthAdjust="spacingAndGlyphs"
text-anchor="middle" opacity="0">1</text>
<path d="M39760 33070
L39470 33070
" />
<path d="M39620 33070
L39620 32570
L39570 32640
L39520 32690
L39470 32710
" />
<path d="M41500 31500
L41500 30500
" />
<g transform="rotate(-90 41600 31000)">
<text x="41600" y="31500"
textLength="540" font-size="660" lengthAdjust="spacingAndGlyphs"
text-anchor="middle" opacity="0">2</text>
</g>
<path d="M41620 31140
L41600 31110
L41570 31070
L41570 30950
L41600 30900
L41620 30880
L41670 30850
L41710 30850
L41790 30880
L42070 31160
L42070 30850
" />
<path d="M41500 33500
L41500 34500
" />
<g transform="rotate(-90 41600 34000)">
<text x="41600" y="34500"
textLength="540" font-size="660" lengthAdjust="spacingAndGlyphs"
text-anchor="middle" opacity="0">3</text>
</g>
<path d="M41570 34160
L41570 33850
L41760 34020
L41760 33950
L41790 33900
L41810 33880
L41860 33850
L41980 33850
L42020 33880
L42050 33900
L42070 33950
L42070 34090
L42050 34140
L42020 34160
" />
</g>
<g style="fill:#008484; fill-opacity:0.0; 
stroke:#008484; stroke-width:60; stroke-opacity:1; 
stroke-linecap:round; stroke-linejoin:round;">
<text x="42930" y="32310"
textLength="1060" font-size="660" lengthAdjust="spacingAndGlyphs"
text-anchor="middle" opacity="0">Q1</text>
<path d="M42880 32330
L42830 32310
L42780 32260
L42710 32190
L42660 32160
L42620 32160
" />
<path d="M42640 32280
L42590 32260
L42540 32210
L42520 32110
L42520 31950
L42540 31850
L42590 31810
L42640 31780
L42730 31780
L42780 31810
L42830 31850
L42850 31950
L42850 32110
L42830 32210
L42780 32260
L42730 32280
L42640 32280
" />
<path d="M43330 32280
L43040 32280
" />
<path d="M43190 32280
L43190 31780
L43140 31850
L43090 31900
L43040 31920
" />
<text x="43860" y="33220"
textLength="2920" font-size="660" lengthAdjust="spacingAndGlyphs"
text-anchor="middle" opacity="0">BC547A</text>
<path d="M42710 32930
L42780 32950
L42810 32980
L42830 33020
L42830 33100
L42810 33140
L42780 33170
L42740 33190
L42550 33190
L42550 32690
L42710 32690
L42760 32720
L42780 32740
L42810 32790
L42810 32830
L42780 32880
L42760 32910
L42710 32930
L42550 32930
" />
<path d="M43330 33140
L43310 33170
L43240 33190
L43190 33190
L43120 33170
L43070 33120
L43050 33070
L43020 32980
L43020 32910
L43050 32810
L43070 32760
L43120 32720
L43190 32690
L43240 32690
L43310 32720
L43330 32740
" />
<path d="M43780 32690
L43550 32690
L43520 32930
L43550 32910
L43590 32880
L43710 32880
L43760 32910
L43780 32930
L43810 32980
L43810 33100
L43780 33140
L43760 33170
L43710 33190
L43590 33190
L43550 33170
L43520 33140
" />
<path d="M44240 32860
L44240 33190
" />
<path d="M44120 32670
L44000 33020
L44310 33020
" />
<path d="M44450 32690
L44780 32690
L44570 33190
" />
<path d="M44950 33050
L45190 33050
" />
<path d="M44900 33190
L45070 32690
L45240 33190
" />
</g>
</g>
<g style="fill:#008484; fill-opacity:0.0; 
stroke:#008484; stroke-width:0; stroke-opacity:1; 
stroke-linecap:round; stroke-linejoin:round;">
<g >
</g>
<g style="fill:#840000; fill-opacity:0.0; 
stroke:#840000; stroke-width:0; stroke-opacity:1; 
stroke-linecap:round; stroke-linejoin:round;">
</g>
<g style="fill:#840000; fill-opacity:0.0; 
stroke:#840000; stroke-width:180; stroke-opacity:1; 
stroke-linecap:round; stroke-linejoin:round;">
<circle cx="31000" cy="19600" r="100" /> 
<circle cx="32000" cy="19600" r="100" /> 
</g>
<g style="fill:#840000; fill-opacity:0.0; 
stroke:#840000; stroke-width:100; stroke-opacity:1; 
stroke-linecap:round; stroke-linejoin:round;">
<path style="fill:#840000; fill-opacity:0.0; 
stroke:#840000; stroke-width:100; stroke-opacity:1; 
stroke-linecap:round; stroke-linejoin:round;fill:none"
d="M 30500,20000
30500,19200
" /> 
<path style="fill:#840000; fill-opacity:0.0; 
stroke:#840000; stroke-width:100; stroke-opacity:1; 
stroke-linecap:round; stroke-linejoin:round;fill:none"
d="M 30500,20000
32500,20000
" /> 
</g>
<g style="fill:#840000; fill-opacity:0.0; 
stroke:#840000; stroke-width:60; stroke-opacity:1; 
stroke-linecap:round; stroke-linejoin:round;">
<path style="fill:#840000; fill-opacity:0.0; 
stroke:#840000; stroke-width:60; stroke-opacity:1; 
stroke-linecap:round; stroke-linejoin:round;fill:none"
d="M 31000,20000
31000,19600
" /> 
<path style="fill:#840000; fill-opacity:0.0; 
stroke:#840000; stroke-width:60; stroke-opacity:1; 
stroke-linecap:round; stroke-linejoin:round;fill:none"
d="M 32000,20000
32000,19600
" /> 
</g>
<g style="fill:#840000; fill-opacity:0.0; 
stroke:#840000; stroke-width:100; stroke-opacity:1; 
stroke-linecap:round; stroke-linejoin:round;">
<path style="fill:#840000; fill-opacity:0.0; 
stroke:#840000; stroke-width:100; stroke-opacity:1; 
stroke-linecap:round; stroke-linejoin:round;fill:none"
d="M 32500,20000
32500,19200
30500,19200
" /> 
</g>
<g style="fill:#840000; fill-opacity:0.0; 
stroke:#840000; stroke-width:60; stroke-opacity:1; 
stroke-linecap:round; stroke-linejoin:round;">
<path d="M31000 20000
L31000 21000
" />
<g transform="rotate(-90 30900 20500)">
<text x="30900" y="20500"
textLength="540" font-size="660" lengthAdjust="spacingAndGlyphs"
text-anchor="middle" opacity="0">1</text>
</g>
<path d="M30870 20350
L30870 20640
" />
<path d="M30870 20500
L30370 20500
L30440 20540
L30490 20590
L30510 20640
" />
<path d="M32000 20000
L32000 21000
" />
<g transform="rotate(-90 31900 20500)">
<text x="31900" y="20500"
textLength="540" font-size="660" lengthAdjust="spacingAndGlyphs"
text-anchor="middle" opacity="0">2</text>
</g>
<path d="M31420 20640
L31400 20610
L31370 20570
L31370 20450
L31400 20400
L31420 20380
L31470 20350
L31510 20350
L31590 20380
L31870 20660
L31870 20350
" />
</g>
<g style="fill:#008484; fill-opacity:0.0; 
stroke:#008484; stroke-width:60; stroke-opacity:1; 
stroke-linecap:round; stroke-linejoin:round;">
<text x="33400" y="19980"
textLength="1040" font-size="660" lengthAdjust="spacingAndGlyphs"
text-anchor="middle" opacity="0">P2</text>
<path d="M33030 19950
L33030 19450
L33220 19450
L33260 19480
L33290 19500
L33310 19550
L33310 19620
L33290 19670
L33260 19690
L33220 19710
L33030 19710
" />
<path d="M33500 19500
L33530 19480
L33570 19450
L33690 19450
L33740 19480
L33760 19500
L33790 19550
L33790 19590
L33760 19670
L33480 19950
L33790 19950
" />
<text x="30620" y="22770"
textLength="6250" font-size="660" lengthAdjust="spacingAndGlyphs"
text-anchor="middle" opacity="0">1x2_pins_header</text>
<path d="M27900 22740
L27620 22740
" />
<path d="M27760 22740
L27760 22240
L27710 22310
L27660 22360
L27620 22380
" />
<path d="M28070 22740
L28330 22410
" />
<path d="M28070 22410
L28330 22740
" />
<path d="M28500 22290
L28520 22270
L28570 22240
L28690 22240
L28730 22270
L28760 22290
L28780 22340
L28780 22380
L28760 22460
L28470 22740
L28780 22740
" />
<path d="M28880 22790
L29260 22790
" />
<path d="M29380 22410
L29380 22910
" />
<path d="M29380 22430
L29420 22410
L29520 22410
L29570 22430
L29590 22460
L29620 22500
L29620 22650
L29590 22690
L29570 22720
L29520 22740
L29420 22740
L29380 22720
" />
<path d="M29830 22740
L29830 22410
" />
<path d="M29830 22240
L29810 22270
L29830 22290
L29850 22270
L29830 22240
L29830 22290
" />
<path d="M30070 22410
L30070 22740
" />
<path d="M30070 22460
L30090 22430
L30140 22410
L30210 22410
L30260 22430
L30280 22480
L30280 22740
" />
<path d="M30500 22720
L30540 22740
L30640 22740
L30690 22720
L30710 22670
L30710 22650
L30690 22600
L30640 22570
L30570 22570
L30520 22550
L30500 22500
L30500 22480
L30520 22430
L30570 22410
L30640 22410
L30690 22430
" />
<path d="M30810 22790
L31190 22790
" />
<path d="M31310 22740
L31310 22240
" />
<path d="M31520 22740
L31520 22480
L31500 22430
L31450 22410
L31380 22410
L31330 22430
L31310 22460
" />
<path d="M31950 22720
L31900 22740
L31810 22740
L31760 22720
L31730 22670
L31730 22480
L31760 22430
L31810 22410
L31900 22410
L31950 22430
L31970 22480
L31970 22530
L31730 22570
" />
<path d="M32400 22740
L32400 22480
L32380 22430
L32330 22410
L32230 22410
L32190 22430
" />
<path d="M32400 22720
L32350 22740
L32230 22740
L32190 22720
L32160 22670
L32160 22620
L32190 22570
L32230 22550
L32350 22550
L32400 22530
" />
<path d="M32850 22740
L32850 22240
" />
<path d="M32850 22720
L32810 22740
L32710 22740
L32660 22720
L32640 22690
L32620 22650
L32620 22500
L32640 22460
L32660 22430
L32710 22410
L32810 22410
L32850 22430
" />
<path d="M33280 22720
L33230 22740
L33140 22740
L33090 22720
L33070 22670
L33070 22480
L33090 22430
L33140 22410
L33230 22410
L33280 22430
L33310 22480
L33310 22530
L33070 22570
" />
<path d="M33520 22740
L33520 22410
" />
<path d="M33520 22500
L33540 22460
L33570 22430
L33620 22410
L33660 22410
" />
</g>
</g>
<g style="fill:#008484; fill-opacity:0.0; 
stroke:#008484; stroke-width:0; stroke-opacity:1; 
stroke-linecap:round; stroke-linejoin:round;">
<g >
</g>
<g style="fill:#840000; fill-opacity:0.0; 
stroke:#840000; stroke-width:0; stroke-opacity:1; 
stroke-linecap:round; stroke-linejoin:round;">
</g>
<g style="fill:#840000; fill-opacity:0.0; 
stroke:#840000; stroke-width:100; stroke-opacity:1; 
stroke-linecap:round; stroke-linejoin:round;">
<rect x="35000" y="32100" width="2000" height="800" rx="0" />
</g>
<g style="fill:#840000; fill-opacity:0.0; 
stroke:#840000; stroke-width:60; stroke-opacity:1; 
stroke-linecap:round; stroke-linejoin:round;">
<path d="M37000 32500
L37500 32500
" />
<path d="M35000 32500
L34500 32500
" />
</g>
<g style="fill:#008484; fill-opacity:0.0; 
stroke:#008484; stroke-width:60; stroke-opacity:1; 
stroke-linecap:round; stroke-linejoin:round;">
<text x="36000" y="31770"
textLength="1040" font-size="660" lengthAdjust="spacingAndGlyphs"
text-anchor="middle" opacity="0">R2</text>
<path d="M35910 31740
L35750 31500
" />
<path d="M35630 31740
L35630 31240
L35820 31240
L35860 31270
L35890 31290
L35910 31340
L35910 31410
L35890 31460
L35860 31480
L35820 31500
L35630 31500
" />
<path d="M36100 31290
L36130 31270
L36170 31240
L36290 31240
L36340 31270
L36360 31290
L36390 31340
L36390 31380
L36360 31460
L36080 31740
L36390 31740
" />
<text x="36000" y="33770"
textLength="1490" font-size="660" lengthAdjust="spacingAndGlyphs"
text-anchor="middle" opacity="0">510</text>
<path d="M35640 33240
L35400 33240
L35380 33480
L35400 33460
L35450 33430
L35570 33430
L35610 33460
L35640 33480
L35660 33530
L35660 33650
L35640 33690
L35610 33720
L35570 33740
L35450 33740
L35400 33720
L35380 33690
" />
<path d="M36140 33740
L35850 33740
" />
<path d="M36000 33740
L36000 33240
L35950 33310
L35900 33360
L35850 33380
" />
<path d="M36450 33240
L36500 33240
L36540 33270
L36570 33290
L36590 33340
L36610 33430
L36610 33550
L36590 33650
L36570 33690
L36540 33720
L36500 33740
L36450 33740
L36400 33720
L36380 33690
L36350 33650
L36330 33550
L36330 33430
L36350 33340
L36380 33290
L36400 33270
L36450 33240
" />
</g>
</g>
<g style="fill:#008484; fill-opacity:0.0; 
stroke:#008484; stroke-width:0; stroke-opacity:1; 
stroke-linecap:round; stroke-linejoin:round;">
<g >
</g>
<g style="fill:#840000; fill-opacity:0.0; 
stroke:#840000; stroke-width:0; stroke-opacity:1; 
stroke-linecap:round; stroke-linejoin:round;">
</g>
<g style="fill:#840000; fill-opacity:0.0; 
stroke:#840000; stroke-width:100; stroke-opacity:1; 
stroke-linecap:round; stroke-linejoin:round;">
<rect x="26600" y="24500" width="800" height="2000" rx="0" />
</g>
<g style="fill:#840000; fill-opacity:0.0; 
stroke:#840000; stroke-width:60; stroke-opacity:1; 
stroke-linecap:round; stroke-linejoin:round;">
<path d="M27000 24500
L27000 24000
" />
<path d="M27000 26500
L27000 27000
" />
</g>
<g style="fill:#008484; fill-opacity:0.0; 
stroke:#008484; stroke-width:60; stroke-opacity:1; 
stroke-linecap:round; stroke-linejoin:round;">
<text x="28220" y="25310"
textLength="1040" font-size="660" lengthAdjust="spacingAndGlyphs"
text-anchor="middle" opacity="0">R1</text>
<path d="M28130 25280
L27970 25040
" />
<path d="M27850 25280
L27850 24780
L28040 24780
L28080 24810
L28110 24830
L28130 24880
L28130 24950
L28110 25000
L28080 25020
L28040 25040
L27850 25040
" />
<path d="M28610 25280
L28320 25280
" />
<path d="M28470 25280
L28470 24780
L28420 24850
L28370 24900
L28320 24920
" />
<text x="28170" y="26220"
textLength="940" font-size="660" lengthAdjust="spacingAndGlyphs"
text-anchor="middle" opacity="0">1k</text>
<path d="M28110 26190
L27820 26190
" />
<path d="M27960 26190
L27960 25690
L27920 25760
L27870 25810
L27820 25830
" />
<path d="M28320 26190
L28320 25690
" />
<path d="M28370 26000
L28510 26190
" />
<path d="M28510 25860
L28320 26050
" />
</g>
</g>
<g style="fill:#008484; fill-opacity:0.0; 
stroke:#008484; stroke-width:60; stroke-opacity:1; 
stroke-linecap:round; stroke-linejoin:round;">
</g>
<g style="fill:#008400; fill-opacity:0.0; 
stroke:#008400; stroke-width:60; stroke-opacity:1; 
stroke-linecap:round; stroke-linejoin:round;">
<path d="M18500 25000
L20000 25000
" />
<path d="M55000 24500
L57000 24500
" />
<path d="M53000 26500
L57000 26500
" />
<path d="M50500 22500
L50500 22000
" />
<path d="M50500 22000
L53000 22000
" />
<path d="M53000 22000
L53000 26500
" />
<path d="M41500 35000
L41500 34500
" />
<path d="M18500 29000
L20000 29000
" />
<path d="M18500 28000
L20000 28000
" />
<path d="M18500 27000
L20000 27000
" />
<path d="M18500 26000
L20000 26000
" />
<path d="M36000 20000
L36000 22000
" />
<path d="M20000 29500
L20000 29000
" />
<path d="M23500 32500
L22500 32500
" />
<path d="M27000 22000
L27000 21000
" />
<path d="M39000 22000
L41500 22000
" />
<path d="M39000 20000
L39000 22000
" />
<path d="M18500 24000
L20000 24000
" />
<path d="M20000 23500
L20000 24000
" />
<path d="M27000 22000
L23500 22000
" />
<path d="M23500 21000
L23500 22000
" />
<path d="M36000 22000
L39000 22000
" />
<path d="M41500 29000
L41500 27000
" />
<path d="M34500 32500
L33500 32500
" />
<path d="M33500 30500
L34000 30500
" />
<path d="M37500 32500
L38500 32500
" />
<path d="M34000 30500
L34000 22000
" />
<path d="M45500 22000
L45500 22500
" />
<path d="M34000 22000
L36000 22000
" />
<path d="M41500 22000
L45500 22000
" />
<path d="M55000 21000
L55000 24500
" />
<path d="M27500 30500
L27000 30500
" />
<path d="M27000 30500
L27000 27000
" />
<path d="M32000 21000
L32000 22000
" />
<path d="M41500 24000
L41500 22000
" />
<path d="M41500 30500
L41500 29000
" />
<path d="M45500 29000
L41500 29000
" />
<path d="M32000 22000
L34000 22000
" />
<path d="M45500 28500
L45500 29000
" />
<path d="M27000 24000
L27000 22000
" />
<path d="M27000 22000
L31000 22000
" />
<path d="M31000 21000
L31000 22000
" />
<path d="M26500 32500
L27500 32500
" />
<path d="M49500 28500
L49500 29000
" />
<path d="M49500 29000
L55000 29000
" />
<path d="M55000 29000
L55000 25500
" />
<path d="M55000 25500
L57000 25500
" />
<path d="M48500 22500
L48500 21000
" />
<path d="M48500 21000
L55000 21000
" />
</g>
<g style="fill:#000000; fill-opacity:0.0; 
stroke:#000000; stroke-width:60; stroke-opacity:1; 
stroke-linecap:round; stroke-linejoin:round;">
<text x="22500" y="32400"
textLength="1230" font-size="660" lengthAdjust="spacingAndGlyphs"
text-anchor="end" opacity="0">in1</text>
<path d="M21420 32370
L21420 32040
" />
<path d="M21420 31870
L21390 31900
L21420 31920
L21440 31900
L21420 31870
L21420 31920
" />
<path d="M21660 32040
L21660 32370
" />
<path d="M21660 32090
L21680 32060
L21730 32040
L21800 32040
L21850 32060
L21870 32110
L21870 32370
" />
<path d="M22370 32370
L22080 32370
" />
<path d="M22230 32370
L22230 31870
L22180 31940
L22130 31990
L22080 32010
" />
<text x="20000" y="27900"
textLength="1230" font-size="660" lengthAdjust="spacingAndGlyphs"
text-anchor="start" opacity="0">in4</text>
<path d="M20140 27870
L20140 27540
" />
<path d="M20140 27370
L20120 27400
L20140 27420
L20170 27400
L20140 27370
L20140 27420
" />
<path d="M20380 27540
L20380 27870
" />
<path d="M20380 27590
L20410 27560
L20450 27540
L20530 27540
L20570 27560
L20600 27610
L20600 27870
" />
<path d="M21050 27540
L21050 27870
" />
<path d="M20930 27350
L20810 27700
L21120 27700
" />
<text x="20000" y="26900"
textLength="1230" font-size="660" lengthAdjust="spacingAndGlyphs"
text-anchor="start" opacity="0">in3</text>
<path d="M20140 26870
L20140 26540
" />
<path d="M20140 26370
L20120 26400
L20140 26420
L20170 26400
L20140 26370
L20140 26420
" />
<path d="M20380 26540
L20380 26870
" />
<path d="M20380 26590
L20410 26560
L20450 26540
L20530 26540
L20570 26560
L20600 26610
L20600 26870
" />
<path d="M20790 26370
L21100 26370
L20930 26560
L21000 26560
L21050 26590
L21070 26610
L21100 26660
L21100 26780
L21070 26820
L21050 26850
L21000 26870
L20860 26870
L20810 26850
L20790 26820
" />
<text x="20000" y="25900"
textLength="1230" font-size="660" lengthAdjust="spacingAndGlyphs"
text-anchor="start" opacity="0">in2</text>
<path d="M20140 25870
L20140 25540
" />
<path d="M20140 25370
L20120 25400
L20140 25420
L20170 25400
L20140 25370
L20140 25420
" />
<path d="M20380 25540
L20380 25870
" />
<path d="M20380 25590
L20410 25560
L20450 25540
L20530 25540
L20570 25560
L20600 25610
L20600 25870
" />
<path d="M20810 25420
L20830 25400
L20880 25370
L21000 25370
L21050 25400
L21070 25420
L21100 25470
L21100 25510
L21070 25590
L20790 25870
L21100 25870
" />
<text x="20000" y="24900"
textLength="1230" font-size="660" lengthAdjust="spacingAndGlyphs"
text-anchor="start" opacity="0">in1</text>
<path d="M20140 24870
L20140 24540
" />
<path d="M20140 24370
L20120 24400
L20140 24420
L20170 24400
L20140 24370
L20140 24420
" />
<path d="M20380 24540
L20380 24870
" />
<path d="M20380 24590
L20410 24560
L20450 24540
L20530 24540
L20570 24560
L20600 24610
L20600 24870
" />
<path d="M21100 24870
L20810 24870
" />
<path d="M20950 24870
L20950 24370
L20910 24440
L20860 24490
L20810 24510
" />
</g>
<g style="fill:#0000C2; fill-opacity:0.0; 
stroke:#0000C2; stroke-width:60; stroke-opacity:1; 
stroke-linecap:round; stroke-linejoin:round;">
<text x="17000" y="18780"
textLength="2770" font-size="660" lengthAdjust="spacingAndGlyphs"
text-anchor="start" opacity="0">Vstupn</text>
<path d="M17070 18250
L17240 18750
L17410 18250
" />
<path d="M17550 18730
L17600 18750
L17690 18750
L17740 18730
L17760 18680
L17760 18660
L17740 18610
L17690 18580
L17620 18580
L17570 18560
L17550 18510
L17550 18490
L17570 18440
L17620 18420
L17690 18420
L17740 18440
" />
<path d="M17910 18420
L18100 18420
" />
<path d="M17980 18250
L17980 18680
L18000 18730
L18050 18750
L18100 18750
" />
<path d="M18480 18420
L18480 18750
" />
<path d="M18260 18420
L18260 18680
L18290 18730
L18330 18750
L18410 18750
L18450 18730
L18480 18700
" />
<path d="M18720 18420
L18720 18920
" />
<path d="M18720 18440
L18760 18420
L18860 18420
L18910 18440
L18930 18470
L18950 18510
L18950 18660
L18930 18700
L18910 18730
L18860 18750
L18760 18750
L18720 18730
" />
<path d="M19170 18420
L19170 18750
" />
<path d="M19170 18470
L19190 18440
L19240 18420
L19310 18420
L19360 18440
L19380 18490
L19380 18750
" />
<path d="M19620 18750
L19620 18420
" />
<path d="M19670 18230
L19600 18300
" />
<text x="17000" y="19590"
textLength="1960" font-size="660" lengthAdjust="spacingAndGlyphs"
text-anchor="start" opacity="0">dic</text>
<path d="M17140 19560
L17140 19230
" />
<path d="M17140 19320
L17170 19280
L17190 19250
L17240 19230
L17290 19230
" />
<path d="M17100 19040
L17190 19110
L17290 19040
" />
<path d="M17450 19560
L17450 19230
" />
<path d="M17500 19040
L17430 19110
" />
<path d="M17910 19560
L17910 19060
" />
<path d="M17910 19540
L17860 19560
L17760 19560
L17720 19540
L17690 19510
L17670 19470
L17670 19320
L17690 19280
L17720 19250
L17760 19230
L17860 19230
L17910 19250
" />
<path d="M18140 19560
L18140 19230
" />
<path d="M18140 19060
L18120 19090
L18140 19110
L18170 19090
L18140 19060
L18140 19110
" />
<path d="M18600 19540
L18550 19560
L18450 19560
L18410 19540
L18380 19510
L18360 19470
L18360 19320
L18380 19280
L18410 19250
L18450 19230
L18550 19230
L18600 19250
" />
<path d="M18810 19560
L18810 19230
" />
<path d="M18860 19040
L18790 19110
" />
<text x="17000" y="20400"
textLength="2320" font-size="660" lengthAdjust="spacingAndGlyphs"
text-anchor="start" opacity="0">signl</text>
<path d="M17120 20350
L17170 20370
L17260 20370
L17310 20350
L17330 20300
L17330 20280
L17310 20230
L17260 20200
L17190 20200
L17140 20180
L17120 20130
L17120 20110
L17140 20060
L17190 20040
L17260 20040
L17310 20060
" />
<path d="M17550 20370
L17550 20040
" />
<path d="M17550 19870
L17530 19900
L17550 19920
L17570 19900
L17550 19870
L17550 19920
" />
<path d="M18000 20040
L18000 20440
L17980 20490
L17950 20510
L17910 20540
L17830 20540
L17790 20510
" />
<path d="M18000 20350
L17950 20370
L17860 20370
L17810 20350
L17790 20320
L17760 20280
L17760 20130
L17790 20090
L17810 20060
L17860 20040
L17950 20040
L18000 20060
" />
<path d="M18240 20040
L18240 20370
" />
<path d="M18240 20090
L18260 20060
L18310 20040
L18380 20040
L18430 20060
L18450 20110
L18450 20370
" />
<path d="M18910 20370
L18910 20110
L18880 20060
L18830 20040
L18740 20040
L18690 20060
" />
<path d="M18910 20350
L18860 20370
L18740 20370
L18690 20350
L18670 20300
L18670 20250
L18690 20200
L18740 20180
L18860 20180
L18910 20160
" />
<path d="M18830 19850
L18760 19920
" />
<path d="M19220 20370
L19170 20350
L19140 20300
L19140 19870
" />
<text x="58000" y="21900"
textLength="2110" font-size="660" lengthAdjust="spacingAndGlyphs"
text-anchor="start" opacity="0">Zt</text>
<path d="M58100 21370
L58430 21370
L58100 21870
L58430 21870
" />
<path d="M58830 21870
L58830 21610
L58810 21560
L58760 21540
L58670 21540
L58620 21560
" />
<path d="M58830 21850
L58790 21870
L58670 21870
L58620 21850
L58600 21800
L58600 21750
L58620 21700
L58670 21680
L58790 21680
L58830 21660
" />
<path d="M58760 21350
L58690 21420
" />
<path d="M59000 21540
L59190 21540
" />
<path d="M59070 21370
L59070 21800
L59100 21850
L59140 21870
L59190 21870
" />
<path d="M59550 21850
L59500 21870
L59410 21870
L59360 21850
L59330 21800
L59330 21610
L59360 21560
L59410 21540
L59500 21540
L59550 21560
L59570 21610
L59570 21660
L59330 21700
" />
<path d="M59360 21350
L59450 21420
L59550 21350
" />
<path d="M59740 21540
L60000 21540
L59740 21870
L60000 21870
" />
<path d="M59790 21350
L59880 21420
L59980 21350
" />
</g>
<g style="fill:#0000C2; fill-opacity:0.0; 
stroke:#0000C2; stroke-width:0; stroke-opacity:1; 
stroke-linecap:round; stroke-linejoin:round;">
</g>
<g style="fill:#008400; fill-opacity:0.0; 
stroke:#008400; stroke-width:0; stroke-opacity:1; 
stroke-linecap:round; stroke-linejoin:round;">
</g>
<g style="fill:#008400; fill-opacity:1.0; 
stroke:#008400; stroke-width:100; stroke-opacity:1; 
stroke-linecap:round; stroke-linejoin:round;">
<circle cx="27000" cy="22000" r="200" /> 
</g>
<g style="fill:#008400; fill-opacity:1.0; 
stroke:#008400; stroke-width:0; stroke-opacity:1; 
stroke-linecap:round; stroke-linejoin:round;">
</g>
<g style="fill:#008400; fill-opacity:1.0; 
stroke:#008400; stroke-width:100; stroke-opacity:1; 
stroke-linecap:round; stroke-linejoin:round;">
<circle cx="41500" cy="22000" r="200" /> 
</g>
<g style="fill:#008400; fill-opacity:1.0; 
stroke:#008400; stroke-width:0; stroke-opacity:1; 
stroke-linecap:round; stroke-linejoin:round;">
</g>
<g style="fill:#008400; fill-opacity:1.0; 
stroke:#008400; stroke-width:100; stroke-opacity:1; 
stroke-linecap:round; stroke-linejoin:round;">
<circle cx="41500" cy="29000" r="200" /> 
</g>
<g style="fill:#008400; fill-opacity:1.0; 
stroke:#008400; stroke-width:0; stroke-opacity:1; 
stroke-linecap:round; stroke-linejoin:round;">
</g>
<g style="fill:#008400; fill-opacity:1.0; 
stroke:#008400; stroke-width:100; stroke-opacity:1; 
stroke-linecap:round; stroke-linejoin:round;">
<circle cx="36000" cy="22000" r="200" /> 
</g>
<g style="fill:#008400; fill-opacity:1.0; 
stroke:#008400; stroke-width:0; stroke-opacity:1; 
stroke-linecap:round; stroke-linejoin:round;">
</g>
<g style="fill:#008400; fill-opacity:1.0; 
stroke:#008400; stroke-width:100; stroke-opacity:1; 
stroke-linecap:round; stroke-linejoin:round;">
<circle cx="39000" cy="22000" r="200" /> 
</g>
<g style="fill:#008400; fill-opacity:1.0; 
stroke:#008400; stroke-width:0; stroke-opacity:1; 
stroke-linecap:round; stroke-linejoin:round;">
</g>
<g style="fill:#008400; fill-opacity:1.0; 
stroke:#008400; stroke-width:100; stroke-opacity:1; 
stroke-linecap:round; stroke-linejoin:round;">
<circle cx="34000" cy="22000" r="200" /> 
</g> 
</svg>
