<?xml version="1.0" standalone="no"?>
 <!DOCTYPE svg PUBLIC "-//W3C//DTD SVG 1.1//EN" 
 "http://www.w3.org/Graphics/SVG/1.1/DTD/svg11.dtd"> 
<svg
  xmlns:svg="http://www.w3.org/2000/svg"
  xmlns="http://www.w3.org/2000/svg"
  xmlns:xlink="http://www.w3.org/1999/xlink"
  version="1.1"
  width="59.400440cm" height="41.998900cm" viewBox="0 0 233860 165350">
<title>SVG Picture created as mosfet_pwm.svg date 2020/12/25 17:32:18 </title>
  <desc>Picture generated by Eeschema-SVG </desc>
<g style="fill:#000000; fill-opacity:1;stroke:#000000; stroke-opacity:1;
stroke-linecap:round; stroke-linejoin:round;"
 transform="translate(0 0) scale(1 1)">
</g>
<g style="fill:#000000; fill-opacity:0.0; 
stroke:#000000; stroke-width:0; stroke-opacity:1; 
stroke-linecap:round; stroke-linejoin:round;">
<g >
</g>
<g style="fill:#840000; fill-opacity:0.0; 
stroke:#840000; stroke-width:0; stroke-opacity:1; 
stroke-linecap:round; stroke-linejoin:round;">
</g>
<g style="fill:#840000; fill-opacity:0.0; 
stroke:#840000; stroke-width:100; stroke-opacity:1; 
stroke-linecap:round; stroke-linejoin:round;">
<rect x="100100" y="44500" width="800" height="2000" rx="0" />
</g>
<g style="fill:#840000; fill-opacity:0.0; 
stroke:#840000; stroke-width:60; stroke-opacity:1; 
stroke-linecap:round; stroke-linejoin:round;">
<path d="M100500 44500
L100500 44000
" />
<path d="M100500 46500
L100500 47000
" />
</g>
<g style="fill:#008484; fill-opacity:0.0; 
stroke:#008484; stroke-width:60; stroke-opacity:1; 
stroke-linecap:round; stroke-linejoin:round;">
<text x="101720" y="45310"
textLength="990" font-size="660" lengthAdjust="spacingAndGlyphs"
text-anchor="middle" opacity="0">R1</text>
<path d="M101630 45280
L101470 45040
" />
<path d="M101350 45280
L101350 44780
L101540 44780
L101580 44810
L101610 44830
L101630 44880
L101630 44950
L101610 45000
L101580 45020
L101540 45040
L101350 45040
" />
<path d="M102110 45280
L101820 45280
" />
<path d="M101970 45280
L101970 44780
L101920 44850
L101870 44900
L101820 44920
" />
<text x="101910" y="46220"
textLength="1420" font-size="660" lengthAdjust="spacingAndGlyphs"
text-anchor="middle" opacity="0">10k</text>
<path d="M101610 46190
L101320 46190
" />
<path d="M101460 46190
L101460 45690
L101420 45760
L101370 45810
L101320 45830
" />
<path d="M101920 45690
L101960 45690
L102010 45720
L102040 45740
L102060 45790
L102080 45880
L102080 46000
L102060 46100
L102040 46140
L102010 46170
L101960 46190
L101920 46190
L101870 46170
L101850 46140
L101820 46100
L101800 46000
L101800 45880
L101820 45790
L101850 45740
L101870 45720
L101920 45690
" />
<path d="M102300 46190
L102300 45690
" />
<path d="M102350 46000
L102490 46190
" />
<path d="M102490 45860
L102300 46050
" />
</g>
</g>
<g style="fill:#008484; fill-opacity:0.0; 
stroke:#008484; stroke-width:0; stroke-opacity:1; 
stroke-linecap:round; stroke-linejoin:round;">
<g >
</g>
<g style="fill:#840000; fill-opacity:0.0; 
stroke:#840000; stroke-width:0; stroke-opacity:1; 
stroke-linecap:round; stroke-linejoin:round;">
</g>
<g style="fill:#840000; fill-opacity:0.0; 
stroke:#840000; stroke-width:60; stroke-opacity:1; 
stroke-linecap:round; stroke-linejoin:round;">
<path style="fill:#840000; fill-opacity:0.0; 
stroke:#840000; stroke-width:60; stroke-opacity:1; 
stroke-linecap:round; stroke-linejoin:round;fill:none"
d="M 105700,37000
106000,36500
" /> 
<path style="fill:#840000; fill-opacity:0.0; 
stroke:#840000; stroke-width:60; stroke-opacity:1; 
stroke-linecap:round; stroke-linejoin:round;fill:none"
d="M 106000,37500
106000,36500
" /> 
<path style="fill:#840000; fill-opacity:0.0; 
stroke:#840000; stroke-width:60; stroke-opacity:1; 
stroke-linecap:round; stroke-linejoin:round;fill:none"
d="M 106000,36500
106300,37000
" /> 
</g>
<g style="fill:#008484; fill-opacity:0.0; 
stroke:#008484; stroke-width:60; stroke-opacity:1; 
stroke-linecap:round; stroke-linejoin:round;">
<text x="106000" y="36040"
textLength="2870" font-size="660" lengthAdjust="spacingAndGlyphs"
text-anchor="middle" opacity="0">+24V_A</text>
<path d="M104710 35820
L105090 35820
" />
<path d="M104900 36010
L104900 35630
" />
<path d="M105300 35560
L105330 35540
L105380 35510
L105500 35510
L105540 35540
L105570 35560
L105590 35610
L105590 35650
L105570 35730
L105280 36010
L105590 36010
" />
<path d="M106020 35680
L106020 36010
" />
<path d="M105900 35490
L105780 35840
L106090 35840
" />
<path d="M106210 35510
L106380 36010
L106540 35510
" />
<path d="M106590 36060
L106970 36060
" />
<path d="M107070 35870
L107300 35870
" />
<path d="M107020 36010
L107190 35510
L107350 36010
" />
</g>
</g>
<g style="fill:#008484; fill-opacity:0.0; 
stroke:#008484; stroke-width:0; stroke-opacity:1; 
stroke-linecap:round; stroke-linejoin:round;">
<g >
</g>
<g style="fill:#840000; fill-opacity:0.0; 
stroke:#840000; stroke-width:0; stroke-opacity:1; 
stroke-linecap:round; stroke-linejoin:round;">
</g>
<g style="fill:#840000; fill-opacity:0.0; 
stroke:#840000; stroke-width:60; stroke-opacity:1; 
stroke-linecap:round; stroke-linejoin:round;">
<path style="fill:#840000; fill-opacity:0.0; 
stroke:#840000; stroke-width:60; stroke-opacity:1; 
stroke-linecap:round; stroke-linejoin:round;fill:none"
d="M 100500,51000
100500,51500
101000,51500
100500,52000
100000,51500
100500,51500
" /> 
</g>
<g style="fill:#008484; fill-opacity:0.0; 
stroke:#008484; stroke-width:60; stroke-opacity:1; 
stroke-linecap:round; stroke-linejoin:round;">
<text x="100550" y="53000"
textLength="2060" font-size="660" lengthAdjust="spacingAndGlyphs"
text-anchor="middle" opacity="0">GND1</text>
<path d="M99930 52500
L99880 52470
L99810 52470
L99740 52500
L99690 52540
L99660 52590
L99640 52690
L99640 52760
L99660 52850
L99690 52900
L99740 52950
L99810 52970
L99850 52970
L99930 52950
L99950 52920
L99950 52760
L99850 52760
" />
<path d="M100160 52970
L100160 52470
L100450 52970
L100450 52470
" />
<path d="M100690 52970
L100690 52470
L100810 52470
L100880 52500
L100930 52540
L100950 52590
L100970 52690
L100970 52760
L100950 52850
L100930 52900
L100880 52950
L100810 52970
L100690 52970
" />
<path d="M101450 52970
L101160 52970
" />
<path d="M101310 52970
L101310 52470
L101260 52540
L101210 52590
L101160 52610
" />
</g>
</g>
<g style="fill:#008484; fill-opacity:0.0; 
stroke:#008484; stroke-width:0; stroke-opacity:1; 
stroke-linecap:round; stroke-linejoin:round;">
<g >
</g>
<g style="fill:#840000; fill-opacity:0.0; 
stroke:#840000; stroke-width:0; stroke-opacity:1; 
stroke-linecap:round; stroke-linejoin:round;">
</g>
<g style="fill:#840000; fill-opacity:0.0; 
stroke:#840000; stroke-width:180; stroke-opacity:1; 
stroke-linecap:round; stroke-linejoin:round;">
<circle cx="85600" cy="43000" r="100" /> 
<circle cx="85600" cy="44000" r="100" /> 
<circle cx="85600" cy="48000" r="100" /> 
<circle cx="85600" cy="49000" r="110" /> 
<circle cx="85600" cy="45000" r="100" /> 
<circle cx="85600" cy="46000" r="100" /> 
<circle cx="85600" cy="47000" r="100" /> 
</g>
<g style="fill:#840000; fill-opacity:0.0; 
stroke:#840000; stroke-width:100; stroke-opacity:1; 
stroke-linecap:round; stroke-linejoin:round;">
<rect x="85250" y="42500" width="750" height="7000" rx="0" />
</g>
<g style="fill:#840000; fill-opacity:0.0; 
stroke:#840000; stroke-width:60; stroke-opacity:1; 
stroke-linecap:round; stroke-linejoin:round;">
<path style="fill:#840000; fill-opacity:0.0; 
stroke:#840000; stroke-width:60; stroke-opacity:1; 
stroke-linecap:round; stroke-linejoin:round;fill:none"
d="M 85600,43000
86000,43000
" /> 
<path style="fill:#840000; fill-opacity:0.0; 
stroke:#840000; stroke-width:60; stroke-opacity:1; 
stroke-linecap:round; stroke-linejoin:round;fill:none"
d="M 85600,44000
86000,44000
" /> 
<path style="fill:#840000; fill-opacity:0.0; 
stroke:#840000; stroke-width:60; stroke-opacity:1; 
stroke-linecap:round; stroke-linejoin:round;fill:none"
d="M 85600,48000
85950,48000
" /> 
<path style="fill:#840000; fill-opacity:0.0; 
stroke:#840000; stroke-width:60; stroke-opacity:1; 
stroke-linecap:round; stroke-linejoin:round;fill:none"
d="M 85600,49000
86000,49000
" /> 
<path style="fill:#840000; fill-opacity:0.0; 
stroke:#840000; stroke-width:60; stroke-opacity:1; 
stroke-linecap:round; stroke-linejoin:round;fill:none"
d="M 86000,45000
85600,45000
" /> 
<path style="fill:#840000; fill-opacity:0.0; 
stroke:#840000; stroke-width:60; stroke-opacity:1; 
stroke-linecap:round; stroke-linejoin:round;fill:none"
d="M 86000,46000
85600,46000
" /> 
<path style="fill:#840000; fill-opacity:0.0; 
stroke:#840000; stroke-width:60; stroke-opacity:1; 
stroke-linecap:round; stroke-linejoin:round;fill:none"
d="M 86000,47000
85600,47000
" /> 
<path d="M86000 43000
L87000 43000
" />
<text x="86500" y="42900"
textLength="540" font-size="660" lengthAdjust="spacingAndGlyphs"
text-anchor="middle" opacity="0">1</text>
<path d="M86640 42870
L86350 42870
" />
<path d="M86500 42870
L86500 42370
L86450 42440
L86400 42490
L86350 42510
" />
<path d="M86000 44000
L87000 44000
" />
<text x="86500" y="43900"
textLength="540" font-size="660" lengthAdjust="spacingAndGlyphs"
text-anchor="middle" opacity="0">2</text>
<path d="M86350 43420
L86380 43400
L86420 43370
L86540 43370
L86590 43400
L86610 43420
L86640 43470
L86640 43510
L86610 43590
L86330 43870
L86640 43870
" />
<path d="M86000 45000
L87000 45000
" />
<text x="86500" y="44900"
textLength="540" font-size="660" lengthAdjust="spacingAndGlyphs"
text-anchor="middle" opacity="0">3</text>
<path d="M86330 44370
L86640 44370
L86470 44560
L86540 44560
L86590 44590
L86610 44610
L86640 44660
L86640 44780
L86610 44820
L86590 44850
L86540 44870
L86400 44870
L86350 44850
L86330 44820
" />
<path d="M86000 46000
L87000 46000
" />
<text x="86500" y="45900"
textLength="540" font-size="660" lengthAdjust="spacingAndGlyphs"
text-anchor="middle" opacity="0">4</text>
<path d="M86590 45540
L86590 45870
" />
<path d="M86470 45350
L86350 45700
L86660 45700
" />
<path d="M86000 47000
L87000 47000
" />
<text x="86500" y="46900"
textLength="540" font-size="660" lengthAdjust="spacingAndGlyphs"
text-anchor="middle" opacity="0">5</text>
<path d="M86610 46370
L86380 46370
L86350 46610
L86380 46590
L86420 46560
L86540 46560
L86590 46590
L86610 46610
L86640 46660
L86640 46780
L86610 46820
L86590 46850
L86540 46870
L86420 46870
L86380 46850
L86350 46820
" />
<path d="M86000 48000
L87000 48000
" />
<text x="86500" y="47900"
textLength="540" font-size="660" lengthAdjust="spacingAndGlyphs"
text-anchor="middle" opacity="0">6</text>
<path d="M86590 47370
L86500 47370
L86450 47400
L86420 47420
L86380 47490
L86350 47590
L86350 47780
L86380 47820
L86400 47850
L86450 47870
L86540 47870
L86590 47850
L86610 47820
L86640 47780
L86640 47660
L86610 47610
L86590 47590
L86540 47560
L86450 47560
L86400 47590
L86380 47610
L86350 47660
" />
<path d="M86000 49000
L87000 49000
" />
<text x="86500" y="48900"
textLength="540" font-size="660" lengthAdjust="spacingAndGlyphs"
text-anchor="middle" opacity="0">7</text>
<path d="M86330 48370
L86660 48370
L86450 48870
" />
</g>
<g style="fill:#008484; fill-opacity:0.0; 
stroke:#008484; stroke-width:60; stroke-opacity:1; 
stroke-linecap:round; stroke-linejoin:round;">
<text x="86000" y="41770"
textLength="1040" font-size="660" lengthAdjust="spacingAndGlyphs"
text-anchor="middle" opacity="0">P1</text>
<path d="M85630 41740
L85630 41240
L85820 41240
L85860 41270
L85890 41290
L85910 41340
L85910 41410
L85890 41460
L85860 41480
L85820 41500
L85630 41500
" />
<path d="M86390 41740
L86100 41740
" />
<path d="M86250 41740
L86250 41240
L86200 41310
L86150 41360
L86100 41380
" />
<g transform="rotate(-90 84520 46000)">
<text x="84520" y="46250"
textLength="7200" font-size="660" lengthAdjust="spacingAndGlyphs"
text-anchor="middle" opacity="0">1x7_pins_header_rl</text>
</g>
<path d="M84740 49190
L84740 49470
" />
<path d="M84740 49330
L84240 49330
L84310 49380
L84360 49420
L84380 49470
" />
<path d="M84740 49020
L84410 48760
" />
<path d="M84410 49020
L84740 48760
" />
<path d="M84240 48610
L84240 48280
L84740 48500
" />
<path d="M84790 48210
L84790 47830
" />
<path d="M84410 47710
L84910 47710
" />
<path d="M84430 47710
L84410 47660
L84410 47570
L84430 47520
L84460 47500
L84500 47470
L84650 47470
L84690 47500
L84720 47520
L84740 47570
L84740 47660
L84720 47710
" />
<path d="M84740 47260
L84410 47260
" />
<path d="M84240 47260
L84270 47280
L84290 47260
L84270 47230
L84240 47260
L84290 47260
" />
<path d="M84410 47020
L84740 47020
" />
<path d="M84460 47020
L84430 47000
L84410 46950
L84410 46880
L84430 46830
L84480 46800
L84740 46800
" />
<path d="M84720 46590
L84740 46540
L84740 46450
L84720 46400
L84670 46380
L84650 46380
L84600 46400
L84570 46450
L84570 46520
L84550 46570
L84500 46590
L84480 46590
L84430 46570
L84410 46520
L84410 46450
L84430 46400
" />
<path d="M84790 46280
L84790 45900
" />
<path d="M84740 45780
L84240 45780
" />
<path d="M84740 45570
L84480 45570
L84430 45590
L84410 45640
L84410 45710
L84430 45760
L84460 45780
" />
<path d="M84720 45140
L84740 45190
L84740 45280
L84720 45330
L84670 45350
L84480 45350
L84430 45330
L84410 45280
L84410 45190
L84430 45140
L84480 45110
L84530 45110
L84570 45350
" />
<path d="M84740 44690
L84480 44690
L84430 44710
L84410 44760
L84410 44850
L84430 44900
" />
<path d="M84720 44690
L84740 44730
L84740 44850
L84720 44900
L84670 44920
L84620 44920
L84570 44900
L84550 44850
L84550 44730
L84530 44690
" />
<path d="M84740 44230
L84240 44230
" />
<path d="M84720 44230
L84740 44280
L84740 44380
L84720 44420
L84690 44450
L84650 44470
L84500 44470
L84460 44450
L84430 44420
L84410 44380
L84410 44280
L84430 44230
" />
<path d="M84720 43800
L84740 43850
L84740 43950
L84720 44000
L84670 44020
L84480 44020
L84430 44000
L84410 43950
L84410 43850
L84430 43800
L84480 43780
L84530 43780
L84570 44020
" />
<path d="M84740 43570
L84410 43570
" />
<path d="M84500 43570
L84460 43540
L84430 43520
L84410 43470
L84410 43420
" />
<path d="M84790 43380
L84790 43000
" />
<path d="M84740 42880
L84410 42880
" />
<path d="M84500 42880
L84460 42850
L84430 42830
L84410 42780
L84410 42730
" />
<path d="M84740 42500
L84720 42540
L84670 42570
L84240 42570
" />
</g>
</g>
<g style="fill:#008484; fill-opacity:0.0; 
stroke:#008484; stroke-width:0; stroke-opacity:1; 
stroke-linecap:round; stroke-linejoin:round;">
<g >
</g>
<g style="fill:#840000; fill-opacity:0.0; 
stroke:#840000; stroke-width:0; stroke-opacity:1; 
stroke-linecap:round; stroke-linejoin:round;">
</g>
<g style="fill:#840000; fill-opacity:0.0; 
stroke:#840000; stroke-width:60; stroke-opacity:1; 
stroke-linecap:round; stroke-linejoin:round;">
<path style="fill:#840000; fill-opacity:0.0; 
stroke:#840000; stroke-width:60; stroke-opacity:1; 
stroke-linecap:round; stroke-linejoin:round;fill:none"
d="M 87500,51000
87500,51500
88000,51500
87500,52000
87000,51500
87500,51500
" /> 
</g>
<g style="fill:#008484; fill-opacity:0.0; 
stroke:#008484; stroke-width:60; stroke-opacity:1; 
stroke-linecap:round; stroke-linejoin:round;">
<text x="87550" y="53000"
textLength="2060" font-size="660" lengthAdjust="spacingAndGlyphs"
text-anchor="middle" opacity="0">GND1</text>
<path d="M86930 52500
L86880 52470
L86810 52470
L86740 52500
L86690 52540
L86660 52590
L86640 52690
L86640 52760
L86660 52850
L86690 52900
L86740 52950
L86810 52970
L86850 52970
L86930 52950
L86950 52920
L86950 52760
L86850 52760
" />
<path d="M87160 52970
L87160 52470
L87450 52970
L87450 52470
" />
<path d="M87690 52970
L87690 52470
L87810 52470
L87880 52500
L87930 52540
L87950 52590
L87970 52690
L87970 52760
L87950 52850
L87930 52900
L87880 52950
L87810 52970
L87690 52970
" />
<path d="M88450 52970
L88160 52970
" />
<path d="M88310 52970
L88310 52470
L88260 52540
L88210 52590
L88160 52610
" />
</g>
</g>
<g style="fill:#008484; fill-opacity:0.0; 
stroke:#008484; stroke-width:0; stroke-opacity:1; 
stroke-linecap:round; stroke-linejoin:round;">
<g >
</g>
<g style="fill:#840000; fill-opacity:0.0; 
stroke:#840000; stroke-width:0; stroke-opacity:1; 
stroke-linecap:round; stroke-linejoin:round;">
</g>
<g style="fill:#840000; fill-opacity:0.0; 
stroke:#840000; stroke-width:100; stroke-opacity:1; 
stroke-linecap:round; stroke-linejoin:round;">
<path style="fill:#840000; fill-opacity:0.0; 
stroke:#840000; stroke-width:100; stroke-opacity:1; 
stroke-linecap:round; stroke-linejoin:round;fill:none"
d="M 94500,49000
93500,49000
" /> 
</g>
<g style="fill:#840000; fill-opacity:0.0; 
stroke:#840000; stroke-width:60; stroke-opacity:1; 
stroke-linecap:round; stroke-linejoin:round;">
<path style="fill:#840000; fill-opacity:0.0; 
stroke:#840000; stroke-width:60; stroke-opacity:1; 
stroke-linecap:round; stroke-linejoin:round;fill:none"
d="M 94000,49000
94000,48000
" /> 
</g>
<g style="fill:#840000; fill-opacity:0.0; 
stroke:#840000; stroke-width:100; stroke-opacity:1; 
stroke-linecap:round; stroke-linejoin:round;">
<path style="fill:#840000; fill-opacity:0.0; 
stroke:#840000; stroke-width:100; stroke-opacity:1; 
stroke-linecap:round; stroke-linejoin:round;fill:none"
d="M 94500,48000
93500,48000
94000,49000
Z" /> 
</g>
<g style="fill:#840000; fill-opacity:0.0; 
stroke:#840000; stroke-width:60; stroke-opacity:1; 
stroke-linecap:round; stroke-linejoin:round;">
<path style="fill:#840000; fill-opacity:0.0; 
stroke:#840000; stroke-width:60; stroke-opacity:1; 
stroke-linecap:round; stroke-linejoin:round;fill:none"
d="M 94300,49700
94900,50300
94900,50000
94900,50300
94600,50300
" /> 
<path style="fill:#840000; fill-opacity:0.0; 
stroke:#840000; stroke-width:60; stroke-opacity:1; 
stroke-linecap:round; stroke-linejoin:round;fill:none"
d="M 94300,49200
94900,49800
94900,49500
94900,49800
94600,49800
" /> 
<path d="M94000 49000
L94000 50000
" />
<path d="M94000 48000
L94000 47000
" />
</g>
<g style="fill:#008484; fill-opacity:0.0; 
stroke:#008484; stroke-width:60; stroke-opacity:1; 
stroke-linecap:round; stroke-linejoin:round;">
<text x="95700" y="48330"
textLength="1040" font-size="660" lengthAdjust="spacingAndGlyphs"
text-anchor="middle" opacity="0">D1</text>
<path d="M95330 48300
L95330 47800
L95450 47800
L95520 47830
L95560 47870
L95590 47920
L95610 48020
L95610 48090
L95590 48180
L95560 48230
L95520 48280
L95450 48300
L95330 48300
" />
<path d="M96090 48300
L95800 48300
" />
<path d="M95950 48300
L95950 47800
L95900 47870
L95850 47920
L95800 47940
" />
<text x="97800" y="49240"
textLength="5250" font-size="660" lengthAdjust="spacingAndGlyphs"
text-anchor="middle" opacity="0">LTL-42NGY8D</text>
<path d="M95560 49210
L95320 49210
L95320 48710
" />
<path d="M95650 48710
L95940 48710
" />
<path d="M95800 49210
L95800 48710
" />
<path d="M96340 49210
L96100 49210
L96100 48710
" />
<path d="M96510 49020
L96890 49020
" />
<path d="M97340 48880
L97340 49210
" />
<path d="M97220 48690
L97100 49040
L97410 49040
" />
<path d="M97580 48760
L97600 48740
L97650 48710
L97770 48710
L97820 48740
L97840 48760
L97870 48810
L97870 48850
L97840 48930
L97560 49210
L97870 49210
" />
<path d="M98080 49210
L98080 48710
L98370 49210
L98370 48710
" />
<path d="M98870 48740
L98820 48710
L98750 48710
L98680 48740
L98630 48780
L98600 48830
L98580 48930
L98580 49000
L98600 49090
L98630 49140
L98680 49190
L98750 49210
L98800 49210
L98870 49190
L98890 49160
L98890 49000
L98800 49000
" />
<path d="M99200 48970
L99200 49210
" />
<path d="M99030 48710
L99200 48970
L99370 48710
" />
<path d="M99600 48930
L99560 48900
L99530 48880
L99510 48830
L99510 48810
L99530 48760
L99560 48740
L99600 48710
L99700 48710
L99750 48740
L99770 48760
L99800 48810
L99800 48830
L99770 48880
L99750 48900
L99700 48930
L99600 48930
L99560 48950
L99530 48970
L99510 49020
L99510 49120
L99530 49160
L99560 49190
L99600 49210
L99700 49210
L99750 49190
L99770 49160
L99800 49120
L99800 49020
L99770 48970
L99750 48950
L99700 48930
" />
<path d="M100010 49210
L100010 48710
L100130 48710
L100200 48740
L100250 48780
L100270 48830
L100300 48930
L100300 49000
L100270 49090
L100250 49140
L100200 49190
L100130 49210
L100010 49210
" />
</g>
</g>
<g style="fill:#008484; fill-opacity:0.0; 
stroke:#008484; stroke-width:0; stroke-opacity:1; 
stroke-linecap:round; stroke-linejoin:round;">
<g >
</g>
<g style="fill:#840000; fill-opacity:0.0; 
stroke:#840000; stroke-width:0; stroke-opacity:1; 
stroke-linecap:round; stroke-linejoin:round;">
</g>
<g style="fill:#840000; fill-opacity:0.0; 
stroke:#840000; stroke-width:60; stroke-opacity:1; 
stroke-linecap:round; stroke-linejoin:round;">
<path style="fill:#840000; fill-opacity:0.0; 
stroke:#840000; stroke-width:60; stroke-opacity:1; 
stroke-linecap:round; stroke-linejoin:round;fill:none"
d="M 94000,51000
94000,51500
94500,51500
94000,52000
93500,51500
94000,51500
" /> 
</g>
<g style="fill:#008484; fill-opacity:0.0; 
stroke:#008484; stroke-width:60; stroke-opacity:1; 
stroke-linecap:round; stroke-linejoin:round;">
<text x="94050" y="53000"
textLength="2060" font-size="660" lengthAdjust="spacingAndGlyphs"
text-anchor="middle" opacity="0">GND1</text>
<path d="M93430 52500
L93380 52470
L93310 52470
L93240 52500
L93190 52540
L93160 52590
L93140 52690
L93140 52760
L93160 52850
L93190 52900
L93240 52950
L93310 52970
L93350 52970
L93430 52950
L93450 52920
L93450 52760
L93350 52760
" />
<path d="M93660 52970
L93660 52470
L93950 52970
L93950 52470
" />
<path d="M94190 52970
L94190 52470
L94310 52470
L94380 52500
L94430 52540
L94450 52590
L94470 52690
L94470 52760
L94450 52850
L94430 52900
L94380 52950
L94310 52970
L94190 52970
" />
<path d="M94950 52970
L94660 52970
" />
<path d="M94810 52970
L94810 52470
L94760 52540
L94710 52590
L94660 52610
" />
</g>
</g>
<g style="fill:#008484; fill-opacity:0.0; 
stroke:#008484; stroke-width:0; stroke-opacity:1; 
stroke-linecap:round; stroke-linejoin:round;">
<g >
</g>
<g style="fill:#840000; fill-opacity:0.0; 
stroke:#840000; stroke-width:0; stroke-opacity:1; 
stroke-linecap:round; stroke-linejoin:round;">
</g>
<g style="fill:#840000; fill-opacity:0.0; 
stroke:#840000; stroke-width:60; stroke-opacity:1; 
stroke-linecap:round; stroke-linejoin:round;">
<circle cx="114000" cy="43800" r="200" /> 
<circle cx="115000" cy="42200" r="200" /> 
<circle cx="113000" cy="42200" r="200" /> 
<path style="fill:#840000; fill-opacity:0.0; 
stroke:#840000; stroke-width:60; stroke-opacity:1; 
stroke-linecap:round; stroke-linejoin:round;fill:none"
d="M 113900,43600
113100,42350
" /> 
<path d="M113000 42000
L113000 41000
" />
<g transform="rotate(-90 113100 41500)">
<text x="113100" y="42000"
textLength="540" font-size="660" lengthAdjust="spacingAndGlyphs"
text-anchor="middle" opacity="0">1</text>
</g>
<path d="M113570 41350
L113570 41640
" />
<path d="M113570 41500
L113070 41500
L113140 41540
L113190 41590
L113210 41640
" />
<path d="M114000 44000
L114000 45000
" />
<g transform="rotate(-90 114100 44500)">
<text x="114100" y="45000"
textLength="540" font-size="660" lengthAdjust="spacingAndGlyphs"
text-anchor="middle" opacity="0">2</text>
</g>
<path d="M114120 44640
L114100 44610
L114070 44570
L114070 44450
L114100 44400
L114120 44380
L114170 44350
L114210 44350
L114290 44380
L114570 44660
L114570 44350
" />
<path d="M115000 42000
L115000 41000
" />
<g transform="rotate(-90 115100 41500)">
<text x="115100" y="42000"
textLength="540" font-size="660" lengthAdjust="spacingAndGlyphs"
text-anchor="middle" opacity="0">3</text>
</g>
<path d="M115070 41660
L115070 41350
L115260 41520
L115260 41450
L115290 41400
L115310 41380
L115360 41350
L115480 41350
L115520 41380
L115550 41400
L115570 41450
L115570 41590
L115550 41640
L115520 41660
" />
</g>
<g style="fill:#008484; fill-opacity:0.0; 
stroke:#008484; stroke-width:60; stroke-opacity:1; 
stroke-linecap:round; stroke-linejoin:round;">
<text x="113790" y="40220"
textLength="1580" font-size="660" lengthAdjust="spacingAndGlyphs"
text-anchor="middle" opacity="0">SW1</text>
<path d="M113120 40170
L113190 40190
L113310 40190
L113360 40170
L113380 40140
L113400 40100
L113400 40050
L113380 40000
L113360 39980
L113310 39950
L113210 39930
L113170 39910
L113140 39880
L113120 39830
L113120 39790
L113140 39740
L113170 39720
L113210 39690
L113330 39690
L113400 39720
" />
<path d="M113570 39690
L113690 40190
L113790 39830
L113880 40190
L114000 39690
" />
<path d="M114450 40190
L114170 40190
" />
<path d="M114310 40190
L114310 39690
L114260 39760
L114210 39810
L114170 39830
" />
<text x="114990" y="43220"
textLength="1990" font-size="660" lengthAdjust="spacingAndGlyphs"
text-anchor="middle" opacity="0">B144</text>
<path d="M114310 42930
L114380 42950
L114400 42980
L114430 43020
L114430 43100
L114400 43140
L114380 43170
L114330 43190
L114140 43190
L114140 42690
L114310 42690
L114350 42720
L114380 42740
L114400 42790
L114400 42830
L114380 42880
L114350 42910
L114310 42930
L114140 42930
" />
<path d="M114900 43190
L114620 43190
" />
<path d="M114760 43190
L114760 42690
L114710 42760
L114660 42810
L114620 42830
" />
<path d="M115330 42860
L115330 43190
" />
<path d="M115210 42670
L115090 43020
L115400 43020
" />
<path d="M115810 42860
L115810 43190
" />
<path d="M115690 42670
L115570 43020
L115880 43020
" />
</g>
</g>
<g style="fill:#008484; fill-opacity:0.0; 
stroke:#008484; stroke-width:0; stroke-opacity:1; 
stroke-linecap:round; stroke-linejoin:round;">
<g >
</g>
<g style="fill:#840000; fill-opacity:0.0; 
stroke:#840000; stroke-width:0; stroke-opacity:1; 
stroke-linecap:round; stroke-linejoin:round;">
</g>
<g style="fill:#840000; fill-opacity:0.0; 
stroke:#840000; stroke-width:100; stroke-opacity:1; 
stroke-linecap:round; stroke-linejoin:round;">
<circle cx="105650" cy="43000" r="1100" /> 
</g>
<g style="fill:#840000; fill-opacity:1.0; 
stroke:#840000; stroke-width:60; stroke-opacity:1; 
stroke-linecap:round; stroke-linejoin:round;">
<circle cx="106000" cy="43700" r="100" /> 
<circle cx="106000" cy="42300" r="100" /> 
</g>
<g style="fill:#840000; fill-opacity:0.0; 
stroke:#840000; stroke-width:60; stroke-opacity:1; 
stroke-linecap:round; stroke-linejoin:round;">
<path style="fill:#840000; fill-opacity:0.0; 
stroke:#840000; stroke-width:60; stroke-opacity:1; 
stroke-linecap:round; stroke-linejoin:round;fill:none"
d="M 105100,43000
104000,43000
" /> 
</g>
<g style="fill:#840000; fill-opacity:0.0; 
stroke:#840000; stroke-width:100; stroke-opacity:1; 
stroke-linecap:round; stroke-linejoin:round;">
<path style="fill:#840000; fill-opacity:0.0; 
stroke:#840000; stroke-width:100; stroke-opacity:1; 
stroke-linecap:round; stroke-linejoin:round;fill:none"
d="M 105100,42250
105100,43750
" /> 
<path style="fill:#840000; fill-opacity:0.0; 
stroke:#840000; stroke-width:100; stroke-opacity:1; 
stroke-linecap:round; stroke-linejoin:round;fill:none"
d="M 105300,43500
105300,43900
" /> 
<path style="fill:#840000; fill-opacity:0.0; 
stroke:#840000; stroke-width:100; stroke-opacity:1; 
stroke-linecap:round; stroke-linejoin:round;fill:none"
d="M 105300,42800
105300,43200
" /> 
<path style="fill:#840000; fill-opacity:0.0; 
stroke:#840000; stroke-width:100; stroke-opacity:1; 
stroke-linecap:round; stroke-linejoin:round;fill:none"
d="M 105300,42100
105300,42500
" /> 
</g>
<g style="fill:#840000; fill-opacity:0.0; 
stroke:#840000; stroke-width:60; stroke-opacity:1; 
stroke-linecap:round; stroke-linejoin:round;">
<path style="fill:#840000; fill-opacity:0.0; 
stroke:#840000; stroke-width:60; stroke-opacity:1; 
stroke-linecap:round; stroke-linejoin:round;fill:none"
d="M 106000,42000
106000,42300
" /> 
<path style="fill:#840000; fill-opacity:0.0; 
stroke:#840000; stroke-width:60; stroke-opacity:1; 
stroke-linecap:round; stroke-linejoin:round;fill:none"
d="M 106000,44000
106000,43000
105300,43000
" /> 
<path style="fill:#840000; fill-opacity:0.0; 
stroke:#840000; stroke-width:60; stroke-opacity:1; 
stroke-linecap:round; stroke-linejoin:round;fill:none"
d="M 105300,43700
106300,43700
106300,42300
105300,42300
" /> 
</g>
<g style="fill:#840000; fill-opacity:1.0; 
stroke:#840000; stroke-width:60; stroke-opacity:1; 
stroke-linecap:round; stroke-linejoin:round;">
<path style="fill:#840000; fill-opacity:1.0; 
stroke:#840000; stroke-width:60; stroke-opacity:1; 
stroke-linecap:round; stroke-linejoin:round;fill-rule:evenodd;"
d="M 105400,43000
105800,42850
105800,43150
Z" /> 
</g>
<g style="fill:#840000; fill-opacity:0.0; 
stroke:#840000; stroke-width:60; stroke-opacity:1; 
stroke-linecap:round; stroke-linejoin:round;">
<path style="fill:#840000; fill-opacity:0.0; 
stroke:#840000; stroke-width:60; stroke-opacity:1; 
stroke-linecap:round; stroke-linejoin:round;fill:none"
d="M 106100,42800
106150,42850
106450,42850
106500,42900
" /> 
<path style="fill:#840000; fill-opacity:0.0; 
stroke:#840000; stroke-width:60; stroke-opacity:1; 
stroke-linecap:round; stroke-linejoin:round;fill:none"
d="M 106300,42850
106150,43100
106450,43100
Z" /> 
<path d="M104000 43000
L103000 43000
" />
<text x="103500" y="43600"
textLength="540" font-size="660" lengthAdjust="spacingAndGlyphs"
text-anchor="middle" opacity="0">1</text>
<path d="M103640 43570
L103350 43570
" />
<path d="M103500 43570
L103500 43070
L103450 43140
L103400 43190
L103350 43210
" />
<path d="M106000 44000
L106000 45000
" />
<g transform="rotate(-90 106100 44500)">
<text x="106100" y="45000"
textLength="540" font-size="660" lengthAdjust="spacingAndGlyphs"
text-anchor="middle" opacity="0">2</text>
</g>
<path d="M106120 44640
L106100 44610
L106070 44570
L106070 44450
L106100 44400
L106120 44380
L106170 44350
L106210 44350
L106290 44380
L106570 44660
L106570 44350
" />
<path d="M106000 42000
L106000 41000
" />
<g transform="rotate(-90 106100 41500)">
<text x="106100" y="42000"
textLength="540" font-size="660" lengthAdjust="spacingAndGlyphs"
text-anchor="middle" opacity="0">3</text>
</g>
<path d="M106070 41660
L106070 41350
L106260 41520
L106260 41450
L106290 41400
L106310 41380
L106360 41350
L106480 41350
L106520 41380
L106550 41400
L106570 41450
L106570 41590
L106550 41640
L106520 41660
" />
</g>
<g style="fill:#008484; fill-opacity:0.0; 
stroke:#008484; stroke-width:60; stroke-opacity:1; 
stroke-linecap:round; stroke-linejoin:round;">
<text x="107570" y="42810"
textLength="1060" font-size="660" lengthAdjust="spacingAndGlyphs"
text-anchor="middle" opacity="0">Q1</text>
<path d="M107520 42830
L107470 42810
L107420 42760
L107350 42690
L107300 42660
L107260 42660
" />
<path d="M107280 42780
L107230 42760
L107180 42710
L107160 42610
L107160 42450
L107180 42350
L107230 42310
L107280 42280
L107370 42280
L107420 42310
L107470 42350
L107490 42450
L107490 42610
L107470 42710
L107420 42760
L107370 42780
L107280 42780
" />
<path d="M107970 42780
L107680 42780
" />
<path d="M107830 42780
L107830 42280
L107780 42350
L107730 42400
L107680 42420
" />
<text x="109570" y="43720"
textLength="5060" font-size="660" lengthAdjust="spacingAndGlyphs"
text-anchor="middle" opacity="0">DMN3023L-7</text>
<path d="M107180 43690
L107180 43190
L107300 43190
L107370 43220
L107420 43260
L107450 43310
L107470 43410
L107470 43480
L107450 43570
L107420 43620
L107370 43670
L107300 43690
L107180 43690
" />
<path d="M107680 43690
L107680 43190
L107850 43550
L108020 43190
L108020 43690
" />
<path d="M108260 43690
L108260 43190
L108540 43690
L108540 43190
" />
<path d="M108730 43190
L109040 43190
L108870 43380
L108950 43380
L108990 43410
L109020 43430
L109040 43480
L109040 43600
L109020 43640
L108990 43670
L108950 43690
L108800 43690
L108760 43670
L108730 43640
" />
<path d="M109350 43190
L109400 43190
L109450 43220
L109470 43240
L109490 43290
L109520 43380
L109520 43500
L109490 43600
L109470 43640
L109450 43670
L109400 43690
L109350 43690
L109300 43670
L109280 43640
L109260 43600
L109230 43500
L109230 43380
L109260 43290
L109280 43240
L109300 43220
L109350 43190
" />
<path d="M109710 43240
L109730 43220
L109780 43190
L109900 43190
L109950 43220
L109970 43240
L109990 43290
L109990 43330
L109970 43410
L109680 43690
L109990 43690
" />
<path d="M110160 43190
L110470 43190
L110300 43380
L110370 43380
L110420 43410
L110450 43430
L110470 43480
L110470 43600
L110450 43640
L110420 43670
L110370 43690
L110230 43690
L110180 43670
L110160 43640
" />
<path d="M110920 43690
L110680 43690
L110680 43190
" />
<path d="M111090 43500
L111470 43500
" />
<path d="M111660 43190
L111990 43190
L111780 43690
" />
</g>
</g>
<g style="fill:#008484; fill-opacity:0.0; 
stroke:#008484; stroke-width:0; stroke-opacity:1; 
stroke-linecap:round; stroke-linejoin:round;">
<g >
</g>
<g style="fill:#840000; fill-opacity:0.0; 
stroke:#840000; stroke-width:0; stroke-opacity:1; 
stroke-linecap:round; stroke-linejoin:round;">
</g>
<g style="fill:#FFFFC2; fill-opacity:0.0; 
stroke:#FFFFC2; stroke-width:0; stroke-opacity:1; 
stroke-linecap:round; stroke-linejoin:round;">
</g>
<g style="fill:#FFFFC2; fill-opacity:0.6; 
stroke:#FFFFC2; stroke-width:0; stroke-opacity:1; 
stroke-linecap:round; stroke-linejoin:round;">
<rect x="107500" y="37500" width="1000" height="2000" rx="0" />
</g>
<g style="fill:#840000; fill-opacity:0.6; 
stroke:#840000; stroke-width:0; stroke-opacity:1; 
stroke-linecap:round; stroke-linejoin:round;">
</g>
<g style="fill:#840000; fill-opacity:0.0; 
stroke:#840000; stroke-width:100; stroke-opacity:1; 
stroke-linecap:round; stroke-linejoin:round;">
<rect x="107500" y="37500" width="1000" height="2000" rx="0" />
</g>
<g style="fill:#840000; fill-opacity:0.0; 
stroke:#840000; stroke-width:60; stroke-opacity:1; 
stroke-linecap:round; stroke-linejoin:round;">
<circle cx="108000" cy="39000" r="250" /> 
<circle cx="108000" cy="38000" r="250" /> 
</g>
<g style="fill:#840000; fill-opacity:0.0; 
stroke:#840000; stroke-width:100; stroke-opacity:1; 
stroke-linecap:round; stroke-linejoin:round;">
<rect x="107500" y="37500" width="1000" height="2000" rx="0" />
</g>
<g style="fill:#840000; fill-opacity:0.0; 
stroke:#840000; stroke-width:60; stroke-opacity:1; 
stroke-linecap:round; stroke-linejoin:round;">
<path style="fill:#840000; fill-opacity:0.0; 
stroke:#840000; stroke-width:60; stroke-opacity:1; 
stroke-linecap:round; stroke-linejoin:round;fill:none"
d="M 107790,38870
108130,39200
" /> 
<path style="fill:#840000; fill-opacity:0.0; 
stroke:#840000; stroke-width:60; stroke-opacity:1; 
stroke-linecap:round; stroke-linejoin:round;fill:none"
d="M 107790,37870
108130,38200
" /> 
<path style="fill:#840000; fill-opacity:0.0; 
stroke:#840000; stroke-width:60; stroke-opacity:1; 
stroke-linecap:round; stroke-linejoin:round;fill:none"
d="M 107860,38800
108200,39130
" /> 
<path style="fill:#840000; fill-opacity:0.0; 
stroke:#840000; stroke-width:60; stroke-opacity:1; 
stroke-linecap:round; stroke-linejoin:round;fill:none"
d="M 107860,37800
108200,38130
" /> 
<path d="M107500 38000
L106000 38000
" />
<text x="106750" y="37900"
textLength="540" font-size="660" lengthAdjust="spacingAndGlyphs"
text-anchor="middle" opacity="0">1</text>
<path d="M106890 37870
L106600 37870
" />
<path d="M106750 37870
L106750 37370
L106700 37440
L106650 37490
L106600 37510
" />
<path d="M107500 39000
L106000 39000
" />
<text x="106750" y="38900"
textLength="540" font-size="660" lengthAdjust="spacingAndGlyphs"
text-anchor="middle" opacity="0">2</text>
<path d="M106600 38420
L106630 38400
L106670 38370
L106790 38370
L106840 38400
L106860 38420
L106890 38470
L106890 38510
L106860 38590
L106580 38870
L106890 38870
" />
</g>
<g style="fill:#008484; fill-opacity:0.0; 
stroke:#008484; stroke-width:60; stroke-opacity:1; 
stroke-linecap:round; stroke-linejoin:round;">
<text x="109260" y="38350"
textLength="920" font-size="660" lengthAdjust="spacingAndGlyphs"
text-anchor="middle" opacity="0">J1</text>
<path d="M109090 37820
L109090 38180
L109060 38250
L109020 38300
L108950 38320
L108900 38320
" />
<path d="M109590 38320
L109300 38320
" />
<path d="M109450 38320
L109450 37820
L109400 37890
L109350 37940
L109300 37960
" />
<text x="112970" y="39260"
textLength="8350" font-size="660" lengthAdjust="spacingAndGlyphs"
text-anchor="middle" opacity="0">1x2_screw_term_block</text>
<path d="M109200 39230
L108920 39230
" />
<path d="M109060 39230
L109060 38730
L109010 38800
L108970 38850
L108920 38870
" />
<path d="M109370 39230
L109630 38900
" />
<path d="M109370 38900
L109630 39230
" />
<path d="M109800 38780
L109820 38760
L109870 38730
L109990 38730
L110040 38760
L110060 38780
L110080 38830
L110080 38870
L110060 38950
L109770 39230
L110080 39230
" />
<path d="M110180 39280
L110560 39280
" />
<path d="M110660 39210
L110700 39230
L110800 39230
L110850 39210
L110870 39160
L110870 39140
L110850 39090
L110800 39060
L110730 39060
L110680 39040
L110660 38990
L110660 38970
L110680 38920
L110730 38900
L110800 38900
L110850 38920
" />
<path d="M111300 39210
L111250 39230
L111160 39230
L111110 39210
L111080 39180
L111060 39140
L111060 38990
L111080 38950
L111110 38920
L111160 38900
L111250 38900
L111300 38920
" />
<path d="M111510 39230
L111510 38900
" />
<path d="M111510 38990
L111540 38950
L111560 38920
L111610 38900
L111660 38900
" />
<path d="M112010 39210
L111970 39230
L111870 39230
L111820 39210
L111800 39160
L111800 38970
L111820 38920
L111870 38900
L111970 38900
L112010 38920
L112040 38970
L112040 39020
L111800 39060
" />
<path d="M112200 38900
L112300 39230
L112390 38990
L112490 39230
L112580 38900
" />
<path d="M112660 39280
L113040 39280
" />
<path d="M113080 38900
L113270 38900
" />
<path d="M113160 38730
L113160 39160
L113180 39210
L113230 39230
L113270 39230
" />
<path d="M113630 39210
L113580 39230
L113490 39230
L113440 39210
L113420 39160
L113420 38970
L113440 38920
L113490 38900
L113580 38900
L113630 38920
L113660 38970
L113660 39020
L113420 39060
" />
<path d="M113870 39230
L113870 38900
" />
<path d="M113870 38990
L113890 38950
L113920 38920
L113970 38900
L114010 38900
" />
<path d="M114180 39230
L114180 38900
" />
<path d="M114180 38950
L114200 38920
L114250 38900
L114320 38900
L114370 38920
L114390 38970
L114390 39230
" />
<path d="M114390 38970
L114420 38920
L114470 38900
L114540 38900
L114580 38920
L114610 38970
L114610 39230
" />
<path d="M114730 39280
L115110 39280
" />
<path d="M115230 39230
L115230 38730
" />
<path d="M115230 38920
L115270 38900
L115370 38900
L115420 38920
L115440 38950
L115470 38990
L115470 39140
L115440 39180
L115420 39210
L115370 39230
L115270 39230
L115230 39210
" />
<path d="M115750 39230
L115700 39210
L115680 39160
L115680 38730
" />
<path d="M116010 39230
L115970 39210
L115940 39180
L115920 39140
L115920 38990
L115940 38950
L115970 38920
L116010 38900
L116080 38900
L116130 38920
L116160 38950
L116180 38990
L116180 39140
L116160 39180
L116130 39210
L116080 39230
L116010 39230
" />
<path d="M116610 39210
L116560 39230
L116470 39230
L116420 39210
L116390 39180
L116370 39140
L116370 38990
L116390 38950
L116420 38920
L116470 38900
L116560 38900
L116610 38920
" />
<path d="M116820 39230
L116820 38730
" />
<path d="M116870 39040
L117010 39230
" />
<path d="M117010 38900
L116820 39090
" />
</g>
</g>
<g style="fill:#008484; fill-opacity:0.0; 
stroke:#008484; stroke-width:0; stroke-opacity:1; 
stroke-linecap:round; stroke-linejoin:round;">
<g >
</g>
<g style="fill:#840000; fill-opacity:0.0; 
stroke:#840000; stroke-width:0; stroke-opacity:1; 
stroke-linecap:round; stroke-linejoin:round;">
</g>
<g style="fill:#840000; fill-opacity:0.0; 
stroke:#840000; stroke-width:60; stroke-opacity:1; 
stroke-linecap:round; stroke-linejoin:round;">
<path style="fill:#840000; fill-opacity:0.0; 
stroke:#840000; stroke-width:60; stroke-opacity:1; 
stroke-linecap:round; stroke-linejoin:round;fill:none"
d="M 106000,51000
106000,51500
106500,51500
106000,52000
105500,51500
106000,51500
" /> 
</g>
<g style="fill:#008484; fill-opacity:0.0; 
stroke:#008484; stroke-width:60; stroke-opacity:1; 
stroke-linecap:round; stroke-linejoin:round;">
<text x="106050" y="53000"
textLength="2390" font-size="660" lengthAdjust="spacingAndGlyphs"
text-anchor="middle" opacity="0">GND_A</text>
<path d="M105260 52500
L105210 52470
L105140 52470
L105070 52500
L105020 52540
L105000 52590
L104970 52690
L104970 52760
L105000 52850
L105020 52900
L105070 52950
L105140 52970
L105190 52970
L105260 52950
L105280 52920
L105280 52760
L105190 52760
" />
<path d="M105500 52970
L105500 52470
L105780 52970
L105780 52470
" />
<path d="M106020 52970
L106020 52470
L106140 52470
L106210 52500
L106260 52540
L106280 52590
L106310 52690
L106310 52760
L106280 52850
L106260 52900
L106210 52950
L106140 52970
L106020 52970
" />
<path d="M106400 53020
L106780 53020
" />
<path d="M106880 52830
L107120 52830
" />
<path d="M106830 52970
L107000 52470
L107160 52970
" />
</g>
</g>
<g style="fill:#008484; fill-opacity:0.0; 
stroke:#008484; stroke-width:0; stroke-opacity:1; 
stroke-linecap:round; stroke-linejoin:round;">
<g >
</g>
<g style="fill:#840000; fill-opacity:0.0; 
stroke:#840000; stroke-width:0; stroke-opacity:1; 
stroke-linecap:round; stroke-linejoin:round;">
</g>
<g style="fill:#840000; fill-opacity:0.0; 
stroke:#840000; stroke-width:100; stroke-opacity:1; 
stroke-linecap:round; stroke-linejoin:round;">
<rect x="93600" y="44500" width="800" height="2000" rx="0" />
</g>
<g style="fill:#840000; fill-opacity:0.0; 
stroke:#840000; stroke-width:60; stroke-opacity:1; 
stroke-linecap:round; stroke-linejoin:round;">
<path d="M94000 44500
L94000 44000
" />
<path d="M94000 46500
L94000 47000
" />
</g>
<g style="fill:#008484; fill-opacity:0.0; 
stroke:#008484; stroke-width:60; stroke-opacity:1; 
stroke-linecap:round; stroke-linejoin:round;">
<text x="95220" y="45310"
textLength="1040" font-size="660" lengthAdjust="spacingAndGlyphs"
text-anchor="middle" opacity="0">R7</text>
<path d="M95130 45280
L94970 45040
" />
<path d="M94850 45280
L94850 44780
L95040 44780
L95080 44810
L95110 44830
L95130 44880
L95130 44950
L95110 45000
L95080 45020
L95040 45040
L94850 45040
" />
<path d="M95300 44780
L95630 44780
L95420 45280
" />
<text x="95440" y="46220"
textLength="1490" font-size="660" lengthAdjust="spacingAndGlyphs"
text-anchor="middle" opacity="0">430</text>
<path d="M95050 45860
L95050 46190
" />
<path d="M94940 45670
L94820 46020
L95130 46020
" />
<path d="M95270 45690
L95580 45690
L95410 45880
L95480 45880
L95530 45910
L95550 45930
L95580 45980
L95580 46100
L95550 46140
L95530 46170
L95480 46190
L95340 46190
L95290 46170
L95270 46140
" />
<path d="M95890 45690
L95940 45690
L95980 45720
L96010 45740
L96030 45790
L96050 45880
L96050 46000
L96030 46100
L96010 46140
L95980 46170
L95940 46190
L95890 46190
L95840 46170
L95820 46140
L95790 46100
L95770 46000
L95770 45880
L95790 45790
L95820 45740
L95840 45720
L95890 45690
" />
</g>
</g>
<g style="fill:#008484; fill-opacity:0.0; 
stroke:#008484; stroke-width:60; stroke-opacity:1; 
stroke-linecap:round; stroke-linejoin:round;">
</g>
<g style="fill:#008400; fill-opacity:0.0; 
stroke:#008400; stroke-width:60; stroke-opacity:1; 
stroke-linecap:round; stroke-linejoin:round;">
<path d="M87000 45000
L88500 45000
" />
<path d="M87000 44000
L88500 44000
" />
<path d="M87000 43000
L88500 43000
" />
<path d="M94000 44000
L94000 43000
" />
<path d="M87000 46000
L88500 46000
" />
<path d="M94000 50000
L94000 51000
" />
<path d="M87000 47000
L88500 47000
" />
<path d="M94000 43000
L100500 43000
" />
<path d="M87000 48000
L88500 48000
" />
<path d="M87000 49000
L87500 49000
" />
<path d="M94000 43000
L93000 43000
" />
<path d="M87500 49000
L87500 51000
" />
<path d="M106000 40500
L113000 40500
" />
<path d="M116500 45500
L114000 45500
" />
<path d="M106000 45500
L106000 45000
" />
<path d="M106000 39000
L106000 40500
" />
<path d="M106000 51000
L106000 45500
" />
<path d="M106000 38000
L106000 37500
" />
<path d="M100500 51000
L100500 47000
" />
<path d="M100500 43000
L100500 44000
" />
<path d="M106000 41000
L106000 40500
" />
<path d="M103000 43000
L100500 43000
" />
<path d="M114000 45500
L114000 45000
" />
<path d="M106000 45500
L114000 45500
" />
<path d="M113000 41000
L113000 40500
" />
<path d="M115000 41000
L115000 40500
" />
<path d="M115000 40500
L116500 40500
" />
<path d="M116500 40500
L116500 45500
" />
</g>
<g style="fill:#000000; fill-opacity:0.0; 
stroke:#000000; stroke-width:60; stroke-opacity:1; 
stroke-linecap:round; stroke-linejoin:round;">
<text x="88500" y="43900"
textLength="1420" font-size="660" lengthAdjust="spacingAndGlyphs"
text-anchor="start" opacity="0">ch2</text>
<path d="M88860 43850
L88810 43870
L88720 43870
L88670 43850
L88640 43820
L88620 43780
L88620 43630
L88640 43590
L88670 43560
L88720 43540
L88810 43540
L88860 43560
" />
<path d="M89070 43870
L89070 43370
" />
<path d="M89290 43870
L89290 43610
L89260 43560
L89220 43540
L89140 43540
L89100 43560
L89070 43590
" />
<path d="M89500 43420
L89530 43400
L89570 43370
L89690 43370
L89740 43400
L89760 43420
L89790 43470
L89790 43510
L89760 43590
L89480 43870
L89790 43870
" />
<text x="93000" y="42900"
textLength="1420" font-size="660" lengthAdjust="spacingAndGlyphs"
text-anchor="end" opacity="0">ch1</text>
<path d="M91940 42850
L91890 42870
L91800 42870
L91750 42850
L91730 42820
L91700 42780
L91700 42630
L91730 42590
L91750 42560
L91800 42540
L91890 42540
L91940 42560
" />
<path d="M92160 42870
L92160 42370
" />
<path d="M92370 42870
L92370 42610
L92350 42560
L92300 42540
L92230 42540
L92180 42560
L92160 42590
" />
<path d="M92870 42870
L92580 42870
" />
<path d="M92730 42870
L92730 42370
L92680 42440
L92630 42490
L92580 42510
" />
<text x="88500" y="47900"
textLength="1420" font-size="660" lengthAdjust="spacingAndGlyphs"
text-anchor="start" opacity="0">ch6</text>
<path d="M88860 47850
L88810 47870
L88720 47870
L88670 47850
L88640 47820
L88620 47780
L88620 47630
L88640 47590
L88670 47560
L88720 47540
L88810 47540
L88860 47560
" />
<path d="M89070 47870
L89070 47370
" />
<path d="M89290 47870
L89290 47610
L89260 47560
L89220 47540
L89140 47540
L89100 47560
L89070 47590
" />
<path d="M89740 47370
L89640 47370
L89600 47400
L89570 47420
L89530 47490
L89500 47590
L89500 47780
L89530 47820
L89550 47850
L89600 47870
L89690 47870
L89740 47850
L89760 47820
L89790 47780
L89790 47660
L89760 47610
L89740 47590
L89690 47560
L89600 47560
L89550 47590
L89530 47610
L89500 47660
" />
<text x="88500" y="46900"
textLength="1420" font-size="660" lengthAdjust="spacingAndGlyphs"
text-anchor="start" opacity="0">ch5</text>
<path d="M88860 46850
L88810 46870
L88720 46870
L88670 46850
L88640 46820
L88620 46780
L88620 46630
L88640 46590
L88670 46560
L88720 46540
L88810 46540
L88860 46560
" />
<path d="M89070 46870
L89070 46370
" />
<path d="M89290 46870
L89290 46610
L89260 46560
L89220 46540
L89140 46540
L89100 46560
L89070 46590
" />
<path d="M89760 46370
L89530 46370
L89500 46610
L89530 46590
L89570 46560
L89690 46560
L89740 46590
L89760 46610
L89790 46660
L89790 46780
L89760 46820
L89740 46850
L89690 46870
L89570 46870
L89530 46850
L89500 46820
" />
<text x="88500" y="45900"
textLength="1420" font-size="660" lengthAdjust="spacingAndGlyphs"
text-anchor="start" opacity="0">ch4</text>
<path d="M88860 45850
L88810 45870
L88720 45870
L88670 45850
L88640 45820
L88620 45780
L88620 45630
L88640 45590
L88670 45560
L88720 45540
L88810 45540
L88860 45560
" />
<path d="M89070 45870
L89070 45370
" />
<path d="M89290 45870
L89290 45610
L89260 45560
L89220 45540
L89140 45540
L89100 45560
L89070 45590
" />
<path d="M89740 45540
L89740 45870
" />
<path d="M89620 45350
L89500 45700
L89810 45700
" />
<text x="88500" y="44900"
textLength="1420" font-size="660" lengthAdjust="spacingAndGlyphs"
text-anchor="start" opacity="0">ch3</text>
<path d="M88860 44850
L88810 44870
L88720 44870
L88670 44850
L88640 44820
L88620 44780
L88620 44630
L88640 44590
L88670 44560
L88720 44540
L88810 44540
L88860 44560
" />
<path d="M89070 44870
L89070 44370
" />
<path d="M89290 44870
L89290 44610
L89260 44560
L89220 44540
L89140 44540
L89100 44560
L89070 44590
" />
<path d="M89480 44370
L89790 44370
L89620 44560
L89690 44560
L89740 44590
L89760 44610
L89790 44660
L89790 44780
L89760 44820
L89740 44850
L89690 44870
L89550 44870
L89500 44850
L89480 44820
" />
<text x="88500" y="42900"
textLength="1420" font-size="660" lengthAdjust="spacingAndGlyphs"
text-anchor="start" opacity="0">ch1</text>
<path d="M88860 42850
L88810 42870
L88720 42870
L88670 42850
L88640 42820
L88620 42780
L88620 42630
L88640 42590
L88670 42560
L88720 42540
L88810 42540
L88860 42560
" />
<path d="M89070 42870
L89070 42370
" />
<path d="M89290 42870
L89290 42610
L89260 42560
L89220 42540
L89140 42540
L89100 42560
L89070 42590
" />
<path d="M89790 42870
L89500 42870
" />
<path d="M89640 42870
L89640 42370
L89600 42440
L89550 42490
L89500 42510
" />
</g>
<g style="fill:#0000C2; fill-opacity:0.0; 
stroke:#0000C2; stroke-width:60; stroke-opacity:1; 
stroke-linecap:round; stroke-linejoin:round;">
<text x="95000" y="50900"
textLength="3870" font-size="660" lengthAdjust="spacingAndGlyphs"
text-anchor="start" opacity="0">green LED</text>
<path d="M95360 50540
L95360 50940
L95330 50990
L95310 51010
L95260 51040
L95190 51040
L95140 51010
" />
<path d="M95360 50850
L95310 50870
L95220 50870
L95170 50850
L95140 50820
L95120 50780
L95120 50630
L95140 50590
L95170 50560
L95220 50540
L95310 50540
L95360 50560
" />
<path d="M95600 50870
L95600 50540
" />
<path d="M95600 50630
L95620 50590
L95640 50560
L95690 50540
L95740 50540
" />
<path d="M96100 50850
L96050 50870
L95950 50870
L95910 50850
L95880 50800
L95880 50610
L95910 50560
L95950 50540
L96050 50540
L96100 50560
L96120 50610
L96120 50660
L95880 50700
" />
<path d="M96530 50850
L96480 50870
L96380 50870
L96330 50850
L96310 50800
L96310 50610
L96330 50560
L96380 50540
L96480 50540
L96530 50560
L96550 50610
L96550 50660
L96310 50700
" />
<path d="M96760 50540
L96760 50870
" />
<path d="M96760 50590
L96790 50560
L96830 50540
L96910 50540
L96950 50560
L96980 50610
L96980 50870
" />
<path d="M97830 50870
L97600 50870
L97600 50370
" />
<path d="M98000 50610
L98170 50610
" />
<path d="M98240 50870
L98000 50870
L98000 50370
L98240 50370
" />
<path d="M98450 50870
L98450 50370
L98570 50370
L98640 50400
L98690 50440
L98720 50490
L98740 50590
L98740 50660
L98720 50750
L98690 50800
L98640 50850
L98570 50870
L98450 50870
" />
<text x="86500" y="38470"
textLength="1940" font-size="660" lengthAdjust="spacingAndGlyphs"
text-anchor="start" opacity="0">input</text>
<path d="M86640 38440
L86640 38110
" />
<path d="M86640 37940
L86620 37970
L86640 37990
L86670 37970
L86640 37940
L86640 37990
" />
<path d="M86880 38110
L86880 38440
" />
<path d="M86880 38160
L86910 38130
L86950 38110
L87030 38110
L87070 38130
L87100 38180
L87100 38440
" />
<path d="M87330 38110
L87330 38610
" />
<path d="M87330 38130
L87380 38110
L87480 38110
L87530 38130
L87550 38160
L87570 38200
L87570 38350
L87550 38390
L87530 38420
L87480 38440
L87380 38440
L87330 38420
" />
<path d="M88000 38110
L88000 38440
" />
<path d="M87790 38110
L87790 38370
L87810 38420
L87860 38440
L87930 38440
L87980 38420
L88000 38390
" />
<path d="M88170 38110
L88360 38110
" />
<path d="M88240 37940
L88240 38370
L88260 38420
L88310 38440
L88360 38440
" />
<text x="86500" y="39280"
textLength="2700" font-size="660" lengthAdjust="spacingAndGlyphs"
text-anchor="start" opacity="0">control</text>
<path d="M86860 39230
L86810 39250
L86720 39250
L86670 39230
L86640 39200
L86620 39160
L86620 39010
L86640 38970
L86670 38940
L86720 38920
L86810 38920
L86860 38940
" />
<path d="M87140 39250
L87100 39230
L87070 39200
L87050 39160
L87050 39010
L87070 38970
L87100 38940
L87140 38920
L87220 38920
L87260 38940
L87290 38970
L87310 39010
L87310 39160
L87290 39200
L87260 39230
L87220 39250
L87140 39250
" />
<path d="M87530 38920
L87530 39250
" />
<path d="M87530 38970
L87550 38940
L87600 38920
L87670 38920
L87720 38940
L87740 38990
L87740 39250
" />
<path d="M87910 38920
L88100 38920
" />
<path d="M87980 38750
L87980 39180
L88000 39230
L88050 39250
L88100 39250
" />
<path d="M88260 39250
L88260 38920
" />
<path d="M88260 39010
L88290 38970
L88310 38940
L88360 38920
L88410 38920
" />
<path d="M88640 39250
L88600 39230
L88570 39200
L88550 39160
L88550 39010
L88570 38970
L88600 38940
L88640 38920
L88720 38920
L88760 38940
L88790 38970
L88810 39010
L88810 39160
L88790 39200
L88760 39230
L88720 39250
L88640 39250
" />
<path d="M89100 39250
L89050 39230
L89030 39180
L89030 38750
" />
<text x="86500" y="40090"
textLength="2320" font-size="660" lengthAdjust="spacingAndGlyphs"
text-anchor="start" opacity="0">signal</text>
<path d="M86620 40040
L86670 40060
L86760 40060
L86810 40040
L86830 39990
L86830 39970
L86810 39920
L86760 39890
L86690 39890
L86640 39870
L86620 39820
L86620 39800
L86640 39750
L86690 39730
L86760 39730
L86810 39750
" />
<path d="M87050 40060
L87050 39730
" />
<path d="M87050 39560
L87030 39590
L87050 39610
L87070 39590
L87050 39560
L87050 39610
" />
<path d="M87500 39730
L87500 40130
L87480 40180
L87450 40200
L87410 40230
L87330 40230
L87290 40200
" />
<path d="M87500 40040
L87450 40060
L87360 40060
L87310 40040
L87290 40010
L87260 39970
L87260 39820
L87290 39780
L87310 39750
L87360 39730
L87450 39730
L87500 39750
" />
<path d="M87740 39730
L87740 40060
" />
<path d="M87740 39780
L87760 39750
L87810 39730
L87880 39730
L87930 39750
L87950 39800
L87950 40060
" />
<path d="M88410 40060
L88410 39800
L88380 39750
L88330 39730
L88240 39730
L88190 39750
" />
<path d="M88410 40040
L88360 40060
L88240 40060
L88190 40040
L88170 39990
L88170 39940
L88190 39890
L88240 39870
L88360 39870
L88410 39850
" />
<path d="M88720 40060
L88670 40040
L88640 39990
L88640 39560
" />
<text x="86500" y="40900"
textLength="2370" font-size="660" lengthAdjust="spacingAndGlyphs"
text-anchor="start" opacity="0">(PWM)</text>
<path d="M86790 41060
L86760 41040
L86720 40970
L86690 40920
L86670 40850
L86640 40730
L86640 40630
L86670 40510
L86690 40440
L86720 40400
L86760 40320
L86790 40300
" />
<path d="M86980 40870
L86980 40370
L87170 40370
L87220 40400
L87240 40420
L87260 40470
L87260 40540
L87240 40590
L87220 40610
L87170 40630
L86980 40630
" />
<path d="M87430 40370
L87550 40870
L87640 40510
L87740 40870
L87860 40370
" />
<path d="M88050 40870
L88050 40370
L88220 40730
L88380 40370
L88380 40870
" />
<path d="M88570 41060
L88600 41040
L88640 40970
L88670 40920
L88690 40850
L88720 40730
L88720 40630
L88690 40510
L88670 40440
L88640 40400
L88600 40320
L88570 40300
" />
<text x="110000" y="36590"
textLength="5850" font-size="660" lengthAdjust="spacingAndGlyphs"
text-anchor="start" opacity="0">thermoelectric </text>
<path d="M110070 36230
L110260 36230
" />
<path d="M110140 36060
L110140 36490
L110170 36540
L110220 36560
L110260 36560
" />
<path d="M110430 36560
L110430 36060
" />
<path d="M110640 36560
L110640 36300
L110620 36250
L110570 36230
L110500 36230
L110450 36250
L110430 36280
" />
<path d="M111070 36540
L111030 36560
L110930 36560
L110880 36540
L110860 36490
L110860 36300
L110880 36250
L110930 36230
L111030 36230
L111070 36250
L111100 36300
L111100 36350
L110860 36390
" />
<path d="M111310 36560
L111310 36230
" />
<path d="M111310 36320
L111330 36280
L111360 36250
L111410 36230
L111450 36230
" />
<path d="M111620 36560
L111620 36230
" />
<path d="M111620 36280
L111640 36250
L111690 36230
L111760 36230
L111810 36250
L111830 36300
L111830 36560
" />
<path d="M111830 36300
L111860 36250
L111910 36230
L111980 36230
L112030 36250
L112050 36300
L112050 36560
" />
<path d="M112360 36560
L112310 36540
L112290 36510
L112260 36470
L112260 36320
L112290 36280
L112310 36250
L112360 36230
L112430 36230
L112480 36250
L112500 36280
L112530 36320
L112530 36470
L112500 36510
L112480 36540
L112430 36560
L112360 36560
" />
<path d="M112930 36540
L112880 36560
L112790 36560
L112740 36540
L112720 36490
L112720 36300
L112740 36250
L112790 36230
L112880 36230
L112930 36250
L112950 36300
L112950 36350
L112720 36390
" />
<path d="M113240 36560
L113190 36540
L113170 36490
L113170 36060
" />
<path d="M113620 36540
L113570 36560
L113480 36560
L113430 36540
L113410 36490
L113410 36300
L113430 36250
L113480 36230
L113570 36230
L113620 36250
L113640 36300
L113640 36350
L113410 36390
" />
<path d="M114070 36540
L114030 36560
L113930 36560
L113880 36540
L113860 36510
L113830 36470
L113830 36320
L113860 36280
L113880 36250
L113930 36230
L114030 36230
L114070 36250
" />
<path d="M114220 36230
L114410 36230
" />
<path d="M114290 36060
L114290 36490
L114310 36540
L114360 36560
L114410 36560
" />
<path d="M114570 36560
L114570 36230
" />
<path d="M114570 36320
L114600 36280
L114620 36250
L114670 36230
L114720 36230
" />
<path d="M114880 36560
L114880 36230
" />
<path d="M114880 36060
L114860 36090
L114880 36110
L114910 36090
L114880 36060
L114880 36110
" />
<path d="M115330 36540
L115290 36560
L115190 36560
L115140 36540
L115120 36510
L115100 36470
L115100 36320
L115120 36280
L115140 36250
L115190 36230
L115290 36230
L115330 36250
" />
<text x="110000" y="37400"
textLength="5460" font-size="660" lengthAdjust="spacingAndGlyphs"
text-anchor="start" opacity="0">valve actuator</text>
<path d="M110100 37040
L110220 37370
L110330 37040
" />
<path d="M110740 37370
L110740 37110
L110720 37060
L110670 37040
L110570 37040
L110530 37060
" />
<path d="M110740 37350
L110690 37370
L110570 37370
L110530 37350
L110500 37300
L110500 37250
L110530 37200
L110570 37180
L110690 37180
L110740 37160
" />
<path d="M111050 37370
L111000 37350
L110980 37300
L110980 36870
" />
<path d="M111190 37040
L111310 37370
L111430 37040
" />
<path d="M111810 37350
L111760 37370
L111670 37370
L111620 37350
L111600 37300
L111600 37110
L111620 37060
L111670 37040
L111760 37040
L111810 37060
L111830 37110
L111830 37160
L111600 37200
" />
<path d="M112640 37370
L112640 37110
L112620 37060
L112570 37040
L112480 37040
L112430 37060
" />
<path d="M112640 37350
L112600 37370
L112480 37370
L112430 37350
L112410 37300
L112410 37250
L112430 37200
L112480 37180
L112600 37180
L112640 37160
" />
<path d="M113100 37350
L113050 37370
L112950 37370
L112910 37350
L112880 37320
L112860 37280
L112860 37130
L112880 37090
L112910 37060
L112950 37040
L113050 37040
L113100 37060
" />
<path d="M113240 37040
L113430 37040
" />
<path d="M113310 36870
L113310 37300
L113330 37350
L113380 37370
L113430 37370
" />
<path d="M113810 37040
L113810 37370
" />
<path d="M113600 37040
L113600 37300
L113620 37350
L113670 37370
L113740 37370
L113790 37350
L113810 37320
" />
<path d="M114260 37370
L114260 37110
L114240 37060
L114190 37040
L114100 37040
L114050 37060
" />
<path d="M114260 37350
L114220 37370
L114100 37370
L114050 37350
L114030 37300
L114030 37250
L114050 37200
L114100 37180
L114220 37180
L114260 37160
" />
<path d="M114430 37040
L114620 37040
" />
<path d="M114500 36870
L114500 37300
L114530 37350
L114570 37370
L114620 37370
" />
<path d="M114860 37370
L114810 37350
L114790 37320
L114760 37280
L114760 37130
L114790 37090
L114810 37060
L114860 37040
L114930 37040
L114980 37060
L115000 37090
L115030 37130
L115030 37280
L115000 37320
L114980 37350
L114930 37370
L114860 37370
" />
<path d="M115240 37370
L115240 37040
" />
<path d="M115240 37130
L115260 37090
L115290 37060
L115330 37040
L115380 37040
" />
</g>
<g style="fill:#0000C2; fill-opacity:0.0; 
stroke:#0000C2; stroke-width:0; stroke-opacity:1; 
stroke-linecap:round; stroke-linejoin:round;">
</g>
<g style="fill:#008400; fill-opacity:0.0; 
stroke:#008400; stroke-width:0; stroke-opacity:1; 
stroke-linecap:round; stroke-linejoin:round;">
</g>
<g style="fill:#008400; fill-opacity:1.0; 
stroke:#008400; stroke-width:100; stroke-opacity:1; 
stroke-linecap:round; stroke-linejoin:round;">
<circle cx="106000" cy="45500" r="200" /> 
</g>
<g style="fill:#008400; fill-opacity:1.0; 
stroke:#008400; stroke-width:0; stroke-opacity:1; 
stroke-linecap:round; stroke-linejoin:round;">
</g>
<g style="fill:#008400; fill-opacity:1.0; 
stroke:#008400; stroke-width:100; stroke-opacity:1; 
stroke-linecap:round; stroke-linejoin:round;">
<circle cx="114000" cy="45500" r="200" /> 
</g>
<g style="fill:#008400; fill-opacity:1.0; 
stroke:#008400; stroke-width:0; stroke-opacity:1; 
stroke-linecap:round; stroke-linejoin:round;">
</g>
<g style="fill:#008400; fill-opacity:1.0; 
stroke:#008400; stroke-width:100; stroke-opacity:1; 
stroke-linecap:round; stroke-linejoin:round;">
<circle cx="94000" cy="43000" r="200" /> 
</g>
<g style="fill:#008400; fill-opacity:1.0; 
stroke:#008400; stroke-width:0; stroke-opacity:1; 
stroke-linecap:round; stroke-linejoin:round;">
</g>
<g style="fill:#008400; fill-opacity:1.0; 
stroke:#008400; stroke-width:100; stroke-opacity:1; 
stroke-linecap:round; stroke-linejoin:round;">
<circle cx="106000" cy="40500" r="200" /> 
</g>
<g style="fill:#008400; fill-opacity:1.0; 
stroke:#008400; stroke-width:0; stroke-opacity:1; 
stroke-linecap:round; stroke-linejoin:round;">
</g>
<g style="fill:#008400; fill-opacity:1.0; 
stroke:#008400; stroke-width:100; stroke-opacity:1; 
stroke-linecap:round; stroke-linejoin:round;">
<circle cx="100500" cy="43000" r="200" /> 
</g> 
</svg>
