<svg xmlns="http://www.w3.org/2000/svg" width="800" height="176.25"><g fill="none" stroke="#F7941E" stroke-miterlimit="10"><path d="M80 112.5V111"/><path stroke-dasharray="2.9394,2.9394" d="M80 108.06V15.47"/><path d="M80 14v-1.5"/></g><g fill="none" stroke="#F7941E" stroke-miterlimit="10"><path d="M100 112.5V111"/><path stroke-dasharray="2.9394,2.9394" d="M100 108.06V15.47"/><path d="M100 14v-1.5"/></g><g fill="none" stroke="#F7941E" stroke-miterlimit="10"><path d="M120 112.5V111"/><path stroke-dasharray="2.9394,2.9394" d="M120 108.06V15.47"/><path d="M120 14v-1.5"/></g><g fill="none" stroke="#F7941E" stroke-miterlimit="10"><path d="M280 112.5V111"/><path stroke-dasharray="2.9394,2.9394" d="M280 108.06V15.47"/><path d="M280 14v-1.5"/></g><g fill="none" stroke="#F7941E" stroke-miterlimit="10"><path d="M300 112.5V111"/><path stroke-dasharray="2.9394,2.9394" d="M300 108.06V15.47"/><path d="M300 14v-1.5"/></g><g fill="none" stroke="#F7941E" stroke-miterlimit="10"><path d="M460 112.5V111"/><path stroke-dasharray="2.9394,2.9394" d="M460 108.06V15.47"/><path d="M460 14v-1.5"/></g><g fill="none" stroke="#F7941E" stroke-miterlimit="10"><path d="M480 112.5V111"/><path stroke-dasharray="2.9394,2.9394" d="M480 108.06V15.47"/><path d="M480 14v-1.5"/></g><g fill="none" stroke="#F7941E" stroke-miterlimit="10"><path d="M640 112.5V111"/><path stroke-dasharray="2.9394,2.9394" d="M640 108.06V15.47"/><path d="M640 14v-1.5"/></g><g fill="none" stroke="#F7941E" stroke-miterlimit="10"><path d="M660 112.5V111"/><path stroke-dasharray="2.9394,2.9394" d="M660 108.06V15.47"/><path d="M660 14v-1.5"/></g><g fill="none" stroke="#F7941E" stroke-miterlimit="10"><path d="M680 112.5V111"/><path stroke-dasharray="2.9394,2.9394" d="M680 108.06V15.47"/><path d="M680 14v-1.5"/></g><g fill="none" stroke="#F7941E" stroke-miterlimit="10"><path d="M700 112.5V111"/><path stroke-dasharray="2.9394,2.9394" d="M700 108.06V15.47"/><path d="M700 14v-1.5"/></g><path fill="#00A14B" stroke="#000" stroke-miterlimit="10" d="M80 112.5h20v30H80z"/><path fill="none" stroke="#000" stroke-miterlimit="10" d="M120 112.5h160v30H120z"/><path fill="#27AAE1" stroke="#000" stroke-miterlimit="10" d="M280 112.5h20v30h-20zM460 112.5h20v30h-20zM640 112.5h20v30h-20z"/><path fill="#ED1C24" stroke="#000" stroke-miterlimit="10" d="M680 112.5h20v30h-20z"/><path fill="none" stroke="#000" stroke-miterlimit="10" d="M300 112.5h160v30H300zM480 112.5h160v30H480z"/><path fill="#FFDE17" stroke="#000" stroke-miterlimit="10" d="M260 112.5h20v30h-20z"/><path fill="none" stroke="#000" stroke-linecap="round" stroke-miterlimit="10" d="M20 32.5h70M302.5 32.5h15M292.5 52.5h25M317.5 32.5l5 20M317.5 52.5l5-20M322.5 32.5h15M337.5 32.5l5 20M322.5 52.5h15M337.5 52.5l5-20M342.5 32.5h15M357.5 32.5l5 20M342.5 52.5h15M357.5 52.5l5-20M362.5 32.5h15M377.5 32.5l5 20M362.5 52.5h15M377.5 52.5l5-20M382.5 32.5h15M397.5 32.5l5 20M382.5 52.5h15M397.5 52.5l5-20M422.5 32.5h15M437.5 32.5l5 20M422.5 52.5h15M437.5 52.5l5-20M402.5 32.5h15M417.5 32.5l5 20M402.5 52.5h15M417.5 52.5l5-20M442.5 32.5h15M442.5 52.5h35M122.5 32.5h15M137.5 32.5l5 20M90 52.5h47.5M137.5 52.5l5-20M142.5 32.5h15M157.5 32.5l5 20M142.5 52.5h15M157.5 52.5l5-20M162.5 32.5h15M177.5 32.5l5 20M162.5 52.5h15M177.5 52.5l5-20M182.5 32.5h15M197.5 32.5l5 20M182.5 52.5h15M197.5 52.5l5-20M202.5 32.5h15M217.5 32.5l5 20M202.5 52.5h15M217.5 52.5l5-20M222.5 32.5h15M237.5 32.5l5 20M222.5 52.5h15M237.5 52.5l5-20M242.5 32.5h15M257.5 32.5l5 20M277.5 32.5l2.5 10M242.5 52.5h15M257.5 52.5l5-20M300 42.5l2.5-10M262.5 32.5h15M262.5 52.5H300M280 42.5v10M90 32.5v20M300 42.5v10M120 42.5l2.5-10M120 42.5v10M457.5 32.5l2.5 10M460 42.5v10M482.5 32.5h15M472.5 52.5h25M497.5 32.5l5 20M497.5 52.5l5-20M502.5 32.5h15M517.5 32.5l5 20M502.5 52.5h15M517.5 52.5l5-20M522.5 32.5h15M537.5 32.5l5 20M522.5 52.5h15M537.5 52.5l5-20M542.5 32.5h15M557.5 32.5l5 20M542.5 52.5h15M557.5 52.5l5-20M562.5 32.5h15M577.5 32.5l5 20M562.5 52.5h15M577.5 52.5l5-20M602.5 32.5h15M617.5 32.5l5 20M602.5 52.5h15M617.5 52.5l5-20M582.5 32.5h15M597.5 32.5l5 20M582.5 52.5h15M597.5 52.5l5-20M622.5 32.5h15M622.5 52.5H690M480 42.5l2.5-10M480 42.5v10M637.5 32.5l2.5 10M640 42.5v10M690 32.5v20M690 32.5h77.5"/><text transform="translate(244.5 45)" font-family="Arial, Helvetica, sans-serif" font-size="9">A0</text><text transform="translate(224.5 45)" font-family="Arial, Helvetica, sans-serif" font-size="9">A1</text><text transform="translate(204.5 45)" font-family="Arial, Helvetica, sans-serif" font-size="9">A2</text><text transform="translate(184.5 45)" font-family="Arial, Helvetica, sans-serif" font-size="9">A3</text><text transform="translate(164.5 45)" font-family="Arial, Helvetica, sans-serif" font-size="9">A4</text><text transform="translate(144.5 45)" font-family="Arial, Helvetica, sans-serif" font-size="9">A5</text><text transform="translate(124.5 45)" font-family="Arial, Helvetica, sans-serif" font-size="9">A6</text><text transform="translate(262.22 45)" font-family="Arial, Helvetica, sans-serif" font-size="8">R/W</text><text transform="translate(281.78 45)" font-family="Arial, Helvetica, sans-serif" font-size="8">ACK</text><text transform="translate(424.25 45)" font-family="Arial, Helvetica, sans-serif" font-size="9">D1</text><text transform="translate(404.25 45)" font-family="Arial, Helvetica, sans-serif" font-size="9">D2</text><text transform="translate(384.25 45)" font-family="Arial, Helvetica, sans-serif" font-size="9">D3</text><text transform="translate(364.25 45)" font-family="Arial, Helvetica, sans-serif" font-size="9">D4</text><text transform="translate(344.25 45)" font-family="Arial, Helvetica, sans-serif" font-size="9">D5</text><text transform="translate(324.25 45)" font-family="Arial, Helvetica, sans-serif" font-size="9">D6</text><text transform="translate(304.25 45)" font-family="Arial, Helvetica, sans-serif" font-size="9">D7</text><text transform="translate(444.25 45)" font-family="Arial, Helvetica, sans-serif" font-size="9">D0</text><text transform="translate(461.78 45)" font-family="Arial, Helvetica, sans-serif" font-size="8">ACK</text><text transform="translate(604.25 45)" font-family="Arial, Helvetica, sans-serif" font-size="9">D1</text><text transform="translate(584.25 45)" font-family="Arial, Helvetica, sans-serif" font-size="9">D2</text><text transform="translate(564.25 45)" font-family="Arial, Helvetica, sans-serif" font-size="9">D3</text><text transform="translate(544.25 45)" font-family="Arial, Helvetica, sans-serif" font-size="9">D4</text><text transform="translate(524.25 45)" font-family="Arial, Helvetica, sans-serif" font-size="9">D5</text><text transform="translate(504.25 45)" font-family="Arial, Helvetica, sans-serif" font-size="9">D6</text><text transform="translate(484.25 45)" font-family="Arial, Helvetica, sans-serif" font-size="9">D7</text><text transform="translate(624.25 45)" font-family="Arial, Helvetica, sans-serif" font-size="9">D0</text><text transform="translate(641.78 45)" font-family="Arial, Helvetica, sans-serif" font-size="8">ACK</text><text transform="translate(262.22 130)" font-family="Arial, Helvetica, sans-serif" font-size="8">R/W</text><text transform="translate(158.05 130)" font-family="Arial, Helvetica, sans-serif" font-size="10">7-bit Address</text><text transform="translate(87.33 130)" fill="#FFF" font-family="Arial, Helvetica, sans-serif" font-size="8">S</text><text transform="translate(355.69 130)" font-family="Arial, Helvetica, sans-serif" font-size="10">Data Byte</text><text transform="translate(538.19 130)" font-family="Arial, Helvetica, sans-serif" font-size="10">Data Byte</text><text transform="translate(281.33 130)" fill="#FFF" font-family="Arial, Helvetica, sans-serif" font-size="8">ACK</text><text transform="translate(461.33 130)" fill="#FFF" font-family="Arial, Helvetica, sans-serif" font-size="8">ACK</text><text transform="translate(641.33 130)" fill="#FFF" font-family="Arial, Helvetica, sans-serif" font-size="8">ACK</text><text transform="translate(687.33 130)" fill="#FFF" font-family="Arial, Helvetica, sans-serif" font-size="8">S</text><text transform="translate(19.72 25)" font-family="Arial, Helvetica, sans-serif" font-size="10">SDA</text><text transform="translate(20.27 65)" font-family="Arial, Helvetica, sans-serif" font-size="10">SCL</text><text transform="translate(749.72 25)" font-family="Arial, Helvetica, sans-serif" font-size="10">SDA</text><text transform="translate(750.27 65)" font-family="Arial, Helvetica, sans-serif" font-size="10">SCL</text><text transform="translate(237.77 163.75)" font-family="Arial, Helvetica, sans-serif" font-size="10">Read/Write Bit</text><path fill="none" stroke="#000" stroke-miterlimit="10" d="M270 152.5v-8.75"/><text transform="translate(56.93 163.75)" font-family="Arial, Helvetica, sans-serif" font-size="10">Start Condition</text><path fill="none" stroke="#000" stroke-miterlimit="10" d="M90 152.5v-8.75"/><text transform="translate(657.2 163.75)" font-family="Arial, Helvetica, sans-serif" font-size="10">Stop Condition</text><path fill="none" stroke="#000" stroke-miterlimit="10" d="M690 152.5v-8.75"/><text transform="translate(437.21 163.75)" font-family="Arial, Helvetica, sans-serif" font-size="10">ACK/NACK Bit</text><path fill="none" stroke="#000" stroke-miterlimit="10" d="M470 152.5v-8.75"/></svg>